<?xml version="1.0" encoding="UTF-8"?>
<!DOCTYPE svg PUBLIC "-//W3C//DTD SVG 1.1//EN" "http://www.w3.org/Graphics/SVG/1.1/DTD/svg11.dtd">
<svg xmlns="http://www.w3.org/2000/svg" version="1.1" width="512px" height="512px" style="shape-rendering:geometricPrecision; text-rendering:geometricPrecision; image-rendering:optimizeQuality; fill-rule:evenodd; clip-rule:evenodd" xmlns:xlink="http://www.w3.org/1999/xlink">
<g><path style="opacity:1" fill="#b46f1d" d="M 232.5,-0.5 C 247.833,-0.5 263.167,-0.5 278.5,-0.5C 368.144,10.3879 435.644,54.7213 481,132.5C 495.073,158.553 504.24,186.22 508.5,215.5C 508.631,216.239 508.464,216.906 508,217.5C 451.139,160.973 394.639,104.139 338.5,47C 337.563,46.3083 336.897,46.475 336.5,47.5C 320.952,32.2618 302.285,26.0952 280.5,29C 271.691,31.1002 263.357,34.2669 255.5,38.5C 230.984,24.5102 206.984,25.3435 183.5,41C 170.487,51.8586 162.82,65.6919 160.5,82.5C 131.1,88.3996 113.6,106.066 108,135.5C 106.366,150.462 109.533,164.295 117.5,177C 112.346,182.822 107.18,188.655 102,194.5C 82.4364,233.634 90.6031,265.634 126.5,290.5C 122.078,301.054 120.411,312.054 121.5,323.5C 98.0602,330.109 84.2269,345.442 80,369.5C 79.5,393.498 79.3334,417.498 79.5,441.5C 32.8317,397.161 6.16501,342.828 -0.5,278.5C -0.5,263.167 -0.5,247.833 -0.5,232.5C 10.3875,142.857 54.7208,75.3573 132.5,30C 163.971,13.3053 197.304,3.1386 232.5,-0.5 Z"/></g>
<g><path style="opacity:1" fill="#e7d078" d="M 255.5,38.5 C 255.5,66.1667 255.5,93.8333 255.5,121.5C 235.965,150.829 208.798,161.495 174,153.5C 162.845,158.301 158.012,166.801 159.5,179C 159.613,187.581 160.447,196.081 162,204.5C 166.422,213.297 173.588,217.297 183.5,216.5C 188.01,229.856 194.344,242.189 202.5,253.5C 202.5,276.5 202.5,299.5 202.5,322.5C 183.833,322.5 165.167,322.5 146.5,322.5C 138.133,322.295 129.8,322.629 121.5,323.5C 120.411,312.054 122.078,301.054 126.5,290.5C 90.6031,265.634 82.4364,233.634 102,194.5C 107.18,188.655 112.346,182.822 117.5,177C 109.533,164.295 106.366,150.462 108,135.5C 113.6,106.066 131.1,88.3996 160.5,82.5C 162.82,65.6919 170.487,51.8586 183.5,41C 206.984,25.3435 230.984,24.5102 255.5,38.5 Z"/></g>
<g><path style="opacity:1" fill="#d5bf6d" d="M 336.5,47.5 C 345.034,57.2378 350.367,68.5712 352.5,81.5C 390.699,91.5743 407.866,116.241 404,155.5C 402.181,163.466 399.014,170.8 394.5,177.5C 418.7,197.272 426.534,222.272 418,252.5C 411.815,269.019 400.982,281.519 385.5,290C 390.771,300.526 392.771,311.692 391.5,323.5C 382.199,322.613 372.866,322.279 363.5,322.5C 345.5,322.5 327.5,322.5 309.5,322.5C 309.5,299.167 309.5,275.833 309.5,252.5C 317.199,241.774 323.366,230.107 328,217.5C 337.444,217.616 344.444,213.616 349,205.5C 350.945,195.779 352.112,185.946 352.5,176C 352.033,165.539 347.199,158.039 338,153.5C 302.822,161.803 275.322,151.136 255.5,121.5C 255.5,93.8333 255.5,66.1667 255.5,38.5C 263.357,34.2669 271.691,31.1002 280.5,29C 302.285,26.0952 320.952,32.2618 336.5,47.5 Z"/></g>
<g><path style="opacity:1" fill="#9b5e15" d="M 508.5,215.5 C 509.573,221.156 510.573,226.823 511.5,232.5C 511.5,247.833 511.5,263.167 511.5,278.5C 504.835,342.828 478.168,397.161 431.5,441.5C 431.667,417.164 431.5,392.831 431,368.5C 426.478,345.817 413.312,330.817 391.5,323.5C 392.771,311.692 390.771,300.526 385.5,290C 400.982,281.519 411.815,269.019 418,252.5C 426.534,222.272 418.7,197.272 394.5,177.5C 399.014,170.8 402.181,163.466 404,155.5C 407.866,116.241 390.699,91.5743 352.5,81.5C 350.367,68.5712 345.034,57.2378 336.5,47.5C 336.897,46.475 337.563,46.3083 338.5,47C 394.639,104.139 451.139,160.973 508,217.5C 508.464,216.906 508.631,216.239 508.5,215.5 Z"/></g>
<g><path style="opacity:1" fill="#fec296" d="M 255.5,121.5 C 255.5,174.167 255.5,226.833 255.5,279.5C 234.244,278.038 216.577,269.372 202.5,253.5C 194.344,242.189 188.01,229.856 183.5,216.5C 173.588,217.297 166.422,213.297 162,204.5C 160.447,196.081 159.613,187.581 159.5,179C 158.012,166.801 162.845,158.301 174,153.5C 208.798,161.495 235.965,150.829 255.5,121.5 Z"/></g>
<g><path style="opacity:1" fill="#eaa677" d="M 255.5,121.5 C 275.322,151.136 302.822,161.803 338,153.5C 347.199,158.039 352.033,165.539 352.5,176C 352.112,185.946 350.945,195.779 349,205.5C 344.444,213.616 337.444,217.616 328,217.5C 323.366,230.107 317.199,241.774 309.5,252.5C 295.471,269.131 277.471,278.464 255.5,280.5C 255.5,294.5 255.5,308.5 255.5,322.5C 237.833,322.5 220.167,322.5 202.5,322.5C 202.5,299.5 202.5,276.5 202.5,253.5C 216.577,269.372 234.244,278.038 255.5,279.5C 255.5,226.833 255.5,174.167 255.5,121.5 Z"/></g>
<g><path style="opacity:1" fill="#d38c5a" d="M 309.5,252.5 C 309.5,275.833 309.5,299.167 309.5,322.5C 291.5,322.5 273.5,322.5 255.5,322.5C 255.5,308.5 255.5,294.5 255.5,280.5C 277.471,278.464 295.471,269.131 309.5,252.5 Z"/></g>
<g><path style="opacity:1" fill="#182341" d="M 146.5,322.5 C 182.628,345.736 218.961,368.736 255.5,391.5C 255.5,431.5 255.5,471.5 255.5,511.5C 247.833,511.5 240.167,511.5 232.5,511.5C 177.3,505.728 128.633,484.895 86.5,449C 83.9614,446.63 81.6281,444.13 79.5,441.5C 79.3334,417.498 79.5,393.498 80,369.5C 84.2269,345.442 98.0602,330.109 121.5,323.5C 129.8,322.629 138.133,322.295 146.5,322.5 Z"/></g>
<g><path style="opacity:1" fill="#ffc296" d="M 146.5,322.5 C 165.167,322.5 183.833,322.5 202.5,322.5C 220.167,322.5 237.833,322.5 255.5,322.5C 255.5,345.5 255.5,368.5 255.5,391.5C 218.961,368.736 182.628,345.736 146.5,322.5 Z"/></g>
<g><path style="opacity:1" fill="#eaa577" d="M 255.5,322.5 C 273.5,322.5 291.5,322.5 309.5,322.5C 327.5,322.5 345.5,322.5 363.5,322.5C 327.875,345.985 291.875,368.985 255.5,391.5C 255.5,368.5 255.5,345.5 255.5,322.5 Z"/></g>
<g><path style="opacity:1" fill="#121b32" d="M 363.5,322.5 C 372.866,322.279 382.199,322.613 391.5,323.5C 413.312,330.817 426.478,345.817 431,368.5C 431.5,392.831 431.667,417.164 431.5,441.5C 388.616,482.147 337.616,505.48 278.5,511.5C 270.833,511.5 263.167,511.5 255.5,511.5C 255.5,471.5 255.5,431.5 255.5,391.5C 291.875,368.985 327.875,345.985 363.5,322.5 Z"/></g>
</svg>
