<?xml version="1.0" encoding="UTF-8"?>
<!DOCTYPE svg PUBLIC "-//W3C//DTD SVG 1.1//EN" "http://www.w3.org/Graphics/SVG/1.1/DTD/svg11.dtd">
<svg xmlns="http://www.w3.org/2000/svg" version="1.1" width="512px" height="512px" style="shape-rendering:geometricPrecision; text-rendering:geometricPrecision; image-rendering:optimizeQuality; fill-rule:evenodd; clip-rule:evenodd" xmlns:xlink="http://www.w3.org/1999/xlink">
<g><path style="opacity:1" fill="#5b8e32" d="M 232.5,-0.5 C 247.833,-0.5 263.167,-0.5 278.5,-0.5C 345.394,6.61302 401.394,34.9464 446.5,84.5C 446.738,86.4044 447.738,87.7377 449.5,88.5C 452.55,90.5491 454.883,93.2157 456.5,96.5C 456.427,98.0269 457.094,99.0269 458.5,99.5C 479.484,125.468 494.151,154.801 502.5,187.5C 502.171,190.228 502.837,192.562 504.5,194.5C 507.711,207.108 510.044,219.775 511.5,232.5C 511.5,247.833 511.5,263.167 511.5,278.5C 510.763,281.725 510.097,285.059 509.5,288.5C 508.732,289.263 508.232,290.263 508,291.5C 448.167,231.667 388.333,171.833 328.5,112C 327.251,111.26 326.251,111.427 325.5,112.5C 309.341,87.0772 286.007,74.0772 255.5,73.5C 209.618,76.2163 182.784,100.216 175,145.5C 174.349,151.827 173.849,158.16 173.5,164.5C 169.88,165.57 168.213,167.737 168.5,171C 166.343,172.981 164.676,175.314 163.5,178C 163.867,188.242 166.7,197.742 172,206.5C 173.371,208.041 174.871,209.375 176.5,210.5C 180.501,232.171 184.501,253.837 188.5,275.5C 188.336,278.187 188.503,280.854 189,283.5C 196.035,290.703 203.202,297.703 210.5,304.5C 210.5,306.167 210.5,307.833 210.5,309.5C 186.498,309.333 162.498,309.5 138.5,310C 116.536,314.134 102.87,326.967 97.5,348.5C 96.7321,349.263 96.2321,350.263 96,351.5C 95.5001,365.496 95.3334,379.496 95.5,393.5C 95.8305,414.007 95.4972,434.34 94.5,454.5C 91.9108,453.581 89.9108,451.914 88.5,449.5C 87.7377,447.738 86.4044,446.738 84.5,446.5C 77.1667,439.833 70.1667,432.833 63.5,425.5C 63.573,423.973 62.9063,422.973 61.5,422.5C 25.5541,381.255 4.88745,333.255 -0.5,278.5C -0.5,263.167 -0.5,247.833 -0.5,232.5C 0.756182,221.376 2.75618,210.376 5.5,199.5C 7.03954,197.162 7.70621,194.495 7.5,191.5C 12.0967,171.366 19.43,152.366 29.5,134.5C 30.9063,134.027 31.573,133.027 31.5,131.5C 32.4097,128.008 34.0764,125.008 36.5,122.5C 37.9063,122.027 38.573,121.027 38.5,119.5C 42.1846,112.125 46.8513,105.459 52.5,99.5C 53.9063,99.0269 54.573,98.0269 54.5,96.5C 56.117,93.2157 58.4503,90.5491 61.5,88.5C 63.2624,87.7377 64.2624,86.4044 64.5,84.5C 68.8333,79.5 73.5,74.8333 78.5,70.5C 82.4356,68.2343 85.7689,65.2343 88.5,61.5C 93.2288,56.4393 98.5622,52.106 104.5,48.5C 106.027,48.573 107.027,47.9063 107.5,46.5C 144.845,19.6036 186.512,3.93698 232.5,-0.5 Z"/></g>
<g><path style="opacity:0.894" fill="#9b79a2" d="M 107.5,46.5 C 107.027,47.9063 106.027,48.573 104.5,48.5C 104.973,47.0937 105.973,46.427 107.5,46.5 Z"/></g>
<g><path style="opacity:1" fill="#808474" d="M 88.5,61.5 C 85.7689,65.2343 82.4356,68.2343 78.5,70.5C 81.2311,66.7657 84.5644,63.7657 88.5,61.5 Z"/></g>
<g><path style="opacity:1" fill="#cdcdcd" d="M 255.5,73.5 C 255.5,108.5 255.5,143.5 255.5,178.5C 255.5,178.833 255.5,179.167 255.5,179.5C 240.955,185.529 228.122,194.196 217,205.5C 210.951,212.548 205.284,219.881 200,227.5C 197.265,232.299 195.098,237.299 193.5,242.5C 189.707,253.044 188.04,264.044 188.5,275.5C 184.501,253.837 180.501,232.171 176.5,210.5C 174.674,195.223 173.674,179.89 173.5,164.5C 173.849,158.16 174.349,151.827 175,145.5C 182.784,100.216 209.618,76.2163 255.5,73.5 Z"/></g>
<g><path style="opacity:1" fill="#aeaeae" d="M 255.5,73.5 C 286.007,74.0772 309.341,87.0772 325.5,112.5C 333.765,128.82 337.431,146.154 336.5,164.5C 334.802,177.259 330.635,189.259 324,200.5C 317.929,182.12 311.762,163.787 305.5,145.5C 291.903,160.977 275.237,171.977 255.5,178.5C 255.5,143.5 255.5,108.5 255.5,73.5 Z"/></g>
<g><path style="opacity:0.882" fill="#9a7ba6" d="M 64.5,84.5 C 64.2624,86.4044 63.2624,87.7377 61.5,88.5C 61.7376,86.5956 62.7376,85.2623 64.5,84.5 Z"/></g>
<g><path style="opacity:0.894" fill="#a475ab" d="M 446.5,84.5 C 448.262,85.2623 449.262,86.5956 449.5,88.5C 447.738,87.7377 446.738,86.4044 446.5,84.5 Z"/></g>
<g><path style="opacity:0.871" fill="#9576ac" d="M 54.5,96.5 C 54.573,98.0269 53.9063,99.0269 52.5,99.5C 52.427,97.9731 53.0937,96.9731 54.5,96.5 Z"/></g>
<g><path style="opacity:0.651" fill="#9575ae" d="M 456.5,96.5 C 457.906,96.9731 458.573,97.9731 458.5,99.5C 457.094,99.0269 456.427,98.0269 456.5,96.5 Z"/></g>
<g><path style="opacity:1" fill="#4f7c2a" d="M 509.5,288.5 C 500.177,356.838 468.843,412.505 415.5,455.5C 415.5,434.833 415.5,414.167 415.5,393.5C 415.667,379.496 415.5,365.496 415,351.5C 414.768,350.263 414.268,349.263 413.5,348.5C 408.13,326.967 394.464,314.134 372.5,310C 348.502,309.5 324.502,309.333 300.5,309.5C 300.5,294.833 300.5,280.167 300.5,265.5C 307.896,255.591 314.73,245.258 321,234.5C 323.935,227.092 325.769,219.426 326.5,211.5C 329.245,212.853 331.912,212.686 334.5,211C 343.272,202.355 347.105,191.855 346,179.5C 345.466,175.232 344.133,171.232 342,167.5C 340.512,165.84 338.679,164.84 336.5,164.5C 337.431,146.154 333.765,128.82 325.5,112.5C 326.251,111.427 327.251,111.26 328.5,112C 388.333,171.833 448.167,231.667 508,291.5C 508.232,290.263 508.732,289.263 509.5,288.5 Z"/></g>
<g><path style="opacity:0.596" fill="#987eac" d="M 38.5,119.5 C 38.573,121.027 37.9063,122.027 36.5,122.5C 36.427,120.973 37.0937,119.973 38.5,119.5 Z"/></g>
<g><path style="opacity:0.498" fill="#997eae" d="M 31.5,131.5 C 31.573,133.027 30.9063,134.027 29.5,134.5C 29.427,132.973 30.0937,131.973 31.5,131.5 Z"/></g>
<g><path style="opacity:1" fill="#fbbdab" d="M 336.5,164.5 C 338.679,164.84 340.512,165.84 342,167.5C 344.133,171.232 345.466,175.232 346,179.5C 347.105,191.855 343.272,202.355 334.5,211C 331.912,212.686 329.245,212.853 326.5,211.5C 325.769,219.426 323.935,227.092 321,234.5C 314.73,245.258 307.896,255.591 300.5,265.5C 289.43,280.539 274.43,288.539 255.5,289.5C 255.5,252.833 255.5,216.167 255.5,179.5C 255.5,179.167 255.5,178.833 255.5,178.5C 275.237,171.977 291.903,160.977 305.5,145.5C 311.762,163.787 317.929,182.12 324,200.5C 330.635,189.259 334.802,177.259 336.5,164.5 Z"/></g>
<g><path style="opacity:1" fill="#f9c9bf" d="M 173.5,164.5 C 173.674,179.89 174.674,195.223 176.5,210.5C 174.871,209.375 173.371,208.041 172,206.5C 166.7,197.742 163.867,188.242 163.5,178C 164.676,175.314 166.343,172.981 168.5,171C 168.213,167.737 169.88,165.57 173.5,164.5 Z"/></g>
<g><path style="opacity:1" fill="#fcccbe" d="M 255.5,179.5 C 255.5,216.167 255.5,252.833 255.5,289.5C 236.593,288.55 221.593,280.55 210.5,265.5C 205.187,257.528 199.521,249.861 193.5,242.5C 195.098,237.299 197.265,232.299 200,227.5C 205.284,219.881 210.951,212.548 217,205.5C 228.122,194.196 240.955,185.529 255.5,179.5 Z"/></g>
<g><path style="opacity:1" fill="#898186" d="M 502.5,187.5 C 503.612,189.599 504.279,191.933 504.5,194.5C 502.837,192.562 502.171,190.228 502.5,187.5 Z"/></g>
<g><path style="opacity:0.886" fill="#88808a" d="M 7.5,191.5 C 7.70621,194.495 7.03954,197.162 5.5,199.5C 5.56513,196.572 6.2318,193.905 7.5,191.5 Z"/></g>
<g><path style="opacity:1" fill="#4e7d29" d="M 193.5,242.5 C 199.521,249.861 205.187,257.528 210.5,265.5C 210.5,278.5 210.5,291.5 210.5,304.5C 203.202,297.703 196.035,290.703 189,283.5C 188.503,280.854 188.336,278.187 188.5,275.5C 188.04,264.044 189.707,253.044 193.5,242.5 Z"/></g>
<g><path style="opacity:1" fill="#fbbdac" d="M 210.5,265.5 C 221.593,280.55 236.593,288.55 255.5,289.5C 255.5,309.167 255.5,328.833 255.5,348.5C 202.833,348.5 150.167,348.5 97.5,348.5C 102.87,326.967 116.536,314.134 138.5,310C 162.498,309.5 186.498,309.333 210.5,309.5C 210.5,307.833 210.5,306.167 210.5,304.5C 210.5,291.5 210.5,278.5 210.5,265.5 Z"/></g>
<g><path style="opacity:1" fill="#f6a590" d="M 300.5,265.5 C 300.5,280.167 300.5,294.833 300.5,309.5C 324.502,309.333 348.502,309.5 372.5,310C 394.464,314.134 408.13,326.967 413.5,348.5C 360.833,348.5 308.167,348.5 255.5,348.5C 255.5,328.833 255.5,309.167 255.5,289.5C 274.43,288.539 289.43,280.539 300.5,265.5 Z"/></g>
<g><path style="opacity:1" fill="#333333" d="M 97.5,348.5 C 150.167,348.5 202.833,348.5 255.5,348.5C 255.5,402.833 255.5,457.167 255.5,511.5C 247.833,511.5 240.167,511.5 232.5,511.5C 204.001,508.861 176.668,501.528 150.5,489.5C 150.5,457.5 150.5,425.5 150.5,393.5C 132.167,393.5 113.833,393.5 95.5,393.5C 95.3334,379.496 95.5001,365.496 96,351.5C 96.2321,350.263 96.7321,349.263 97.5,348.5 Z"/></g>
<g><path style="opacity:1" fill="#000000" d="M 255.5,348.5 C 308.167,348.5 360.833,348.5 413.5,348.5C 414.268,349.263 414.768,350.263 415,351.5C 415.5,365.496 415.667,379.496 415.5,393.5C 397.167,393.5 378.833,393.5 360.5,393.5C 360.5,425.5 360.5,457.5 360.5,489.5C 334.256,501.226 306.923,508.559 278.5,511.5C 270.833,511.5 263.167,511.5 255.5,511.5C 255.5,457.167 255.5,402.833 255.5,348.5 Z"/></g>
<g><path style="opacity:0.995" fill="#fbbdab" d="M 95.5,393.5 C 113.833,393.5 132.167,393.5 150.5,393.5C 150.5,425.5 150.5,457.5 150.5,489.5C 129.806,480.833 111.14,469.167 94.5,454.5C 95.4972,434.34 95.8305,414.007 95.5,393.5 Z"/></g>
<g><path style="opacity:0.997" fill="#f7a690" d="M 415.5,393.5 C 415.5,414.167 415.5,434.833 415.5,455.5C 399.018,469.587 380.685,480.92 360.5,489.5C 360.5,457.5 360.5,425.5 360.5,393.5C 378.833,393.5 397.167,393.5 415.5,393.5 Z"/></g>
<g><path style="opacity:0.008" fill="#8f7cca" d="M 61.5,422.5 C 62.9063,422.973 63.573,423.973 63.5,425.5C 62.0937,425.027 61.427,424.027 61.5,422.5 Z"/></g>
<g><path style="opacity:0.898" fill="#a276ac" d="M 84.5,446.5 C 86.4044,446.738 87.7377,447.738 88.5,449.5C 86.5956,449.262 85.2623,448.262 84.5,446.5 Z"/></g>
</svg>
