<?xml version="1.0" encoding="UTF-8"?>
<!DOCTYPE svg PUBLIC "-//W3C//DTD SVG 1.1//EN" "http://www.w3.org/Graphics/SVG/1.1/DTD/svg11.dtd">
<svg xmlns="http://www.w3.org/2000/svg" version="1.1" width="512px" height="512px" style="shape-rendering:geometricPrecision; text-rendering:geometricPrecision; image-rendering:optimizeQuality; fill-rule:evenodd; clip-rule:evenodd" xmlns:xlink="http://www.w3.org/1999/xlink">
<g><path style="opacity:1" fill="#932928" d="M 232.5,-0.5 C 247.833,-0.5 263.167,-0.5 278.5,-0.5C 368.144,10.3879 435.644,54.7213 481,132.5C 495.073,158.553 504.24,186.22 508.5,215.5C 508.631,216.239 508.464,216.906 508,217.5C 451.139,160.973 394.639,104.139 338.5,47C 337.563,46.3083 336.897,46.475 336.5,47.5C 320.952,32.2618 302.285,26.0952 280.5,29C 271.691,31.1002 263.357,34.2669 255.5,38.5C 230.984,24.5102 206.984,25.3435 183.5,41C 170.487,51.8586 162.82,65.6919 160.5,82.5C 131.1,88.3996 113.6,106.066 108,135.5C 106.366,150.462 109.533,164.295 117.5,177C 112.346,182.822 107.18,188.655 102,194.5C 82.4364,233.634 90.6031,265.634 126.5,290.5C 122.078,301.054 120.411,312.054 121.5,323.5C 98.0602,330.109 84.2269,345.442 80,369.5C 79.5,393.498 79.3334,417.498 79.5,441.5C 32.8317,397.161 6.16501,342.828 -0.5,278.5C -0.5,263.167 -0.5,247.833 -0.5,232.5C 6.5226,166.121 34.5226,110.454 83.5,65.5C 85.7488,64.9202 87.4154,63.5869 88.5,61.5C 129.745,25.5541 177.745,4.88745 232.5,-0.5 Z"/></g>
<g><path style="opacity:1" fill="#43311a" d="M 255.5,38.5 C 255.5,66.5 255.5,94.5 255.5,122.5C 235.515,151.055 208.348,161.388 174,153.5C 162.845,158.301 158.012,166.801 159.5,179C 159.591,187.595 160.424,196.095 162,204.5C 166.432,212.887 173.432,217.22 183,217.5C 188.239,230.321 194.739,242.321 202.5,253.5C 202.5,276.5 202.5,299.5 202.5,322.5C 183.992,322.17 165.659,322.503 147.5,323.5C 138.883,322.257 130.217,322.257 121.5,323.5C 120.411,312.054 122.078,301.054 126.5,290.5C 90.6031,265.634 82.4364,233.634 102,194.5C 107.18,188.655 112.346,182.822 117.5,177C 109.533,164.295 106.366,150.462 108,135.5C 113.6,106.066 131.1,88.3996 160.5,82.5C 162.82,65.6919 170.487,51.8586 183.5,41C 206.984,25.3435 230.984,24.5102 255.5,38.5 Z"/></g>
<g><path style="opacity:1" fill="#382915" d="M 336.5,47.5 C 345.034,57.2378 350.367,68.5712 352.5,81.5C 390.39,91.2912 407.557,115.958 404,155.5C 402.181,163.466 399.014,170.8 394.5,177.5C 418.7,197.272 426.534,222.272 418,252.5C 411.815,269.019 400.982,281.519 385.5,290C 390.771,300.526 392.771,311.692 391.5,323.5C 382.199,322.613 372.866,322.279 363.5,322.5C 345.5,322.5 327.5,322.5 309.5,322.5C 309.5,299.167 309.5,275.833 309.5,252.5C 317.094,241.655 323.427,229.988 328.5,217.5C 338.777,217.454 345.944,212.787 350,203.5C 351.046,194.354 351.879,185.187 352.5,176C 352.394,165.089 347.394,157.589 337.5,153.5C 302.976,161.551 275.643,151.217 255.5,122.5C 255.5,94.5 255.5,66.5 255.5,38.5C 263.357,34.2669 271.691,31.1002 280.5,29C 302.285,26.0952 320.952,32.2618 336.5,47.5 Z"/></g>
<g><path style="opacity:1" fill="#7a2222" d="M 508.5,215.5 C 509.573,221.156 510.573,226.823 511.5,232.5C 511.5,247.833 511.5,263.167 511.5,278.5C 504.835,342.828 478.168,397.161 431.5,441.5C 431.667,417.164 431.5,392.831 431,368.5C 426.478,345.817 413.312,330.817 391.5,323.5C 392.771,311.692 390.771,300.526 385.5,290C 400.982,281.519 411.815,269.019 418,252.5C 426.534,222.272 418.7,197.272 394.5,177.5C 399.014,170.8 402.181,163.466 404,155.5C 407.557,115.958 390.39,91.2912 352.5,81.5C 350.367,68.5712 345.034,57.2378 336.5,47.5C 336.897,46.475 337.563,46.3083 338.5,47C 394.639,104.139 451.139,160.973 508,217.5C 508.464,216.906 508.631,216.239 508.5,215.5 Z"/></g>
<g><path style="opacity:0.996" fill="#9c712c" d="M 88.5,61.5 C 87.4154,63.5869 85.7488,64.9202 83.5,65.5C 84.5846,63.4131 86.2512,62.0798 88.5,61.5 Z"/></g>
<g><path style="opacity:1" fill="#c89d69" d="M 255.5,122.5 C 255.5,174.833 255.5,227.167 255.5,279.5C 234.226,278.029 216.559,269.363 202.5,253.5C 194.739,242.321 188.239,230.321 183,217.5C 173.432,217.22 166.432,212.887 162,204.5C 160.424,196.095 159.591,187.595 159.5,179C 158.012,166.801 162.845,158.301 174,153.5C 208.348,161.388 235.515,151.055 255.5,122.5 Z"/></g>
<g><path style="opacity:1" fill="#c9975f" d="M 255.5,122.5 C 275.643,151.217 302.976,161.551 337.5,153.5C 347.394,157.589 352.394,165.089 352.5,176C 351.879,185.187 351.046,194.354 350,203.5C 345.944,212.787 338.777,217.454 328.5,217.5C 323.427,229.988 317.094,241.655 309.5,252.5C 295.212,268.647 277.212,277.98 255.5,280.5C 255.5,294.5 255.5,308.5 255.5,322.5C 237.833,322.5 220.167,322.5 202.5,322.5C 202.5,299.5 202.5,276.5 202.5,253.5C 216.559,269.363 234.226,278.029 255.5,279.5C 255.5,227.167 255.5,174.833 255.5,122.5 Z"/></g>
<g><path style="opacity:1" fill="#c18f54" d="M 309.5,252.5 C 309.5,275.833 309.5,299.167 309.5,322.5C 291.5,322.5 273.5,322.5 255.5,322.5C 255.5,308.5 255.5,294.5 255.5,280.5C 277.212,277.98 295.212,268.647 309.5,252.5 Z"/></g>
<g><path style="opacity:1" fill="#fefefe" d="M 147.5,323.5 C 183.5,346.167 219.5,368.833 255.5,391.5C 255.5,431.5 255.5,471.5 255.5,511.5C 247.833,511.5 240.167,511.5 232.5,511.5C 177.3,505.728 128.633,484.895 86.5,449C 83.9614,446.63 81.6281,444.13 79.5,441.5C 79.3334,417.498 79.5,393.498 80,369.5C 84.2269,345.442 98.0602,330.109 121.5,323.5C 130.217,322.257 138.883,322.257 147.5,323.5 Z"/></g>
<g><path style="opacity:1" fill="#c89d69" d="M 147.5,323.5 C 165.659,322.503 183.992,322.17 202.5,322.5C 220.167,322.5 237.833,322.5 255.5,322.5C 255.5,345.5 255.5,368.5 255.5,391.5C 219.5,368.833 183.5,346.167 147.5,323.5 Z"/></g>
<g><path style="opacity:1" fill="#c8985e" d="M 255.5,322.5 C 273.5,322.5 291.5,322.5 309.5,322.5C 327.5,322.5 345.5,322.5 363.5,322.5C 327.875,345.985 291.875,368.985 255.5,391.5C 255.5,368.5 255.5,345.5 255.5,322.5 Z"/></g>
<g><path style="opacity:1" fill="#d5d5d5" d="M 363.5,322.5 C 372.866,322.279 382.199,322.613 391.5,323.5C 413.312,330.817 426.478,345.817 431,368.5C 431.5,392.831 431.667,417.164 431.5,441.5C 388.616,482.147 337.616,505.48 278.5,511.5C 270.833,511.5 263.167,511.5 255.5,511.5C 255.5,471.5 255.5,431.5 255.5,391.5C 291.875,368.985 327.875,345.985 363.5,322.5 Z"/></g>
</svg>
