<?xml version="1.0" encoding="UTF-8"?>
<!DOCTYPE svg PUBLIC "-//W3C//DTD SVG 1.1//EN" "http://www.w3.org/Graphics/SVG/1.1/DTD/svg11.dtd">
<svg xmlns="http://www.w3.org/2000/svg" version="1.1" width="512px" height="512px" style="shape-rendering:geometricPrecision; text-rendering:geometricPrecision; image-rendering:optimizeQuality; fill-rule:evenodd; clip-rule:evenodd" xmlns:xlink="http://www.w3.org/1999/xlink">
<g><path style="opacity:1" fill="#3f8056" d="M 232.5,-0.5 C 247.833,-0.5 263.167,-0.5 278.5,-0.5C 368.144,10.3879 435.644,54.7213 481,132.5C 497.695,163.971 507.861,197.304 511.5,232.5C 511.5,235.5 511.5,238.5 511.5,241.5C 461.035,191.535 410.701,141.368 360.5,91C 359.552,90.5172 358.552,90.3505 357.5,90.5C 340.359,65.7341 317.025,49.5674 287.5,42C 277.015,39.1926 266.348,38.026 255.5,38.5C 217.319,38.2751 185.486,52.2751 160,80.5C 150.427,92.9825 144.094,106.983 141,122.5C 139.486,138.611 137.32,154.611 134.5,170.5C 135.471,176.771 135.805,183.105 135.5,189.5C 133.219,235.137 132.219,280.804 132.5,326.5C 127.328,327.108 122.328,328.441 117.5,330.5C 92.2299,334.935 76.3966,349.602 70,374.5C 69.5001,393.497 69.3334,412.497 69.5,431.5C 28.8524,388.613 5.51907,337.613 -0.5,278.5C -0.5,263.167 -0.5,247.833 -0.5,232.5C 10.3875,142.857 54.7208,75.3573 132.5,30C 163.971,13.3053 197.304,3.1386 232.5,-0.5 Z"/></g>
<g><path style="opacity:1" fill="#3f2f2e" d="M 255.5,38.5 C 255.5,63.5 255.5,88.5 255.5,113.5C 254.662,113.842 254.328,114.508 254.5,115.5C 247.102,130.203 235.102,136.536 218.5,134.5C 214.602,149.394 204.935,156.728 189.5,156.5C 180.725,155.617 172.058,154.45 163.5,153C 157.389,156.449 153.556,161.615 152,168.5C 151.467,179.852 151.801,191.185 153,202.5C 156.445,214.616 164.445,220.616 177,220.5C 183.665,239.975 194.498,256.642 209.5,270.5C 209.5,289.167 209.5,307.833 209.5,326.5C 183.833,326.5 158.167,326.5 132.5,326.5C 132.219,280.804 133.219,235.137 135.5,189.5C 135.805,183.105 135.471,176.771 134.5,170.5C 137.32,154.611 139.486,138.611 141,122.5C 144.094,106.983 150.427,92.9825 160,80.5C 185.486,52.2751 217.319,38.2751 255.5,38.5 Z"/></g>
<g><path style="opacity:1" fill="#30201f" d="M 255.5,38.5 C 266.348,38.026 277.015,39.1926 287.5,42C 317.025,49.5674 340.359,65.7341 357.5,90.5C 367.617,107.698 372.783,126.365 373,146.5C 377.35,206.42 379.183,266.42 378.5,326.5C 353.167,326.5 327.833,326.5 302.5,326.5C 302.5,307.833 302.5,289.167 302.5,270.5C 316.721,256.245 327.388,239.578 334.5,220.5C 352.462,219.291 360.629,209.624 359,191.5C 359.667,183.5 359.667,175.5 359,167.5C 356.453,160.118 351.62,154.785 344.5,151.5C 330.817,157.819 317.15,157.986 303.5,152C 298.225,147.941 294.558,142.774 292.5,136.5C 279.512,136.568 268.678,131.901 260,122.5C 257.959,119.752 256.459,116.752 255.5,113.5C 255.5,88.5 255.5,63.5 255.5,38.5 Z"/></g>
<g><path style="opacity:1" fill="#366d49" d="M 357.5,90.5 C 358.552,90.3505 359.552,90.5172 360.5,91C 410.701,141.368 461.035,191.535 511.5,241.5C 511.5,253.833 511.5,266.167 511.5,278.5C 505.48,337.616 482.147,388.616 441.5,431.5C 441.667,412.83 441.5,394.164 441,375.5C 435.041,350.04 419.207,335.04 393.5,330.5C 388.721,328.304 383.721,326.97 378.5,326.5C 379.183,266.42 377.35,206.42 373,146.5C 372.783,126.365 367.617,107.698 357.5,90.5 Z"/></g>
<g><path style="opacity:1" fill="#e09b6c" d="M 255.5,113.5 C 256.459,116.752 257.959,119.752 260,122.5C 268.678,131.901 279.512,136.568 292.5,136.5C 294.558,142.774 298.225,147.941 303.5,152C 317.15,157.986 330.817,157.819 344.5,151.5C 351.62,154.785 356.453,160.118 359,167.5C 359.667,175.5 359.667,183.5 359,191.5C 360.629,209.624 352.462,219.291 334.5,220.5C 327.388,239.578 316.721,256.245 302.5,270.5C 288.698,281.214 273.031,287.214 255.5,288.5C 255.832,230.664 255.499,172.998 254.5,115.5C 254.328,114.508 254.662,113.842 255.5,113.5 Z"/></g>
<g><path style="opacity:1" fill="#eca776" d="M 254.5,115.5 C 255.499,172.998 255.832,230.664 255.5,288.5C 238.34,286.911 223.007,280.911 209.5,270.5C 194.498,256.642 183.665,239.975 177,220.5C 164.445,220.616 156.445,214.616 153,202.5C 151.801,191.185 151.467,179.852 152,168.5C 153.556,161.615 157.389,156.449 163.5,153C 172.058,154.45 180.725,155.617 189.5,156.5C 204.935,156.728 214.602,149.394 218.5,134.5C 235.102,136.536 247.102,130.203 254.5,115.5 Z"/></g>
<g><path style="opacity:1" fill="#e09c6c" d="M 209.5,270.5 C 223.007,280.911 238.34,286.911 255.5,288.5C 255.5,301.167 255.5,313.833 255.5,326.5C 240.167,326.5 224.833,326.5 209.5,326.5C 209.5,307.833 209.5,289.167 209.5,270.5 Z"/></g>
<g><path style="opacity:1" fill="#d28b5a" d="M 302.5,270.5 C 302.5,289.167 302.5,307.833 302.5,326.5C 286.833,326.5 271.167,326.5 255.5,326.5C 255.5,313.833 255.5,301.167 255.5,288.5C 273.031,287.214 288.698,281.214 302.5,270.5 Z"/></g>
<g><path style="opacity:1" fill="#eca776" d="M 132.5,326.5 C 158.167,326.5 183.833,326.5 209.5,326.5C 224.833,326.5 240.167,326.5 255.5,326.5C 255.5,346.167 255.5,365.833 255.5,385.5C 239.999,386.024 224.999,383.524 210.5,378C 179.165,362.667 148.165,346.833 117.5,330.5C 122.328,328.441 127.328,327.108 132.5,326.5 Z"/></g>
<g><path style="opacity:1" fill="#e09c6c" d="M 255.5,326.5 C 271.167,326.5 286.833,326.5 302.5,326.5C 327.833,326.5 353.167,326.5 378.5,326.5C 383.721,326.97 388.721,328.304 393.5,330.5C 363.189,345.989 332.855,361.489 302.5,377C 287.353,382.729 271.687,385.563 255.5,385.5C 255.5,365.833 255.5,346.167 255.5,326.5 Z"/></g>
<g><path style="opacity:1" fill="#2c2c2c" d="M 117.5,330.5 C 148.165,346.833 179.165,362.667 210.5,378C 224.999,383.524 239.999,386.024 255.5,385.5C 255.5,427.5 255.5,469.5 255.5,511.5C 247.833,511.5 240.167,511.5 232.5,511.5C 205.829,508.749 180.163,502.082 155.5,491.5C 156.498,467.672 156.831,443.672 156.5,419.5C 145.833,419.5 135.167,419.5 124.5,419.5C 124.5,438.167 124.5,456.833 124.5,475.5C 103.853,463.866 85.5195,449.2 69.5,431.5C 69.3334,412.497 69.5001,393.497 70,374.5C 76.3966,349.602 92.2299,334.935 117.5,330.5 Z"/></g>
<g><path style="opacity:1" fill="#212121" d="M 393.5,330.5 C 419.207,335.04 435.041,350.04 441,375.5C 441.5,394.164 441.667,412.83 441.5,431.5C 425.48,449.2 407.147,463.866 386.5,475.5C 386.5,456.833 386.5,438.167 386.5,419.5C 375.833,419.5 365.167,419.5 354.5,419.5C 354.169,443.672 354.502,467.672 355.5,491.5C 330.837,502.082 305.171,508.749 278.5,511.5C 270.833,511.5 263.167,511.5 255.5,511.5C 255.5,469.5 255.5,427.5 255.5,385.5C 271.687,385.563 287.353,382.729 302.5,377C 332.855,361.489 363.189,345.989 393.5,330.5 Z"/></g>
<g><path style="opacity:1" fill="#212121" d="M 155.5,491.5 C 144.406,487.454 134.073,482.121 124.5,475.5C 124.5,456.833 124.5,438.167 124.5,419.5C 135.167,419.5 145.833,419.5 156.5,419.5C 156.831,443.672 156.498,467.672 155.5,491.5 Z"/></g>
<g><path style="opacity:1" fill="#000001" d="M 386.5,475.5 C 376.927,482.121 366.594,487.454 355.5,491.5C 354.502,467.672 354.169,443.672 354.5,419.5C 365.167,419.5 375.833,419.5 386.5,419.5C 386.5,438.167 386.5,456.833 386.5,475.5 Z"/></g>
</svg>
