<?xml version="1.0" encoding="UTF-8"?>
<!DOCTYPE svg PUBLIC "-//W3C//DTD SVG 1.1//EN" "http://www.w3.org/Graphics/SVG/1.1/DTD/svg11.dtd">
<svg xmlns="http://www.w3.org/2000/svg" version="1.1" width="512px" height="512px" style="shape-rendering:geometricPrecision; text-rendering:geometricPrecision; image-rendering:optimizeQuality; fill-rule:evenodd; clip-rule:evenodd" xmlns:xlink="http://www.w3.org/1999/xlink">
<g><path style="opacity:1" fill="#dc7b5d" d="M 232.5,-0.5 C 247.833,-0.5 263.167,-0.5 278.5,-0.5C 323.942,3.97803 365.275,19.3114 402.5,45.5C 403.035,47.4456 404.368,48.4456 406.5,48.5C 408.754,49.1237 410.421,50.457 411.5,52.5C 411.973,53.9063 412.973,54.573 414.5,54.5C 417.786,56.4512 420.786,58.7846 423.5,61.5C 423.5,63.5 424.5,64.5 426.5,64.5C 433.167,70.5 439.5,76.8333 445.5,83.5C 446.08,85.7488 447.413,87.4154 449.5,88.5C 451.914,89.9108 453.581,91.9108 454.5,94.5C 455.08,96.7488 456.413,98.4154 458.5,99.5C 460.984,101.8 462.984,104.467 464.5,107.5C 464.427,109.027 465.094,110.027 466.5,110.5C 468.326,112.147 469.66,114.147 470.5,116.5C 470.427,118.027 471.094,119.027 472.5,119.5C 472.427,121.027 473.094,122.027 474.5,122.5C 475.338,122.842 475.672,123.508 475.5,124.5C 475.427,126.027 476.094,127.027 477.5,127.5C 478.674,128.514 479.34,129.847 479.5,131.5C 479.427,133.027 480.094,134.027 481.5,134.5C 490.964,151.109 497.964,168.776 502.5,187.5C 502.171,190.228 502.837,192.562 504.5,194.5C 507.711,207.108 510.044,219.775 511.5,232.5C 511.5,235.5 511.5,238.5 511.5,241.5C 510.883,241.611 510.383,241.944 510,242.5C 447.14,179.64 384.306,116.806 321.5,54C 320.552,53.5172 319.552,53.3505 318.5,53.5C 316.018,50.5707 313.518,47.5707 311,44.5C 307.415,50.0021 304.081,55.6688 301,61.5C 289.305,44.635 274.138,31.9683 255.5,23.5C 236.862,31.9683 221.695,44.635 210,61.5C 206.919,55.6688 203.585,50.0021 200,44.5C 186.846,60.1372 177.346,77.8039 171.5,97.5C 166.686,95.2288 161.686,93.5621 156.5,92.5C 155.797,113.979 157.13,135.312 160.5,156.5C 149.996,161.665 144.996,170.165 145.5,182C 145.926,191.538 146.759,201.038 148,210.5C 150.649,215.311 154.149,219.311 158.5,222.5C 165.834,230.849 173.501,238.182 181.5,244.5C 187.281,254.465 194.448,263.465 203,271.5C 203.5,281.828 203.666,292.161 203.5,302.5C 170.498,302.333 137.498,302.5 104.5,303C 75.766,308.068 58.5993,324.901 53,353.5C 52.5,372.83 52.3334,392.164 52.5,411.5C 50.457,410.421 49.1237,408.754 48.5,406.5C 48.4456,404.368 47.4456,403.035 45.5,402.5C 19.5215,365.193 4.18812,323.859 -0.5,278.5C -0.5,263.167 -0.5,247.833 -0.5,232.5C 0.608415,223.077 2.27508,213.743 4.5,204.5C 5.91301,201.781 6.57968,198.781 6.5,195.5C 6.5,195.167 6.5,194.833 6.5,194.5C 8.16276,192.562 8.82943,190.228 8.5,187.5C 13.0358,168.776 20.0358,151.109 29.5,134.5C 30.9063,134.027 31.573,133.027 31.5,131.5C 31.6596,129.847 32.3263,128.514 33.5,127.5C 34.9063,127.027 35.573,126.027 35.5,124.5C 35.3284,123.508 35.6618,122.842 36.5,122.5C 37.9063,122.027 38.573,121.027 38.5,119.5C 39.9063,119.027 40.573,118.027 40.5,116.5C 41.3403,114.147 42.6736,112.147 44.5,110.5C 45.9063,110.027 46.573,109.027 46.5,107.5C 48.016,104.467 50.016,101.8 52.5,99.5C 54.5869,98.4154 55.9202,96.7488 56.5,94.5C 57.4194,91.9108 59.086,89.9108 61.5,88.5C 63.914,87.0892 65.5806,85.0892 66.5,82.5C 70.5,77.8333 74.8333,73.5 79.5,69.5C 83.1002,67.5698 86.1002,64.9031 88.5,61.5C 91.0892,60.5806 93.0892,58.914 94.5,56.5C 96.7488,55.9202 98.4154,54.5869 99.5,52.5C 100.262,50.7376 101.596,49.7376 103.5,49.5C 105.404,49.2624 106.738,48.2624 107.5,46.5C 111.148,43.3401 115.148,40.6735 119.5,38.5C 121.027,38.573 122.027,37.9063 122.5,36.5C 122.842,35.6618 123.508,35.3284 124.5,35.5C 126.027,35.573 127.027,34.9063 127.5,33.5C 128.514,32.3263 129.847,31.6596 131.5,31.5C 133.027,31.573 134.027,30.9063 134.5,29.5C 165.193,12.9943 197.86,2.99429 232.5,-0.5 Z"/></g>
<g><path style="opacity:1" fill="#5e585e" d="M 255.5,23.5 C 255.5,66.5 255.5,109.5 255.5,152.5C 257.167,152.5 258.833,152.5 260.5,152.5C 259.081,153.451 257.415,153.784 255.5,153.5C 250.448,153.55 245.448,153.05 240.5,152C 224.417,148.146 208.417,143.979 192.5,139.5C 191.574,157.24 189.907,174.906 187.5,192.5C 181.275,190.138 175.442,187.138 170,183.5C 165.532,174.929 162.366,165.929 160.5,156.5C 157.13,135.312 155.797,113.979 156.5,92.5C 161.686,93.5621 166.686,95.2288 171.5,97.5C 177.346,77.8039 186.846,60.1372 200,44.5C 203.585,50.0021 206.919,55.6688 210,61.5C 221.695,44.635 236.862,31.9683 255.5,23.5 Z"/></g>
<g><path style="opacity:1" fill="#3f383f" d="M 255.5,23.5 C 274.138,31.9683 289.305,44.635 301,61.5C 304.081,55.6688 307.415,50.0021 311,44.5C 313.518,47.5707 316.018,50.5707 318.5,53.5C 327.112,67.3909 334.112,82.0575 339.5,97.5C 344.056,95.5276 348.722,93.8609 353.5,92.5C 354.968,113.947 353.968,135.28 350.5,156.5C 348.67,165.816 345.503,174.816 341,183.5C 335.275,187.446 329.109,190.446 322.5,192.5C 321.398,174.452 319.732,156.452 317.5,138.5C 298.995,145.257 279.995,149.924 260.5,152.5C 258.833,152.5 257.167,152.5 255.5,152.5C 255.5,109.5 255.5,66.5 255.5,23.5 Z"/></g>
<g><path style="opacity:0.918" fill="#f4cf6e" d="M 134.5,29.5 C 134.027,30.9063 133.027,31.573 131.5,31.5C 131.973,30.0937 132.973,29.427 134.5,29.5 Z"/></g>
<g><path style="opacity:0.933" fill="#f4cd6c" d="M 127.5,33.5 C 127.027,34.9063 126.027,35.573 124.5,35.5C 124.973,34.0937 125.973,33.427 127.5,33.5 Z"/></g>
<g><path style="opacity:0.898" fill="#f4d070" d="M 122.5,36.5 C 122.027,37.9063 121.027,38.573 119.5,38.5C 119.973,37.0937 120.973,36.427 122.5,36.5 Z"/></g>
<g><path style="opacity:0.855" fill="#f4cd67" d="M 107.5,46.5 C 106.738,48.2624 105.404,49.2624 103.5,49.5C 104.262,47.7376 105.596,46.7376 107.5,46.5 Z"/></g>
<g><path style="opacity:0.851" fill="#f4cc69" d="M 402.5,45.5 C 404.23,46.0256 405.564,47.0256 406.5,48.5C 404.368,48.4456 403.035,47.4456 402.5,45.5 Z"/></g>
<g><path style="opacity:1" fill="#c46c52" d="M 318.5,53.5 C 319.552,53.3505 320.552,53.5172 321.5,54C 384.306,116.806 447.14,179.64 510,242.5C 510.383,241.944 510.883,241.611 511.5,241.5C 511.5,253.833 511.5,266.167 511.5,278.5C 506.381,328.203 488.714,372.87 458.5,412.5C 457.668,391.671 457.168,370.671 457,349.5C 450.065,323.898 433.565,308.731 407.5,304C 373.835,303.5 340.168,303.333 306.5,303.5C 306.5,293.167 306.5,282.833 306.5,272.5C 321.124,259.286 331.79,243.286 338.5,224.5C 349.918,225.378 358.085,220.711 363,210.5C 364.944,198.231 365.611,185.898 365,173.5C 362.833,165.504 358,159.838 350.5,156.5C 353.968,135.28 354.968,113.947 353.5,92.5C 348.722,93.8609 344.056,95.5276 339.5,97.5C 334.112,82.0575 327.112,67.3909 318.5,53.5 Z"/></g>
<g><path style="opacity:0.086" fill="#fae56b" d="M 411.5,52.5 C 413.027,52.427 414.027,53.0937 414.5,54.5C 412.973,54.573 411.973,53.9063 411.5,52.5 Z"/></g>
<g><path style="opacity:0.996" fill="#efba69" d="M 99.5,52.5 C 98.4154,54.5869 96.7488,55.9202 94.5,56.5C 95.5846,54.4131 97.2512,53.0798 99.5,52.5 Z"/></g>
<g><path style="opacity:0.988" fill="#eeb769" d="M 94.5,56.5 C 93.0892,58.914 91.0892,60.5806 88.5,61.5C 89.9108,59.086 91.9108,57.4194 94.5,56.5 Z"/></g>
<g><path style="opacity:0.761" fill="#f8dd66" d="M 423.5,61.5 C 424.833,62.1667 425.833,63.1667 426.5,64.5C 424.5,64.5 423.5,63.5 423.5,61.5 Z"/></g>
<g><path style="opacity:1" fill="#edb468" d="M 88.5,61.5 C 86.1002,64.9031 83.1002,67.5698 79.5,69.5C 81.8998,66.0969 84.8998,63.4302 88.5,61.5 Z"/></g>
<g><path style="opacity:0.933" fill="#f6d46a" d="M 445.5,83.5 C 447.587,84.5846 448.92,86.2512 449.5,88.5C 447.413,87.4154 446.08,85.7488 445.5,83.5 Z"/></g>
<g><path style="opacity:0.843" fill="#f5d268" d="M 66.5,82.5 C 65.5806,85.0892 63.914,87.0892 61.5,88.5C 62.4194,85.9108 64.086,83.9108 66.5,82.5 Z"/></g>
<g><path style="opacity:0.996" fill="#f1c269" d="M 454.5,94.5 C 456.587,95.5846 457.92,97.2512 458.5,99.5C 456.413,98.4154 455.08,96.7488 454.5,94.5 Z"/></g>
<g><path style="opacity:0.612" fill="#f4ce6f" d="M 56.5,94.5 C 55.9202,96.7488 54.5869,98.4154 52.5,99.5C 53.0798,97.2512 54.4131,95.5846 56.5,94.5 Z"/></g>
<g><path style="opacity:0.69" fill="#f5d36e" d="M 46.5,107.5 C 46.573,109.027 45.9063,110.027 44.5,110.5C 44.427,108.973 45.0937,107.973 46.5,107.5 Z"/></g>
<g><path style="opacity:0.671" fill="#f5d471" d="M 464.5,107.5 C 465.906,107.973 466.573,108.973 466.5,110.5C 465.094,110.027 464.427,109.027 464.5,107.5 Z"/></g>
<g><path style="opacity:0.62" fill="#f6d571" d="M 40.5,116.5 C 40.573,118.027 39.9063,119.027 38.5,119.5C 38.427,117.973 39.0937,116.973 40.5,116.5 Z"/></g>
<g><path style="opacity:0.671" fill="#f4cc6e" d="M 470.5,116.5 C 471.906,116.973 472.573,117.973 472.5,119.5C 471.094,119.027 470.427,118.027 470.5,116.5 Z"/></g>
<g><path style="opacity:0.529" fill="#f7db72" d="M 38.5,119.5 C 38.573,121.027 37.9063,122.027 36.5,122.5C 36.427,120.973 37.0937,119.973 38.5,119.5 Z"/></g>
<g><path style="opacity:0.514" fill="#f7db6d" d="M 472.5,119.5 C 473.906,119.973 474.573,120.973 474.5,122.5C 473.094,122.027 472.427,121.027 472.5,119.5 Z"/></g>
<g><path style="opacity:0.522" fill="#f7d972" d="M 35.5,124.5 C 35.573,126.027 34.9063,127.027 33.5,127.5C 33.427,125.973 34.0937,124.973 35.5,124.5 Z"/></g>
<g><path style="opacity:0.49" fill="#f7db6d" d="M 475.5,124.5 C 476.906,124.973 477.573,125.973 477.5,127.5C 476.094,127.027 475.427,126.027 475.5,124.5 Z"/></g>
<g><path style="opacity:0.435" fill="#f8dd6a" d="M 31.5,131.5 C 31.573,133.027 30.9063,134.027 29.5,134.5C 29.427,132.973 30.0937,131.973 31.5,131.5 Z"/></g>
<g><path style="opacity:0.412" fill="#f8dd73" d="M 479.5,131.5 C 480.906,131.973 481.573,132.973 481.5,134.5C 480.094,134.027 479.427,133.027 479.5,131.5 Z"/></g>
<g><path style="opacity:1" fill="#fedbbf" d="M 255.5,153.5 C 255.5,199.833 255.5,246.167 255.5,292.5C 236.126,292.209 219.293,285.543 205,272.5C 204.83,282.675 204.33,292.675 203.5,302.5C 203.666,292.161 203.5,281.828 203,271.5C 194.448,263.465 187.281,254.465 181.5,244.5C 178.513,237.892 175.513,231.225 172.5,224.5C 167.846,223.653 163.179,222.987 158.5,222.5C 154.149,219.311 150.649,215.311 148,210.5C 146.759,201.038 145.926,191.538 145.5,182C 144.996,170.165 149.996,161.665 160.5,156.5C 162.366,165.929 165.532,174.929 170,183.5C 175.442,187.138 181.275,190.138 187.5,192.5C 189.907,174.906 191.574,157.24 192.5,139.5C 208.417,143.979 224.417,148.146 240.5,152C 245.448,153.05 250.448,153.55 255.5,153.5 Z"/></g>
<g><path style="opacity:1" fill="#fec0a5" d="M 350.5,156.5 C 358,159.838 362.833,165.504 365,173.5C 365.611,185.898 364.944,198.231 363,210.5C 358.085,220.711 349.918,225.378 338.5,224.5C 331.79,243.286 321.124,259.286 306.5,272.5C 292.044,285.434 275.044,292.101 255.5,292.5C 255.5,246.167 255.5,199.833 255.5,153.5C 257.415,153.784 259.081,153.451 260.5,152.5C 279.995,149.924 298.995,145.257 317.5,138.5C 319.732,156.452 321.398,174.452 322.5,192.5C 329.109,190.446 335.275,187.446 341,183.5C 345.503,174.816 348.67,165.816 350.5,156.5 Z"/></g>
<g><path style="opacity:1" fill="#f1bf6b" d="M 8.5,187.5 C 8.82943,190.228 8.16276,192.562 6.5,194.5C 6.72148,191.933 7.38815,189.599 8.5,187.5 Z"/></g>
<g><path style="opacity:1" fill="#f1c06b" d="M 502.5,187.5 C 503.612,189.599 504.279,191.933 504.5,194.5C 502.837,192.562 502.171,190.228 502.5,187.5 Z"/></g>
<g><path style="opacity:0.992" fill="#f2c46c" d="M 6.5,195.5 C 6.57968,198.781 5.91301,201.781 4.5,204.5C 4.42032,201.219 5.08699,198.219 6.5,195.5 Z"/></g>
<g><path style="opacity:1" fill="#c36c52" d="M 158.5,222.5 C 163.179,222.987 167.846,223.653 172.5,224.5C 175.513,231.225 178.513,237.892 181.5,244.5C 173.501,238.182 165.834,230.849 158.5,222.5 Z"/></g>
<g><path style="opacity:1" fill="#fec1a6" d="M 255.5,292.5 C 255.5,317.167 255.5,341.833 255.5,366.5C 253.5,366.5 251.5,366.5 249.5,366.5C 231.179,364.509 216.179,356.509 204.5,342.5C 204.814,329.087 204.481,315.754 203.5,302.5C 204.33,292.675 204.83,282.675 205,272.5C 219.293,285.543 236.126,292.209 255.5,292.5 Z"/></g>
<g><path style="opacity:1" fill="#f8a991" d="M 306.5,272.5 C 306.5,282.833 306.5,293.167 306.5,303.5C 306.5,316.5 306.5,329.5 306.5,342.5C 293.298,358.265 276.298,366.265 255.5,366.5C 255.5,341.833 255.5,317.167 255.5,292.5C 275.044,292.101 292.044,285.434 306.5,272.5 Z"/></g>
<g><path style="opacity:1" fill="#252425" d="M 203.5,302.5 C 204.481,315.754 204.814,329.087 204.5,342.5C 204.5,397.167 204.5,451.833 204.5,506.5C 141.875,493.543 91.208,461.876 52.5,411.5C 52.3334,392.164 52.5,372.83 53,353.5C 58.5993,324.901 75.766,308.068 104.5,303C 137.498,302.5 170.498,302.333 203.5,302.5 Z"/></g>
<g><path style="opacity:1" fill="#000000" d="M 306.5,303.5 C 340.168,303.333 373.835,303.5 407.5,304C 433.565,308.731 450.065,323.898 457,349.5C 457.168,370.671 457.668,391.671 458.5,412.5C 419.39,462.23 368.723,493.563 306.5,506.5C 306.5,451.833 306.5,397.167 306.5,342.5C 306.5,329.5 306.5,316.5 306.5,303.5 Z"/></g>
<g><path style="opacity:0.997" fill="#fffefe" d="M 204.5,342.5 C 216.179,356.509 231.179,364.509 249.5,366.5C 251.265,367.461 253.265,367.795 255.5,367.5C 255.5,415.5 255.5,463.5 255.5,511.5C 247.833,511.5 240.167,511.5 232.5,511.5C 223.086,510.323 213.753,508.656 204.5,506.5C 204.5,451.833 204.5,397.167 204.5,342.5 Z"/></g>
<g><path style="opacity:0.998" fill="#e4e4e4" d="M 306.5,342.5 C 306.5,397.167 306.5,451.833 306.5,506.5C 297.228,508.539 287.894,510.205 278.5,511.5C 270.833,511.5 263.167,511.5 255.5,511.5C 255.5,463.5 255.5,415.5 255.5,367.5C 253.265,367.795 251.265,367.461 249.5,366.5C 251.5,366.5 253.5,366.5 255.5,366.5C 276.298,366.265 293.298,358.265 306.5,342.5 Z"/></g>
<g><path style="opacity:0.847" fill="#f4cc68" d="M 45.5,402.5 C 47.4456,403.035 48.4456,404.368 48.5,406.5C 47.0256,405.564 46.0256,404.23 45.5,402.5 Z"/></g>
</svg>
