<?xml version="1.0" encoding="UTF-8"?>
<!DOCTYPE svg PUBLIC "-//W3C//DTD SVG 1.1//EN" "http://www.w3.org/Graphics/SVG/1.1/DTD/svg11.dtd">
<svg xmlns="http://www.w3.org/2000/svg" version="1.1" width="512px" height="512px" style="shape-rendering:geometricPrecision; text-rendering:geometricPrecision; image-rendering:optimizeQuality; fill-rule:evenodd; clip-rule:evenodd" xmlns:xlink="http://www.w3.org/1999/xlink">
<g><path style="opacity:1" fill="#5a84df" d="M 232.5,-0.5 C 247.833,-0.5 263.167,-0.5 278.5,-0.5C 368.144,10.3879 435.644,54.7213 481,132.5C 497.695,163.971 507.861,197.304 511.5,232.5C 511.5,242.833 511.5,253.167 511.5,263.5C 510.698,264.952 510.198,266.618 510,268.5C 459.194,216.694 408.028,165.194 356.5,114C 355.002,113.415 354.002,113.915 353.5,115.5C 331.078,79.2787 298.411,60.612 255.5,59.5C 208.802,61.5893 174.636,83.256 153,124.5C 148.794,133.785 145.794,143.452 144,153.5C 142.589,173.464 142.089,193.464 142.5,213.5C 139.833,221.834 139.833,230.167 142.5,238.5C 142.5,283.5 142.5,328.5 142.5,373.5C 119.2,380.563 100.367,393.896 86,413.5C 81.4788,420.557 76.9788,427.557 72.5,434.5C 41.2802,403.426 19.7802,366.426 8,323.5C 4.06879,308.561 1.23545,293.561 -0.5,278.5C -0.5,263.167 -0.5,247.833 -0.5,232.5C 6.25378,167.661 33.2538,112.994 80.5,68.5C 83.7642,66.9059 86.4309,64.5725 88.5,61.5C 129.745,25.5541 177.745,4.88745 232.5,-0.5 Z"/></g>
<g><path style="opacity:1" fill="#513d2c" d="M 255.5,59.5 C 255.5,102.5 255.5,145.5 255.5,188.5C 255.5,188.833 255.5,189.167 255.5,189.5C 233.522,203.828 209.522,209.328 183.5,206C 175.673,204.087 168.673,200.587 162.5,195.5C 161.893,195.624 161.56,195.957 161.5,196.5C 152.926,199.745 146.592,205.412 142.5,213.5C 142.089,193.464 142.589,173.464 144,153.5C 145.794,143.452 148.794,133.785 153,124.5C 174.636,83.256 208.802,61.5893 255.5,59.5 Z"/></g>
<g><path style="opacity:1" fill="#433224" d="M 255.5,59.5 C 298.411,60.612 331.078,79.2787 353.5,115.5C 359.873,127.115 364.373,139.448 367,152.5C 368.413,172.797 368.913,193.131 368.5,213.5C 364.408,205.412 358.074,199.745 349.5,196.5C 349.5,194.167 349.5,191.833 349.5,189.5C 340.295,191.149 331.295,190.316 322.5,187C 308.68,181.324 296.013,173.824 284.5,164.5C 275.98,174.033 266.313,182.033 255.5,188.5C 255.5,145.5 255.5,102.5 255.5,59.5 Z"/></g>
<g><path style="opacity:0.976" fill="#897cac" d="M 88.5,61.5 C 86.4309,64.5725 83.7642,66.9059 80.5,68.5C 82.5691,65.4275 85.2358,63.0941 88.5,61.5 Z"/></g>
<g><path style="opacity:1" fill="#4b72c4" d="M 511.5,263.5 C 511.5,268.5 511.5,273.5 511.5,278.5C 505.729,333.698 484.896,382.365 449,424.5C 445.964,427.704 442.797,430.704 439.5,433.5C 432.53,424.349 425.697,415.016 419,405.5C 404.991,390.085 388.157,379.085 368.5,372.5C 368.5,327.833 368.5,283.167 368.5,238.5C 371.167,230.167 371.167,221.833 368.5,213.5C 368.913,193.131 368.413,172.797 367,152.5C 364.373,139.448 359.873,127.115 353.5,115.5C 354.002,113.915 355.002,113.415 356.5,114C 408.028,165.194 459.194,216.694 510,268.5C 510.198,266.618 510.698,264.952 511.5,263.5 Z"/></g>
<g><path style="opacity:1" fill="#f9a58e" d="M 349.5,196.5 C 349.757,216.187 349.424,235.853 348.5,255.5C 340.494,287.835 321.494,311.168 291.5,325.5C 279.917,329.822 267.917,331.822 255.5,331.5C 255.5,284.167 255.5,236.833 255.5,189.5C 255.5,189.167 255.5,188.833 255.5,188.5C 266.313,182.033 275.98,174.033 284.5,164.5C 296.013,173.824 308.68,181.324 322.5,187C 331.295,190.316 340.295,191.149 349.5,189.5C 349.5,191.833 349.5,194.167 349.5,196.5 Z"/></g>
<g><path style="opacity:1" fill="#febda9" d="M 255.5,189.5 C 255.5,236.833 255.5,284.167 255.5,331.5C 242.863,332.126 230.863,329.793 219.5,324.5C 189.214,310.926 170.547,287.926 163.5,255.5C 161.654,235.902 160.987,216.235 161.5,196.5C 161.56,195.957 161.893,195.624 162.5,195.5C 168.673,200.587 175.673,204.087 183.5,206C 209.522,209.328 233.522,203.828 255.5,189.5 Z"/></g>
<g><path style="opacity:1" fill="#f9a58d" d="M 161.5,196.5 C 160.987,216.235 161.654,235.902 163.5,255.5C 153.786,253.113 146.786,247.446 142.5,238.5C 139.833,230.167 139.833,221.834 142.5,213.5C 146.592,205.412 152.926,199.745 161.5,196.5 Z"/></g>
<g><path style="opacity:1" fill="#df927f" d="M 349.5,196.5 C 358.074,199.745 364.408,205.412 368.5,213.5C 371.167,221.833 371.167,230.167 368.5,238.5C 363.673,246.326 357.007,251.993 348.5,255.5C 349.424,235.853 349.757,216.187 349.5,196.5 Z"/></g>
<g><path style="opacity:1" fill="#513d2c" d="M 142.5,238.5 C 146.786,247.446 153.786,253.113 163.5,255.5C 170.547,287.926 189.214,310.926 219.5,324.5C 219.259,337.809 213.259,347.642 201.5,354C 188.831,358.279 176.164,362.445 163.5,366.5C 156.421,368.637 149.421,370.971 142.5,373.5C 142.5,328.5 142.5,283.5 142.5,238.5 Z"/></g>
<g><path style="opacity:1" fill="#433224" d="M 368.5,238.5 C 368.5,283.167 368.5,327.833 368.5,372.5C 361.501,370.5 354.501,368.5 347.5,366.5C 332.993,361.831 318.66,356.664 304.5,351C 296.318,344.47 291.985,335.97 291.5,325.5C 321.494,311.168 340.494,287.835 348.5,255.5C 357.007,251.993 363.673,246.326 368.5,238.5 Z"/></g>
<g><path style="opacity:1" fill="#f9a58d" d="M 219.5,324.5 C 230.863,329.793 242.863,332.126 255.5,331.5C 255.5,367.167 255.5,402.833 255.5,438.5C 225.167,438.5 194.833,438.5 164.5,438.5C 164.329,414.497 163.996,390.497 163.5,366.5C 176.164,362.445 188.831,358.279 201.5,354C 213.259,347.642 219.259,337.809 219.5,324.5 Z"/></g>
<g><path style="opacity:1" fill="#e0937f" d="M 291.5,325.5 C 291.985,335.97 296.318,344.47 304.5,351C 318.66,356.664 332.993,361.831 347.5,366.5C 347.828,390.741 347.494,414.908 346.5,439C 316.168,439.5 285.835,439.667 255.5,439.5C 255.5,439.167 255.5,438.833 255.5,438.5C 255.5,402.833 255.5,367.167 255.5,331.5C 267.917,331.822 279.917,329.822 291.5,325.5 Z"/></g>
<g><path style="opacity:1" fill="#1b1b1b" d="M 163.5,366.5 C 163.996,390.497 164.329,414.497 164.5,438.5C 194.833,438.5 225.167,438.5 255.5,438.5C 255.5,438.833 255.5,439.167 255.5,439.5C 255.5,463.5 255.5,487.5 255.5,511.5C 247.833,511.5 240.167,511.5 232.5,511.5C 169.707,505.101 116.373,479.434 72.5,434.5C 76.9788,427.557 81.4788,420.557 86,413.5C 100.367,393.896 119.2,380.563 142.5,373.5C 149.421,370.971 156.421,368.637 163.5,366.5 Z"/></g>
<g><path style="opacity:1" fill="#000000" d="M 347.5,366.5 C 354.501,368.5 361.501,370.5 368.5,372.5C 388.157,379.085 404.991,390.085 419,405.5C 425.697,415.016 432.53,424.349 439.5,433.5C 408.549,466.171 371.216,489.004 327.5,502C 311.262,506.415 294.929,509.582 278.5,511.5C 270.833,511.5 263.167,511.5 255.5,511.5C 255.5,487.5 255.5,463.5 255.5,439.5C 285.835,439.667 316.168,439.5 346.5,439C 347.494,414.908 347.828,390.741 347.5,366.5 Z"/></g>
</svg>
