<?xml version="1.0" encoding="UTF-8"?>
<!DOCTYPE svg PUBLIC "-//W3C//DTD SVG 1.1//EN" "http://www.w3.org/Graphics/SVG/1.1/DTD/svg11.dtd">
<svg xmlns="http://www.w3.org/2000/svg" version="1.1" width="512px" height="512px" style="shape-rendering:geometricPrecision; text-rendering:geometricPrecision; image-rendering:optimizeQuality; fill-rule:evenodd; clip-rule:evenodd" xmlns:xlink="http://www.w3.org/1999/xlink">
<g><path style="opacity:1" fill="#a567cb" d="M 233.5,-0.5 C 248.167,-0.5 262.833,-0.5 277.5,-0.5C 377.805,11.9821 449.305,63.9821 492,155.5C 502.297,180.687 508.797,206.687 511.5,233.5C 511.5,236.5 511.5,239.5 511.5,242.5C 473.368,204.868 435.368,167.035 397.5,129C 396.552,128.517 395.552,128.351 394.5,128.5C 391.473,124.806 388.14,121.473 384.5,118.5C 385.525,118.103 385.692,117.437 385,116.5C 372.965,104.298 360.798,92.298 348.5,80.5C 322.774,49.019 291.44,42.019 254.5,59.5C 217.372,42.1571 186.538,49.8238 162,82.5C 156.999,90.8378 153.999,99.8378 153,109.5C 124.124,113.378 108.624,129.878 106.5,159C 106.818,167.287 109.151,174.953 113.5,182C 99.5185,195.768 96.6852,211.602 105,229.5C 109.003,234.335 113.17,239.002 117.5,243.5C 149.195,276.196 181.529,308.196 214.5,339.5C 214.5,349.5 214.5,359.5 214.5,369.5C 191.498,369.333 168.498,369.5 145.5,370C 123.746,376.087 108.579,389.587 100,410.5C 98.587,414.739 97.587,419.072 97,423.5C 96.5002,434.495 96.3335,445.495 96.5,456.5C 39.3315,410.509 6.99819,350.843 -0.5,277.5C -0.5,262.833 -0.5,248.167 -0.5,233.5C 11.9821,133.195 63.9821,61.6947 155.5,19C 180.687,8.70332 206.687,2.20332 233.5,-0.5 Z"/></g>
<g><path style="opacity:1" fill="#bcbcbc" d="M 254.5,59.5 C 255.494,98.4274 255.827,137.427 255.5,176.5C 240.564,184.785 224.564,187.618 207.5,185C 203.523,184.215 199.689,183.049 196,181.5C 190.952,189.549 184.285,195.882 176,200.5C 176.976,207.935 176.476,215.268 174.5,222.5C 173.025,226.783 171.025,230.783 168.5,234.5C 164.231,239.267 159.231,243.1 153.5,246C 148.012,248.016 142.345,248.849 136.5,248.5C 129.786,248.262 123.453,246.595 117.5,243.5C 113.17,239.002 109.003,234.335 105,229.5C 96.6852,211.602 99.5185,195.768 113.5,182C 109.151,174.953 106.818,167.287 106.5,159C 108.624,129.878 124.124,113.378 153,109.5C 153.999,99.8378 156.999,90.8378 162,82.5C 186.538,49.8238 217.372,42.1571 254.5,59.5 Z"/></g>
<g><path style="opacity:1" fill="#a7a7a7" d="M 348.5,80.5 C 353.156,89.8012 356.822,99.4679 359.5,109.5C 368.516,110.727 376.85,113.727 384.5,118.5C 388.14,121.473 391.473,124.806 394.5,128.5C 406.199,145.469 407.532,163.302 398.5,182C 411.913,196.966 414.08,213.466 405,231.5C 397.685,242.242 387.519,247.908 374.5,248.5C 361.893,249.357 351.559,245.024 343.5,235.5C 340.284,231.059 337.618,226.393 335.5,221.5C 334.338,214.485 334.171,207.485 335,200.5C 326.715,195.882 320.048,189.549 315,181.5C 294.456,188.871 274.622,187.205 255.5,176.5C 255.827,137.427 255.494,98.4274 254.5,59.5C 291.44,42.019 322.774,49.019 348.5,80.5 Z"/></g>
<g><path style="opacity:1" fill="#8a52ab" d="M 348.5,80.5 C 360.798,92.298 372.965,104.298 385,116.5C 385.692,117.437 385.525,118.103 384.5,118.5C 376.85,113.727 368.516,110.727 359.5,109.5C 356.822,99.4679 353.156,89.8012 348.5,80.5 Z"/></g>
<g><path style="opacity:1" fill="#8a52ab" d="M 394.5,128.5 C 395.552,128.351 396.552,128.517 397.5,129C 435.368,167.035 473.368,204.868 511.5,242.5C 511.5,254.167 511.5,265.833 511.5,277.5C 504.002,350.843 471.668,410.509 414.5,456.5C 414.667,445.495 414.5,434.495 414,423.5C 408.5,392.667 390.333,374.5 359.5,369C 338.503,368.5 317.503,368.333 296.5,368.5C 296.5,356.833 296.5,345.167 296.5,333.5C 320.993,314.805 338.493,290.805 349,261.5C 359.965,261.768 368.465,257.435 374.5,248.5C 387.519,247.908 397.685,242.242 405,231.5C 414.08,213.466 411.913,196.966 398.5,182C 407.532,163.302 406.199,145.469 394.5,128.5 Z"/></g>
<g><path style="opacity:1" fill="#e1c3b9" d="M 255.5,176.5 C 255.5,193.167 255.5,209.833 255.5,226.5C 252.167,226.5 248.833,226.5 245.5,226.5C 246.687,215.697 242.354,208.197 232.5,204C 218.5,203.333 204.5,203.333 190.5,204C 181.855,207.12 177.521,213.287 177.5,222.5C 176.5,222.5 175.5,222.5 174.5,222.5C 176.476,215.268 176.976,207.935 176,200.5C 184.285,195.882 190.952,189.549 196,181.5C 199.689,183.049 203.523,184.215 207.5,185C 224.564,187.618 240.564,184.785 255.5,176.5 Z"/></g>
<g><path style="opacity:1" fill="#d9b6a8" d="M 255.5,176.5 C 274.622,187.205 294.456,188.871 315,181.5C 320.048,189.549 326.715,195.882 335,200.5C 334.171,207.485 334.338,214.485 335.5,221.5C 333.772,215.545 330.438,210.378 325.5,206C 323.913,205.138 322.246,204.471 320.5,204C 306.5,203.333 292.5,203.333 278.5,204C 268.128,207.901 263.794,215.401 265.5,226.5C 262.167,226.5 258.833,226.5 255.5,226.5C 255.5,209.833 255.5,193.167 255.5,176.5 Z"/></g>
<g><path style="opacity:1" fill="#747f43" d="M 255.5,226.5 C 255.5,230.833 255.5,235.167 255.5,239.5C 252.167,239.5 248.833,239.5 245.5,239.5C 247.346,248.992 245.013,257.159 238.5,264C 236.283,265.275 233.949,266.275 231.5,267C 218.167,267.667 204.833,267.667 191.5,267C 185.499,265.664 181.332,262.164 179,256.5C 177.616,249.589 177.116,242.589 177.5,235.5C 174.287,235.81 171.287,235.477 168.5,234.5C 171.025,230.783 173.025,226.783 174.5,222.5C 175.5,222.5 176.5,222.5 177.5,222.5C 177.521,213.287 181.855,207.12 190.5,204C 204.5,203.333 218.5,203.333 232.5,204C 242.354,208.197 246.687,215.697 245.5,226.5C 248.833,226.5 252.167,226.5 255.5,226.5 Z"/></g>
<g><path style="opacity:1" fill="#7e7a43" d="M 335.5,221.5 C 337.618,226.393 340.284,231.059 343.5,235.5C 340.167,235.5 336.833,235.5 333.5,235.5C 333.666,241.842 333.5,248.175 333,254.5C 330.807,260.693 326.641,264.859 320.5,267C 305.432,267.951 290.432,267.617 275.5,266C 266.413,259.928 263.08,251.428 265.5,240.5C 262.167,240.5 258.833,240.5 255.5,240.5C 255.5,240.167 255.5,239.833 255.5,239.5C 255.5,235.167 255.5,230.833 255.5,226.5C 258.833,226.5 262.167,226.5 265.5,226.5C 263.794,215.401 268.128,207.901 278.5,204C 292.5,203.333 306.5,203.333 320.5,204C 322.246,204.471 323.913,205.138 325.5,206C 330.438,210.378 333.772,215.545 335.5,221.5 Z"/></g>
<g><path style="opacity:1" fill="#fefdfe" d="M 193.5,212.5 C 205.505,212.333 217.505,212.5 229.5,213C 231.848,213.346 233.681,214.513 235,216.5C 236.602,228.095 236.935,239.762 236,251.5C 235.167,255 233,257.167 229.5,258C 217.833,258.667 206.167,258.667 194.5,258C 192.481,257.55 190.648,256.717 189,255.5C 187.373,242.929 187.04,230.262 188,217.5C 189.352,215.251 191.185,213.584 193.5,212.5 Z"/></g>
<g><path style="opacity:1" fill="#e0e1e0" d="M 279.5,213.5 C 292.837,213.333 306.171,213.5 319.5,214C 320.667,215.167 321.833,216.333 323,217.5C 323.667,229.5 323.667,241.5 323,253.5C 321.833,254.667 320.667,255.833 319.5,257C 305.406,257.964 291.406,257.631 277.5,256C 276.874,255.25 276.374,254.416 276,253.5C 275.333,241.5 275.333,229.5 276,217.5C 276.69,215.65 277.856,214.316 279.5,213.5 Z"/></g>
<g><path style="opacity:1" fill="#e1c3b9" d="M 168.5,234.5 C 171.287,235.477 174.287,235.81 177.5,235.5C 177.116,242.589 177.616,249.589 179,256.5C 181.332,262.164 185.499,265.664 191.5,267C 204.833,267.667 218.167,267.667 231.5,267C 233.949,266.275 236.283,265.275 238.5,264C 245.013,257.159 247.346,248.992 245.5,239.5C 248.833,239.5 252.167,239.5 255.5,239.5C 255.5,239.833 255.5,240.167 255.5,240.5C 255.5,276.5 255.5,312.5 255.5,348.5C 247.807,348.157 240.474,346.323 233.5,343C 227.114,339.807 220.78,336.64 214.5,333.5C 196.535,320.037 182.369,303.371 172,283.5C 168.667,276.167 165.333,268.833 162,261.5C 151.097,261.799 142.597,257.466 136.5,248.5C 142.345,248.849 148.012,248.016 153.5,246C 159.231,243.1 164.231,239.267 168.5,234.5 Z"/></g>
<g><path style="opacity:1" fill="#d9b5a8" d="M 343.5,235.5 C 351.559,245.024 361.893,249.357 374.5,248.5C 368.465,257.435 359.965,261.768 349,261.5C 338.493,290.805 320.993,314.805 296.5,333.5C 284.227,341.371 270.894,346.705 256.5,349.5C 255.5,369.822 255.167,390.156 255.5,410.5C 230.78,407.78 217.114,394.114 214.5,369.5C 214.5,359.5 214.5,349.5 214.5,339.5C 214.5,337.5 214.5,335.5 214.5,333.5C 220.78,336.64 227.114,339.807 233.5,343C 240.474,346.323 247.807,348.157 255.5,348.5C 255.5,312.5 255.5,276.5 255.5,240.5C 258.833,240.5 262.167,240.5 265.5,240.5C 263.08,251.428 266.413,259.928 275.5,266C 290.432,267.617 305.432,267.951 320.5,267C 326.641,264.859 330.807,260.693 333,254.5C 333.5,248.175 333.666,241.842 333.5,235.5C 336.833,235.5 340.167,235.5 343.5,235.5 Z"/></g>
<g><path style="opacity:1" fill="#8a52ab" d="M 117.5,243.5 C 123.453,246.595 129.786,248.262 136.5,248.5C 142.597,257.466 151.097,261.799 162,261.5C 165.333,268.833 168.667,276.167 172,283.5C 182.369,303.371 196.535,320.037 214.5,333.5C 214.5,335.5 214.5,337.5 214.5,339.5C 181.529,308.196 149.195,276.196 117.5,243.5 Z"/></g>
<g><path style="opacity:1" fill="#d0a495" d="M 296.5,333.5 C 296.5,345.167 296.5,356.833 296.5,368.5C 294.286,393.714 280.619,407.714 255.5,410.5C 255.167,390.156 255.5,369.822 256.5,349.5C 270.894,346.705 284.227,341.371 296.5,333.5 Z"/></g>
<g><path style="opacity:1" fill="#446d3a" d="M 296.5,368.5 C 317.503,368.333 338.503,368.5 359.5,369C 390.333,374.5 408.5,392.667 414,423.5C 414.5,434.495 414.667,445.495 414.5,456.5C 374.661,488.075 329.328,506.409 278.5,511.5C 270.833,511.5 263.167,511.5 255.5,511.5C 255.5,477.833 255.5,444.167 255.5,410.5C 280.619,407.714 294.286,393.714 296.5,368.5 Z"/></g>
<g><path style="opacity:1" fill="#4e7f44" d="M 214.5,369.5 C 217.114,394.114 230.78,407.78 255.5,410.5C 255.5,444.167 255.5,477.833 255.5,511.5C 247.833,511.5 240.167,511.5 232.5,511.5C 181.672,506.409 136.339,488.075 96.5,456.5C 96.3335,445.495 96.5002,434.495 97,423.5C 97.587,419.072 98.587,414.739 100,410.5C 108.579,389.587 123.746,376.087 145.5,370C 168.498,369.5 191.498,369.333 214.5,369.5 Z"/></g>
</svg>
