<?xml version="1.0" encoding="UTF-8"?>
<!DOCTYPE svg PUBLIC "-//W3C//DTD SVG 1.1//EN" "http://www.w3.org/Graphics/SVG/1.1/DTD/svg11.dtd">
<svg xmlns="http://www.w3.org/2000/svg" version="1.1" width="512px" height="512px" style="shape-rendering:geometricPrecision; text-rendering:geometricPrecision; image-rendering:optimizeQuality; fill-rule:evenodd; clip-rule:evenodd" xmlns:xlink="http://www.w3.org/1999/xlink">
<g><path style="opacity:0.996" fill="#fef475" d="M 232.5,-0.5 C 247.833,-0.5 263.167,-0.5 278.5,-0.5C 368.144,10.3879 435.644,54.7213 481,132.5C 497.695,163.971 507.861,197.304 511.5,232.5C 511.5,236.167 511.5,239.833 511.5,243.5C 446.535,179.035 381.701,114.368 317,49.5C 316.601,49.7284 316.435,50.0618 316.5,50.5C 314.901,48.3962 313.068,46.3962 311,44.5C 307.415,50.0021 304.081,55.6688 301,61.5C 289.305,44.635 274.138,31.9683 255.5,23.5C 236.862,31.9683 221.695,44.635 210,61.5C 206.987,55.4623 203.487,49.7956 199.5,44.5C 186.771,60.2866 177.438,77.9533 171.5,97.5C 166.833,95.8333 162.167,94.1667 157.5,92.5C 155.797,113.969 156.797,135.303 160.5,156.5C 150.587,161.152 145.587,168.985 145.5,180C 146.026,189.861 146.859,199.694 148,209.5C 149.892,214.553 153.058,218.553 157.5,221.5C 165.452,230.119 173.785,238.452 182.5,246.5C 188.335,255.516 195.168,263.849 203,271.5C 203.5,281.828 203.666,292.161 203.5,302.5C 169.996,302.168 136.662,302.502 103.5,303.5C 76.1574,308.341 59.324,324.341 53,351.5C 52.5,371.497 52.3334,391.497 52.5,411.5C 29.8546,383.203 14.3546,351.203 6,315.5C 3.16336,303.139 0.996694,290.806 -0.5,278.5C -0.5,263.167 -0.5,247.833 -0.5,232.5C 10.3875,142.857 54.7208,75.3573 132.5,30C 163.971,13.3053 197.304,3.1386 232.5,-0.5 Z"/></g>
<g><path style="opacity:1" fill="#5e585e" d="M 255.5,23.5 C 255.5,66.5 255.5,109.5 255.5,152.5C 257.167,152.5 258.833,152.5 260.5,152.5C 259.081,153.451 257.415,153.784 255.5,153.5C 250.448,153.55 245.448,153.05 240.5,152C 224.417,148.146 208.417,143.979 192.5,139.5C 191.574,157.24 189.907,174.906 187.5,192.5C 181.275,190.138 175.442,187.138 170,183.5C 165.532,174.929 162.366,165.929 160.5,156.5C 156.797,135.303 155.797,113.969 157.5,92.5C 162.167,94.1667 166.833,95.8333 171.5,97.5C 177.438,77.9533 186.771,60.2866 199.5,44.5C 203.487,49.7956 206.987,55.4623 210,61.5C 221.695,44.635 236.862,31.9683 255.5,23.5 Z"/></g>
<g><path style="opacity:1" fill="#3f383f" d="M 255.5,23.5 C 274.138,31.9683 289.305,44.635 301,61.5C 304.081,55.6688 307.415,50.0021 311,44.5C 313.068,46.3962 314.901,48.3962 316.5,50.5C 326.205,64.2448 333.538,79.2448 338.5,95.5C 339.167,95.8333 339.833,96.1667 340.5,96.5C 345.127,94.9569 349.793,93.6236 354.5,92.5C 354.967,113.956 353.634,135.289 350.5,156.5C 348.67,165.816 345.503,174.816 341,183.5C 335.275,187.446 329.109,190.446 322.5,192.5C 321.398,174.452 319.732,156.452 317.5,138.5C 298.995,145.257 279.995,149.924 260.5,152.5C 258.833,152.5 257.167,152.5 255.5,152.5C 255.5,109.5 255.5,66.5 255.5,23.5 Z"/></g>
<g><path style="opacity:1" fill="#fee345" d="M 511.5,243.5 C 511.5,255.167 511.5,266.833 511.5,278.5C 506.41,328.792 488.41,373.792 457.5,413.5C 457.667,392.164 457.5,370.831 457,349.5C 449.949,323.447 433.115,308.281 406.5,304C 373.168,303.5 339.835,303.333 306.5,303.5C 306.5,293.167 306.5,282.833 306.5,272.5C 320.634,258.992 331.301,242.992 338.5,224.5C 348.887,225.326 356.721,221.326 362,212.5C 364.682,199.304 365.682,185.971 365,172.5C 362.403,165.073 357.57,159.74 350.5,156.5C 353.634,135.289 354.967,113.956 354.5,92.5C 349.793,93.6236 345.127,94.9569 340.5,96.5C 339.833,96.1667 339.167,95.8333 338.5,95.5C 333.538,79.2448 326.205,64.2448 316.5,50.5C 316.435,50.0618 316.601,49.7284 317,49.5C 381.701,114.368 446.535,179.035 511.5,243.5 Z"/></g>
<g><path style="opacity:1" fill="#fedbbf" d="M 255.5,153.5 C 255.5,199.833 255.5,246.167 255.5,292.5C 236.126,292.209 219.293,285.543 205,272.5C 204.83,282.675 204.33,292.675 203.5,302.5C 203.666,292.161 203.5,281.828 203,271.5C 195.168,263.849 188.335,255.516 182.5,246.5C 179.178,239.188 175.845,231.855 172.5,224.5C 167.362,223.917 162.362,222.917 157.5,221.5C 153.058,218.553 149.892,214.553 148,209.5C 146.859,199.694 146.026,189.861 145.5,180C 145.587,168.985 150.587,161.152 160.5,156.5C 162.366,165.929 165.532,174.929 170,183.5C 175.442,187.138 181.275,190.138 187.5,192.5C 189.907,174.906 191.574,157.24 192.5,139.5C 208.417,143.979 224.417,148.146 240.5,152C 245.448,153.05 250.448,153.55 255.5,153.5 Z"/></g>
<g><path style="opacity:1" fill="#fec0a5" d="M 350.5,156.5 C 357.57,159.74 362.403,165.073 365,172.5C 365.682,185.971 364.682,199.304 362,212.5C 356.721,221.326 348.887,225.326 338.5,224.5C 331.301,242.992 320.634,258.992 306.5,272.5C 292.044,285.434 275.044,292.101 255.5,292.5C 255.5,246.167 255.5,199.833 255.5,153.5C 257.415,153.784 259.081,153.451 260.5,152.5C 279.995,149.924 298.995,145.257 317.5,138.5C 319.732,156.452 321.398,174.452 322.5,192.5C 329.109,190.446 335.275,187.446 341,183.5C 345.503,174.816 348.67,165.816 350.5,156.5 Z"/></g>
<g><path style="opacity:1" fill="#ffe34c" d="M 157.5,221.5 C 162.362,222.917 167.362,223.917 172.5,224.5C 175.845,231.855 179.178,239.188 182.5,246.5C 173.785,238.452 165.452,230.119 157.5,221.5 Z"/></g>
<g><path style="opacity:1" fill="#fcbfa5" d="M 255.5,292.5 C 255.5,317.167 255.5,341.833 255.5,366.5C 253.5,366.5 251.5,366.5 249.5,366.5C 231.28,364.642 216.446,356.642 205,342.5C 204.831,329.327 204.331,316.327 203.5,303.5C 170.167,303.5 136.833,303.5 103.5,303.5C 136.662,302.502 169.996,302.168 203.5,302.5C 204.33,292.675 204.83,282.675 205,272.5C 219.293,285.543 236.126,292.209 255.5,292.5 Z"/></g>
<g><path style="opacity:1" fill="#f8a991" d="M 306.5,272.5 C 306.5,282.833 306.5,293.167 306.5,303.5C 306.5,316.5 306.5,329.5 306.5,342.5C 293.298,358.265 276.298,366.265 255.5,366.5C 255.5,341.833 255.5,317.167 255.5,292.5C 275.044,292.101 292.044,285.434 306.5,272.5 Z"/></g>
<g><path style="opacity:0.999" fill="#593ea2" d="M 103.5,303.5 C 136.833,303.5 170.167,303.5 203.5,303.5C 203.5,371.167 203.5,438.833 203.5,506.5C 141.298,493.257 90.9648,461.59 52.5,411.5C 52.3334,391.497 52.5,371.497 53,351.5C 59.324,324.341 76.1574,308.341 103.5,303.5 Z"/></g>
<g><path style="opacity:0.999" fill="#3d356f" d="M 306.5,303.5 C 339.835,303.333 373.168,303.5 406.5,304C 433.115,308.281 449.949,323.447 457,349.5C 457.5,370.831 457.667,392.164 457.5,413.5C 455.528,417.105 452.861,420.105 449.5,422.5C 448.094,422.973 447.427,423.973 447.5,425.5C 409.735,468.227 362.735,495.227 306.5,506.5C 306.5,451.833 306.5,397.167 306.5,342.5C 306.5,329.5 306.5,316.5 306.5,303.5 Z"/></g>
<g><path style="opacity:0.997" fill="#fcfcfd" d="M 203.5,303.5 C 204.331,316.327 204.831,329.327 205,342.5C 216.446,356.642 231.28,364.642 249.5,366.5C 251.265,367.461 253.265,367.795 255.5,367.5C 255.5,415.5 255.5,463.5 255.5,511.5C 247.833,511.5 240.167,511.5 232.5,511.5C 222.862,510.249 213.195,508.582 203.5,506.5C 203.5,438.833 203.5,371.167 203.5,303.5 Z"/></g>
<g><path style="opacity:0.998" fill="#e4e4e4" d="M 306.5,342.5 C 306.5,397.167 306.5,451.833 306.5,506.5C 297.228,508.539 287.894,510.205 278.5,511.5C 270.833,511.5 263.167,511.5 255.5,511.5C 255.5,463.5 255.5,415.5 255.5,367.5C 253.265,367.795 251.265,367.461 249.5,366.5C 251.5,366.5 253.5,366.5 255.5,366.5C 276.298,366.265 293.298,358.265 306.5,342.5 Z"/></g>
<g><path style="opacity:0.082" fill="#af9f64" d="M 449.5,422.5 C 449.573,424.027 448.906,425.027 447.5,425.5C 447.427,423.973 448.094,422.973 449.5,422.5 Z"/></g>
</svg>
