<?xml version="1.0" encoding="UTF-8"?>
<!DOCTYPE svg PUBLIC "-//W3C//DTD SVG 1.1//EN" "http://www.w3.org/Graphics/SVG/1.1/DTD/svg11.dtd">
<svg xmlns="http://www.w3.org/2000/svg" version="1.1" width="512px" height="512px" style="shape-rendering:geometricPrecision; text-rendering:geometricPrecision; image-rendering:optimizeQuality; fill-rule:evenodd; clip-rule:evenodd" xmlns:xlink="http://www.w3.org/1999/xlink">
<g><path style="opacity:1" fill="#e44848" d="M 232.5,-0.5 C 247.833,-0.5 263.167,-0.5 278.5,-0.5C 368.144,10.3879 435.644,54.7213 481,132.5C 497.695,163.971 507.861,197.304 511.5,232.5C 511.5,242.833 511.5,253.167 511.5,263.5C 461.833,214.167 412.167,164.833 362.5,115.5C 352.958,114.279 343.625,111.779 334.5,108C 324.63,102.789 315.296,96.7886 306.5,90C 301.553,87.6923 296.553,85.859 291.5,84.5C 292.525,84.1034 292.692,83.4368 292,82.5C 286.631,76.9637 281.131,71.6303 275.5,66.5C 274.571,65.0639 273.405,63.7305 272,62.5C 266.912,67.4288 261.412,71.7621 255.5,75.5C 252.139,77.8472 248.472,79.6806 244.5,81C 232.458,83.2027 220.458,85.536 208.5,88C 197,92.8333 188.833,101 184,112.5C 182.064,121.265 179.064,129.598 175,137.5C 172.899,146.374 172.066,155.374 172.5,164.5C 167.595,165.927 164.762,169.261 164,174.5C 161.163,187.988 164.33,199.821 173.5,210C 175.909,211.707 178.575,212.54 181.5,212.5C 179.922,222.457 182.089,231.457 188,239.5C 194.673,247.536 200.839,255.87 206.5,264.5C 206.5,279.5 206.5,294.5 206.5,309.5C 183.831,309.333 161.164,309.5 138.5,310C 115.451,314.715 101.284,328.549 96,351.5C 95.5001,365.496 95.3334,379.496 95.5,393.5C 95.5,414.167 95.5,434.833 95.5,455.5C 39.1999,409.914 7.19989,350.914 -0.5,278.5C -0.5,263.167 -0.5,247.833 -0.5,232.5C 10.3875,142.857 54.7208,75.3573 132.5,30C 163.971,13.3053 197.304,3.1386 232.5,-0.5 Z"/></g>
<g><path style="opacity:1" fill="#a65d4e" d="M 275.5,66.5 C 277.294,72.1509 276.627,77.4842 273.5,82.5C 276.659,83.7102 279.826,83.7102 283,82.5C 285.547,84.1775 288.38,84.8441 291.5,84.5C 296.553,85.859 301.553,87.6923 306.5,90C 315.296,96.7886 324.63,102.789 334.5,108C 343.625,111.779 352.958,114.279 362.5,115.5C 354.259,123.62 345.259,130.787 335.5,137C 336.834,139.66 337.668,142.494 338,145.5C 338.5,151.825 338.666,158.158 338.5,164.5C 336.791,172.304 334.291,179.97 331,187.5C 329.493,188.535 327.993,188.368 326.5,187C 315.835,175.183 309.502,161.349 307.5,145.5C 296.36,146.726 285.36,146.726 274.5,145.5C 279.464,154.973 286.13,163.139 294.5,170C 280.874,170.174 267.874,167.341 255.5,161.5C 255.5,161.167 255.5,160.833 255.5,160.5C 255.5,132.167 255.5,103.833 255.5,75.5C 261.412,71.7621 266.912,67.4288 272,62.5C 273.405,63.7305 274.571,65.0639 275.5,66.5 Z"/></g>
<g><path style="opacity:1" fill="#c83d3d" d="M 275.5,66.5 C 281.131,71.6303 286.631,76.9637 292,82.5C 292.692,83.4368 292.525,84.1034 291.5,84.5C 288.38,84.8441 285.547,84.1775 283,82.5C 279.826,83.7102 276.659,83.7102 273.5,82.5C 276.627,77.4842 277.294,72.1509 275.5,66.5 Z"/></g>
<g><path style="opacity:1" fill="#b46e5a" d="M 255.5,75.5 C 255.5,103.833 255.5,132.167 255.5,160.5C 245.833,156.84 237.5,151.174 230.5,143.5C 228.92,148.029 229.587,152.196 232.5,156C 230.167,156.667 227.833,156.667 225.5,156C 217.669,154.293 210.002,152.127 202.5,149.5C 200.436,165.303 193.436,178.303 181.5,188.5C 178.907,185.652 177.074,182.319 176,178.5C 175.005,173.659 173.838,168.992 172.5,164.5C 172.066,155.374 172.899,146.374 175,137.5C 179.064,129.598 182.064,121.265 184,112.5C 188.833,101 197,92.8333 208.5,88C 220.458,85.536 232.458,83.2027 244.5,81C 248.472,79.6806 252.139,77.8472 255.5,75.5 Z"/></g>
<g><path style="opacity:1" fill="#c83d3d" d="M 362.5,115.5 C 412.167,164.833 461.833,214.167 511.5,263.5C 511.5,268.5 511.5,273.5 511.5,278.5C 503.8,350.915 471.8,409.915 415.5,455.5C 415.5,434.833 415.5,414.167 415.5,393.5C 415.935,378.109 415.435,362.775 414,347.5C 407.762,326.596 393.929,314.096 372.5,310C 349.836,309.5 327.169,309.333 304.5,309.5C 304.5,294.5 304.5,279.5 304.5,264.5C 310.161,255.87 316.327,247.536 323,239.5C 328.911,231.457 331.078,222.457 329.5,212.5C 334.462,212.678 338.295,210.678 341,206.5C 349.145,193.992 350.145,180.992 344,167.5C 342.512,165.84 340.679,164.84 338.5,164.5C 338.666,158.158 338.5,151.825 338,145.5C 337.668,142.494 336.834,139.66 335.5,137C 345.259,130.787 354.259,123.62 362.5,115.5 Z"/></g>
<g><path style="opacity:1" fill="#fcccbe" d="M 255.5,160.5 C 255.5,160.833 255.5,161.167 255.5,161.5C 255.5,204.167 255.5,246.833 255.5,289.5C 240.256,292.806 227.423,288.806 217,277.5C 214.015,272.689 210.515,268.356 206.5,264.5C 200.839,255.87 194.673,247.536 188,239.5C 182.089,231.457 179.922,222.457 181.5,212.5C 178.575,212.54 175.909,211.707 173.5,210C 164.33,199.821 161.163,187.988 164,174.5C 164.762,169.261 167.595,165.927 172.5,164.5C 173.838,168.992 175.005,173.659 176,178.5C 177.074,182.319 178.907,185.652 181.5,188.5C 193.436,178.303 200.436,165.303 202.5,149.5C 210.002,152.127 217.669,154.293 225.5,156C 227.833,156.667 230.167,156.667 232.5,156C 229.587,152.196 228.92,148.029 230.5,143.5C 237.5,151.174 245.833,156.84 255.5,160.5 Z"/></g>
<g><path style="opacity:1" fill="#fbbdab" d="M 338.5,164.5 C 340.679,164.84 342.512,165.84 344,167.5C 350.145,180.992 349.145,193.992 341,206.5C 338.295,210.678 334.462,212.678 329.5,212.5C 331.078,222.457 328.911,231.457 323,239.5C 316.327,247.536 310.161,255.87 304.5,264.5C 299.071,271.103 293.405,277.603 287.5,284C 277.438,289.018 266.772,290.852 255.5,289.5C 255.5,246.833 255.5,204.167 255.5,161.5C 267.874,167.341 280.874,170.174 294.5,170C 286.13,163.139 279.464,154.973 274.5,145.5C 285.36,146.726 296.36,146.726 307.5,145.5C 309.502,161.349 315.835,175.183 326.5,187C 327.993,188.368 329.493,188.535 331,187.5C 334.291,179.97 336.791,172.304 338.5,164.5 Z"/></g>
<g><path style="opacity:1" fill="#fcbdac" d="M 206.5,264.5 C 210.515,268.356 214.015,272.689 217,277.5C 227.423,288.806 240.256,292.806 255.5,289.5C 255.17,309.007 255.503,328.341 256.5,347.5C 256.5,348.167 256.167,348.5 255.5,348.5C 239.349,335.259 223.016,322.259 206.5,309.5C 206.5,294.5 206.5,279.5 206.5,264.5 Z"/></g>
<g><path style="opacity:1" fill="#f6a690" d="M 304.5,264.5 C 304.5,279.5 304.5,294.5 304.5,309.5C 288.5,322.167 272.5,334.833 256.5,347.5C 255.503,328.341 255.17,309.007 255.5,289.5C 266.772,290.852 277.438,289.018 287.5,284C 293.405,277.603 299.071,271.103 304.5,264.5 Z"/></g>
<g><path style="opacity:1" fill="#443c3c" d="M 206.5,309.5 C 223.016,322.259 239.349,335.259 255.5,348.5C 255.5,402.833 255.5,457.167 255.5,511.5C 247.833,511.5 240.167,511.5 232.5,511.5C 204.098,508.483 176.765,501.149 150.5,489.5C 150.5,457.5 150.5,425.5 150.5,393.5C 132.167,393.5 113.833,393.5 95.5,393.5C 95.3334,379.496 95.5001,365.496 96,351.5C 101.284,328.549 115.451,314.715 138.5,310C 161.164,309.5 183.831,309.333 206.5,309.5 Z"/></g>
<g><path style="opacity:1" fill="#000000" d="M 304.5,309.5 C 327.169,309.333 349.836,309.5 372.5,310C 393.929,314.096 407.762,326.596 414,347.5C 415.435,362.775 415.935,378.109 415.5,393.5C 397.167,393.5 378.833,393.5 360.5,393.5C 360.5,425.5 360.5,457.5 360.5,489.5C 334.256,501.226 306.923,508.559 278.5,511.5C 270.833,511.5 263.167,511.5 255.5,511.5C 255.5,457.167 255.5,402.833 255.5,348.5C 256.167,348.5 256.5,348.167 256.5,347.5C 272.5,334.833 288.5,322.167 304.5,309.5 Z"/></g>
<g><path style="opacity:0.995" fill="#fdcdbe" d="M 95.5,393.5 C 113.833,393.5 132.167,393.5 150.5,393.5C 150.5,425.5 150.5,457.5 150.5,489.5C 130.315,480.92 111.982,469.587 95.5,455.5C 95.5,434.833 95.5,414.167 95.5,393.5 Z"/></g>
<g><path style="opacity:0.994" fill="#fcbeac" d="M 415.5,393.5 C 415.5,414.167 415.5,434.833 415.5,455.5C 399.018,469.587 380.685,480.92 360.5,489.5C 360.5,457.5 360.5,425.5 360.5,393.5C 378.833,393.5 397.167,393.5 415.5,393.5 Z"/></g>
</svg>
