<?xml version="1.0" encoding="UTF-8"?>
<!DOCTYPE svg PUBLIC "-//W3C//DTD SVG 1.1//EN" "http://www.w3.org/Graphics/SVG/1.1/DTD/svg11.dtd">
<svg xmlns="http://www.w3.org/2000/svg" version="1.1" width="512px" height="512px" style="shape-rendering:geometricPrecision; text-rendering:geometricPrecision; image-rendering:optimizeQuality; fill-rule:evenodd; clip-rule:evenodd" xmlns:xlink="http://www.w3.org/1999/xlink">
<g><path style="opacity:1" fill="#7175d3" d="M 232.5,-0.5 C 247.833,-0.5 263.167,-0.5 278.5,-0.5C 344.367,6.43335 399.7,34.1 444.5,82.5C 445.419,85.0892 447.086,87.0892 449.5,88.5C 485.446,129.745 506.113,177.745 511.5,232.5C 511.5,247.833 511.5,263.167 511.5,278.5C 510.353,286.195 509.02,293.861 507.5,301.5C 506.732,302.263 506.232,303.263 506,304.5C 442.917,240.916 379.417,177.916 315.5,115.5C 300.685,95.4259 280.685,85.4259 255.5,85.5C 219.69,86.99 195.857,104.657 184,138.5C 182.153,147.734 180.987,157.067 180.5,166.5C 173.449,162.662 168.282,164.329 165,171.5C 160.55,186.532 163.717,199.699 174.5,211C 176.74,211.977 179.073,212.477 181.5,212.5C 179.922,222.457 182.089,231.457 188,239.5C 194.673,247.536 200.839,255.87 206.5,264.5C 206.5,279.5 206.5,294.5 206.5,309.5C 183.831,309.333 161.164,309.5 138.5,310C 115.451,314.715 101.284,328.549 96,351.5C 95.5001,365.496 95.3334,379.496 95.5,393.5C 95.8305,414.007 95.4972,434.34 94.5,454.5C 93.4154,452.413 91.7488,451.08 89.5,450.5C 88.8333,450.5 88.5,450.167 88.5,449.5C 87.4154,447.413 85.7488,446.08 83.5,445.5C 76.5,439.167 69.8333,432.5 63.5,425.5C 63.573,423.973 62.9063,422.973 61.5,422.5C 25.5541,381.255 4.88745,333.255 -0.5,278.5C -0.5,263.167 -0.5,247.833 -0.5,232.5C 0.690499,222.854 2.35717,213.187 4.5,203.5C 6.03954,201.162 6.70621,198.495 6.5,195.5C 14.3886,159.729 29.7219,127.729 52.5,99.5C 54.5869,98.4154 55.9202,96.7488 56.5,94.5C 63.4024,84.9265 71.4024,76.2598 80.5,68.5C 83.7642,66.9059 86.4309,64.5725 88.5,61.5C 118.064,34.88 152.397,16.88 191.5,7.5C 196.12,7.25975 200.453,6.25975 204.5,4.5C 213.753,2.34374 223.086,0.677071 232.5,-0.5 Z"/></g>
<g><path style="opacity:0.996" fill="#8287b7" d="M 204.5,4.5 C 200.453,6.25975 196.12,7.25975 191.5,7.5C 195.547,5.74025 199.88,4.74025 204.5,4.5 Z"/></g>
<g><path style="opacity:0.976" fill="#868bb3" d="M 88.5,61.5 C 86.4309,64.5725 83.7642,66.9059 80.5,68.5C 82.5691,65.4275 85.2358,63.0941 88.5,61.5 Z"/></g>
<g><path style="opacity:0.992" fill="#8b90ab" d="M 444.5,82.5 C 446.914,83.9108 448.581,85.9108 449.5,88.5C 447.086,87.0892 445.419,85.0892 444.5,82.5 Z"/></g>
<g><path style="opacity:1" fill="#fefffe" d="M 255.5,85.5 C 255.5,153.5 255.5,221.5 255.5,289.5C 240.425,292.197 227.591,288.197 217,277.5C 214.015,272.689 210.515,268.356 206.5,264.5C 200.839,255.87 194.673,247.536 188,239.5C 182.089,231.457 179.922,222.457 181.5,212.5C 179.073,212.477 176.74,211.977 174.5,211C 163.717,199.699 160.55,186.532 165,171.5C 168.282,164.329 173.449,162.662 180.5,166.5C 180.987,157.067 182.153,147.734 184,138.5C 195.857,104.657 219.69,86.99 255.5,85.5 Z"/></g>
<g><path style="opacity:1" fill="#d8d9d8" d="M 255.5,85.5 C 280.685,85.4259 300.685,95.4259 315.5,115.5C 325.932,130.807 330.932,147.807 330.5,166.5C 337.551,162.662 342.718,164.329 346,171.5C 350.449,186.535 347.283,199.701 336.5,211C 334.26,211.977 331.927,212.477 329.5,212.5C 331.078,222.457 328.911,231.457 323,239.5C 316.759,246.985 310.759,254.652 305,262.5C 304.506,264.134 304.34,265.801 304.5,267.5C 303.448,267.351 302.448,267.517 301.5,268C 297.069,273.521 292.402,278.854 287.5,284C 285.512,284.18 283.512,284.014 281.5,283.5C 281.5,284.833 281.5,286.167 281.5,287.5C 272.96,289.295 264.293,289.961 255.5,289.5C 255.5,221.5 255.5,153.5 255.5,85.5 Z"/></g>
<g><path style="opacity:0.792" fill="#868baf" d="M 56.5,94.5 C 55.9202,96.7488 54.5869,98.4154 52.5,99.5C 53.0798,97.2512 54.4131,95.5846 56.5,94.5 Z"/></g>
<g><path style="opacity:1" fill="#515498" d="M 315.5,115.5 C 379.417,177.916 442.917,240.916 506,304.5C 506.232,303.263 506.732,302.263 507.5,301.5C 495.747,364.371 465.08,415.705 415.5,455.5C 415.5,434.833 415.5,414.167 415.5,393.5C 415.935,378.109 415.435,362.775 414,347.5C 407.762,326.596 393.929,314.096 372.5,310C 349.836,309.5 327.169,309.333 304.5,309.5C 304.5,295.5 304.5,281.5 304.5,267.5C 304.34,265.801 304.506,264.134 305,262.5C 310.759,254.652 316.759,246.985 323,239.5C 328.911,231.457 331.078,222.457 329.5,212.5C 331.927,212.477 334.26,211.977 336.5,211C 347.283,199.701 350.449,186.535 346,171.5C 342.718,164.329 337.551,162.662 330.5,166.5C 330.932,147.807 325.932,130.807 315.5,115.5 Z"/></g>
<g><path style="opacity:0.851" fill="#8691af" d="M 6.5,195.5 C 6.70621,198.495 6.03954,201.162 4.5,203.5C 4.56513,200.572 5.2318,197.905 6.5,195.5 Z"/></g>
<g><path style="opacity:1" fill="#d8d9d8" d="M 206.5,264.5 C 210.515,268.356 214.015,272.689 217,277.5C 227.591,288.197 240.425,292.197 255.5,289.5C 255.5,309.167 255.5,328.833 255.5,348.5C 239.349,335.259 223.016,322.259 206.5,309.5C 206.5,294.5 206.5,279.5 206.5,264.5 Z"/></g>
<g><path style="opacity:1" fill="#a5a6a5" d="M 304.5,267.5 C 304.5,281.5 304.5,295.5 304.5,309.5C 287.984,322.259 271.651,335.259 255.5,348.5C 255.5,328.833 255.5,309.167 255.5,289.5C 264.293,289.961 272.96,289.295 281.5,287.5C 281.5,286.167 281.5,284.833 281.5,283.5C 283.512,284.014 285.512,284.18 287.5,284C 292.402,278.854 297.069,273.521 301.5,268C 302.448,267.517 303.448,267.351 304.5,267.5 Z"/></g>
<g><path style="opacity:1" fill="#404040" d="M 206.5,309.5 C 223.016,322.259 239.349,335.259 255.5,348.5C 255.5,402.833 255.5,457.167 255.5,511.5C 247.833,511.5 240.167,511.5 232.5,511.5C 204.078,508.56 176.745,501.226 150.5,489.5C 150.5,457.5 150.5,425.5 150.5,393.5C 132.167,393.5 113.833,393.5 95.5,393.5C 95.3334,379.496 95.5001,365.496 96,351.5C 101.284,328.549 115.451,314.715 138.5,310C 161.164,309.5 183.831,309.333 206.5,309.5 Z"/></g>
<g><path style="opacity:1" fill="#000000" d="M 304.5,309.5 C 327.169,309.333 349.836,309.5 372.5,310C 393.929,314.096 407.762,326.596 414,347.5C 415.435,362.775 415.935,378.109 415.5,393.5C 397.167,393.5 378.833,393.5 360.5,393.5C 360.5,425.5 360.5,457.5 360.5,489.5C 334.255,501.226 306.922,508.56 278.5,511.5C 270.833,511.5 263.167,511.5 255.5,511.5C 255.5,457.167 255.5,402.833 255.5,348.5C 271.651,335.259 287.984,322.259 304.5,309.5 Z"/></g>
<g><path style="opacity:1" fill="#d8d9d9" d="M 95.5,393.5 C 113.833,393.5 132.167,393.5 150.5,393.5C 150.5,425.5 150.5,457.5 150.5,489.5C 129.806,480.833 111.14,469.167 94.5,454.5C 95.4972,434.34 95.8305,414.007 95.5,393.5 Z"/></g>
<g><path style="opacity:1" fill="#a6a6a6" d="M 415.5,393.5 C 415.5,414.167 415.5,434.833 415.5,455.5C 399.018,469.587 380.685,480.92 360.5,489.5C 360.5,457.5 360.5,425.5 360.5,393.5C 378.833,393.5 397.167,393.5 415.5,393.5 Z"/></g>
<g><path style="opacity:0.071" fill="#869da3" d="M 61.5,422.5 C 62.9063,422.973 63.573,423.973 63.5,425.5C 62.0937,425.027 61.427,424.027 61.5,422.5 Z"/></g>
<g><path style="opacity:0.98" fill="#8c92a8" d="M 83.5,445.5 C 85.7488,446.08 87.4154,447.413 88.5,449.5C 86.2512,448.92 84.5846,447.587 83.5,445.5 Z"/></g>
<g><path style="opacity:0.996" fill="#878bb0" d="M 89.5,450.5 C 91.7488,451.08 93.4154,452.413 94.5,454.5C 92.2512,453.92 90.5846,452.587 89.5,450.5 Z"/></g>
</svg>
