<?xml version="1.0" encoding="UTF-8"?>
<!DOCTYPE svg PUBLIC "-//W3C//DTD SVG 1.1//EN" "http://www.w3.org/Graphics/SVG/1.1/DTD/svg11.dtd">
<svg xmlns="http://www.w3.org/2000/svg" version="1.1" width="512px" height="512px" style="shape-rendering:geometricPrecision; text-rendering:geometricPrecision; image-rendering:optimizeQuality; fill-rule:evenodd; clip-rule:evenodd" xmlns:xlink="http://www.w3.org/1999/xlink">
<g><path style="opacity:0.997" fill="#6b98fa" d="M 232.5,-0.5 C 247.833,-0.5 263.167,-0.5 278.5,-0.5C 368.144,10.3879 435.644,54.7213 481,132.5C 497.695,163.971 507.861,197.304 511.5,232.5C 511.5,247.833 511.5,263.167 511.5,278.5C 510.551,282.657 509.884,286.99 509.5,291.5C 447.119,229.452 384.785,167.452 322.5,105.5C 305.02,84.9949 282.686,75.9949 255.5,78.5C 220.789,75.7635 195.623,89.7635 180,120.5C 173.522,144.452 163.522,166.785 150,187.5C 147.755,194.346 147.089,201.346 148,208.5C 150.431,214.96 151.931,221.626 152.5,228.5C 150.825,237.851 149.158,247.184 147.5,256.5C 148.954,265.531 150.62,274.531 152.5,283.5C 151.244,292.261 149.577,300.928 147.5,309.5C 123.77,310.284 107.27,321.617 98,343.5C 97.5065,345.134 97.3398,346.801 97.5,348.5C 96.7321,349.263 96.2321,350.263 96,351.5C 95.5001,365.496 95.3334,379.496 95.5,393.5C 95.5,414.167 95.5,434.833 95.5,455.5C 39.1999,409.914 7.19989,350.914 -0.5,278.5C -0.5,263.167 -0.5,247.833 -0.5,232.5C 10.3875,142.857 54.7208,75.3573 132.5,30C 163.971,13.3053 197.304,3.1386 232.5,-0.5 Z"/></g>
<g><path style="opacity:1" fill="#5c5656" d="M 255.5,78.5 C 255.5,104.833 255.5,131.167 255.5,157.5C 236.167,157.5 216.833,157.5 197.5,157.5C 197.333,187.502 197.5,217.502 198,247.5C 201.997,253.656 206.164,259.656 210.5,265.5C 210.5,280.167 210.5,294.833 210.5,309.5C 198.833,309.5 187.167,309.5 175.5,309.5C 167.167,309.5 158.833,309.5 150.5,309.5C 149.5,309.5 148.5,309.5 147.5,309.5C 149.577,300.928 151.244,292.261 152.5,283.5C 150.62,274.531 148.954,265.531 147.5,256.5C 149.158,247.184 150.825,237.851 152.5,228.5C 151.931,221.626 150.431,214.96 148,208.5C 147.089,201.346 147.755,194.346 150,187.5C 163.522,166.785 173.522,144.452 180,120.5C 195.623,89.7635 220.789,75.7635 255.5,78.5 Z"/></g>
<g><path style="opacity:1" fill="#484343" d="M 255.5,78.5 C 282.686,75.9949 305.02,84.9949 322.5,105.5C 325.828,110.148 328.661,115.148 331,120.5C 333.72,130.716 337.053,140.716 341,150.5C 347.631,164.103 354.631,177.436 362,190.5C 363.359,195.775 363.692,201.109 363,206.5C 360.898,213.37 359.398,220.37 358.5,227.5C 359.962,237.213 361.628,246.88 363.5,256.5C 361.837,265.827 360.17,275.16 358.5,284.5C 359.961,292.88 361.627,301.214 363.5,309.5C 362.5,309.5 361.5,309.5 360.5,309.5C 352.167,309.5 343.833,309.5 335.5,309.5C 323.833,309.5 312.167,309.5 300.5,309.5C 300.5,294.833 300.5,280.167 300.5,265.5C 304.836,259.656 309.003,253.656 313,247.5C 313.5,217.502 313.667,187.502 313.5,157.5C 294.167,157.5 274.833,157.5 255.5,157.5C 255.5,131.167 255.5,104.833 255.5,78.5 Z"/></g>
<g><path style="opacity:1" fill="#4d6afe" d="M 322.5,105.5 C 384.785,167.452 447.119,229.452 509.5,291.5C 499.304,358.59 467.971,413.257 415.5,455.5C 415.5,434.833 415.5,414.167 415.5,393.5C 415.667,379.496 415.5,365.496 415,351.5C 414.768,350.263 414.268,349.263 413.5,348.5C 408.15,326.987 394.483,314.154 372.5,310C 369.518,309.502 366.518,309.335 363.5,309.5C 361.627,301.214 359.961,292.88 358.5,284.5C 360.17,275.16 361.837,265.827 363.5,256.5C 361.628,246.88 359.962,237.213 358.5,227.5C 359.398,220.37 360.898,213.37 363,206.5C 363.692,201.109 363.359,195.775 362,190.5C 354.631,177.436 347.631,164.103 341,150.5C 337.053,140.716 333.72,130.716 331,120.5C 328.661,115.148 325.828,110.148 322.5,105.5 Z"/></g>
<g><path style="opacity:1" fill="#fdccbe" d="M 255.5,157.5 C 255.5,201.5 255.5,245.5 255.5,289.5C 236.593,288.55 221.593,280.55 210.5,265.5C 206.164,259.656 201.997,253.656 198,247.5C 197.5,217.502 197.333,187.502 197.5,157.5C 216.833,157.5 236.167,157.5 255.5,157.5 Z"/></g>
<g><path style="opacity:1" fill="#fbbdab" d="M 255.5,157.5 C 274.833,157.5 294.167,157.5 313.5,157.5C 313.667,187.502 313.5,217.502 313,247.5C 309.003,253.656 304.836,259.656 300.5,265.5C 289.43,280.539 274.43,288.539 255.5,289.5C 255.5,245.5 255.5,201.5 255.5,157.5 Z"/></g>
<g><path style="opacity:1" fill="#fcbeac" d="M 210.5,265.5 C 221.593,280.55 236.593,288.55 255.5,289.5C 255.5,309.167 255.5,328.833 255.5,348.5C 228.833,348.5 202.167,348.5 175.5,348.5C 175.5,335.5 175.5,322.5 175.5,309.5C 187.167,309.5 198.833,309.5 210.5,309.5C 210.5,294.833 210.5,280.167 210.5,265.5 Z"/></g>
<g><path style="opacity:1" fill="#f7a690" d="M 300.5,265.5 C 300.5,280.167 300.5,294.833 300.5,309.5C 312.167,309.5 323.833,309.5 335.5,309.5C 335.5,322.5 335.5,335.5 335.5,348.5C 308.833,348.5 282.167,348.5 255.5,348.5C 255.5,328.833 255.5,309.167 255.5,289.5C 274.43,288.539 289.43,280.539 300.5,265.5 Z"/></g>
<g><path style="opacity:1" fill="#fbbdac" d="M 147.5,309.5 C 148.5,309.5 149.5,309.5 150.5,309.5C 150.5,322.5 150.5,335.5 150.5,348.5C 132.833,348.5 115.167,348.5 97.5,348.5C 97.3398,346.801 97.5065,345.134 98,343.5C 107.27,321.617 123.77,310.284 147.5,309.5 Z"/></g>
<g><path style="opacity:1" fill="#bd5958" d="M 150.5,309.5 C 158.833,309.5 167.167,309.5 175.5,309.5C 175.5,322.5 175.5,335.5 175.5,348.5C 175.832,398.669 175.499,448.669 174.5,498.5C 166.197,496.288 158.197,493.288 150.5,489.5C 150.5,457.5 150.5,425.5 150.5,393.5C 150.5,378.5 150.5,363.5 150.5,348.5C 150.5,335.5 150.5,322.5 150.5,309.5 Z"/></g>
<g><path style="opacity:1" fill="#ac504f" d="M 335.5,309.5 C 343.833,309.5 352.167,309.5 360.5,309.5C 360.5,322.5 360.5,335.5 360.5,348.5C 360.5,363.5 360.5,378.5 360.5,393.5C 360.5,425.5 360.5,457.5 360.5,489.5C 352.803,493.288 344.803,496.288 336.5,498.5C 335.501,448.669 335.168,398.669 335.5,348.5C 335.5,335.5 335.5,322.5 335.5,309.5 Z"/></g>
<g><path style="opacity:1" fill="#f6a590" d="M 360.5,309.5 C 361.5,309.5 362.5,309.5 363.5,309.5C 366.518,309.335 369.518,309.502 372.5,310C 394.483,314.154 408.15,326.987 413.5,348.5C 395.833,348.5 378.167,348.5 360.5,348.5C 360.5,335.5 360.5,322.5 360.5,309.5 Z"/></g>
<g><path style="opacity:1" fill="#ac504f" d="M 97.5,348.5 C 115.167,348.5 132.833,348.5 150.5,348.5C 150.5,363.5 150.5,378.5 150.5,393.5C 132.167,393.5 113.833,393.5 95.5,393.5C 95.3334,379.496 95.5001,365.496 96,351.5C 96.2321,350.263 96.7321,349.263 97.5,348.5 Z"/></g>
<g><path style="opacity:1" fill="#ac504f" d="M 175.5,348.5 C 202.167,348.5 228.833,348.5 255.5,348.5C 255.5,402.833 255.5,457.167 255.5,511.5C 247.833,511.5 240.167,511.5 232.5,511.5C 212.664,509.466 193.331,505.132 174.5,498.5C 175.499,448.669 175.832,398.669 175.5,348.5 Z"/></g>
<g><path style="opacity:1" fill="#904241" d="M 255.5,348.5 C 282.167,348.5 308.833,348.5 335.5,348.5C 335.168,398.669 335.501,448.669 336.5,498.5C 317.668,505.133 298.335,509.466 278.5,511.5C 270.833,511.5 263.167,511.5 255.5,511.5C 255.5,457.167 255.5,402.833 255.5,348.5 Z"/></g>
<g><path style="opacity:1" fill="#904241" d="M 360.5,348.5 C 378.167,348.5 395.833,348.5 413.5,348.5C 414.268,349.263 414.768,350.263 415,351.5C 415.5,365.496 415.667,379.496 415.5,393.5C 397.167,393.5 378.833,393.5 360.5,393.5C 360.5,378.5 360.5,363.5 360.5,348.5 Z"/></g>
<g><path style="opacity:0.995" fill="#fcbdab" d="M 95.5,393.5 C 113.833,393.5 132.167,393.5 150.5,393.5C 150.5,425.5 150.5,457.5 150.5,489.5C 130.315,480.92 111.982,469.587 95.5,455.5C 95.5,434.833 95.5,414.167 95.5,393.5 Z"/></g>
<g><path style="opacity:0.997" fill="#f7a690" d="M 360.5,393.5 C 378.833,393.5 397.167,393.5 415.5,393.5C 415.5,414.167 415.5,434.833 415.5,455.5C 399.018,469.587 380.685,480.92 360.5,489.5C 360.5,457.5 360.5,425.5 360.5,393.5 Z"/></g>
</svg>
