<?xml version="1.0" encoding="UTF-8"?>
<!DOCTYPE svg PUBLIC "-//W3C//DTD SVG 1.1//EN" "http://www.w3.org/Graphics/SVG/1.1/DTD/svg11.dtd">
<svg xmlns="http://www.w3.org/2000/svg" version="1.1" width="512px" height="512px" style="shape-rendering:geometricPrecision; text-rendering:geometricPrecision; image-rendering:optimizeQuality; fill-rule:evenodd; clip-rule:evenodd" xmlns:xlink="http://www.w3.org/1999/xlink">
<g><path style="opacity:0.996" fill="#f6cb4b" d="M 232.5,-0.5 C 247.833,-0.5 263.167,-0.5 278.5,-0.5C 368.144,10.3879 435.644,54.7213 481,132.5C 497.695,163.971 507.861,197.304 511.5,232.5C 511.5,247.833 511.5,263.167 511.5,278.5C 510.527,280.948 510.194,283.615 510.5,286.5C 451.145,226.145 391.145,166.478 330.5,107.5C 323.374,97.5503 314.04,90.3836 302.5,86C 289.249,81.1023 275.582,78.6023 261.5,78.5C 245.92,76.1961 230.587,77.6961 215.5,83C 204.83,88.1614 196.497,95.8281 190.5,106C 181.799,108.076 175.965,113.243 173,121.5C 172.194,134.889 172.694,148.223 174.5,161.5C 174.5,162.5 174.5,163.5 174.5,164.5C 168.753,164.739 165.253,167.739 164,173.5C 160.603,187.97 164.103,200.47 174.5,211C 176.677,212.202 179.011,212.702 181.5,212.5C 180.901,219.391 181.735,226.058 184,232.5C 190.845,242.855 198.178,252.855 206,262.5C 206.5,272.494 206.666,282.494 206.5,292.5C 192.206,297.654 178.206,303.321 164.5,309.5C 155.161,309.334 145.827,309.5 136.5,310C 115.013,315.487 101.513,328.987 96,350.5C 95.5,385.498 95.3333,420.498 95.5,455.5C 39.1999,409.914 7.19989,350.914 -0.5,278.5C -0.5,263.167 -0.5,247.833 -0.5,232.5C 10.3875,142.857 54.7208,75.3573 132.5,30C 163.971,13.3053 197.304,3.1386 232.5,-0.5 Z"/></g>
<g><path style="opacity:1" fill="#555a64" d="M 261.5,78.5 C 259.5,78.5 257.5,78.5 255.5,78.5C 255.5,101.167 255.5,123.833 255.5,146.5C 239.807,146.726 224.474,144.559 209.5,140C 206.145,138.882 202.978,137.382 200,135.5C 193.086,155.821 187.42,176.487 183,197.5C 179.619,185.489 176.785,173.489 174.5,161.5C 172.694,148.223 172.194,134.889 173,121.5C 175.965,113.243 181.799,108.076 190.5,106C 196.497,95.8281 204.83,88.1614 215.5,83C 230.587,77.6961 245.92,76.1961 261.5,78.5 Z"/></g>
<g><path style="opacity:1" fill="#333940" d="M 261.5,78.5 C 275.582,78.6023 289.249,81.1023 302.5,86C 314.04,90.3836 323.374,97.5503 330.5,107.5C 333.545,112.797 335.712,118.464 337,124.5C 338.277,137.801 338.777,151.135 338.5,164.5C 338.318,175.926 337.152,187.259 335,198.5C 316.185,169.825 289.685,152.825 255.5,147.5C 255.5,147.167 255.5,146.833 255.5,146.5C 255.5,123.833 255.5,101.167 255.5,78.5C 257.5,78.5 259.5,78.5 261.5,78.5 Z"/></g>
<g><path style="opacity:1" fill="#f2b647" d="M 330.5,107.5 C 391.145,166.478 451.145,226.145 510.5,286.5C 500.846,355.501 469.179,411.834 415.5,455.5C 415.667,420.498 415.5,385.498 415,350.5C 409.284,328.117 395.117,314.617 372.5,310C 363.756,309.805 355.089,309.305 346.5,308.5C 332.5,303.167 318.5,297.833 304.5,292.5C 304.334,282.494 304.5,272.494 305,262.5C 312.822,252.855 320.155,242.855 327,232.5C 329.265,226.058 330.099,219.391 329.5,212.5C 337.195,211.314 342.362,206.981 345,199.5C 349.771,188.572 349.438,177.906 344,167.5C 342.512,165.84 340.679,164.84 338.5,164.5C 338.777,151.135 338.277,137.801 337,124.5C 335.712,118.464 333.545,112.797 330.5,107.5 Z"/></g>
<g><path style="opacity:1" fill="#b36e59" d="M 255.5,146.5 C 255.5,146.833 255.5,147.167 255.5,147.5C 255.5,194.833 255.5,242.167 255.5,289.5C 240.332,292.507 227.499,288.507 217,277.5C 214.385,273.217 211.385,269.217 208,265.5C 207.5,274.494 207.334,283.494 207.5,292.5C 207.167,292.5 206.833,292.5 206.5,292.5C 206.666,282.494 206.5,272.494 206,262.5C 198.178,252.855 190.845,242.855 184,232.5C 181.735,226.058 180.901,219.391 181.5,212.5C 179.011,212.702 176.677,212.202 174.5,211C 164.103,200.47 160.603,187.97 164,173.5C 165.253,167.739 168.753,164.739 174.5,164.5C 174.5,163.5 174.5,162.5 174.5,161.5C 176.785,173.489 179.619,185.489 183,197.5C 187.42,176.487 193.086,155.821 200,135.5C 202.978,137.382 206.145,138.882 209.5,140C 224.474,144.559 239.807,146.726 255.5,146.5 Z"/></g>
<g><path style="opacity:1" fill="#a55d4d" d="M 255.5,147.5 C 289.685,152.825 316.185,169.825 335,198.5C 337.152,187.259 338.318,175.926 338.5,164.5C 340.679,164.84 342.512,165.84 344,167.5C 349.438,177.906 349.771,188.572 345,199.5C 342.362,206.981 337.195,211.314 329.5,212.5C 330.099,219.391 329.265,226.058 327,232.5C 320.155,242.855 312.822,252.855 305,262.5C 304.5,272.494 304.334,282.494 304.5,292.5C 304.167,292.5 303.833,292.5 303.5,292.5C 303.666,283.494 303.5,274.494 303,265.5C 297.967,272.742 292.134,279.242 285.5,285C 281.479,287.34 277.146,288.674 272.5,289C 266.843,289.499 261.176,289.666 255.5,289.5C 255.5,242.167 255.5,194.833 255.5,147.5 Z"/></g>
<g><path style="opacity:1" fill="#a65d4e" d="M 255.5,289.5 C 255.5,295.833 255.5,302.167 255.5,308.5C 246.651,308.174 237.984,308.507 229.5,309.5C 223.5,309.5 217.5,309.5 211.5,309.5C 210.009,303.868 208.675,298.201 207.5,292.5C 207.334,283.494 207.5,274.494 208,265.5C 211.385,269.217 214.385,273.217 217,277.5C 227.499,288.507 240.332,292.507 255.5,289.5 Z"/></g>
<g><path style="opacity:1" fill="#8e5043" d="M 303.5,292.5 C 302.323,298.208 300.99,303.874 299.5,309.5C 293.5,309.5 287.5,309.5 281.5,309.5C 272.833,309.5 264.167,309.5 255.5,309.5C 246.833,309.5 238.167,309.5 229.5,309.5C 237.984,308.507 246.651,308.174 255.5,308.5C 255.5,302.167 255.5,295.833 255.5,289.5C 261.176,289.666 266.843,289.499 272.5,289C 277.146,288.674 281.479,287.34 285.5,285C 292.134,279.242 297.967,272.742 303,265.5C 303.5,274.494 303.666,283.494 303.5,292.5 Z"/></g>
<g><path style="opacity:1" fill="#f4445e" d="M 206.5,292.5 C 206.833,292.5 207.167,292.5 207.5,292.5C 208.675,298.201 210.009,303.868 211.5,309.5C 218.674,336.408 226.34,363.074 234.5,389.5C 241.175,414.522 247.842,439.522 254.5,464.5C 227.149,420.982 200.149,377.148 173.5,333C 176.99,330.089 180.656,327.422 184.5,325C 177.933,319.587 171.267,314.421 164.5,309.5C 178.206,303.321 192.206,297.654 206.5,292.5 Z"/></g>
<g><path style="opacity:1" fill="#c8043d" d="M 303.5,292.5 C 303.833,292.5 304.167,292.5 304.5,292.5C 318.5,297.833 332.5,303.167 346.5,308.5C 346.586,309.496 346.252,310.329 345.5,311C 338.885,315.281 332.552,319.947 326.5,325C 330.344,327.422 334.01,330.089 337.5,333C 310.851,377.148 283.851,420.982 256.5,464.5C 263.009,439.463 269.676,414.463 276.5,389.5C 284.149,362.916 291.816,336.25 299.5,309.5C 300.99,303.874 302.323,298.208 303.5,292.5 Z"/></g>
<g><path style="opacity:0.998" fill="#f77a82" d="M 164.5,309.5 C 171.267,314.421 177.933,319.587 184.5,325C 180.656,327.422 176.99,330.089 173.5,333C 200.149,377.148 227.149,420.982 254.5,464.5C 254.833,464.5 255.167,464.5 255.5,464.5C 255.5,480.167 255.5,495.833 255.5,511.5C 247.833,511.5 240.167,511.5 232.5,511.5C 206.878,508.928 182.211,502.594 158.5,492.5C 158.5,459.5 158.5,426.5 158.5,393.5C 153.5,393.5 148.5,393.5 143.5,393.5C 143.5,424.5 143.5,455.5 143.5,486.5C 126.102,478.147 110.102,467.813 95.5,455.5C 95.3333,420.498 95.5,385.498 96,350.5C 101.513,328.987 115.013,315.487 136.5,310C 145.827,309.5 155.161,309.334 164.5,309.5 Z"/></g>
<g><path style="opacity:1" fill="#fcfbfc" d="M 211.5,309.5 C 217.5,309.5 223.5,309.5 229.5,309.5C 232.286,322.886 235.286,336.22 238.5,349.5C 236.902,362.809 235.569,376.142 234.5,389.5C 226.34,363.074 218.674,336.408 211.5,309.5 Z"/></g>
<g><path style="opacity:1" fill="#333940" d="M 229.5,309.5 C 238.167,309.5 246.833,309.5 255.5,309.5C 255.5,322.833 255.5,336.167 255.5,349.5C 249.833,349.5 244.167,349.5 238.5,349.5C 235.286,336.22 232.286,322.886 229.5,309.5 Z"/></g>
<g><path style="opacity:1" fill="#101214" d="M 255.5,309.5 C 264.167,309.5 272.833,309.5 281.5,309.5C 278.186,322.09 275.186,334.756 272.5,347.5C 267.13,349.379 261.463,350.045 255.5,349.5C 255.5,336.167 255.5,322.833 255.5,309.5 Z"/></g>
<g><path style="opacity:1" fill="#e5e9f1" d="M 281.5,309.5 C 287.5,309.5 293.5,309.5 299.5,309.5C 291.816,336.25 284.149,362.916 276.5,389.5C 274.626,375.557 273.293,361.557 272.5,347.5C 275.186,334.756 278.186,322.09 281.5,309.5 Z"/></g>
<g><path style="opacity:0.998" fill="#f4425d" d="M 346.5,308.5 C 355.089,309.305 363.756,309.805 372.5,310C 395.117,314.617 409.284,328.117 415,350.5C 415.5,385.498 415.667,420.498 415.5,455.5C 400.898,467.813 384.898,478.147 367.5,486.5C 367.5,455.5 367.5,424.5 367.5,393.5C 362.5,393.5 357.5,393.5 352.5,393.5C 352.5,426.5 352.5,459.5 352.5,492.5C 328.789,502.594 304.122,508.928 278.5,511.5C 270.833,511.5 263.167,511.5 255.5,511.5C 255.5,495.833 255.5,480.167 255.5,464.5C 255.833,464.5 256.167,464.5 256.5,464.5C 283.851,420.982 310.851,377.148 337.5,333C 334.01,330.089 330.344,327.422 326.5,325C 332.552,319.947 338.885,315.281 345.5,311C 346.252,310.329 346.586,309.496 346.5,308.5 Z"/></g>
<g><path style="opacity:1" fill="#565a65" d="M 238.5,349.5 C 244.167,349.5 249.833,349.5 255.5,349.5C 255.5,387.833 255.5,426.167 255.5,464.5C 255.167,464.5 254.833,464.5 254.5,464.5C 247.842,439.522 241.175,414.522 234.5,389.5C 235.569,376.142 236.902,362.809 238.5,349.5 Z"/></g>
<g><path style="opacity:1" fill="#333940" d="M 272.5,347.5 C 273.293,361.557 274.626,375.557 276.5,389.5C 269.676,414.463 263.009,439.463 256.5,464.5C 256.167,464.5 255.833,464.5 255.5,464.5C 255.5,426.167 255.5,387.833 255.5,349.5C 261.463,350.045 267.13,349.379 272.5,347.5 Z"/></g>
<g><path style="opacity:0.998" fill="#f5435e" d="M 158.5,492.5 C 153.348,490.893 148.348,488.893 143.5,486.5C 143.5,455.5 143.5,424.5 143.5,393.5C 148.5,393.5 153.5,393.5 158.5,393.5C 158.5,426.5 158.5,459.5 158.5,492.5 Z"/></g>
<g><path style="opacity:0.997" fill="#c8003d" d="M 367.5,486.5 C 362.606,488.781 357.606,490.781 352.5,492.5C 352.5,459.5 352.5,426.5 352.5,393.5C 357.5,393.5 362.5,393.5 367.5,393.5C 367.5,424.5 367.5,455.5 367.5,486.5 Z"/></g>
</svg>
