<?xml version="1.0" encoding="UTF-8"?>
<!DOCTYPE svg PUBLIC "-//W3C//DTD SVG 1.1//EN" "http://www.w3.org/Graphics/SVG/1.1/DTD/svg11.dtd">
<svg xmlns="http://www.w3.org/2000/svg" version="1.1" width="512px" height="512px" style="shape-rendering:geometricPrecision; text-rendering:geometricPrecision; image-rendering:optimizeQuality; fill-rule:evenodd; clip-rule:evenodd" xmlns:xlink="http://www.w3.org/1999/xlink">
<g><path style="opacity:1" fill="#913434" d="M 232.5,-0.5 C 247.833,-0.5 263.167,-0.5 278.5,-0.5C 344.367,6.43335 399.7,34.1 444.5,82.5C 445.419,85.0892 447.086,87.0892 449.5,88.5C 485.657,129.515 505.99,177.515 510.5,232.5C 510.665,236.182 510.499,239.848 510,243.5C 455.632,188.965 401.132,134.632 346.5,80.5C 331.039,59.9206 310.372,47.754 284.5,44C 274.887,42.5053 265.22,41.672 255.5,41.5C 228.213,41.0682 203.213,48.2348 180.5,63C 159.955,81.2959 152.122,104.129 157,131.5C 158.346,139.213 159.846,146.88 161.5,154.5C 153.949,160.446 150.616,168.279 151.5,178C 151.76,187.566 152.593,197.066 154,206.5C 156.284,210.614 159.117,214.28 162.5,217.5C 168.167,223.833 174.167,229.833 180.5,235.5C 184.777,247.387 191.11,258.054 199.5,267.5C 199.5,281.5 199.5,295.5 199.5,309.5C 186.577,318.792 174.244,328.792 162.5,339.5C 137.831,339.333 113.164,339.5 88.5,340C 70.6667,344.5 59.5,355.667 55,373.5C 54.5001,387.163 54.3334,400.829 54.5,414.5C 22.9252,374.662 4.59186,329.328 -0.5,278.5C -0.5,263.167 -0.5,247.833 -0.5,232.5C 4.88689,177.746 25.5536,129.746 61.5,88.5C 63.5869,87.4154 64.9202,85.7488 65.5,83.5C 70.1667,78.1667 75.1667,73.1667 80.5,68.5C 83.7642,66.9059 86.4309,64.5725 88.5,61.5C 129.745,25.5541 177.745,4.88745 232.5,-0.5 Z"/></g>
<g><path style="opacity:1" fill="#161716" d="M 255.5,41.5 C 255.5,78.5 255.5,115.5 255.5,152.5C 247.82,144.315 240.654,135.648 234,126.5C 227.577,135.678 220.911,144.678 214,153.5C 209.085,144.668 203.918,136.001 198.5,127.5C 190.987,147.188 183.487,166.855 176,186.5C 171.435,175.605 166.601,164.939 161.5,154.5C 159.846,146.88 158.346,139.213 157,131.5C 152.122,104.129 159.955,81.2959 180.5,63C 203.213,48.2348 228.213,41.0682 255.5,41.5 Z"/></g>
<g><path style="opacity:1" fill="#000000" d="M 255.5,41.5 C 265.22,41.672 274.887,42.5053 284.5,44C 310.372,47.754 331.039,59.9206 346.5,80.5C 354.645,97.3249 357.145,114.992 354,133.5C 352.654,140.549 351.154,147.549 349.5,154.5C 344.919,165.059 340.419,175.726 336,186.5C 328.264,167.127 320.431,147.793 312.5,128.5C 307.347,136.797 302.181,145.131 297,153.5C 290.333,144.833 283.667,136.167 277,127.5C 269.592,136.065 262.425,144.732 255.5,153.5C 255.5,153.167 255.5,152.833 255.5,152.5C 255.5,115.5 255.5,78.5 255.5,41.5 Z"/></g>
<g><path style="opacity:0.976" fill="#85594e" d="M 88.5,61.5 C 86.4309,64.5725 83.7642,66.9059 80.5,68.5C 82.5691,65.4275 85.2358,63.0941 88.5,61.5 Z"/></g>
<g><path style="opacity:1" fill="#7a2c2c" d="M 346.5,80.5 C 401.132,134.632 455.632,188.965 510,243.5C 510.499,239.848 510.665,236.182 510.5,232.5C 510.833,232.5 511.167,232.5 511.5,232.5C 511.5,247.833 511.5,263.167 511.5,278.5C 506.409,328.794 488.409,373.794 457.5,413.5C 457.906,399.782 457.406,386.115 456,372.5C 450.171,352.67 437.004,341.504 416.5,339C 393.996,338.17 371.663,338.337 349.5,339.5C 337.121,329.119 324.454,319.119 311.5,309.5C 311.5,295.833 311.5,282.167 311.5,268.5C 323.424,254.648 331.091,238.648 334.5,220.5C 346.633,220.845 354.467,215.178 358,203.5C 359.332,191.524 359.666,179.524 359,167.5C 357.289,162.069 354.123,157.735 349.5,154.5C 351.154,147.549 352.654,140.549 354,133.5C 357.145,114.992 354.645,97.3249 346.5,80.5 Z"/></g>
<g><path style="opacity:0.992" fill="#816154" d="M 444.5,82.5 C 446.914,83.9108 448.581,85.9108 449.5,88.5C 447.086,87.0892 445.419,85.0892 444.5,82.5 Z"/></g>
<g><path style="opacity:0.867" fill="#7e685c" d="M 65.5,83.5 C 64.9202,85.7488 63.5869,87.4154 61.5,88.5C 62.0798,86.2512 63.4131,84.5846 65.5,83.5 Z"/></g>
<g><path style="opacity:1" fill="#fec296" d="M 255.5,152.5 C 255.5,152.833 255.5,153.167 255.5,153.5C 255.5,169.5 255.5,185.5 255.5,201.5C 242.121,201.119 228.788,201.619 215.5,203C 202.247,208.293 189.247,214.127 176.5,220.5C 171.849,219.891 167.182,218.891 162.5,217.5C 159.117,214.28 156.284,210.614 154,206.5C 152.593,197.066 151.76,187.566 151.5,178C 150.616,168.279 153.949,160.446 161.5,154.5C 166.601,164.939 171.435,175.605 176,186.5C 183.487,166.855 190.987,147.188 198.5,127.5C 203.918,136.001 209.085,144.668 214,153.5C 220.911,144.678 227.577,135.678 234,126.5C 240.654,135.648 247.82,144.315 255.5,152.5 Z"/></g>
<g><path style="opacity:1" fill="#e9a577" d="M 349.5,154.5 C 354.123,157.735 357.289,162.069 359,167.5C 359.666,179.524 359.332,191.524 358,203.5C 354.467,215.178 346.633,220.845 334.5,220.5C 322.208,213.854 309.542,208.021 296.5,203C 282.885,201.594 269.218,201.094 255.5,201.5C 255.5,185.5 255.5,169.5 255.5,153.5C 262.425,144.732 269.592,136.065 277,127.5C 283.667,136.167 290.333,144.833 297,153.5C 302.181,145.131 307.347,136.797 312.5,128.5C 320.431,147.793 328.264,167.127 336,186.5C 340.419,175.726 344.919,165.059 349.5,154.5 Z"/></g>
<g><path style="opacity:1" fill="#fefefe" d="M 255.5,201.5 C 255.5,232.167 255.5,262.833 255.5,293.5C 233.478,291.819 214.811,283.153 199.5,267.5C 191.11,258.054 184.777,247.387 180.5,235.5C 179.167,230.5 177.833,225.5 176.5,220.5C 189.247,214.127 202.247,208.293 215.5,203C 228.788,201.619 242.121,201.119 255.5,201.5 Z"/></g>
<g><path style="opacity:1" fill="#d8f0fa" d="M 255.5,201.5 C 269.218,201.094 282.885,201.594 296.5,203C 309.542,208.021 322.208,213.854 334.5,220.5C 331.091,238.648 323.424,254.648 311.5,268.5C 296.041,283.774 277.375,292.107 255.5,293.5C 255.5,262.833 255.5,232.167 255.5,201.5 Z"/></g>
<g><path style="opacity:1" fill="#7a2c2b" d="M 162.5,217.5 C 167.182,218.891 171.849,219.891 176.5,220.5C 177.833,225.5 179.167,230.5 180.5,235.5C 174.167,229.833 168.167,223.833 162.5,217.5 Z"/></g>
<g><path style="opacity:1" fill="#e9a578" d="M 199.5,267.5 C 214.811,283.153 233.478,291.819 255.5,293.5C 255.5,318.167 255.5,342.833 255.5,367.5C 236.47,348.47 217.803,329.137 199.5,309.5C 199.5,295.5 199.5,281.5 199.5,267.5 Z"/></g>
<g><path style="opacity:1" fill="#d28b5b" d="M 311.5,268.5 C 311.5,282.167 311.5,295.833 311.5,309.5C 293.197,329.137 274.53,348.47 255.5,367.5C 255.5,342.833 255.5,318.167 255.5,293.5C 277.375,292.107 296.041,283.774 311.5,268.5 Z"/></g>
<g><path style="opacity:1" fill="#dadada" d="M 199.5,309.5 C 217.803,329.137 236.47,348.47 255.5,367.5C 255.167,368.167 254.833,368.833 254.5,369.5C 239.592,378.873 224.426,387.873 209,396.5C 192.581,378.248 177.081,359.248 162.5,339.5C 174.244,328.792 186.577,318.792 199.5,309.5 Z"/></g>
<g><path style="opacity:1" fill="#bebebe" d="M 311.5,309.5 C 324.454,319.119 337.121,329.119 349.5,339.5C 334.182,358.98 318.349,377.98 302,396.5C 286.379,387.61 270.879,378.61 255.5,369.5C 255.167,369.5 254.833,369.5 254.5,369.5C 254.833,368.833 255.167,368.167 255.5,367.5C 274.53,348.47 293.197,329.137 311.5,309.5 Z"/></g>
<g><path style="opacity:0.996" fill="#fefefe" d="M 162.5,339.5 C 177.081,359.248 192.581,378.248 209,396.5C 224.426,387.873 239.592,378.873 254.5,369.5C 254.833,369.5 255.167,369.5 255.5,369.5C 255.5,416.833 255.5,464.167 255.5,511.5C 247.833,511.5 240.167,511.5 232.5,511.5C 202.253,508.353 173.253,500.353 145.5,487.5C 145.5,466.833 145.5,446.167 145.5,425.5C 134.833,425.5 124.167,425.5 113.5,425.5C 113.5,439.833 113.5,454.167 113.5,468.5C 90.7271,454.068 71.0605,436.068 54.5,414.5C 54.3334,400.829 54.5001,387.163 55,373.5C 59.5,355.667 70.6667,344.5 88.5,340C 113.164,339.5 137.831,339.333 162.5,339.5 Z"/></g>
<g><path style="opacity:1" fill="#dadada" d="M 457.5,413.5 C 440.674,434.997 421.007,453.33 398.5,468.5C 398.5,454.167 398.5,439.833 398.5,425.5C 387.5,425.5 376.5,425.5 365.5,425.5C 365.17,446.007 365.503,466.34 366.5,486.5C 338.657,500.115 309.324,508.448 278.5,511.5C 270.833,511.5 263.167,511.5 255.5,511.5C 255.5,464.167 255.5,416.833 255.5,369.5C 270.879,378.61 286.379,387.61 302,396.5C 318.349,377.98 334.182,358.98 349.5,339.5C 371.663,338.337 393.996,338.17 416.5,339C 437.004,341.504 450.171,352.67 456,372.5C 457.406,386.115 457.906,399.782 457.5,413.5 Z"/></g>
<g><path style="opacity:1" fill="#dbdbdb" d="M 145.5,487.5 C 134.137,482.159 123.47,475.826 113.5,468.5C 113.5,454.167 113.5,439.833 113.5,425.5C 124.167,425.5 134.833,425.5 145.5,425.5C 145.5,446.167 145.5,466.833 145.5,487.5 Z"/></g>
<g><path style="opacity:1" fill="#c0c0c0" d="M 398.5,468.5 C 388.454,475.525 377.787,481.525 366.5,486.5C 365.503,466.34 365.17,446.007 365.5,425.5C 376.5,425.5 387.5,425.5 398.5,425.5C 398.5,439.833 398.5,454.167 398.5,468.5 Z"/></g>
</svg>
