<?xml version="1.0" encoding="UTF-8"?>
<!DOCTYPE svg PUBLIC "-//W3C//DTD SVG 1.1//EN" "http://www.w3.org/Graphics/SVG/1.1/DTD/svg11.dtd">
<svg xmlns="http://www.w3.org/2000/svg" version="1.1" width="100px" height="95px" style="shape-rendering:geometricPrecision; text-rendering:geometricPrecision; image-rendering:optimizeQuality; fill-rule:evenodd; clip-rule:evenodd" xmlns:xlink="http://www.w3.org/1999/xlink">
<g><path style="opacity:0.961" fill="#070708" d="M 5.5,-0.5 C 34.8333,-0.5 64.1667,-0.5 93.5,-0.5C 95.4752,1.13696 97.4752,2.80363 99.5,4.5C 99.5,27.1667 99.5,49.8333 99.5,72.5C 97.9309,75.2284 95.5975,77.0617 92.5,78C 74.5,78.3333 56.5,78.6667 38.5,79C 35.3112,84.3363 31.9779,89.503 28.5,94.5C 25.8333,94.5 23.1667,94.5 20.5,94.5C 17.1925,89.5178 13.8592,84.5178 10.5,79.5C 5.95928,78.4043 2.29261,76.071 -0.5,72.5C -0.5,50.1667 -0.5,27.8333 -0.5,5.5C 1.16667,3.16667 3.16667,1.16667 5.5,-0.5 Z"/></g>
<g><path style="opacity:1" fill="#7074d3" d="M 94.5,5.5 C 93.9569,5.55999 93.6236,5.89333 93.5,6.5C 94.1562,27.9609 94.8228,49.2942 95.5,70.5C 94.7101,71.7942 93.7101,72.9609 92.5,74C 73.8333,74.3333 55.1667,74.6667 36.5,75C 33.0483,80.9437 29.0483,86.4437 24.5,91.5C 20.2818,87.4085 16.7818,82.7418 14,77.5C 12.1127,75.114 9.61268,73.9473 6.5,74C 4.85883,72.871 3.85883,71.371 3.5,69.5C 4.3319,49.0041 4.8319,28.3374 5,7.5C 5.92458,6.95349 6.75792,6.28683 7.5,5.5C 7.37642,4.89333 7.04309,4.55999 6.5,4.5C 6.61071,3.88258 6.94404,3.38258 7.5,3C 35.5,2.33333 63.5,2.33333 91.5,3C 92.5707,3.85175 93.5707,4.68509 94.5,5.5 Z"/></g>
<g><path style="opacity:1" fill="#7377d1" d="M 6.5,4.5 C 7.04309,4.55999 7.37642,4.89333 7.5,5.5C 6.75792,6.28683 5.92458,6.95349 5,7.5C 4.8319,28.3374 4.3319,49.0041 3.5,69.5C 2.33738,49.0041 2.17072,28.3374 3,7.5C 4.0391,6.2899 5.20577,5.2899 6.5,4.5 Z"/></g>
<g><path style="opacity:1" fill="#7276d7" d="M 94.5,5.5 C 94.7828,6.28913 95.2828,6.9558 96,7.5C 96.8209,28.5729 96.6542,49.5729 95.5,70.5C 94.8228,49.2942 94.1562,27.9609 93.5,6.5C 93.6236,5.89333 93.9569,5.55999 94.5,5.5 Z"/></g>
<g><path style="opacity:1" fill="#0c0b12" d="M 21.5,28.5 C 40.1696,28.3334 58.8363,28.5001 77.5,29C 78.8333,30.6667 78.8333,32.3333 77.5,34C 59.1667,34.6667 40.8333,34.6667 22.5,34C 21.5939,32.3005 21.2606,30.4672 21.5,28.5 Z"/></g>
<g><path style="opacity:1" fill="#020204" d="M 21.5,46.5 C 35.504,46.3334 49.504,46.5001 63.5,47C 64.8333,48.3333 64.8333,49.6667 63.5,51C 49.5,51.6667 35.5,51.6667 21.5,51C 20.2721,49.5098 20.2721,48.0098 21.5,46.5 Z"/></g>
</svg>
