<?xml version="1.0" encoding="UTF-8"?>
<!DOCTYPE svg PUBLIC "-//W3C//DTD SVG 1.1//EN" "http://www.w3.org/Graphics/SVG/1.1/DTD/svg11.dtd">
<svg xmlns="http://www.w3.org/2000/svg" version="1.1" width="100px" height="100px" style="shape-rendering:geometricPrecision; text-rendering:geometricPrecision; image-rendering:optimizeQuality; fill-rule:evenodd; clip-rule:evenodd" xmlns:xlink="http://www.w3.org/1999/xlink">
<g><path style="opacity:0.918" fill="#28294c" d="M 39.5,7.5 C 46.9209,7.10946 54.2542,7.60946 61.5,9C 64.9799,11.2975 66.9799,14.4642 67.5,18.5C 78.2828,16.1438 86.1162,19.8105 91,29.5C 91.6667,36.5 91.6667,43.5 91,50.5C 79.6943,57.9546 67.1943,61.6213 53.5,61.5C 53.6641,64.1873 53.4974,66.854 53,69.5C 51.1735,73.0374 48.8402,73.3707 46,70.5C 45.502,67.5184 45.3354,64.5184 45.5,61.5C 31.8406,61.6286 19.3406,57.9619 8,50.5C 7.33333,43.5 7.33333,36.5 8,29.5C 12.7144,19.6321 20.5477,15.9655 31.5,18.5C 32.619,13.7134 35.2857,10.0467 39.5,7.5 Z M 42.5,14.5 C 47.5111,14.3341 52.5111,14.5007 57.5,15C 58.3567,15.6891 59.0233,16.5224 59.5,17.5C 52.5237,18.6644 45.5237,18.8311 38.5,18C 39.7305,16.5952 41.0639,15.4286 42.5,14.5 Z M 20.5,25.5 C 39.8362,25.3334 59.1695,25.5 78.5,26C 81,27.1667 82.8333,29 84,31.5C 84.6667,36.5 84.6667,41.5 84,46.5C 69.374,54.0125 53.874,56.5125 37.5,54C 29.4838,52.9565 21.9838,50.4565 15,46.5C 14.3333,41.5 14.3333,36.5 15,31.5C 16.3597,28.9774 18.193,26.9774 20.5,25.5 Z"/></g>
<g><path style="opacity:0.902" fill="#28294c" d="M 8.5,60.5 C 10.4672,60.2606 12.3005,60.5939 14,61.5C 14.4422,68.0688 15.7755,74.4021 18,80.5C 19.4194,81.4601 20.9194,82.2935 22.5,83C 40.5,83.6667 58.5,83.6667 76.5,83C 79.3333,81.5 81.5,79.3333 83,76.5C 83.5847,71.489 84.2514,66.489 85,61.5C 87.2672,60.0652 89.2672,60.3985 91,62.5C 91.7833,70.2455 90.4499,77.5789 87,84.5C 84.5925,86.9561 81.7591,88.7894 78.5,90C 59.5,90.6667 40.5,90.6667 21.5,90C 16.2884,88.9826 12.4551,86.1492 10,81.5C 7.76692,74.5831 7.26692,67.5831 8.5,60.5 Z"/></g>
</svg>
