<?xml version="1.0" encoding="UTF-8"?>
<!DOCTYPE svg PUBLIC "-//W3C//DTD SVG 1.1//EN" "http://www.w3.org/Graphics/SVG/1.1/DTD/svg11.dtd">
<svg xmlns="http://www.w3.org/2000/svg" version="1.1" width="100px" height="100px" style="shape-rendering:geometricPrecision; text-rendering:geometricPrecision; image-rendering:optimizeQuality; fill-rule:evenodd; clip-rule:evenodd" xmlns:xlink="http://www.w3.org/1999/xlink">
<g><path style="opacity:0.92" fill="#28294c" d="M 29.5,3.5 C 33.8333,3.16667 35.8333,5.16667 35.5,9.5C 44.1667,9.5 52.8333,9.5 61.5,9.5C 60.8479,4.67307 62.8479,2.83973 67.5,4C 68.1667,6 68.8333,8 69.5,10C 80.004,10.8418 86.504,16.3418 89,26.5C 89.1667,34.8333 89.3333,43.1667 89.5,51.5C 89.613,61.2233 89.113,70.89 88,80.5C 84.9036,87.2658 79.7369,91.4324 72.5,93C 56.5,93.6667 40.5,93.6667 24.5,93C 15.6667,90.8333 10.1667,85.3333 8,76.5C 7.33333,59.8333 7.33333,43.1667 8,26.5C 10.5743,16.4307 17.0743,10.7641 27.5,9.5C 28.2945,7.50494 28.9612,5.50494 29.5,3.5 Z M 35.5,16.5 C 44.1667,16.5 52.8333,16.5 61.5,16.5C 60.5727,20.4454 61.906,23.1121 65.5,24.5C 68.0934,22.9292 69.0934,20.5959 68.5,17.5C 78.5284,18.4859 83.1951,24.1526 82.5,34.5C 59.8333,34.5 37.1667,34.5 14.5,34.5C 13.8049,24.1526 18.4716,18.4859 28.5,17.5C 27.9711,20.6041 28.9711,22.9375 31.5,24.5C 34.893,22.9374 36.2263,20.2708 35.5,16.5 Z M 14.5,41.5 C 37.1667,41.5 59.8333,41.5 82.5,41.5C 82.6665,52.505 82.4998,63.505 82,74.5C 80.9471,80.5535 77.4471,84.3868 71.5,86C 56.1667,86.6667 40.8333,86.6667 25.5,86C 20,84.5 16.5,81 15,75.5C 14.5001,64.1716 14.3335,52.8382 14.5,41.5 Z"/></g>
<g><path style="opacity:0.836" fill="#28294b" d="M 27.5,50.5 C 33.5548,49.9421 34.8881,52.1088 31.5,57C 30.1011,57.5946 28.7678,57.4279 27.5,56.5C 26.3058,54.4844 26.3058,52.4844 27.5,50.5 Z"/></g>
<g><path style="opacity:0.794" fill="#28294c" d="M 46.5,50.5 C 51.9754,50.4397 53.3087,52.6064 50.5,57C 45.1766,57.1802 43.8433,55.0136 46.5,50.5 Z"/></g>
<g><path style="opacity:0.834" fill="#28294b" d="M 64.5,50.5 C 70.5548,49.9421 71.8881,52.1088 68.5,57C 67.1011,57.5946 65.7678,57.4279 64.5,56.5C 63.3058,54.4844 63.3058,52.4844 64.5,50.5 Z"/></g>
<g><path style="opacity:0.817" fill="#28294c" d="M 28.5,66.5 C 32.9764,66.8003 34.3097,68.9669 32.5,73C 26.3389,73.878 25.0055,71.7113 28.5,66.5 Z"/></g>
<g><path style="opacity:0.84" fill="#28294c" d="M 46.5,66.5 C 51.6511,66.6536 52.9845,68.8202 50.5,73C 44.7783,73.4527 43.445,71.286 46.5,66.5 Z"/></g>
<g><path style="opacity:0.805" fill="#28294c" d="M 65.5,66.5 C 69.9764,66.8003 71.3097,68.9669 69.5,73C 63.3389,73.878 62.0055,71.7113 65.5,66.5 Z"/></g>
</svg>
