<?xml version="1.0" encoding="UTF-8"?>
<!DOCTYPE svg PUBLIC "-//W3C//DTD SVG 1.1//EN" "http://www.w3.org/Graphics/SVG/1.1/DTD/svg11.dtd">
<svg xmlns="http://www.w3.org/2000/svg" version="1.1" width="512px" height="513px" style="shape-rendering:geometricPrecision; text-rendering:geometricPrecision; image-rendering:optimizeQuality; fill-rule:evenodd; clip-rule:evenodd" xmlns:xlink="http://www.w3.org/1999/xlink">
<g><path style="opacity:1" fill="#fbfbfb" d="M 288.5,-0.5 C 321.167,-0.5 353.833,-0.5 386.5,-0.5C 388.869,0.689986 390.869,2.35665 392.5,4.5C 393.167,5.83333 394.167,6.83333 395.5,7.5C 395.738,9.40435 396.738,10.7377 398.5,11.5C 399.793,12.842 400.626,14.5087 401,16.5C 401.667,45.5 401.667,74.5 401,103.5C 400.856,106.442 399.689,108.776 397.5,110.5C 396.094,110.973 395.427,111.973 395.5,113.5C 394.833,114.833 393.833,115.833 392.5,116.5C 390.973,116.427 389.973,117.094 389.5,118.5C 387.507,120.163 385.174,121.33 382.5,122C 364.167,122.333 345.833,122.667 327.5,123C 323.068,122.89 319.402,124.39 316.5,127.5C 315.71,128.609 315.21,129.942 315,131.5C 314.5,145.163 314.333,158.829 314.5,172.5C 335.167,172.5 355.833,172.5 376.5,172.5C 380.842,172.278 384.509,173.611 387.5,176.5C 387.973,177.906 388.973,178.573 390.5,178.5C 393.277,180.951 395.277,183.951 396.5,187.5C 396.565,190.428 397.232,193.095 398.5,195.5C 398.5,223.833 398.5,252.167 398.5,280.5C 396.72,281.99 396.054,283.99 396.5,286.5C 396.672,287.492 396.338,288.158 395.5,288.5C 391.5,291.167 388.167,294.5 385.5,298.5C 383.852,299.927 381.852,300.76 379.5,301C 358.169,301.5 336.836,301.667 315.5,301.5C 315.667,364.834 315.5,428.168 315,491.5C 314.79,493.058 314.29,494.391 313.5,495.5C 310.907,497.008 309.574,499.341 309.5,502.5C 309.167,503.5 308.5,504.167 307.5,504.5C 305.565,505.15 303.565,505.483 301.5,505.5C 301.64,507.124 300.973,508.29 299.5,509C 266.168,509.5 232.835,509.667 199.5,509.5C 198.07,508.463 196.403,507.796 194.5,507.5C 191.813,503.817 188.813,500.483 185.5,497.5C 185.598,495.447 184.931,493.78 183.5,492.5C 182.504,428.905 182.171,365.238 182.5,301.5C 164.497,301.667 146.497,301.5 128.5,301C 126.509,300.626 124.842,299.793 123.5,298.5C 123.027,297.094 122.027,296.427 120.5,296.5C 120.027,295.094 119.027,294.427 117.5,294.5C 117.262,292.596 116.262,291.262 114.5,290.5C 114.545,287.923 113.545,285.923 111.5,284.5C 110.698,283.048 110.198,281.382 110,279.5C 109.333,250.833 109.333,222.167 110,193.5C 110.505,190.135 111.672,187.135 113.5,184.5C 114.906,184.027 115.573,183.027 115.5,181.5C 119.328,175.917 124.662,172.917 131.5,172.5C 148.833,172.5 166.167,172.5 183.5,172.5C 183.5,155.167 183.5,137.833 183.5,120.5C 183.482,107.601 185.815,95.2676 190.5,83.5C 192.163,81.5615 192.829,79.2282 192.5,76.5C 195.63,66.9007 200.297,58.2341 206.5,50.5C 207.906,50.0269 208.573,49.0269 208.5,47.5C 209.419,44.9108 211.086,42.9108 213.5,41.5C 215.262,40.7377 216.262,39.4044 216.5,37.5C 216.833,36.5 217.5,35.8333 218.5,35.5C 222.1,33.5698 225.1,30.9031 227.5,27.5C 229.749,26.9202 231.415,25.5869 232.5,23.5C 240.276,17.101 248.943,11.9343 258.5,8C 268.451,4.51633 278.451,1.683 288.5,-0.5 Z M 299.5,29.5 C 323.167,29.5 346.833,29.5 370.5,29.5C 370.5,50.1667 370.5,70.8333 370.5,91.5C 354.991,91.1705 339.658,91.5038 324.5,92.5C 315.527,92.602 307.527,95.2687 300.5,100.5C 297.167,101.833 294.833,104.167 293.5,107.5C 291.738,108.262 290.738,109.596 290.5,111.5C 288.358,114.8 287.025,118.467 286.5,122.5C 285.686,124.631 285.186,126.964 285,129.5C 284.171,150.004 284.337,170.337 285.5,190.5C 285.229,192.38 285.896,193.713 287.5,194.5C 287.427,196.027 288.094,197.027 289.5,197.5C 289.973,198.906 290.973,199.573 292.5,199.5C 293.287,201.104 294.62,201.771 296.5,201.5C 319.994,202.498 343.661,202.831 367.5,202.5C 367.5,225.167 367.5,247.833 367.5,270.5C 344.327,270.169 321.327,270.502 298.5,271.5C 292.768,272.236 288.768,275.236 286.5,280.5C 285.732,281.263 285.232,282.263 285,283.5C 284.5,349.166 284.333,414.832 284.5,480.5C 260.833,480.5 237.167,480.5 213.5,480.5C 213.832,414.665 213.499,348.998 212.5,283.5C 212.737,282.209 212.404,281.209 211.5,280.5C 211.573,278.973 210.906,277.973 209.5,277.5C 207.35,273.587 204.016,271.42 199.5,271C 179.836,270.5 160.169,270.333 140.5,270.5C 140.5,247.833 140.5,225.167 140.5,202.5C 161.242,202.821 181.909,202.488 202.5,201.5C 204.434,200.89 206.101,199.89 207.5,198.5C 209.262,197.738 210.262,196.404 210.5,194.5C 212.104,193.713 212.771,192.38 212.5,190.5C 213.264,164.66 213.931,138.66 214.5,112.5C 215.371,109.997 216.037,107.33 216.5,104.5C 217.482,101.237 218.149,97.9032 218.5,94.5C 219.738,92.7857 220.405,90.7857 220.5,88.5C 223.547,82.0748 226.88,75.7414 230.5,69.5C 231.89,68.1007 232.89,66.4341 233.5,64.5C 238.5,58.8333 243.833,53.5 249.5,48.5C 251.777,47.5514 253.777,46.2181 255.5,44.5C 257.368,43.7368 259.035,42.7368 260.5,41.5C 262.544,40.4918 264.544,39.4918 266.5,38.5C 277.235,34.0943 288.235,31.0943 299.5,29.5 Z"/></g>
<g><path style="opacity:0.008" fill="#909090" d="M 392.5,4.5 C 394.5,4.5 395.5,5.5 395.5,7.5C 394.167,6.83333 393.167,5.83333 392.5,4.5 Z"/></g>
<g><path style="opacity:0.988" fill="#949494" d="M 395.5,7.5 C 397.262,8.26231 398.262,9.59565 398.5,11.5C 396.738,10.7377 395.738,9.40435 395.5,7.5 Z"/></g>
<g><path style="opacity:1" fill="#a4a4a4" d="M 232.5,23.5 C 231.415,25.5869 229.749,26.9202 227.5,27.5C 228.585,25.4131 230.251,24.0798 232.5,23.5 Z"/></g>
<g><path style="opacity:0.341" fill="#868686" d="M 299.5,29.5 C 323.328,28.5024 347.328,28.1691 371.5,28.5C 371.5,49.8333 371.5,71.1667 371.5,92.5C 355.833,92.5 340.167,92.5 324.5,92.5C 339.658,91.5038 354.991,91.1705 370.5,91.5C 370.5,70.8333 370.5,50.1667 370.5,29.5C 346.833,29.5 323.167,29.5 299.5,29.5 Z"/></g>
<g><path style="opacity:0.996" fill="#b7b7b7" d="M 227.5,27.5 C 225.1,30.9031 222.1,33.5698 218.5,35.5C 220.9,32.0969 223.9,29.4302 227.5,27.5 Z"/></g>
<g><path style="opacity:0.945" fill="#9b9b9b" d="M 216.5,37.5 C 216.262,39.4044 215.262,40.7377 213.5,41.5C 213.738,39.5956 214.738,38.2623 216.5,37.5 Z"/></g>
<g><path style="opacity:1" fill="#a0a0a0" d="M 266.5,38.5 C 264.544,39.4918 262.544,40.4918 260.5,41.5C 261.68,39.087 263.68,38.087 266.5,38.5 Z"/></g>
<g><path style="opacity:0.008" fill="#959595" d="M 255.5,44.5 C 253.777,46.2181 251.777,47.5514 249.5,48.5C 250.478,45.6752 252.478,44.3419 255.5,44.5 Z"/></g>
<g><path style="opacity:0.784" fill="#9b9b9b" d="M 208.5,47.5 C 208.573,49.0269 207.906,50.0269 206.5,50.5C 206.427,48.9731 207.094,47.9731 208.5,47.5 Z"/></g>
<g><path style="opacity:0.996" fill="#9f9f9f" d="M 233.5,64.5 C 232.89,66.4341 231.89,68.1007 230.5,69.5C 230.241,67.0107 231.241,65.344 233.5,64.5 Z"/></g>
<g><path style="opacity:1" fill="#b5b5b5" d="M 192.5,76.5 C 192.829,79.2282 192.163,81.5615 190.5,83.5C 190.41,80.8478 191.076,78.5145 192.5,76.5 Z"/></g>
<g><path style="opacity:1" fill="#b0b0b0" d="M 220.5,88.5 C 220.405,90.7857 219.738,92.7857 218.5,94.5C 218.054,91.9899 218.72,89.9899 220.5,88.5 Z"/></g>
<g><path style="opacity:0.969" fill="#aaaaaa" d="M 300.5,100.5 C 298.5,103.167 296.167,105.5 293.5,107.5C 294.833,104.167 297.167,101.833 300.5,100.5 Z"/></g>
<g><path style="opacity:0.98" fill="#a1a1a1" d="M 216.5,104.5 C 216.037,107.33 215.371,109.997 214.5,112.5C 214.337,110.143 214.503,107.81 215,105.5C 215.383,104.944 215.883,104.611 216.5,104.5 Z"/></g>
<g><path style="opacity:0.992" fill="#989898" d="M 293.5,107.5 C 293.262,109.404 292.262,110.738 290.5,111.5C 290.738,109.596 291.738,108.262 293.5,107.5 Z"/></g>
<g><path style="opacity:0.09" fill="#7d7d7d" d="M 397.5,110.5 C 397.573,112.027 396.906,113.027 395.5,113.5C 395.427,111.973 396.094,110.973 397.5,110.5 Z"/></g>
<g><path style="opacity:0.059" fill="#6b6b6b" d="M 392.5,116.5 C 392.027,117.906 391.027,118.573 389.5,118.5C 389.973,117.094 390.973,116.427 392.5,116.5 Z"/></g>
<g><path style="opacity:0.862" fill="#b2b2b2" d="M 286.5,122.5 C 285.602,145.152 285.269,167.819 285.5,190.5C 284.337,170.337 284.171,150.004 285,129.5C 285.186,126.964 285.686,124.631 286.5,122.5 Z"/></g>
<g><path style="opacity:0.552" fill="#979797" d="M 183.5,120.5 C 183.5,137.833 183.5,155.167 183.5,172.5C 166.167,172.5 148.833,172.5 131.5,172.5C 148.325,171.503 165.325,171.17 182.5,171.5C 182.17,154.325 182.503,137.325 183.5,120.5 Z"/></g>
<g><path style="opacity:0.553" fill="#909090" d="M 316.5,127.5 C 315.586,142.142 315.253,156.809 315.5,171.5C 336.007,171.17 356.34,171.503 376.5,172.5C 355.833,172.5 335.167,172.5 314.5,172.5C 314.333,158.829 314.5,145.163 315,131.5C 315.21,129.942 315.71,128.609 316.5,127.5 Z"/></g>
<g><path style="opacity:0.008" fill="#8a8a8a" d="M 387.5,176.5 C 389.027,176.427 390.027,177.094 390.5,178.5C 388.973,178.573 387.973,177.906 387.5,176.5 Z"/></g>
<g><path style="opacity:0.718" fill="#919191" d="M 115.5,181.5 C 115.573,183.027 114.906,184.027 113.5,184.5C 113.427,182.973 114.094,181.973 115.5,181.5 Z"/></g>
<g><path style="opacity:0.498" fill="#909090" d="M 285.5,190.5 C 286.674,191.514 287.34,192.847 287.5,194.5C 285.896,193.713 285.229,192.38 285.5,190.5 Z"/></g>
<g><path style="opacity:0.659" fill="#a3a3a3" d="M 396.5,187.5 C 398.223,189.78 398.889,192.447 398.5,195.5C 397.232,193.095 396.565,190.428 396.5,187.5 Z"/></g>
<g><path style="opacity:0.392" fill="#8f8f8f" d="M 212.5,190.5 C 212.771,192.38 212.104,193.713 210.5,194.5C 210.66,192.847 211.326,191.514 212.5,190.5 Z"/></g>
<g><path style="opacity:0.067" fill="#767676" d="M 287.5,194.5 C 288.906,194.973 289.573,195.973 289.5,197.5C 288.094,197.027 287.427,196.027 287.5,194.5 Z"/></g>
<g><path style="opacity:0.929" fill="#858585" d="M 289.5,197.5 C 291.027,197.427 292.027,198.094 292.5,199.5C 290.973,199.573 289.973,198.906 289.5,197.5 Z"/></g>
<g><path style="opacity:1" fill="#8d8d8d" d="M 207.5,198.5 C 206.101,199.89 204.434,200.89 202.5,201.5C 203.344,199.241 205.011,198.241 207.5,198.5 Z"/></g>
<g><path style="opacity:0.545" fill="#8d8d8d" d="M 292.5,199.5 C 294.153,199.66 295.486,200.326 296.5,201.5C 294.62,201.771 293.287,201.104 292.5,199.5 Z"/></g>
<g><path style="opacity:0.439" fill="#878787" d="M 367.5,202.5 C 368.498,225.327 368.831,248.327 368.5,271.5C 345.167,271.5 321.833,271.5 298.5,271.5C 321.327,270.502 344.327,270.169 367.5,270.5C 367.5,247.833 367.5,225.167 367.5,202.5 Z"/></g>
<g><path style="opacity:0.765" fill="#9b9b9b" d="M 209.5,277.5 C 210.906,277.973 211.573,278.973 211.5,280.5C 210.094,280.027 209.427,279.027 209.5,277.5 Z"/></g>
<g><path style="opacity:0.984" fill="#a2a2a2" d="M 398.5,280.5 C 398.405,282.786 397.738,284.786 396.5,286.5C 396.054,283.99 396.72,281.99 398.5,280.5 Z"/></g>
<g><path style="opacity:1" fill="#afafaf" d="M 111.5,284.5 C 113.545,285.923 114.545,287.923 114.5,290.5C 112.654,288.97 111.654,286.97 111.5,284.5 Z"/></g>
<g><path style="opacity:0.776" fill="#909090" d="M 212.5,283.5 C 213.499,348.998 213.832,414.665 213.5,480.5C 237.167,480.5 260.833,480.5 284.5,480.5C 284.5,480.833 284.5,481.167 284.5,481.5C 260.5,481.5 236.5,481.5 212.5,481.5C 212.5,415.5 212.5,349.5 212.5,283.5 Z"/></g>
<g><path style="opacity:0.863" fill="#b8b8b8" d="M 286.5,280.5 C 285.847,347.646 285.18,414.646 284.5,481.5C 284.5,481.167 284.5,480.833 284.5,480.5C 284.333,414.832 284.5,349.166 285,283.5C 285.232,282.263 285.732,281.263 286.5,280.5 Z"/></g>
<g><path style="opacity:0.008" fill="#8a8a8a" d="M 114.5,290.5 C 116.262,291.262 117.262,292.596 117.5,294.5C 115.738,293.738 114.738,292.404 114.5,290.5 Z"/></g>
<g><path style="opacity:0.898" fill="#898989" d="M 117.5,294.5 C 119.027,294.427 120.027,295.094 120.5,296.5C 118.973,296.573 117.973,295.906 117.5,294.5 Z"/></g>
<g><path style="opacity:0.996" fill="#8a8a8a" d="M 395.5,288.5 C 393.167,292.833 389.833,296.167 385.5,298.5C 388.167,294.5 391.5,291.167 395.5,288.5 Z"/></g>
<g><path style="opacity:0.686" fill="#7e7e7e" d="M 120.5,296.5 C 122.027,296.427 123.027,297.094 123.5,298.5C 121.973,298.573 120.973,297.906 120.5,296.5 Z"/></g>
<g><path style="opacity:0.737" fill="#757575" d="M 183.5,492.5 C 184.931,493.78 185.598,495.447 185.5,497.5C 184.069,496.22 183.402,494.553 183.5,492.5 Z"/></g>
<g><path style="opacity:1" fill="#9b9b9b" d="M 313.5,495.5 C 312.921,498.331 311.588,500.664 309.5,502.5C 309.574,499.341 310.907,497.008 313.5,495.5 Z"/></g>
<g><path style="opacity:0.996" fill="#8b8b8b" d="M 185.5,497.5 C 188.813,500.483 191.813,503.817 194.5,507.5C 190.105,505.438 187.105,502.104 185.5,497.5 Z"/></g>
<g><path style="opacity:0.506" fill="#7a7a7a" d="M 194.5,507.5 C 196.403,507.796 198.07,508.463 199.5,509.5C 199.5,509.833 199.5,510.167 199.5,510.5C 197.326,510.25 195.659,509.25 194.5,507.5 Z"/></g>
<g><path style="opacity:0.486" fill="#7f7f7f" d="M 307.5,504.5 C 304.862,507.621 301.528,509.788 297.5,511C 264.762,511.825 232.095,511.659 199.5,510.5C 199.5,510.167 199.5,509.833 199.5,509.5C 232.835,509.667 266.168,509.5 299.5,509C 300.973,508.29 301.64,507.124 301.5,505.5C 303.565,505.483 305.565,505.15 307.5,504.5 Z"/></g>
</svg>
