<?xml version="1.0" encoding="UTF-8"?>
<!DOCTYPE svg PUBLIC "-//W3C//DTD SVG 1.1//EN" "http://www.w3.org/Graphics/SVG/1.1/DTD/svg11.dtd">
<svg xmlns="http://www.w3.org/2000/svg" version="1.1" width="512px" height="512px" style="shape-rendering:geometricPrecision; text-rendering:geometricPrecision; image-rendering:optimizeQuality; fill-rule:evenodd; clip-rule:evenodd" xmlns:xlink="http://www.w3.org/1999/xlink">
<g><path style="opacity:1" fill="#fbfbfb" d="M 121.5,-0.5 C 210.833,-0.5 300.167,-0.5 389.5,-0.5C 410.693,2.5904 430.36,9.92373 448.5,21.5C 449.035,23.4456 450.368,24.4456 452.5,24.5C 456.758,26.7931 460.424,29.7931 463.5,33.5C 463.973,34.9063 464.973,35.573 466.5,35.5C 468.833,37.1667 470.833,39.1667 472.5,41.5C 473.419,44.0892 475.086,46.0892 477.5,47.5C 478.5,47.8333 479.167,48.5 479.5,49.5C 479.738,51.4044 480.738,52.7377 482.5,53.5C 482.738,55.4044 483.738,56.7377 485.5,57.5C 485.738,59.4044 486.738,60.7377 488.5,61.5C 489.338,61.8417 489.672,62.5084 489.5,63.5C 489.427,65.0269 490.094,66.0269 491.5,66.5C 491.427,68.0269 492.094,69.0269 493.5,69.5C 502.894,85.6825 508.894,103.016 511.5,121.5C 511.5,210.833 511.5,300.167 511.5,389.5C 507.935,411.684 500.101,432.35 488,451.5C 484.718,455.759 481.218,459.759 477.5,463.5C 476.094,463.973 475.427,464.973 475.5,466.5C 452.142,491.513 423.475,506.513 389.5,511.5C 300.167,511.5 210.833,511.5 121.5,511.5C 103.016,508.894 85.6825,502.894 69.5,493.5C 69.0269,492.094 68.0269,491.427 66.5,491.5C 66.0269,490.094 65.0269,489.427 63.5,489.5C 62.5084,489.672 61.8417,489.338 61.5,488.5C 60.7377,486.738 59.4044,485.738 57.5,485.5C 56.7377,483.738 55.4044,482.738 53.5,482.5C 52.7377,480.738 51.4044,479.738 49.5,479.5C 48.5,479.167 47.8333,478.5 47.5,477.5C 46.0892,475.086 44.0892,473.419 41.5,472.5C 39.1667,470.833 37.1667,468.833 35.5,466.5C 35.573,464.973 34.9063,463.973 33.5,463.5C 29.7931,460.424 26.7931,456.758 24.5,452.5C 24.4456,450.368 23.4456,449.035 21.5,448.5C 9.92373,430.36 2.5904,410.693 -0.5,389.5C -0.5,300.167 -0.5,210.833 -0.5,121.5C 2.10611,103.016 8.10611,85.6825 17.5,69.5C 18.9063,69.0269 19.573,68.0269 19.5,66.5C 20.9063,66.0269 21.573,65.0269 21.5,63.5C 21.3284,62.5084 21.6618,61.8417 22.5,61.5C 24.2624,60.7377 25.2624,59.4044 25.5,57.5C 27.2624,56.7377 28.2624,55.4044 28.5,53.5C 30.2624,52.7377 31.2624,51.4044 31.5,49.5C 31.8333,48.5 32.5,47.8333 33.5,47.5C 35.5869,46.4154 36.9202,44.7488 37.5,42.5C 37.8333,41.5 38.5,40.8333 39.5,40.5C 42.7642,38.9059 45.4309,36.5725 47.5,33.5C 47.8333,32.5 48.5,31.8333 49.5,31.5C 51.4044,31.2624 52.7377,30.2624 53.5,28.5C 55.4044,28.2624 56.7377,27.2624 57.5,25.5C 59.4044,25.2624 60.7377,24.2624 61.5,22.5C 62.8993,21.1103 64.5659,20.1103 66.5,19.5C 68.0269,19.573 69.0269,18.9063 69.5,17.5C 85.6825,8.10611 103.016,2.10611 121.5,-0.5 Z M 427.5,44.5 C 427.973,45.9063 428.973,46.573 430.5,46.5C 430.842,47.3382 431.508,47.6716 432.5,47.5C 432.973,48.9063 433.973,49.573 435.5,49.5C 436.262,51.2624 437.596,52.2624 439.5,52.5C 440.911,54.914 442.911,56.5806 445.5,57.5C 447.833,60.5 450.5,63.1667 453.5,65.5C 453.427,67.0269 454.094,68.0269 455.5,68.5C 471.998,88.8181 480.498,112.151 481,138.5C 481.667,216.5 481.667,294.5 481,372.5C 480.693,392.065 475.859,410.398 466.5,427.5C 465.094,427.973 464.427,428.973 464.5,430.5C 463.662,430.842 463.328,431.508 463.5,432.5C 462.094,432.973 461.427,433.973 461.5,435.5C 459.738,436.262 458.738,437.596 458.5,439.5C 456.086,440.911 454.419,442.911 453.5,445.5C 450.5,447.833 447.833,450.5 445.5,453.5C 443.251,454.08 441.585,455.413 440.5,457.5C 438.246,458.124 436.579,459.457 435.5,461.5C 433.973,461.427 432.973,462.094 432.5,463.5C 431.508,463.328 430.842,463.662 430.5,464.5C 428.973,464.427 427.973,465.094 427.5,466.5C 410.398,475.859 392.065,480.693 372.5,481C 294.5,481.667 216.5,481.667 138.5,481C 112.151,480.498 88.8181,471.998 68.5,455.5C 68.0269,454.094 67.0269,453.427 65.5,453.5C 63.1667,450.5 60.5,447.833 57.5,445.5C 56.5806,442.911 54.914,440.911 52.5,439.5C 52.2624,437.596 51.2624,436.262 49.5,435.5C 49.573,433.973 48.9063,432.973 47.5,432.5C 47.6716,431.508 47.3382,430.842 46.5,430.5C 46.573,428.973 45.9063,427.973 44.5,427.5C 37.7012,414.604 33.2012,400.937 31,386.5C 30.3333,299.167 30.3333,211.833 31,124.5C 34.0101,103.489 42.1767,84.8221 55.5,68.5C 56.9063,68.0269 57.573,67.0269 57.5,65.5C 75.9165,46.6237 98.2498,35.1237 124.5,31C 211.833,30.3333 299.167,30.3333 386.5,31C 400.937,33.2012 414.604,37.7012 427.5,44.5 Z M 404.5,97.5 C 405.167,98.8333 406.167,99.8333 407.5,100.5C 409.71,104.316 410.044,108.316 408.5,112.5C 407.094,112.973 406.427,113.973 406.5,115.5C 400.959,118.403 395.626,118.069 390.5,114.5C 390.573,112.973 389.906,111.973 388.5,111.5C 387.751,99.8752 393.084,95.2085 404.5,97.5 Z M 310.5,160.5 C 310.973,161.906 311.973,162.573 313.5,162.5C 313.842,163.338 314.508,163.672 315.5,163.5C 315.973,164.906 316.973,165.573 318.5,165.5C 319.262,167.262 320.596,168.262 322.5,168.5C 323.585,170.587 325.251,171.92 327.5,172.5C 330.833,176.5 334.5,180.167 338.5,183.5C 338.427,185.027 339.094,186.027 340.5,186.5C 365.816,220.075 371.316,256.741 357,296.5C 354.548,301.068 352.382,305.735 350.5,310.5C 349.094,310.973 348.427,311.973 348.5,313.5C 347.662,313.842 347.328,314.508 347.5,315.5C 346.094,315.973 345.427,316.973 345.5,318.5C 343.738,319.262 342.738,320.596 342.5,322.5C 340.413,323.585 339.08,325.251 338.5,327.5C 337.167,328.167 336.167,329.167 335.5,330.5C 333.5,331.833 331.833,333.5 330.5,335.5C 329.167,336.167 328.167,337.167 327.5,338.5C 325.596,338.738 324.262,339.738 323.5,341.5C 322.833,341.5 322.5,341.833 322.5,342.5C 320.596,342.738 319.262,343.738 318.5,345.5C 316.973,345.427 315.973,346.094 315.5,347.5C 314.508,347.328 313.842,347.662 313.5,348.5C 311.973,348.427 310.973,349.094 310.5,350.5C 273.751,369.331 237.084,369.164 200.5,350C 195.631,347.071 190.965,343.904 186.5,340.5C 186.027,339.094 185.027,338.427 183.5,338.5C 180.167,334.5 176.5,330.833 172.5,327.5C 171.92,325.251 170.587,323.585 168.5,322.5C 168.262,320.596 167.262,319.262 165.5,318.5C 165.573,316.973 164.906,315.973 163.5,315.5C 163.672,314.508 163.338,313.842 162.5,313.5C 162.573,311.973 161.906,310.973 160.5,310.5C 141.669,273.751 141.836,237.084 161,200.5C 163.929,195.631 167.096,190.965 170.5,186.5C 171.906,186.027 172.573,185.027 172.5,183.5C 212.982,143.42 258.982,135.753 310.5,160.5 Z"/></g>
<g><path style="opacity:0.945" fill="#ababab" d="M 69.5,17.5 C 69.0269,18.9063 68.0269,19.573 66.5,19.5C 66.9731,18.0937 67.9731,17.427 69.5,17.5 Z"/></g>
<g><path style="opacity:1" fill="#b6b6b6" d="M 448.5,21.5 C 450.23,22.0256 451.564,23.0256 452.5,24.5C 450.368,24.4456 449.035,23.4456 448.5,21.5 Z"/></g>
<g><path style="opacity:0.957" fill="#b8b8b8" d="M 61.5,22.5 C 60.7377,24.2624 59.4044,25.2624 57.5,25.5C 58.2623,23.7376 59.5956,22.7376 61.5,22.5 Z"/></g>
<g><path style="opacity:0.957" fill="#b9b9b9" d="M 57.5,25.5 C 56.7377,27.2624 55.4044,28.2624 53.5,28.5C 54.2623,26.7376 55.5956,25.7376 57.5,25.5 Z"/></g>
<g><path style="opacity:0.957" fill="#b8b8b8" d="M 53.5,28.5 C 52.7377,30.2624 51.4044,31.2624 49.5,31.5C 50.2623,29.7376 51.5956,28.7376 53.5,28.5 Z"/></g>
<g><path style="opacity:0.016" fill="#979797" d="M 463.5,33.5 C 465.027,33.427 466.027,34.0937 466.5,35.5C 464.973,35.573 463.973,34.9063 463.5,33.5 Z"/></g>
<g><path style="opacity:0.969" fill="#bbbbbb" d="M 47.5,33.5 C 45.4309,36.5725 42.7642,38.9059 39.5,40.5C 41.5691,37.4275 44.2358,35.0941 47.5,33.5 Z"/></g>
<g><path style="opacity:0.984" fill="#adadad" d="M 472.5,41.5 C 474.914,42.9108 476.581,44.9108 477.5,47.5C 475.086,46.0892 473.419,44.0892 472.5,41.5 Z"/></g>
<g><path style="opacity:0.898" fill="#a9a9a9" d="M 37.5,42.5 C 36.9202,44.7488 35.5869,46.4154 33.5,47.5C 34.0798,45.2512 35.4131,43.5846 37.5,42.5 Z"/></g>
<g><path style="opacity:0.655" fill="#a1a1a1" d="M 427.5,44.5 C 429.027,44.427 430.027,45.0937 430.5,46.5C 428.973,46.573 427.973,45.9063 427.5,44.5 Z"/></g>
<g><path style="opacity:0.89" fill="#b3b3b3" d="M 432.5,47.5 C 434.027,47.427 435.027,48.0937 435.5,49.5C 433.973,49.573 432.973,48.9063 432.5,47.5 Z"/></g>
<g><path style="opacity:0.996" fill="#b9b9b9" d="M 31.5,49.5 C 31.2624,51.4044 30.2624,52.7377 28.5,53.5C 28.7376,51.5956 29.7376,50.2623 31.5,49.5 Z"/></g>
<g><path style="opacity:0.996" fill="#b9b9b9" d="M 479.5,49.5 C 481.262,50.2623 482.262,51.5956 482.5,53.5C 480.738,52.7377 479.738,51.4044 479.5,49.5 Z"/></g>
<g><path style="opacity:1" fill="#b5b5b5" d="M 439.5,52.5 C 442.089,53.4194 444.089,55.086 445.5,57.5C 442.911,56.5806 440.911,54.914 439.5,52.5 Z"/></g>
<g><path style="opacity:0.996" fill="#bababa" d="M 28.5,53.5 C 28.2624,55.4044 27.2624,56.7377 25.5,57.5C 25.7376,55.5956 26.7376,54.2623 28.5,53.5 Z"/></g>
<g><path style="opacity:0.996" fill="#bababa" d="M 482.5,53.5 C 484.262,54.2623 485.262,55.5956 485.5,57.5C 483.738,56.7377 482.738,55.4044 482.5,53.5 Z"/></g>
<g><path style="opacity:0.996" fill="#b9b9b9" d="M 25.5,57.5 C 25.2624,59.4044 24.2624,60.7377 22.5,61.5C 22.7376,59.5956 23.7376,58.2623 25.5,57.5 Z"/></g>
<g><path style="opacity:0.996" fill="#b9b9b9" d="M 485.5,57.5 C 487.262,58.2623 488.262,59.5956 488.5,61.5C 486.738,60.7377 485.738,59.4044 485.5,57.5 Z"/></g>
<g><path style="opacity:0.8" fill="#afafaf" d="M 21.5,63.5 C 21.573,65.0269 20.9063,66.0269 19.5,66.5C 19.427,64.9731 20.0937,63.9731 21.5,63.5 Z"/></g>
<g><path style="opacity:0.8" fill="#afafaf" d="M 489.5,63.5 C 490.906,63.9731 491.573,64.9731 491.5,66.5C 490.094,66.0269 489.427,65.0269 489.5,63.5 Z"/></g>
<g><path style="opacity:0.024" fill="#989898" d="M 57.5,65.5 C 57.573,67.0269 56.9063,68.0269 55.5,68.5C 55.427,66.9731 56.0937,65.9731 57.5,65.5 Z"/></g>
<g><path style="opacity:1" fill="#fafafa" d="M 426.5,76.5 C 427.167,77.8333 428.167,78.8333 429.5,79.5C 430.5,79.8333 431.167,80.5 431.5,81.5C 431.427,83.0269 432.094,84.0269 433.5,84.5C 434.338,84.8417 434.672,85.5084 434.5,86.5C 434.427,88.0269 435.094,89.0269 436.5,89.5C 444.581,110.338 439.915,127.838 422.5,142C 409.535,149.686 396.202,150.852 382.5,145.5C 382.027,144.094 381.027,143.427 379.5,143.5C 377.326,143.25 375.659,142.25 374.5,140.5C 373.415,138.413 371.749,137.08 369.5,136.5C 368.5,136.167 367.833,135.5 367.5,134.5C 367.573,132.973 366.906,131.973 365.5,131.5C 357.831,121.33 355.331,109.997 358,97.5C 359.061,93.0505 360.895,89.0505 363.5,85.5C 365.262,84.7377 366.262,83.4044 366.5,81.5C 366.5,80.8333 366.833,80.5 367.5,80.5C 368.906,80.0269 369.573,79.0269 369.5,77.5C 371.027,77.573 372.027,76.9063 372.5,75.5C 373.262,73.7376 374.596,72.7376 376.5,72.5C 378.027,72.573 379.027,71.9063 379.5,70.5C 392.286,64.0205 405.286,63.8539 418.5,70C 421.787,71.4675 424.454,73.6341 426.5,76.5 Z M 404.5,97.5 C 405.167,98.8333 406.167,99.8333 407.5,100.5C 409.71,104.316 410.044,108.316 408.5,112.5C 407.094,112.973 406.427,113.973 406.5,115.5C 400.959,118.403 395.626,118.069 390.5,114.5C 390.573,112.973 389.906,111.973 388.5,111.5C 387.751,99.8752 393.084,95.2085 404.5,97.5 Z"/></g>
<g><path style="opacity:0.024" fill="#989898" d="M 453.5,65.5 C 454.906,65.9731 455.573,66.9731 455.5,68.5C 454.094,68.0269 453.427,67.0269 453.5,65.5 Z"/></g>
<g><path style="opacity:0.608" fill="#9e9e9e" d="M 19.5,66.5 C 19.573,68.0269 18.9063,69.0269 17.5,69.5C 17.427,67.9731 18.0937,66.9731 19.5,66.5 Z"/></g>
<g><path style="opacity:0.608" fill="#9e9e9e" d="M 491.5,66.5 C 492.906,66.9731 493.573,67.9731 493.5,69.5C 492.094,69.0269 491.427,68.0269 491.5,66.5 Z"/></g>
<g><path style="opacity:0.98" fill="#b5b5b5" d="M 379.5,70.5 C 379.027,71.9063 378.027,72.573 376.5,72.5C 376.973,71.0937 377.973,70.427 379.5,70.5 Z"/></g>
<g><path style="opacity:0.929" fill="#ababab" d="M 372.5,75.5 C 372.027,76.9063 371.027,77.573 369.5,77.5C 369.973,76.0937 370.973,75.427 372.5,75.5 Z"/></g>
<g><path style="opacity:0.008" fill="#979797" d="M 426.5,76.5 C 428.5,76.5 429.5,77.5 429.5,79.5C 428.167,78.8333 427.167,77.8333 426.5,76.5 Z"/></g>
<g><path style="opacity:0.949" fill="#acacac" d="M 369.5,77.5 C 369.573,79.0269 368.906,80.0269 367.5,80.5C 367.427,78.9731 368.094,77.9731 369.5,77.5 Z"/></g>
<g><path style="opacity:0.996" fill="#b9b9b9" d="M 366.5,81.5 C 366.262,83.4044 365.262,84.7377 363.5,85.5C 363.738,83.5956 364.738,82.2623 366.5,81.5 Z"/></g>
<g><path style="opacity:0.816" fill="#a7a7a7" d="M 431.5,81.5 C 432.906,81.9731 433.573,82.9731 433.5,84.5C 432.094,84.0269 431.427,83.0269 431.5,81.5 Z"/></g>
<g><path style="opacity:0.565" fill="#9f9f9f" d="M 434.5,86.5 C 435.906,86.9731 436.573,87.9731 436.5,89.5C 435.094,89.0269 434.427,88.0269 434.5,86.5 Z"/></g>
<g><path style="opacity:0.945" fill="#b5b5b5" d="M 404.5,97.5 C 406.5,97.5 407.5,98.5 407.5,100.5C 406.167,99.8333 405.167,98.8333 404.5,97.5 Z"/></g>
<g><path style="opacity:0.765" fill="#a7a7a7" d="M 388.5,111.5 C 389.906,111.973 390.573,112.973 390.5,114.5C 389.094,114.027 388.427,113.027 388.5,111.5 Z"/></g>
<g><path style="opacity:0.784" fill="#a8a8a8" d="M 408.5,112.5 C 408.573,114.027 407.906,115.027 406.5,115.5C 406.427,113.973 407.094,112.973 408.5,112.5 Z"/></g>
<g><path style="opacity:1" fill="#f9f9f9" d="M 331.5,137.5 C 332.035,139.446 333.368,140.446 335.5,140.5C 338.81,142.482 341.81,144.815 344.5,147.5C 345.262,149.262 346.596,150.262 348.5,150.5C 352.167,153.5 355.5,156.833 358.5,160.5C 359.419,163.089 361.086,165.089 363.5,166.5C 365.984,168.8 367.984,171.467 369.5,174.5C 369.738,176.404 370.738,177.738 372.5,178.5C 373.338,178.842 373.672,179.508 373.5,180.5C 373.427,182.027 374.094,183.027 375.5,183.5C 376.338,183.842 376.672,184.508 376.5,185.5C 376.427,187.027 377.094,188.027 378.5,188.5C 383.176,195.525 386.509,203.192 388.5,211.5C 388.259,213.898 388.926,215.898 390.5,217.5C 401.422,259.211 395.256,298.211 372,334.5C 369.302,338.025 366.469,341.358 363.5,344.5C 362.094,344.973 361.427,345.973 361.5,347.5C 357.167,352.5 352.5,357.167 347.5,361.5C 345.973,361.427 344.973,362.094 344.5,363.5C 314.149,388.682 279.149,399.182 239.5,395C 231.973,394.247 224.639,392.747 217.5,390.5C 215.898,388.926 213.898,388.259 211.5,388.5C 203.192,386.509 195.525,383.176 188.5,378.5C 188.027,377.094 187.027,376.427 185.5,376.5C 184.508,376.672 183.842,376.338 183.5,375.5C 183.027,374.094 182.027,373.427 180.5,373.5C 179.508,373.672 178.842,373.338 178.5,372.5C 177.738,370.738 176.404,369.738 174.5,369.5C 171.467,367.984 168.8,365.984 166.5,363.5C 165.089,361.086 163.089,359.419 160.5,358.5C 156.833,355.5 153.5,352.167 150.5,348.5C 150.262,346.596 149.262,345.262 147.5,344.5C 144.815,341.81 142.482,338.81 140.5,335.5C 140.446,333.368 139.446,332.035 137.5,331.5C 115.429,296.008 109.763,258.008 120.5,217.5C 122.074,215.898 122.741,213.898 122.5,211.5C 124.491,203.192 127.824,195.525 132.5,188.5C 133.906,188.027 134.573,187.027 134.5,185.5C 134.328,184.508 134.662,183.842 135.5,183.5C 136.906,183.027 137.573,182.027 137.5,180.5C 137.328,179.508 137.662,178.842 138.5,178.5C 140.262,177.738 141.262,176.404 141.5,174.5C 143.016,171.467 145.016,168.8 147.5,166.5C 149.914,165.089 151.581,163.089 152.5,160.5C 153.5,158.833 154.833,157.5 156.5,156.5C 160.436,154.234 163.769,151.234 166.5,147.5C 167.262,145.738 168.596,144.738 170.5,144.5C 172.404,144.262 173.738,143.262 174.5,141.5C 176.404,141.262 177.738,140.262 178.5,138.5C 178.842,137.662 179.508,137.328 180.5,137.5C 182.027,137.573 183.027,136.906 183.5,135.5C 192.024,129.573 201.357,125.24 211.5,122.5C 215.214,122.41 218.548,121.41 221.5,119.5C 260.735,110.151 297.401,116.151 331.5,137.5 Z M 310.5,160.5 C 310.973,161.906 311.973,162.573 313.5,162.5C 313.842,163.338 314.508,163.672 315.5,163.5C 315.973,164.906 316.973,165.573 318.5,165.5C 319.262,167.262 320.596,168.262 322.5,168.5C 323.585,170.587 325.251,171.92 327.5,172.5C 330.833,176.5 334.5,180.167 338.5,183.5C 338.427,185.027 339.094,186.027 340.5,186.5C 365.816,220.075 371.316,256.741 357,296.5C 354.548,301.068 352.382,305.735 350.5,310.5C 349.094,310.973 348.427,311.973 348.5,313.5C 347.662,313.842 347.328,314.508 347.5,315.5C 346.094,315.973 345.427,316.973 345.5,318.5C 343.738,319.262 342.738,320.596 342.5,322.5C 340.413,323.585 339.08,325.251 338.5,327.5C 337.167,328.167 336.167,329.167 335.5,330.5C 333.5,331.833 331.833,333.5 330.5,335.5C 329.167,336.167 328.167,337.167 327.5,338.5C 325.596,338.738 324.262,339.738 323.5,341.5C 322.833,341.5 322.5,341.833 322.5,342.5C 320.596,342.738 319.262,343.738 318.5,345.5C 316.973,345.427 315.973,346.094 315.5,347.5C 314.508,347.328 313.842,347.662 313.5,348.5C 311.973,348.427 310.973,349.094 310.5,350.5C 273.751,369.331 237.084,369.164 200.5,350C 195.631,347.071 190.965,343.904 186.5,340.5C 186.027,339.094 185.027,338.427 183.5,338.5C 180.167,334.5 176.5,330.833 172.5,327.5C 171.92,325.251 170.587,323.585 168.5,322.5C 168.262,320.596 167.262,319.262 165.5,318.5C 165.573,316.973 164.906,315.973 163.5,315.5C 163.672,314.508 163.338,313.842 162.5,313.5C 162.573,311.973 161.906,310.973 160.5,310.5C 141.669,273.751 141.836,237.084 161,200.5C 163.929,195.631 167.096,190.965 170.5,186.5C 171.906,186.027 172.573,185.027 172.5,183.5C 212.982,143.42 258.982,135.753 310.5,160.5 Z"/></g>
<g><path style="opacity:1" fill="#bcbcbc" d="M 221.5,119.5 C 218.548,121.41 215.214,122.41 211.5,122.5C 214.55,120.899 217.884,119.899 221.5,119.5 Z"/></g>
<g><path style="opacity:0.016" fill="#979797" d="M 365.5,131.5 C 366.906,131.973 367.573,132.973 367.5,134.5C 366.094,134.027 365.427,133.027 365.5,131.5 Z"/></g>
<g><path style="opacity:0.988" fill="#bbbbbb" d="M 183.5,135.5 C 183.027,136.906 182.027,137.573 180.5,137.5C 180.973,136.094 181.973,135.427 183.5,135.5 Z"/></g>
<g><path style="opacity:0.996" fill="#b3b3b3" d="M 369.5,136.5 C 371.749,137.08 373.415,138.413 374.5,140.5C 372.251,139.92 370.585,138.587 369.5,136.5 Z"/></g>
<g><path style="opacity:1" fill="#b6b6b6" d="M 331.5,137.5 C 333.23,138.026 334.564,139.026 335.5,140.5C 333.368,140.446 332.035,139.446 331.5,137.5 Z"/></g>
<g><path style="opacity:0.969" fill="#bababa" d="M 178.5,138.5 C 177.738,140.262 176.404,141.262 174.5,141.5C 175.262,139.738 176.596,138.738 178.5,138.5 Z"/></g>
<g><path style="opacity:0.969" fill="#bdbdbd" d="M 174.5,141.5 C 173.738,143.262 172.404,144.262 170.5,144.5C 171.262,142.738 172.596,141.738 174.5,141.5 Z"/></g>
<g><path style="opacity:0.608" fill="#a1a1a1" d="M 379.5,143.5 C 381.027,143.427 382.027,144.094 382.5,145.5C 380.973,145.573 379.973,144.906 379.5,143.5 Z"/></g>
<g><path style="opacity:0.008" fill="#989898" d="M 344.5,147.5 C 346.404,147.738 347.738,148.738 348.5,150.5C 346.596,150.262 345.262,149.262 344.5,147.5 Z"/></g>
<g><path style="opacity:0.996" fill="#c3c3c3" d="M 166.5,147.5 C 163.769,151.234 160.436,154.234 156.5,156.5C 159.231,152.766 162.564,149.766 166.5,147.5 Z"/></g>
<g><path style="opacity:0.686" fill="#a4a4a4" d="M 310.5,160.5 C 312.027,160.427 313.027,161.094 313.5,162.5C 311.973,162.573 310.973,161.906 310.5,160.5 Z"/></g>
<g><path style="opacity:0.973" fill="#a7a7a7" d="M 358.5,160.5 C 360.914,161.911 362.581,163.911 363.5,166.5C 361.086,165.089 359.419,163.089 358.5,160.5 Z"/></g>
<g><path style="opacity:0.91" fill="#a9a9a9" d="M 152.5,160.5 C 151.581,163.089 149.914,165.089 147.5,166.5C 148.419,163.911 150.086,161.911 152.5,160.5 Z"/></g>
<g><path style="opacity:0.867" fill="#b0b0b0" d="M 315.5,163.5 C 317.027,163.427 318.027,164.094 318.5,165.5C 316.973,165.573 315.973,164.906 315.5,163.5 Z"/></g>
<g><path style="opacity:0.902" fill="#afafaf" d="M 322.5,168.5 C 324.749,169.08 326.415,170.413 327.5,172.5C 325.251,171.92 323.585,170.587 322.5,168.5 Z"/></g>
<g><path style="opacity:0.996" fill="#bbbbbb" d="M 141.5,174.5 C 141.262,176.404 140.262,177.738 138.5,178.5C 138.738,176.596 139.738,175.262 141.5,174.5 Z"/></g>
<g><path style="opacity:0.996" fill="#bbbbbb" d="M 369.5,174.5 C 371.262,175.262 372.262,176.596 372.5,178.5C 370.738,177.738 369.738,176.404 369.5,174.5 Z"/></g>
<g><path style="opacity:0.78" fill="#acacac" d="M 137.5,180.5 C 137.573,182.027 136.906,183.027 135.5,183.5C 135.427,181.973 136.094,180.973 137.5,180.5 Z"/></g>
<g><path style="opacity:0.78" fill="#acacac" d="M 373.5,180.5 C 374.906,180.973 375.573,181.973 375.5,183.5C 374.094,183.027 373.427,182.027 373.5,180.5 Z"/></g>
<g><path style="opacity:0.024" fill="#979797" d="M 172.5,183.5 C 172.573,185.027 171.906,186.027 170.5,186.5C 170.427,184.973 171.094,183.973 172.5,183.5 Z"/></g>
<g><path style="opacity:0.024" fill="#979797" d="M 338.5,183.5 C 339.906,183.973 340.573,184.973 340.5,186.5C 339.094,186.027 338.427,185.027 338.5,183.5 Z"/></g>
<g><path style="opacity:0.816" fill="#b0b0b0" d="M 134.5,185.5 C 134.573,187.027 133.906,188.027 132.5,188.5C 132.427,186.973 133.094,185.973 134.5,185.5 Z"/></g>
<g><path style="opacity:0.816" fill="#b0b0b0" d="M 376.5,185.5 C 377.906,185.973 378.573,186.973 378.5,188.5C 377.094,188.027 376.427,187.027 376.5,185.5 Z"/></g>
<g><path style="opacity:0.996" fill="#b7b7b7" d="M 122.5,211.5 C 122.741,213.898 122.074,215.898 120.5,217.5C 120.595,215.214 121.262,213.214 122.5,211.5 Z"/></g>
<g><path style="opacity:0.996" fill="#b7b7b7" d="M 388.5,211.5 C 389.738,213.214 390.405,215.214 390.5,217.5C 388.926,215.898 388.259,213.898 388.5,211.5 Z"/></g>
<g><path style="opacity:0.686" fill="#a4a4a4" d="M 160.5,310.5 C 161.906,310.973 162.573,311.973 162.5,313.5C 161.094,313.027 160.427,312.027 160.5,310.5 Z"/></g>
<g><path style="opacity:0.667" fill="#a3a3a3" d="M 350.5,310.5 C 350.573,312.027 349.906,313.027 348.5,313.5C 348.427,311.973 349.094,310.973 350.5,310.5 Z"/></g>
<g><path style="opacity:0.867" fill="#b0b0b0" d="M 163.5,315.5 C 164.906,315.973 165.573,316.973 165.5,318.5C 164.094,318.027 163.427,317.027 163.5,315.5 Z"/></g>
<g><path style="opacity:0.847" fill="#aeaeae" d="M 347.5,315.5 C 347.573,317.027 346.906,318.027 345.5,318.5C 345.427,316.973 346.094,315.973 347.5,315.5 Z"/></g>
<g><path style="opacity:0.902" fill="#afafaf" d="M 168.5,322.5 C 170.587,323.585 171.92,325.251 172.5,327.5C 170.413,326.415 169.08,324.749 168.5,322.5 Z"/></g>
<g><path style="opacity:0.902" fill="#afafaf" d="M 342.5,322.5 C 341.92,324.749 340.587,326.415 338.5,327.5C 339.08,325.251 340.413,323.585 342.5,322.5 Z"/></g>
<g><path style="opacity:1" fill="#b6b6b6" d="M 137.5,331.5 C 139.446,332.035 140.446,333.368 140.5,335.5C 139.026,334.564 138.026,333.23 137.5,331.5 Z"/></g>
<g><path style="opacity:0.996" fill="#cacaca" d="M 335.5,330.5 C 334.833,333.167 333.167,334.833 330.5,335.5C 331.833,333.5 333.5,331.833 335.5,330.5 Z"/></g>
<g><path style="opacity:0.024" fill="#979797" d="M 183.5,338.5 C 185.027,338.427 186.027,339.094 186.5,340.5C 184.973,340.573 183.973,339.906 183.5,338.5 Z"/></g>
<g><path style="opacity:0.902" fill="#aeaeae" d="M 327.5,338.5 C 326.738,340.262 325.404,341.262 323.5,341.5C 324.262,339.738 325.596,338.738 327.5,338.5 Z"/></g>
<g><path style="opacity:0.969" fill="#bcbcbc" d="M 322.5,342.5 C 321.738,344.262 320.404,345.262 318.5,345.5C 319.262,343.738 320.596,342.738 322.5,342.5 Z"/></g>
<g><path style="opacity:0.008" fill="#989898" d="M 147.5,344.5 C 149.262,345.262 150.262,346.596 150.5,348.5C 148.738,347.738 147.738,346.404 147.5,344.5 Z"/></g>
<g><path style="opacity:0.008" fill="#949494" d="M 363.5,344.5 C 363.573,346.027 362.906,347.027 361.5,347.5C 361.427,345.973 362.094,344.973 363.5,344.5 Z"/></g>
<g><path style="opacity:0.973" fill="#b8b8b8" d="M 318.5,345.5 C 318.027,346.906 317.027,347.573 315.5,347.5C 315.973,346.094 316.973,345.427 318.5,345.5 Z"/></g>
<g><path style="opacity:0.961" fill="#b0b0b0" d="M 313.5,348.5 C 313.027,349.906 312.027,350.573 310.5,350.5C 310.973,349.094 311.973,348.427 313.5,348.5 Z"/></g>
<g><path style="opacity:0.973" fill="#a7a7a7" d="M 160.5,358.5 C 163.089,359.419 165.089,361.086 166.5,363.5C 163.911,362.581 161.911,360.914 160.5,358.5 Z"/></g>
<g><path style="opacity:0.008" fill="#909090" d="M 347.5,361.5 C 347.027,362.906 346.027,363.573 344.5,363.5C 344.973,362.094 345.973,361.427 347.5,361.5 Z"/></g>
<g><path style="opacity:0.996" fill="#bbbbbb" d="M 174.5,369.5 C 176.404,369.738 177.738,370.738 178.5,372.5C 176.596,372.262 175.262,371.262 174.5,369.5 Z"/></g>
<g><path style="opacity:0.78" fill="#acacac" d="M 180.5,373.5 C 182.027,373.427 183.027,374.094 183.5,375.5C 181.973,375.573 180.973,374.906 180.5,373.5 Z"/></g>
<g><path style="opacity:0.816" fill="#b0b0b0" d="M 185.5,376.5 C 187.027,376.427 188.027,377.094 188.5,378.5C 186.973,378.573 185.973,377.906 185.5,376.5 Z"/></g>
<g><path style="opacity:0.996" fill="#b7b7b7" d="M 211.5,388.5 C 213.898,388.259 215.898,388.926 217.5,390.5C 215.214,390.405 213.214,389.738 211.5,388.5 Z"/></g>
<g><path style="opacity:0.655" fill="#a1a1a1" d="M 44.5,427.5 C 45.9063,427.973 46.573,428.973 46.5,430.5C 45.0937,430.027 44.427,429.027 44.5,427.5 Z"/></g>
<g><path style="opacity:0.655" fill="#a1a1a1" d="M 466.5,427.5 C 466.573,429.027 465.906,430.027 464.5,430.5C 464.427,428.973 465.094,427.973 466.5,427.5 Z"/></g>
<g><path style="opacity:0.89" fill="#b3b3b3" d="M 47.5,432.5 C 48.9063,432.973 49.573,433.973 49.5,435.5C 48.0937,435.027 47.427,434.027 47.5,432.5 Z"/></g>
<g><path style="opacity:0.89" fill="#b3b3b3" d="M 463.5,432.5 C 463.573,434.027 462.906,435.027 461.5,435.5C 461.427,433.973 462.094,432.973 463.5,432.5 Z"/></g>
<g><path style="opacity:1" fill="#b5b5b5" d="M 52.5,439.5 C 54.914,440.911 56.5806,442.911 57.5,445.5C 55.086,444.089 53.4194,442.089 52.5,439.5 Z"/></g>
<g><path style="opacity:0.949" fill="#b4b4b4" d="M 458.5,439.5 C 457.581,442.089 455.914,444.089 453.5,445.5C 454.419,442.911 456.086,440.911 458.5,439.5 Z"/></g>
<g><path style="opacity:1" fill="#b6b6b6" d="M 21.5,448.5 C 23.4456,449.035 24.4456,450.368 24.5,452.5C 23.0256,451.564 22.0256,450.23 21.5,448.5 Z"/></g>
<g><path style="opacity:0.024" fill="#989898" d="M 65.5,453.5 C 67.0269,453.427 68.0269,454.094 68.5,455.5C 66.9731,455.573 65.9731,454.906 65.5,453.5 Z"/></g>
<g><path style="opacity:0.91" fill="#b1b1b1" d="M 445.5,453.5 C 444.415,455.587 442.749,456.92 440.5,457.5C 441.585,455.413 443.251,454.08 445.5,453.5 Z"/></g>
<g><path style="opacity:0.98" fill="#bcbcbc" d="M 435.5,461.5 C 435.027,462.906 434.027,463.573 432.5,463.5C 432.973,462.094 433.973,461.427 435.5,461.5 Z"/></g>
<g><path style="opacity:0.016" fill="#979797" d="M 33.5,463.5 C 34.9063,463.973 35.573,464.973 35.5,466.5C 34.0937,466.027 33.427,465.027 33.5,463.5 Z"/></g>
<g><path style="opacity:0.016" fill="#979797" d="M 477.5,463.5 C 477.573,465.027 476.906,466.027 475.5,466.5C 475.427,464.973 476.094,463.973 477.5,463.5 Z"/></g>
<g><path style="opacity:0.957" fill="#aeaeae" d="M 430.5,464.5 C 430.027,465.906 429.027,466.573 427.5,466.5C 427.973,465.094 428.973,464.427 430.5,464.5 Z"/></g>
<g><path style="opacity:0.984" fill="#adadad" d="M 41.5,472.5 C 44.0892,473.419 46.0892,475.086 47.5,477.5C 44.9108,476.581 42.9108,474.914 41.5,472.5 Z"/></g>
<g><path style="opacity:0.996" fill="#b9b9b9" d="M 49.5,479.5 C 51.4044,479.738 52.7377,480.738 53.5,482.5C 51.5956,482.262 50.2623,481.262 49.5,479.5 Z"/></g>
<g><path style="opacity:0.996" fill="#bababa" d="M 53.5,482.5 C 55.4044,482.738 56.7377,483.738 57.5,485.5C 55.5956,485.262 54.2623,484.262 53.5,482.5 Z"/></g>
<g><path style="opacity:0.996" fill="#b9b9b9" d="M 57.5,485.5 C 59.4044,485.738 60.7377,486.738 61.5,488.5C 59.5956,488.262 58.2623,487.262 57.5,485.5 Z"/></g>
<g><path style="opacity:0.8" fill="#afafaf" d="M 63.5,489.5 C 65.0269,489.427 66.0269,490.094 66.5,491.5C 64.9731,491.573 63.9731,490.906 63.5,489.5 Z"/></g>
<g><path style="opacity:0.608" fill="#9e9e9e" d="M 66.5,491.5 C 68.0269,491.427 69.0269,492.094 69.5,493.5C 67.9731,493.573 66.9731,492.906 66.5,491.5 Z"/></g>
</svg>
