<?xml version="1.0" encoding="UTF-8"?>
<!DOCTYPE svg PUBLIC "-//W3C//DTD SVG 1.1//EN" "http://www.w3.org/Graphics/SVG/1.1/DTD/svg11.dtd">
<svg xmlns="http://www.w3.org/2000/svg" version="1.1" width="2201px" height="1000px" style="shape-rendering:geometricPrecision; text-rendering:geometricPrecision; image-rendering:optimizeQuality; fill-rule:evenodd; clip-rule:evenodd" xmlns:xlink="http://www.w3.org/1999/xlink">
<g><path style="opacity:1" fill="#fefefe" d="M -0.5,-0.5 C 733.167,-0.5 1466.83,-0.5 2200.5,-0.5C 2200.5,332.833 2200.5,666.167 2200.5,999.5C 1466.83,999.5 733.167,999.5 -0.5,999.5C -0.5,666.167 -0.5,332.833 -0.5,-0.5 Z"/></g>
<g><path style="opacity:1" fill="#3f3f3f" d="M 1644.5,62.5 C 1587.17,62.5 1529.83,62.5 1472.5,62.5C 1472.83,112.003 1472.5,161.336 1471.5,210.5C 1471.5,160.833 1471.5,111.167 1471.5,61.5C 1529.34,61.1676 1587,61.501 1644.5,62.5 Z"/></g>
<g><path style="opacity:1" fill="#000000" d="M 1644.5,62.5 C 1644.5,111.833 1644.5,161.167 1644.5,210.5C 1683.5,210.5 1722.5,210.5 1761.5,210.5C 1761.5,253.833 1761.5,297.167 1761.5,340.5C 1722.5,340.5 1683.5,340.5 1644.5,340.5C 1644.33,444.834 1644.5,549.167 1645,653.5C 1646.9,682.735 1662.4,698.901 1691.5,702C 1708.57,703.184 1725.4,701.684 1742,697.5C 1743.44,697.559 1744.77,697.892 1746,698.5C 1754.93,739.795 1763.76,781.129 1772.5,822.5C 1772.14,825.362 1770.47,826.862 1767.5,827C 1715.64,842.473 1662.97,845.807 1609.5,837C 1521.69,817.854 1475.86,763.354 1472,673.5C 1471.5,562.501 1471.33,451.501 1471.5,340.5C 1445.83,340.333 1420.16,340.5 1394.5,341C 1403.65,367.711 1408.31,395.211 1408.5,423.5C 1408.5,559.833 1408.5,696.167 1408.5,832.5C 1351.17,832.5 1293.83,832.5 1236.5,832.5C 1236.67,705.166 1236.5,577.833 1236,450.5C 1233.93,411.494 1216.76,381.327 1184.5,360C 1158.16,347.263 1130.49,343.263 1101.5,348C 1049.08,359.757 1018.58,392.257 1010,445.5C 1009.07,453.476 1008.57,461.476 1008.5,469.5C 1007.5,590.332 1007.17,711.332 1007.5,832.5C 950.167,832.5 892.833,832.5 835.5,832.5C 835.5,743.833 835.5,655.167 835.5,566.5C 694.833,566.5 554.167,566.5 413.5,566.5C 412.689,601.267 421.523,633.267 440,662.5C 464.628,695.07 497.461,712.904 538.5,716C 573.335,719.206 605.668,711.872 635.5,694C 652.967,681.403 665.634,665.069 673.5,645C 726.503,647.833 779.503,651 832.5,654.5C 818.744,718.865 783.744,768.032 727.5,802C 684.325,826.279 637.992,840.279 588.5,844C 544.676,847.925 501.343,844.925 458.5,835C 353.232,806.399 285.732,739.566 256,634.5C 237.497,559.316 238.164,484.316 258,409.5C 286.081,318.088 344.581,254.921 433.5,220C 503.182,197.692 573.182,196.692 643.5,217C 732.718,245.885 791.551,305.052 820,394.5C 826.359,416.129 830.859,438.129 833.5,460.5C 834.065,465.149 834.565,469.816 835,474.5C 835.5,386.501 835.667,298.501 835.5,210.5C 890.167,210.5 944.833,210.5 999.5,210.5C 999.5,247.167 999.5,283.833 999.5,320.5C 1002.17,320.5 1004.83,320.5 1007.5,320.5C 1029.78,264.727 1069.78,228.227 1127.5,211C 1183.12,196.606 1237.45,200.272 1290.5,222C 1325.57,238.735 1353.4,263.568 1374,296.5C 1378.2,304.229 1382.36,311.895 1386.5,319.5C 1387.5,284.877 1387.83,248.877 1387.5,211.5C 1415.67,211.831 1443.67,211.498 1471.5,210.5C 1472.5,161.336 1472.83,112.003 1472.5,62.5C 1529.83,62.5 1587.17,62.5 1644.5,62.5 Z"/></g>
<g><path style="opacity:1" fill="#bcbcbc" d="M 835.5,210.5 C 835.667,298.501 835.5,386.501 835,474.5C 834.565,469.816 834.065,465.149 833.5,460.5C 834.167,377.167 834.833,293.833 835.5,210.5 Z"/></g>
<g><path style="opacity:1" fill="#3f3f3f" d="M 1471.5,210.5 C 1443.67,211.498 1415.67,211.831 1387.5,211.5C 1387.83,248.877 1387.5,284.877 1386.5,319.5C 1386.5,283.167 1386.5,246.833 1386.5,210.5C 1414.83,210.5 1443.17,210.5 1471.5,210.5 Z"/></g>
<g><path style="opacity:1" fill="#fefefe" d="M 673.5,447.5 C 673.5,451.167 673.5,454.833 673.5,458.5C 586.833,458.5 500.167,458.5 413.5,458.5C 417.6,404.433 443.934,365.6 492.5,342C 528.805,328.047 565.138,328.047 601.5,342C 645.809,363.168 669.809,398.335 673.5,447.5 Z"/></g>
<g><path style="opacity:1" fill="#808080" d="M 673.5,447.5 C 674.483,451.298 674.817,455.298 674.5,459.5C 587.332,459.833 500.332,459.499 413.5,458.5C 500.167,458.5 586.833,458.5 673.5,458.5C 673.5,454.833 673.5,451.167 673.5,447.5 Z"/></g>
<g><path style="opacity:1" fill="#434343" d="M 1836.5,667.5 C 1830.5,667.5 1824.5,667.5 1818.5,667.5C 1818.5,669.167 1818.5,670.833 1818.5,672.5C 1817.54,670.735 1817.21,668.735 1817.5,666.5C 1824.02,666.177 1830.36,666.51 1836.5,667.5 Z"/></g>
<g><path style="opacity:1" fill="#464646" d="M 1884.5,667.5 C 1890.64,666.51 1896.98,666.177 1903.5,666.5C 1903.81,669.385 1903.47,672.052 1902.5,674.5C 1902.5,672.167 1902.5,669.833 1902.5,667.5C 1896.5,667.5 1890.5,667.5 1884.5,667.5 Z"/></g>
<g><path style="opacity:1" fill="#040404" d="M 1836.5,667.5 C 1839.46,684.286 1849.46,691.786 1866.5,690C 1877.61,686.626 1883.61,679.126 1884.5,667.5C 1890.5,667.5 1896.5,667.5 1902.5,667.5C 1902.5,669.833 1902.5,672.167 1902.5,674.5C 1897.26,697.292 1882.93,708.959 1859.5,709.5C 1836.04,708.041 1822.37,695.707 1818.5,672.5C 1818.5,670.833 1818.5,669.167 1818.5,667.5C 1824.5,667.5 1830.5,667.5 1836.5,667.5 Z"/></g>
<g><path style="opacity:1" fill="#030303" d="M 1780.5,704.5 C 1806,706.162 1820.33,719.662 1823.5,745C 1822.19,772.479 1807.85,787.312 1780.5,789.5C 1780.5,783.167 1780.5,776.833 1780.5,770.5C 1795.26,769.575 1803.26,761.742 1804.5,747C 1803.22,732.22 1795.22,724.386 1780.5,723.5C 1780.5,717.167 1780.5,710.833 1780.5,704.5 Z"/></g>
<g><path style="opacity:1" fill="#040404" d="M 1930.5,704.5 C 1933.83,704.5 1937.17,704.5 1940.5,704.5C 1940.83,710.537 1940.5,716.537 1939.5,722.5C 1920.28,726.945 1913.45,738.611 1919,757.5C 1923.6,766.052 1930.77,770.386 1940.5,770.5C 1940.5,776.833 1940.5,783.167 1940.5,789.5C 1911.02,786.587 1896.86,770.253 1898,740.5C 1901.73,721.946 1912.56,709.946 1930.5,704.5 Z"/></g>
<g><path style="opacity:1" fill="#040404" d="M 1855.5,729.5 C 1871.86,728.692 1879.03,736.359 1877,752.5C 1873.2,761.559 1866.36,765.392 1856.5,764C 1844.79,759.227 1840.95,750.727 1845,738.5C 1847.47,734.199 1850.97,731.199 1855.5,729.5 Z"/></g>
<g><path style="opacity:1" fill="#040404" d="M 1854.5,783.5 C 1876.52,782.251 1892.02,791.585 1901,811.5C 1902.89,816.308 1903.73,821.308 1903.5,826.5C 1897.17,826.5 1890.83,826.5 1884.5,826.5C 1882.78,811.948 1874.61,803.948 1860,802.5C 1845.93,804.406 1838.09,812.406 1836.5,826.5C 1830.17,826.5 1823.83,826.5 1817.5,826.5C 1819.52,803.158 1831.85,788.824 1854.5,783.5 Z"/></g>
<g><path style="opacity:1" fill="#575757" d="M 1008.5,469.5 C 1008.5,590.833 1008.5,712.167 1008.5,833.5C 950.664,833.832 892.998,833.499 835.5,832.5C 892.833,832.5 950.167,832.5 1007.5,832.5C 1007.17,711.332 1007.5,590.332 1008.5,469.5 Z"/></g>
<g><path style="opacity:1" fill="#585858" d="M 1408.5,423.5 C 1409.5,559.999 1409.83,696.666 1409.5,833.5C 1351.66,833.832 1294,833.499 1236.5,832.5C 1293.83,832.5 1351.17,832.5 1408.5,832.5C 1408.5,696.167 1408.5,559.833 1408.5,423.5 Z"/></g>
<g><path style="opacity:1" fill="#1a1a1a" d="M 641.5,880.5 C 643.604,880.201 645.604,880.534 647.5,881.5C 646,883.833 644.5,886.167 643,888.5C 641.445,890.515 639.611,890.848 637.5,889.5C 639.12,886.596 640.453,883.596 641.5,880.5 Z"/></g>
<g><path style="opacity:1" fill="#1a1a1a" d="M 1504.5,880.5 C 1506.6,880.201 1508.6,880.534 1510.5,881.5C 1509,883.833 1507.5,886.167 1506,888.5C 1504.44,890.515 1502.61,890.848 1500.5,889.5C 1502.12,886.596 1503.45,883.596 1504.5,880.5 Z"/></g>
<g><path style="opacity:1" fill="#020202" d="M 1846.5,925.5 C 1846.5,916.5 1846.5,907.5 1846.5,898.5C 1844.83,898.5 1843.17,898.5 1841.5,898.5C 1841.5,897.167 1841.5,895.833 1841.5,894.5C 1843.17,894.5 1844.83,894.5 1846.5,894.5C 1845.66,885.004 1850,881.004 1859.5,882.5C 1859.67,883.822 1859.34,884.989 1858.5,886C 1852.71,885.956 1850.38,888.789 1851.5,894.5C 1853.83,894.5 1856.17,894.5 1858.5,894.5C 1858.5,895.833 1858.5,897.167 1858.5,898.5C 1856.17,898.5 1853.83,898.5 1851.5,898.5C 1851.5,907.5 1851.5,916.5 1851.5,925.5C 1849.83,925.5 1848.17,925.5 1846.5,925.5 Z"/></g>
<g><path style="opacity:1" fill="#0d0d0d" d="M 1880.5,898.5 C 1878.17,898.5 1875.83,898.5 1873.5,898.5C 1873.5,907.5 1873.5,916.5 1873.5,925.5C 1871.83,925.5 1870.17,925.5 1868.5,925.5C 1868.5,916.5 1868.5,907.5 1868.5,898.5C 1866.83,898.5 1865.17,898.5 1863.5,898.5C 1863.5,897.167 1863.5,895.833 1863.5,894.5C 1865.17,894.5 1866.83,894.5 1868.5,894.5C 1867.61,885.058 1871.95,881.058 1881.5,882.5C 1881.5,883.833 1881.5,885.167 1881.5,886.5C 1875.17,885.5 1872.5,888.167 1873.5,894.5C 1875.83,894.5 1878.17,894.5 1880.5,894.5C 1880.5,895.833 1880.5,897.167 1880.5,898.5 Z"/></g>
<g><path style="opacity:1" fill="#111111" d="M 685.5,882.5 C 691.332,883.818 691.832,886.151 687,889.5C 684.354,887.633 683.854,885.3 685.5,882.5 Z"/></g>
<g><path style="opacity:1" fill="#151515" d="M 1072.5,882.5 C 1074.84,882.506 1076.18,883.673 1076.5,886C 1074.5,890.667 1072.5,890.667 1070.5,886C 1070.86,884.566 1071.53,883.399 1072.5,882.5 Z"/></g>
<g><path style="opacity:1" fill="#191919" d="M 1316.5,882.5 C 1321.49,882.997 1322.49,885.164 1319.5,889C 1314.38,888.824 1313.38,886.658 1316.5,882.5 Z"/></g>
<g><path style="opacity:1" fill="#191919" d="M 1453.5,882.5 C 1458.49,882.997 1459.49,885.164 1456.5,889C 1451.38,888.824 1450.38,886.658 1453.5,882.5 Z"/></g>
<g><path style="opacity:1" fill="#0e0e0e" d="M 1561.5,905.5 C 1566.5,905.5 1571.5,905.5 1576.5,905.5C 1576.5,908.5 1576.5,911.5 1576.5,914.5C 1570.73,927.032 1561.73,929.866 1549.5,923C 1542.6,915.901 1540.1,907.401 1542,897.5C 1547.31,884.429 1556.48,880.596 1569.5,886C 1573.7,888.696 1576.03,892.53 1576.5,897.5C 1574.71,897.785 1573.05,897.452 1571.5,896.5C 1567.53,888.898 1561.53,886.731 1553.5,890C 1547.13,895.433 1544.97,902.266 1547,910.5C 1550.47,919.985 1556.97,923.151 1566.5,920C 1570.19,917.45 1571.86,913.95 1571.5,909.5C 1568.17,909.5 1564.83,909.5 1561.5,909.5C 1561.5,908.167 1561.5,906.833 1561.5,905.5 Z"/></g>
<g><path style="opacity:1" fill="#151515" d="M 1830.5,882.5 C 1832.84,882.506 1834.18,883.673 1834.5,886C 1832.5,890.667 1830.5,890.667 1828.5,886C 1828.86,884.566 1829.53,883.399 1830.5,882.5 Z"/></g>
<g><path style="opacity:1" fill="#505050" d="M 297.5,884.5 C 289.5,884.5 281.5,884.5 273.5,884.5C 273.5,898.167 273.5,911.833 273.5,925.5C 272.504,911.677 272.171,897.677 272.5,883.5C 281.017,883.174 289.35,883.507 297.5,884.5 Z"/></g>
<g><path style="opacity:1" fill="#040404" d="M 297.5,884.5 C 297.5,885.833 297.5,887.167 297.5,888.5C 290.833,888.5 284.167,888.5 277.5,888.5C 277.181,893.363 277.514,898.03 278.5,902.5C 284.5,902.5 290.5,902.5 296.5,902.5C 296.5,904.167 296.5,905.833 296.5,907.5C 290.5,907.5 284.5,907.5 278.5,907.5C 277.514,911.97 277.181,916.637 277.5,921.5C 284.5,921.5 291.5,921.5 298.5,921.5C 298.5,922.833 298.5,924.167 298.5,925.5C 290.167,925.5 281.833,925.5 273.5,925.5C 273.5,911.833 273.5,898.167 273.5,884.5C 281.5,884.5 289.5,884.5 297.5,884.5 Z"/></g>
<g><path style="opacity:1" fill="#464646" d="M 502.5,884.5 C 500.833,884.5 499.167,884.5 497.5,884.5C 497.5,898.167 497.5,911.833 497.5,925.5C 496.504,911.677 496.171,897.677 496.5,883.5C 498.735,883.205 500.735,883.539 502.5,884.5 Z"/></g>
<g><path style="opacity:1" fill="#050505" d="M 502.5,884.5 C 509.253,895.006 516.253,905.34 523.5,915.5C 523.56,916.043 523.893,916.376 524.5,916.5C 525.499,905.854 525.832,895.187 525.5,884.5C 526.833,884.5 528.167,884.5 529.5,884.5C 529.5,898.167 529.5,911.833 529.5,925.5C 526.956,925.896 524.789,925.229 523,923.5C 516.49,913.805 509.99,904.138 503.5,894.5C 503.44,893.957 503.107,893.624 502.5,893.5C 501.501,904.146 501.168,914.813 501.5,925.5C 500.167,925.5 498.833,925.5 497.5,925.5C 497.5,911.833 497.5,898.167 497.5,884.5C 499.167,884.5 500.833,884.5 502.5,884.5 Z"/></g>
<g><path style="opacity:1" fill="#3f3f3f" d="M 524.5,884.5 C 524.833,884.5 525.167,884.5 525.5,884.5C 525.832,895.187 525.499,905.854 524.5,916.5C 523.893,916.376 523.56,916.043 523.5,915.5C 524.494,905.347 524.828,895.014 524.5,884.5 Z"/></g>
<g><path style="opacity:1" fill="#808080" d="M 524.5,884.5 C 526.265,883.539 528.265,883.205 530.5,883.5C 530.829,897.677 530.496,911.677 529.5,925.5C 529.5,911.833 529.5,898.167 529.5,884.5C 528.167,884.5 526.833,884.5 525.5,884.5C 525.167,884.5 524.833,884.5 524.5,884.5 Z"/></g>
<g><path style="opacity:1" fill="#0a0a0a" d="M 845.5,884.5 C 846.833,884.5 848.167,884.5 849.5,884.5C 849.5,898.167 849.5,911.833 849.5,925.5C 848.167,925.5 846.833,925.5 845.5,925.5C 845.657,924.127 845.49,922.793 845,921.5C 836.878,928.859 829.878,927.859 824,918.5C 822.064,912.818 822.064,907.152 824,901.5C 827.655,894.93 833.155,892.763 840.5,895C 842.667,895.833 844.167,897.333 845,899.5C 845.499,894.511 845.666,889.511 845.5,884.5 Z"/></g>
<g><path style="opacity:1" fill="#454545" d="M 845.5,884.5 C 846.919,883.549 848.585,883.216 850.5,883.5C 850.829,897.677 850.496,911.677 849.5,925.5C 849.5,911.833 849.5,898.167 849.5,884.5C 848.167,884.5 846.833,884.5 845.5,884.5 Z"/></g>
<g><path style="opacity:1" fill="#000000" d="M 925.5,925.5 C 925.5,913.167 925.5,900.833 925.5,888.5C 921.167,888.5 916.833,888.5 912.5,888.5C 912.5,887.167 912.5,885.833 912.5,884.5C 922.833,884.5 933.167,884.5 943.5,884.5C 943.5,885.833 943.5,887.167 943.5,888.5C 939.167,888.5 934.833,888.5 930.5,888.5C 930.5,900.833 930.5,913.167 930.5,925.5C 928.833,925.5 927.167,925.5 925.5,925.5 Z"/></g>
<g><path style="opacity:1" fill="#000000" d="M 1086.5,884.5 C 1087.83,884.5 1089.17,884.5 1090.5,884.5C 1090.5,898.167 1090.5,911.833 1090.5,925.5C 1089.17,925.5 1087.83,925.5 1086.5,925.5C 1086.5,911.833 1086.5,898.167 1086.5,884.5 Z"/></g>
<g><path style="opacity:1" fill="#454545" d="M 1086.5,884.5 C 1087.92,883.549 1089.59,883.216 1091.5,883.5C 1091.83,897.677 1091.5,911.677 1090.5,925.5C 1090.5,911.833 1090.5,898.167 1090.5,884.5C 1089.17,884.5 1087.83,884.5 1086.5,884.5 Z"/></g>
<g><path style="opacity:1" fill="#0b0b0b" d="M 1140.5,884.5 C 1142.17,884.5 1143.83,884.5 1145.5,884.5C 1145.5,898.167 1145.5,911.833 1145.5,925.5C 1143.83,925.5 1142.17,925.5 1140.5,925.5C 1140.66,924.127 1140.49,922.793 1140,921.5C 1130.13,929.585 1122.79,927.585 1118,915.5C 1116.11,907.864 1117.94,901.364 1123.5,896C 1127.71,894.466 1132.04,894.133 1136.5,895C 1137.67,896.167 1138.83,897.333 1140,898.5C 1140.5,893.845 1140.67,889.179 1140.5,884.5 Z"/></g>
<g><path style="opacity:1" fill="#000000" d="M 1209.5,884.5 C 1210.83,884.5 1212.17,884.5 1213.5,884.5C 1213.5,898.167 1213.5,911.833 1213.5,925.5C 1212.17,925.5 1210.83,925.5 1209.5,925.5C 1209.5,911.833 1209.5,898.167 1209.5,884.5 Z"/></g>
<g><path style="opacity:1" fill="#141414" d="M 1223.5,883.5 C 1225.17,883.5 1226.83,883.5 1228.5,883.5C 1229.19,889.104 1227.52,893.771 1223.5,897.5C 1222.28,897.113 1221.61,896.28 1221.5,895C 1223.18,891.362 1223.85,887.529 1223.5,883.5 Z"/></g>
<g><path style="opacity:1" fill="#070707" d="M 1237.5,884.5 C 1238.83,884.5 1240.17,884.5 1241.5,884.5C 1241.17,893.682 1241.51,902.682 1242.5,911.5C 1243.92,919.379 1248.58,922.546 1256.5,921C 1259.2,920.31 1261.36,918.81 1263,916.5C 1264.45,905.937 1264.95,895.27 1264.5,884.5C 1266.17,884.5 1267.83,884.5 1269.5,884.5C 1269.67,895.172 1269.5,905.839 1269,916.5C 1264.28,924.939 1257.11,928.106 1247.5,926C 1244.1,924.6 1241.26,922.433 1239,919.5C 1237.56,907.91 1237.06,896.243 1237.5,884.5 Z"/></g>
<g><path style="opacity:1" fill="#474747" d="M 1237.5,884.5 C 1238.92,883.549 1240.59,883.216 1242.5,883.5C 1242.5,892.833 1242.5,902.167 1242.5,911.5C 1241.51,902.682 1241.17,893.682 1241.5,884.5C 1240.17,884.5 1238.83,884.5 1237.5,884.5 Z"/></g>
<g><path style="opacity:1" fill="#505050" d="M 1819.5,884.5 C 1811.17,884.5 1802.83,884.5 1794.5,884.5C 1794.5,898.167 1794.5,911.833 1794.5,925.5C 1793.5,911.677 1793.17,897.677 1793.5,883.5C 1802.35,883.174 1811.02,883.507 1819.5,884.5 Z"/></g>
<g><path style="opacity:1" fill="#040404" d="M 1819.5,884.5 C 1819.5,885.833 1819.5,887.167 1819.5,888.5C 1812.5,888.5 1805.5,888.5 1798.5,888.5C 1798.18,893.363 1798.51,898.03 1799.5,902.5C 1805.5,902.5 1811.5,902.5 1817.5,902.5C 1817.5,904.167 1817.5,905.833 1817.5,907.5C 1811.5,907.5 1805.5,907.5 1799.5,907.5C 1798.51,911.97 1798.18,916.637 1798.5,921.5C 1805.5,921.5 1812.5,921.5 1819.5,921.5C 1819.5,922.833 1819.5,924.167 1819.5,925.5C 1811.17,925.5 1802.83,925.5 1794.5,925.5C 1794.5,911.833 1794.5,898.167 1794.5,884.5C 1802.83,884.5 1811.17,884.5 1819.5,884.5 Z"/></g>
<g><path style="opacity:1" fill="#000000" d="M 1922.5,884.5 C 1924.17,884.5 1925.83,884.5 1927.5,884.5C 1927.5,898.167 1927.5,911.833 1927.5,925.5C 1925.83,925.5 1924.17,925.5 1922.5,925.5C 1922.5,911.833 1922.5,898.167 1922.5,884.5 Z"/></g>
<g><path style="opacity:1" fill="#0e0e0e" d="M 1481.5,898.5 C 1479.17,898.5 1476.83,898.5 1474.5,898.5C 1474.18,905.687 1474.51,912.687 1475.5,919.5C 1476.99,921.28 1478.99,921.946 1481.5,921.5C 1481.5,922.833 1481.5,924.167 1481.5,925.5C 1476.26,926.729 1472.42,925.063 1470,920.5C 1469.5,913.174 1469.33,905.841 1469.5,898.5C 1468.17,898.5 1466.83,898.5 1465.5,898.5C 1465.5,897.167 1465.5,895.833 1465.5,894.5C 1466.83,894.5 1468.17,894.5 1469.5,894.5C 1469.5,891.833 1469.5,889.167 1469.5,886.5C 1471.17,886.5 1472.83,886.5 1474.5,886.5C 1474.5,889.167 1474.5,891.833 1474.5,894.5C 1476.83,894.5 1479.17,894.5 1481.5,894.5C 1481.5,895.833 1481.5,897.167 1481.5,898.5 Z"/></g>
<g><path style="opacity:1" fill="#0d0d0d" d="M 1655.5,886.5 C 1657.17,886.5 1658.83,886.5 1660.5,886.5C 1660.5,889.167 1660.5,891.833 1660.5,894.5C 1662.5,894.5 1664.5,894.5 1666.5,894.5C 1666.5,895.833 1666.5,897.167 1666.5,898.5C 1664.5,898.5 1662.5,898.5 1660.5,898.5C 1660.33,905.508 1660.5,912.508 1661,919.5C 1662.44,921.155 1664.28,921.822 1666.5,921.5C 1666.33,922.822 1666.66,923.989 1667.5,925C 1664.04,925.817 1660.7,925.483 1657.5,924C 1656.87,923.25 1656.37,922.416 1656,921.5C 1655.5,913.841 1655.33,906.174 1655.5,898.5C 1653.83,898.5 1652.17,898.5 1650.5,898.5C 1650.5,897.167 1650.5,895.833 1650.5,894.5C 1652.17,894.5 1653.83,894.5 1655.5,894.5C 1655.5,891.833 1655.5,889.167 1655.5,886.5 Z"/></g>
<g><path style="opacity:1" fill="#aaaaaa" d="M 297.5,888.5 C 291.355,889.49 285.022,889.823 278.5,889.5C 278.5,893.833 278.5,898.167 278.5,902.5C 277.514,898.03 277.181,893.363 277.5,888.5C 284.167,888.5 290.833,888.5 297.5,888.5 Z"/></g>
<g><path style="opacity:1" fill="#ababab" d="M 1819.5,888.5 C 1813.02,889.491 1806.35,889.824 1799.5,889.5C 1799.5,893.833 1799.5,898.167 1799.5,902.5C 1798.51,898.03 1798.18,893.363 1798.5,888.5C 1805.5,888.5 1812.5,888.5 1819.5,888.5 Z"/></g>
<g><path style="opacity:1" fill="#bdbdbd" d="M 912.5,888.5 C 916.833,888.5 921.167,888.5 925.5,888.5C 925.5,900.833 925.5,913.167 925.5,925.5C 924.505,913.678 924.172,901.678 924.5,889.5C 920.298,889.817 916.298,889.483 912.5,888.5 Z"/></g>
<g><path style="opacity:1" fill="#7d7d7d" d="M 503.5,894.5 C 502.833,904.833 502.167,915.167 501.5,925.5C 501.168,914.813 501.501,904.146 502.5,893.5C 503.107,893.624 503.44,893.957 503.5,894.5 Z"/></g>
<g><path style="opacity:1" fill="#131313" d="M 313.5,894.5 C 317.182,894.335 320.848,894.501 324.5,895C 328.01,896.44 329.677,898.773 329.5,902C 326.404,902.927 324.07,901.927 322.5,899C 317.875,897.448 314.542,898.781 312.5,903C 312.759,904.261 313.426,905.261 314.5,906C 319.278,907.361 323.944,909.028 328.5,911C 332.286,917.861 330.62,922.861 323.5,926C 314.986,928.41 309.319,925.577 306.5,917.5C 307.93,917.579 309.264,917.246 310.5,916.5C 314.328,921.921 319.161,922.921 325,919.5C 325.825,917.299 325.325,915.466 323.5,914C 319.392,912.973 315.392,911.64 311.5,910C 305.706,903.94 306.372,898.774 313.5,894.5 Z"/></g>
<g><path style="opacity:1" fill="#0b0b0b" d="M 339.5,894.5 C 341.167,894.5 342.833,894.5 344.5,894.5C 344.367,899.272 345.7,899.438 348.5,895C 360.34,892.589 366.673,897.422 367.5,909.5C 367.314,921.525 361.314,927.025 349.5,926C 348,924.5 346.5,923 345,921.5C 344.501,926.823 344.334,932.156 344.5,937.5C 342.833,937.5 341.167,937.5 339.5,937.5C 339.5,923.167 339.5,908.833 339.5,894.5 Z"/></g>
<g><path style="opacity:1" fill="#0e0e0e" d="M 381.5,894.5 C 385.514,894.334 389.514,894.501 393.5,895C 395.624,896.122 397.457,897.622 399,899.5C 399.5,908.16 399.666,916.827 399.5,925.5C 397.833,925.5 396.167,925.5 394.5,925.5C 394.557,921.867 393.557,921.7 391.5,925C 382.253,928.867 376.586,926.034 374.5,916.5C 374.909,911.59 377.575,908.757 382.5,908C 385.5,907.667 388.5,907.333 391.5,907C 395.405,904.525 395.405,901.858 391.5,899C 387.191,897.802 383.524,898.802 380.5,902C 376.313,903.156 375.147,901.989 377,898.5C 378.397,896.93 379.897,895.596 381.5,894.5 Z"/></g>
<g><path style="opacity:1" fill="#0f0f0f" d="M 416.5,894.5 C 420.514,894.334 424.514,894.501 428.5,895C 432.276,896.605 434.276,899.438 434.5,903.5C 432.712,903.785 431.045,903.452 429.5,902.5C 425.376,897.621 420.876,897.287 416,901.5C 411.952,908.753 412.785,915.253 418.5,921C 423.147,922.48 426.813,921.314 429.5,917.5C 431.045,916.548 432.712,916.215 434.5,916.5C 433.765,921.737 430.765,924.904 425.5,926C 411.556,925.686 406.056,918.519 409,904.5C 410.306,900.199 412.806,896.866 416.5,894.5 Z"/></g>
<g><path style="opacity:1" fill="#0b0b0b" d="M 450.5,894.5 C 463.464,892.799 469.798,898.466 469.5,911.5C 462.167,911.5 454.833,911.5 447.5,911.5C 447.765,919.982 452.099,923.149 460.5,921C 462.269,919.936 463.936,918.769 465.5,917.5C 467,917.453 468,918.119 468.5,919.5C 465.952,924.516 461.785,926.849 456,926.5C 449.351,926.025 445.018,922.692 443,916.5C 440.309,907.143 442.809,899.809 450.5,894.5 Z"/></g>
<g><path style="opacity:1" fill="#090909" d="M 540.5,894.5 C 542.167,894.5 543.833,894.5 545.5,894.5C 545.334,901.841 545.5,909.174 546,916.5C 550.478,923.072 555.145,923.072 560,916.5C 560.5,909.174 560.666,901.841 560.5,894.5C 562.167,894.5 563.833,894.5 565.5,894.5C 565.5,904.833 565.5,915.167 565.5,925.5C 563.833,925.5 562.167,925.5 560.5,925.5C 560.657,924.127 560.49,922.793 560,921.5C 556.257,925.259 551.757,926.426 546.5,925C 543.619,923.749 541.786,921.583 541,918.5C 540.5,910.507 540.334,902.507 540.5,894.5 Z"/></g>
<g><path style="opacity:1" fill="#070707" d="M 575.5,894.5 C 577.167,894.5 578.833,894.5 580.5,894.5C 580.21,898.554 580.877,899.054 582.5,896C 586.039,894.496 589.705,894.163 593.5,895C 595.303,895.637 596.636,896.803 597.5,898.5C 602.257,894.284 607.591,893.451 613.5,896C 614.701,896.903 615.535,898.069 616,899.5C 616.5,908.16 616.666,916.827 616.5,925.5C 614.833,925.5 613.167,925.5 611.5,925.5C 611.666,917.493 611.5,909.493 611,901.5C 606.648,897.335 602.648,897.669 599,902.5C 598.5,910.159 598.334,917.826 598.5,925.5C 596.833,925.5 595.167,925.5 593.5,925.5C 593.666,917.493 593.5,909.493 593,901.5C 588.181,897.081 584.181,897.748 581,903.5C 580.5,910.826 580.334,918.159 580.5,925.5C 578.833,925.5 577.167,925.5 575.5,925.5C 575.5,915.167 575.5,904.833 575.5,894.5 Z"/></g>
<g><path style="opacity:1" fill="#0e0e0e" d="M 633.5,894.5 C 647.169,892.175 653.503,897.842 652.5,911.5C 645.167,911.5 637.833,911.5 630.5,911.5C 631.508,920.003 636.175,923.17 644.5,921C 646.453,917.713 649.119,916.88 652.5,918.5C 647.27,926.705 640.27,928.538 631.5,924C 624.478,916.256 623.644,907.756 629,898.5C 630.667,897.267 632.167,895.933 633.5,894.5 Z"/></g>
<g><path style="opacity:1" fill="#101010" d="M 672.5,893.5 C 674.167,893.5 675.833,893.5 677.5,893.5C 677.5,895.167 677.5,896.833 677.5,898.5C 672.781,897.74 669.281,899.407 667,903.5C 666.5,910.826 666.334,918.159 666.5,925.5C 664.833,925.5 663.167,925.5 661.5,925.5C 661.5,915.167 661.5,904.833 661.5,894.5C 663.167,894.5 664.833,894.5 666.5,894.5C 666.343,895.873 666.51,897.207 667,898.5C 668.406,896.256 670.239,894.59 672.5,893.5 Z"/></g>
<g><path style="opacity:1" fill="#0f0f0f" d="M 684.5,894.5 C 686.167,894.5 687.833,894.5 689.5,894.5C 689.5,904.833 689.5,915.167 689.5,925.5C 687.833,925.5 686.167,925.5 684.5,925.5C 684.5,915.167 684.5,904.833 684.5,894.5 Z"/></g>
<g><path style="opacity:1" fill="#0b0b0b" d="M 725.5,894.5 C 725.5,908.5 725.5,922.5 725.5,936.5C 724.167,936.5 722.833,936.5 721.5,936.5C 721.666,931.489 721.499,926.489 721,921.5C 714.029,928.381 707.362,928.048 701,920.5C 696.787,911.463 697.954,903.296 704.5,896C 708.375,894.48 712.375,894.146 716.5,895C 718.667,895.833 720.167,897.333 721,899.5C 721.494,897.866 721.66,896.199 721.5,894.5C 722.833,894.5 724.167,894.5 725.5,894.5 Z"/></g>
<g><path style="opacity:1" fill="#3f3f3f" d="M 725.5,894.5 C 726.496,908.657 726.829,922.99 726.5,937.5C 724.585,937.784 722.919,937.451 721.5,936.5C 722.833,936.5 724.167,936.5 725.5,936.5C 725.5,922.5 725.5,908.5 725.5,894.5 Z"/></g>
<g><path style="opacity:1" fill="#030303" d="M 736.5,894.5 C 738.167,894.5 739.833,894.5 741.5,894.5C 741.334,901.841 741.5,909.174 742,916.5C 746.914,923.2 751.581,922.867 756,915.5C 756.5,908.508 756.666,901.508 756.5,894.5C 757.833,894.5 759.167,894.5 760.5,894.5C 760.5,904.833 760.5,915.167 760.5,925.5C 759.167,925.5 757.833,925.5 756.5,925.5C 756.762,924.022 756.429,922.689 755.5,921.5C 753.395,924.717 750.395,926.05 746.5,925.5C 742.719,926.173 739.886,924.839 738,921.5C 736.586,912.582 736.086,903.582 736.5,894.5 Z"/></g>
<g><path style="opacity:1" fill="#0e0e0e" d="M 797.5,911.5 C 789.833,911.5 782.167,911.5 774.5,911.5C 774.263,912.791 774.596,913.791 775.5,914.5C 777.548,920.858 781.881,923.025 788.5,921C 790.269,919.936 791.936,918.769 793.5,917.5C 795,917.453 796,918.119 796.5,919.5C 792.662,926.047 786.996,928.213 779.5,926C 768.969,919.311 766.802,910.478 773,899.5C 778.265,894.247 784.432,893.081 791.5,896C 796.424,900.017 798.424,905.184 797.5,911.5 Z"/></g>
<g><path style="opacity:1" fill="#0f0f0f" d="M 887.5,911.5 C 879.833,911.5 872.167,911.5 864.5,911.5C 864.232,913.099 864.566,914.432 865.5,915.5C 868.064,921.064 872.397,922.898 878.5,921C 880.8,917.248 883.467,916.748 886.5,919.5C 882.36,925.567 876.694,927.734 869.5,926C 861.364,921.558 858.198,914.725 860,905.5C 863.676,894.918 870.843,891.751 881.5,896C 886.147,900.102 888.147,905.269 887.5,911.5 Z"/></g>
<g><path style="opacity:1" fill="#070707" d="M 959.5,893.5 C 961.167,893.5 962.833,893.5 964.5,893.5C 964.5,895.167 964.5,896.833 964.5,898.5C 959.806,897.7 956.306,899.367 954,903.5C 953.5,910.826 953.334,918.159 953.5,925.5C 952.167,925.5 950.833,925.5 949.5,925.5C 949.5,915.167 949.5,904.833 949.5,894.5C 950.833,894.5 952.167,894.5 953.5,894.5C 953.343,895.873 953.51,897.207 954,898.5C 955.406,896.256 957.239,894.59 959.5,893.5 Z"/></g>
<g><path style="opacity:1" fill="#0c0c0c" d="M 977.5,894.5 C 981.514,894.334 985.514,894.501 989.5,895C 991.286,895.785 992.786,896.951 994,898.5C 995.443,907.392 995.943,916.392 995.5,925.5C 993.833,925.5 992.167,925.5 990.5,925.5C 990.649,924.448 990.483,923.448 990,922.5C 982.827,928.394 976.494,927.727 971,920.5C 969.773,916.409 970.606,912.909 973.5,910C 978.886,907.991 984.386,906.491 990,905.5C 990.92,902.692 990.087,900.525 987.5,899C 983.1,897.664 979.434,898.664 976.5,902C 975.167,902.667 973.833,902.667 972.5,902C 971.549,901.282 971.383,900.449 972,899.5C 973.73,897.598 975.563,895.931 977.5,894.5 Z"/></g>
<g><path style="opacity:1" fill="#0d0d0d" d="M 1002.5,894.5 C 1004.47,894.261 1006.3,894.594 1008,895.5C 1010.82,903.106 1013.49,910.773 1016,918.5C 1018.73,910.795 1021.57,903.128 1024.5,895.5C 1026.05,894.548 1027.71,894.215 1029.5,894.5C 1026.52,904.926 1022.86,915.093 1018.5,925C 1016.25,925.863 1014.42,925.363 1013,923.5C 1009.2,913.924 1005.7,904.258 1002.5,894.5 Z"/></g>
<g><path style="opacity:1" fill="#0f0f0f" d="M 1042.5,894.5 C 1046.51,894.334 1050.51,894.501 1054.5,895C 1056.94,895.774 1058.77,897.274 1060,899.5C 1060.5,908.16 1060.67,916.827 1060.5,925.5C 1058.83,925.5 1057.17,925.5 1055.5,925.5C 1055.65,924.448 1055.48,923.448 1055,922.5C 1049.57,927.305 1043.9,927.639 1038,923.5C 1034.51,918.795 1034.68,914.295 1038.5,910C 1044,908.358 1049.5,906.858 1055,905.5C 1054.99,899.195 1051.83,897.029 1045.5,899C 1043.88,899.615 1042.55,900.615 1041.5,902C 1037.31,903.156 1036.15,901.989 1038,898.5C 1039.4,896.93 1040.9,895.596 1042.5,894.5 Z"/></g>
<g><path style="opacity:1" fill="#000000" d="M 1071.5,894.5 C 1072.83,894.5 1074.17,894.5 1075.5,894.5C 1075.5,904.833 1075.5,915.167 1075.5,925.5C 1074.17,925.5 1072.83,925.5 1071.5,925.5C 1071.5,915.167 1071.5,904.833 1071.5,894.5 Z"/></g>
<g><path style="opacity:1" fill="#0e0e0e" d="M 1182.5,911.5 C 1174.83,911.5 1167.17,911.5 1159.5,911.5C 1159.26,912.791 1159.6,913.791 1160.5,914.5C 1162.55,920.858 1166.88,923.025 1173.5,921C 1175.8,917.248 1178.47,916.748 1181.5,919.5C 1178.54,924.148 1174.21,926.482 1168.5,926.5C 1161.07,925.859 1156.57,921.859 1155,914.5C 1153.19,905.915 1156.02,899.415 1163.5,895C 1176.48,892.81 1182.81,898.31 1182.5,911.5 Z"/></g>
<g><path style="opacity:1" fill="#0a0a0a" d="M 1280.5,894.5 C 1282.17,894.5 1283.83,894.5 1285.5,894.5C 1285.34,895.873 1285.51,897.207 1286,898.5C 1287.8,895.183 1290.64,893.85 1294.5,894.5C 1298.43,894.051 1301.6,895.384 1304,898.5C 1305.41,907.418 1305.91,916.418 1305.5,925.5C 1303.83,925.5 1302.17,925.5 1300.5,925.5C 1300.67,917.826 1300.5,910.159 1300,902.5C 1295.33,897.167 1290.67,897.167 1286,902.5C 1285.5,910.159 1285.33,917.826 1285.5,925.5C 1283.83,925.5 1282.17,925.5 1280.5,925.5C 1280.5,915.167 1280.5,904.833 1280.5,894.5 Z"/></g>
<g><path style="opacity:1" fill="#000000" d="M 1315.5,894.5 C 1317.17,894.5 1318.83,894.5 1320.5,894.5C 1320.5,904.833 1320.5,915.167 1320.5,925.5C 1318.83,925.5 1317.17,925.5 1315.5,925.5C 1315.5,915.167 1315.5,904.833 1315.5,894.5 Z"/></g>
<g><path style="opacity:1" fill="#0e0e0e" d="M 1328.5,895.5 C 1330.26,894.539 1332.26,894.205 1334.5,894.5C 1336.37,902.441 1339.04,910.108 1342.5,917.5C 1345.57,909.958 1348.24,902.291 1350.5,894.5C 1352.53,894.338 1354.53,894.505 1356.5,895C 1352.14,904.918 1348.47,915.085 1345.5,925.5C 1343.5,925.5 1341.5,925.5 1339.5,925.5C 1336.35,915.226 1332.69,905.226 1328.5,895.5 Z"/></g>
<g><path style="opacity:1" fill="#0f0f0f" d="M 1389.5,911.5 C 1381.83,911.5 1374.17,911.5 1366.5,911.5C 1366.23,913.099 1366.57,914.432 1367.5,915.5C 1370.06,921.064 1374.4,922.898 1380.5,921C 1382.8,917.248 1385.47,916.748 1388.5,919.5C 1384.36,925.567 1378.69,927.734 1371.5,926C 1363.36,921.558 1360.2,914.725 1362,905.5C 1365.68,894.918 1372.84,891.751 1383.5,896C 1388.15,900.102 1390.15,905.269 1389.5,911.5 Z"/></g>
<g><path style="opacity:1" fill="#060606" d="M 1408.5,893.5 C 1410.17,893.5 1411.83,893.5 1413.5,893.5C 1413.5,895.167 1413.5,896.833 1413.5,898.5C 1408.44,897.717 1404.94,899.717 1403,904.5C 1402.5,911.492 1402.33,918.492 1402.5,925.5C 1401.17,925.5 1399.83,925.5 1398.5,925.5C 1398.5,915.167 1398.5,904.833 1398.5,894.5C 1399.83,894.5 1401.17,894.5 1402.5,894.5C 1402.34,895.873 1402.51,897.207 1403,898.5C 1404.73,896.598 1406.56,894.931 1408.5,893.5 Z"/></g>
<g><path style="opacity:1" fill="#111111" d="M 1426.5,894.5 C 1430.18,894.335 1433.85,894.501 1437.5,895C 1440.17,896.333 1442.17,898.333 1443.5,901C 1440.15,903.335 1437.48,902.668 1435.5,899C 1432.77,898.272 1430.1,898.438 1427.5,899.5C 1424.92,901.713 1424.92,903.88 1427.5,906C 1432.37,907.067 1437.03,908.734 1441.5,911C 1445.29,917.861 1443.62,922.861 1436.5,926C 1427.99,928.41 1422.32,925.577 1419.5,917.5C 1420.93,917.579 1422.26,917.246 1423.5,916.5C 1427.33,921.921 1432.16,922.921 1438,919.5C 1438.82,917.299 1438.32,915.466 1436.5,914C 1432.49,912.665 1428.49,911.331 1424.5,910C 1418.86,904.036 1419.53,898.869 1426.5,894.5 Z"/></g>
<g><path style="opacity:1" fill="#000000" d="M 1452.5,894.5 C 1454.17,894.5 1455.83,894.5 1457.5,894.5C 1457.5,904.833 1457.5,915.167 1457.5,925.5C 1455.83,925.5 1454.17,925.5 1452.5,925.5C 1452.5,915.167 1452.5,904.833 1452.5,894.5 Z"/></g>
<g><path style="opacity:1" fill="#0b0b0b" d="M 1496.5,894.5 C 1510.17,892.175 1516.5,897.842 1515.5,911.5C 1508.17,911.5 1500.83,911.5 1493.5,911.5C 1494.49,919.985 1499.16,923.152 1507.5,921C 1509.45,917.713 1512.12,916.88 1515.5,918.5C 1510.27,926.705 1503.27,928.538 1494.5,924C 1489.18,918.574 1487.35,912.074 1489,904.5C 1490.31,900.199 1492.81,896.866 1496.5,894.5 Z"/></g>
<g><path style="opacity:1" fill="#0b0b0b" d="M 1586.5,894.5 C 1588.17,894.5 1589.83,894.5 1591.5,894.5C 1591.33,901.841 1591.5,909.174 1592,916.5C 1596.91,923.2 1601.58,922.867 1606,915.5C 1606.5,908.508 1606.67,901.508 1606.5,894.5C 1608.17,894.5 1609.83,894.5 1611.5,894.5C 1611.5,904.833 1611.5,915.167 1611.5,925.5C 1609.83,925.5 1608.17,925.5 1606.5,925.5C 1606.66,923.801 1606.49,922.134 1606,920.5C 1605.17,922.667 1603.67,924.167 1601.5,925C 1593.83,927.622 1589,925.122 1587,917.5C 1586.5,909.841 1586.33,902.174 1586.5,894.5 Z"/></g>
<g><path style="opacity:1" fill="#111111" d="M 1626.5,894.5 C 1630.51,894.334 1634.51,894.501 1638.5,895C 1642.51,896.624 1643.51,898.958 1641.5,902C 1638.79,900.255 1635.62,899.088 1632,898.5C 1628.65,898.189 1626.81,899.689 1626.5,903C 1626.79,904.89 1627.79,906.223 1629.5,907C 1635.33,907.05 1640.16,909.217 1644,913.5C 1644.56,922.112 1640.39,926.445 1631.5,926.5C 1625.2,926.538 1621.53,923.538 1620.5,917.5C 1623.61,917.174 1625.94,918.341 1627.5,921C 1630.5,921.667 1633.5,921.667 1636.5,921C 1639.86,918.966 1640.19,916.632 1637.5,914C 1632.35,912.783 1627.52,910.95 1623,908.5C 1620.27,902.722 1621.43,898.056 1626.5,894.5 Z"/></g>
<g><path style="opacity:1" fill="#0f0f0f" d="M 1681.5,894.5 C 1685.18,894.335 1688.85,894.501 1692.5,895C 1694.33,895.273 1695.83,896.107 1697,897.5C 1698.45,906.726 1698.95,916.06 1698.5,925.5C 1696.23,925.859 1694.4,925.192 1693,923.5C 1686.38,928.005 1680.38,927.338 1675,921.5C 1673.74,917.091 1674.57,913.257 1677.5,910C 1682.65,908.004 1687.98,906.837 1693.5,906.5C 1693.87,899.491 1690.54,896.991 1683.5,899C 1681.2,902.752 1678.53,903.252 1675.5,900.5C 1676.67,897.597 1678.67,895.597 1681.5,894.5 Z"/></g>
<g><path style="opacity:1" fill="#0d0d0d" d="M 1706.5,894.5 C 1708.29,894.215 1709.95,894.548 1711.5,895.5C 1714.43,903.128 1717.27,910.795 1720,918.5C 1722.51,910.773 1725.18,903.106 1728,895.5C 1729.81,894.24 1731.65,894.24 1733.5,895.5C 1730.03,905.245 1726.36,914.911 1722.5,924.5C 1720.65,925.76 1718.81,925.76 1717,924.5C 1713,914.664 1709.5,904.664 1706.5,894.5 Z"/></g>
<g><path style="opacity:1" fill="#0b0b0b" d="M 1747.5,894.5 C 1761.17,892.175 1767.5,897.842 1766.5,911.5C 1759.17,911.5 1751.83,911.5 1744.5,911.5C 1744.77,919.982 1749.1,923.149 1757.5,921C 1759.27,919.936 1760.94,918.769 1762.5,917.5C 1764,917.453 1765,918.119 1765.5,919.5C 1763.08,924.381 1759.08,926.714 1753.5,926.5C 1748.04,926.545 1743.87,924.212 1741,919.5C 1738.68,912.649 1739.02,905.983 1742,899.5C 1743.73,897.598 1745.56,895.931 1747.5,894.5 Z"/></g>
<g><path style="opacity:1" fill="#000000" d="M 1829.5,894.5 C 1830.83,894.5 1832.17,894.5 1833.5,894.5C 1833.5,904.833 1833.5,915.167 1833.5,925.5C 1832.17,925.5 1830.83,925.5 1829.5,925.5C 1829.5,915.167 1829.5,904.833 1829.5,894.5 Z"/></g>
<g><path style="opacity:1" fill="#0c0c0c" d="M 1894.5,894.5 C 1908.17,892.175 1914.5,897.842 1913.5,911.5C 1906.17,911.5 1898.83,911.5 1891.5,911.5C 1891.79,919.992 1896.12,923.158 1904.5,921C 1906.27,919.936 1907.94,918.769 1909.5,917.5C 1913.34,919.295 1913.34,921.462 1909.5,924C 1898.84,929.229 1891.34,926.395 1887,915.5C 1884.49,906.547 1886.99,899.547 1894.5,894.5 Z"/></g>
<g><path style="opacity:1" fill="#f7f7f7" d="M 349.5,898.5 C 356.244,897.282 360.411,899.949 362,906.5C 363.296,912.624 361.462,917.457 356.5,921C 350.944,922.778 347.11,920.945 345,915.5C 343.268,908.84 344.768,903.174 349.5,898.5 Z"/></g>
<g><path style="opacity:1" fill="#f6f6f6" d="M 452.5,898.5 C 459.918,897.19 463.918,900.19 464.5,907.5C 458.833,907.5 453.167,907.5 447.5,907.5C 447.861,903.778 449.528,900.778 452.5,898.5 Z"/></g>
<g><path style="opacity:1" fill="#f8f8f8" d="M 636.5,898.5 C 643.571,897.583 647.237,900.583 647.5,907.5C 641.833,907.5 636.167,907.5 630.5,907.5C 630.932,903.41 632.932,900.41 636.5,898.5 Z"/></g>
<g><path style="opacity:1" fill="#f8f8f8" d="M 709.5,898.5 C 719.044,898.868 722.877,903.868 721,913.5C 719.58,920.588 715.413,923.088 708.5,921C 703.913,916.772 702.413,911.606 704,905.5C 704.967,902.379 706.8,900.046 709.5,898.5 Z"/></g>
<g><path style="opacity:1" fill="#f5f5f5" d="M 780.5,898.5 C 787.513,897.659 791.513,900.659 792.5,907.5C 786.833,907.5 781.167,907.5 775.5,907.5C 775.372,903.415 777.039,900.415 780.5,898.5 Z"/></g>
<g><path style="opacity:1" fill="#f7f7f7" d="M 832.5,898.5 C 842.956,898.129 847.123,903.129 845,913.5C 843.58,920.588 839.413,923.088 832.5,921C 825.87,913.501 825.87,906.001 832.5,898.5 Z"/></g>
<g><path style="opacity:1" fill="#f6f6f6" d="M 870.5,898.5 C 877.17,897.681 881.17,900.514 882.5,907C 876.509,907.499 870.509,907.666 864.5,907.5C 864.932,903.41 866.932,900.41 870.5,898.5 Z"/></g>
<g><path style="opacity:1" fill="#f6f6f6" d="M 1128.5,898.5 C 1139.2,899.176 1143.03,904.843 1140,915.5C 1137.55,921.089 1133.38,922.922 1127.5,921C 1122.91,916.772 1121.41,911.606 1123,905.5C 1123.97,902.379 1125.8,900.046 1128.5,898.5 Z"/></g>
<g><path style="opacity:1" fill="#f5f5f5" d="M 1165.5,898.5 C 1172.4,897.743 1176.4,900.743 1177.5,907.5C 1171.46,907.829 1165.46,907.496 1159.5,906.5C 1160.56,903.009 1162.56,900.342 1165.5,898.5 Z"/></g>
<g><path style="opacity:1" fill="#f6f6f6" d="M 1372.5,898.5 C 1379.17,897.681 1383.17,900.514 1384.5,907C 1378.51,907.499 1372.51,907.666 1366.5,907.5C 1366.93,903.41 1368.93,900.41 1372.5,898.5 Z"/></g>
<g><path style="opacity:1" fill="#f7f7f7" d="M 1498.5,898.5 C 1505.51,897.335 1509.85,900.168 1511.5,907C 1505.51,907.499 1499.51,907.666 1493.5,907.5C 1493.89,903.779 1495.56,900.779 1498.5,898.5 Z"/></g>
<g><path style="opacity:1" fill="#f6f6f6" d="M 1749.5,898.5 C 1756.92,897.19 1760.92,900.19 1761.5,907.5C 1755.83,907.5 1750.17,907.5 1744.5,907.5C 1744.34,906.127 1744.51,904.793 1745,903.5C 1746.71,901.963 1748.21,900.296 1749.5,898.5 Z"/></g>
<g><path style="opacity:1" fill="#f7f7f7" d="M 1896.5,898.5 C 1903.92,897.19 1907.92,900.19 1908.5,907.5C 1902.83,907.5 1897.17,907.5 1891.5,907.5C 1891.34,906.127 1891.51,904.793 1892,903.5C 1893.71,901.963 1895.21,900.296 1896.5,898.5 Z"/></g>
<g><path style="opacity:1" fill="#b5b5b5" d="M 1481.5,898.5 C 1479.74,899.461 1477.74,899.795 1475.5,899.5C 1475.5,906.167 1475.5,912.833 1475.5,919.5C 1474.51,912.687 1474.18,905.687 1474.5,898.5C 1476.83,898.5 1479.17,898.5 1481.5,898.5 Z"/></g>
<g><path style="opacity:1" fill="#bdbdbd" d="M 1841.5,898.5 C 1843.17,898.5 1844.83,898.5 1846.5,898.5C 1846.5,907.5 1846.5,916.5 1846.5,925.5C 1845.51,917.016 1845.17,908.349 1845.5,899.5C 1843.9,899.768 1842.57,899.434 1841.5,898.5 Z"/></g>
<g><path style="opacity:1" fill="#bdbdbd" d="M 1880.5,898.5 C 1878.74,899.461 1876.74,899.795 1874.5,899.5C 1874.83,908.349 1874.49,917.016 1873.5,925.5C 1873.5,916.5 1873.5,907.5 1873.5,898.5C 1875.83,898.5 1878.17,898.5 1880.5,898.5 Z"/></g>
<g><path style="opacity:1" fill="#454545" d="M 1561.5,905.5 C 1566.64,904.512 1571.97,904.179 1577.5,904.5C 1577.81,908.042 1577.48,911.375 1576.5,914.5C 1576.5,911.5 1576.5,908.5 1576.5,905.5C 1571.5,905.5 1566.5,905.5 1561.5,905.5 Z"/></g>
<g><path style="opacity:1" fill="#f4f4f4" d="M 987.5,910.5 C 988.5,910.5 989.5,910.5 990.5,910.5C 990.332,921.18 985.499,924.18 976,919.5C 975.333,917.833 975.333,916.167 976,914.5C 979.61,912.307 983.444,910.974 987.5,910.5 Z"/></g>
<g><path style="opacity:1" fill="#f4f4f4" d="M 392.5,910.5 C 395.438,914.392 394.771,917.892 390.5,921C 386.683,922.023 383.183,921.523 380,919.5C 379.257,917.559 379.424,915.726 380.5,914C 384.431,912.193 388.431,911.026 392.5,910.5 Z"/></g>
<g><path style="opacity:1" fill="#b5b5b5" d="M 797.5,911.5 C 789.943,911.848 782.61,912.848 775.5,914.5C 774.596,913.791 774.263,912.791 774.5,911.5C 782.167,911.5 789.833,911.5 797.5,911.5 Z"/></g>
<g><path style="opacity:1" fill="#b6b6b6" d="M 887.5,911.5 C 880.352,912.492 873.019,912.825 865.5,912.5C 865.5,913.5 865.5,914.5 865.5,915.5C 864.566,914.432 864.232,913.099 864.5,911.5C 872.167,911.5 879.833,911.5 887.5,911.5 Z"/></g>
<g><path style="opacity:1" fill="#f4f4f4" d="M 1053.5,910.5 C 1056.44,914.392 1055.77,917.892 1051.5,921C 1047.76,921.929 1044.26,921.429 1041,919.5C 1040.26,917.559 1040.42,915.726 1041.5,914C 1045.43,912.193 1049.43,911.026 1053.5,910.5 Z"/></g>
<g><path style="opacity:1" fill="#b6b6b6" d="M 1182.5,911.5 C 1174.94,911.848 1167.61,912.848 1160.5,914.5C 1159.6,913.791 1159.26,912.791 1159.5,911.5C 1167.17,911.5 1174.83,911.5 1182.5,911.5 Z"/></g>
<g><path style="opacity:1" fill="#b6b6b6" d="M 1389.5,911.5 C 1382.35,912.492 1375.02,912.825 1367.5,912.5C 1367.5,913.5 1367.5,914.5 1367.5,915.5C 1366.57,914.432 1366.23,913.099 1366.5,911.5C 1374.17,911.5 1381.83,911.5 1389.5,911.5 Z"/></g>
<g><path style="opacity:1" fill="#f1f1f1" d="M 1692.5,910.5 C 1695.69,917.084 1693.35,920.751 1685.5,921.5C 1679.36,920.959 1678.02,918.126 1681.5,913C 1685.28,912.082 1688.95,911.249 1692.5,910.5 Z"/></g>
<g><path style="opacity:1" fill="#7d7d7d" d="M 278.5,907.5 C 278.5,911.833 278.5,916.167 278.5,920.5C 285.354,920.176 292.021,920.509 298.5,921.5C 291.5,921.5 284.5,921.5 277.5,921.5C 277.181,916.637 277.514,911.97 278.5,907.5 Z"/></g>
<g><path style="opacity:1" fill="#7d7d7d" d="M 1799.5,907.5 C 1799.5,911.833 1799.5,916.167 1799.5,920.5C 1806.35,920.176 1813.02,920.509 1819.5,921.5C 1812.5,921.5 1805.5,921.5 1798.5,921.5C 1798.18,916.637 1798.51,911.97 1799.5,907.5 Z"/></g>
</svg>
