<?xml version="1.0" encoding="UTF-8"?>
<!DOCTYPE svg PUBLIC "-//W3C//DTD SVG 1.1//EN" "http://www.w3.org/Graphics/SVG/1.1/DTD/svg11.dtd">
<svg xmlns="http://www.w3.org/2000/svg" version="1.1" width="2201px" height="1001px" style="shape-rendering:geometricPrecision; text-rendering:geometricPrecision; image-rendering:optimizeQuality; fill-rule:evenodd; clip-rule:evenodd" xmlns:xlink="http://www.w3.org/1999/xlink">
<g><path style="opacity:1" fill="#fefefe" d="M -0.5,-0.5 C 733.167,-0.5 1466.83,-0.5 2200.5,-0.5C 2200.5,333.167 2200.5,666.833 2200.5,1000.5C 1466.83,1000.5 733.167,1000.5 -0.5,1000.5C -0.5,666.833 -0.5,333.167 -0.5,-0.5 Z"/></g>
<g><path style="opacity:1" fill="#7175d4" d="M 835.5,833.5 C 835.5,744.5 835.5,655.5 835.5,566.5C 694.666,566.167 553.999,566.5 413.5,567.5C 412.555,604.15 422.388,637.483 443,667.5C 466.239,695.541 496.072,711.708 532.5,716C 569.901,720.921 604.567,713.588 636.5,694C 653.397,681.549 665.731,665.549 673.5,646C 726.871,648.447 780.205,651.78 833.5,656C 815.634,729.404 772.634,782.404 704.5,815C 666.642,832.048 626.976,842.048 585.5,845C 540.193,848.679 495.527,845.013 451.5,834C 353.166,804.333 288.666,740.5 258,642.5C 239.378,571.929 237.711,500.929 253,429.5C 271.757,350.481 314.924,288.981 382.5,245C 432.464,216.55 486.297,202.717 544,203.5C 602.916,202.936 657.75,217.436 708.5,247C 764.288,283.668 801.788,334.168 821,398.5C 827.14,419.092 831.307,440.092 833.5,461.5C 834.065,466.149 834.565,470.816 835,475.5C 835.5,387.501 835.667,299.501 835.5,211.5C 890.167,211.5 944.833,211.5 999.5,211.5C 999.5,248.167 999.5,284.833 999.5,321.5C 1002.39,321.806 1005.05,321.473 1007.5,320.5C 1030.7,264.141 1071.7,227.641 1130.5,211C 1183.57,198.292 1235.57,201.625 1286.5,221C 1332.01,241.348 1365.01,274.181 1385.5,319.5C 1385.46,320.756 1385.96,321.756 1387,322.5C 1387.5,285.502 1387.67,248.502 1387.5,211.5C 1415.5,211.5 1443.5,211.5 1471.5,211.5C 1471.5,161.833 1471.5,112.167 1471.5,62.5C 1529.17,62.5 1586.83,62.5 1644.5,62.5C 1644.5,112.167 1644.5,161.833 1644.5,211.5C 1683.5,211.5 1722.5,211.5 1761.5,211.5C 1761.5,254.833 1761.5,298.167 1761.5,341.5C 1722.5,341.5 1683.5,341.5 1644.5,341.5C 1644.33,445.834 1644.5,550.167 1645,654.5C 1646.95,683.78 1662.45,699.947 1691.5,703C 1709.7,703.476 1727.7,701.642 1745.5,697.5C 1755.4,740.322 1764.4,783.322 1772.5,826.5C 1716.31,843.99 1659.31,847.156 1601.5,836C 1522.46,816.286 1479.29,765.786 1472,684.5C 1471.5,570.167 1471.33,455.834 1471.5,341.5C 1445.83,341.333 1420.16,341.5 1394.5,342C 1401.6,363.255 1406.1,385.088 1408,407.5C 1408.5,549.5 1408.67,691.5 1408.5,833.5C 1351.17,833.5 1293.83,833.5 1236.5,833.5C 1236.67,706.833 1236.5,580.166 1236,453.5C 1234.81,419.626 1221.64,391.459 1196.5,369C 1175.39,353.69 1151.73,346.523 1125.5,347.5C 1065.19,348.652 1027.36,378.318 1012,436.5C 1009.68,447.716 1008.35,459.049 1008,470.5C 1007.5,591.5 1007.33,712.5 1007.5,833.5C 950.167,833.5 892.833,833.5 835.5,833.5 Z"/></g>
<g><path style="opacity:1" fill="#d9daf3" d="M 835.5,211.5 C 835.667,299.501 835.5,387.501 835,475.5C 834.565,470.816 834.065,466.149 833.5,461.5C 834.167,378.167 834.833,294.833 835.5,211.5 Z"/></g>
<g><path style="opacity:1" fill="#b9bbe9" d="M 999.5,211.5 C 1000.5,247.663 1000.83,283.996 1000.5,320.5C 1002.83,320.5 1005.17,320.5 1007.5,320.5C 1005.05,321.473 1002.39,321.806 999.5,321.5C 999.5,284.833 999.5,248.167 999.5,211.5 Z"/></g>
<g><path style="opacity:1" fill="#9497df" d="M 1387.5,211.5 C 1387.67,248.502 1387.5,285.502 1387,322.5C 1385.96,321.756 1385.46,320.756 1385.5,319.5C 1386.17,283.5 1386.83,247.5 1387.5,211.5 Z"/></g>
<g><path style="opacity:1" fill="#fefefe" d="M 530.5,332.5 C 569.19,328.784 603.523,338.951 633.5,363C 661.054,389.134 674.721,421.301 674.5,459.5C 587.5,459.5 500.5,459.5 413.5,459.5C 417.033,409.508 440.366,372.008 483.5,347C 498.469,339.514 514.136,334.681 530.5,332.5 Z"/></g>
<g><path style="opacity:1" fill="#cdceef" d="M 413.5,567.5 C 553.999,566.5 694.666,566.167 835.5,566.5C 835.5,655.5 835.5,744.5 835.5,833.5C 834.501,745.002 834.167,656.335 834.5,567.5C 694.167,567.5 553.833,567.5 413.5,567.5 Z"/></g>
<g><path style="opacity:1" fill="#7376d4" d="M 1817.5,667.5 C 1823.83,667.5 1830.17,667.5 1836.5,667.5C 1839.56,686.736 1850.56,694.236 1869.5,690C 1878.87,685.417 1883.87,677.917 1884.5,667.5C 1890.83,667.5 1897.17,667.5 1903.5,667.5C 1901.33,694.673 1886.66,709.006 1859.5,710.5C 1833.42,708.085 1819.42,693.751 1817.5,667.5 Z"/></g>
<g><path style="opacity:1" fill="#7276d4" d="M 1780.5,704.5 C 1805.83,707.002 1820.17,720.835 1823.5,746C 1822.19,773.479 1807.85,788.312 1780.5,790.5C 1780.5,784.167 1780.5,777.833 1780.5,771.5C 1797.86,768.971 1805.7,758.971 1804,741.5C 1800.06,730.388 1792.22,724.388 1780.5,723.5C 1780.5,717.167 1780.5,710.833 1780.5,704.5 Z"/></g>
<g><path style="opacity:1" fill="#7276d4" d="M 1935.5,705.5 C 1937.17,705.5 1938.83,705.5 1940.5,705.5C 1940.5,711.5 1940.5,717.5 1940.5,723.5C 1921.89,726.382 1914.39,737.048 1918,755.5C 1922.15,765.65 1929.65,770.983 1940.5,771.5C 1940.5,777.833 1940.5,784.167 1940.5,790.5C 1913.16,788.328 1898.83,773.494 1897.5,746C 1899.25,725.58 1909.92,712.247 1929.5,706C 1931.47,705.505 1933.47,705.338 1935.5,705.5 Z"/></g>
<g><path style="opacity:1" fill="#d2d3f1" d="M 1935.5,705.5 C 1937.26,704.539 1939.26,704.205 1941.5,704.5C 1941.82,711.022 1941.49,717.355 1940.5,723.5C 1940.5,717.5 1940.5,711.5 1940.5,705.5C 1938.83,705.5 1937.17,705.5 1935.5,705.5 Z"/></g>
<g><path style="opacity:1" fill="#7276d4" d="M 1854.5,730.5 C 1874.09,729.918 1880.93,738.918 1875,757.5C 1865.33,768.07 1855.66,768.07 1846,757.5C 1840.43,745.691 1843.26,736.691 1854.5,730.5 Z"/></g>
<g><path style="opacity:1" fill="#7276d4" d="M 1852.5,784.5 C 1879.04,782.499 1895.88,794.165 1903,819.5C 1903.5,822.146 1903.66,824.813 1903.5,827.5C 1897.17,827.5 1890.83,827.5 1884.5,827.5C 1881.97,810.138 1871.97,802.305 1854.5,804C 1843.4,807.932 1837.4,815.765 1836.5,827.5C 1830.17,827.5 1823.83,827.5 1817.5,827.5C 1819.39,804.968 1831.05,790.635 1852.5,784.5 Z"/></g>
<g><path style="opacity:1" fill="#787bd6" d="M 641.5,881.5 C 643.527,881.338 645.527,881.505 647.5,882C 645.5,885 643.5,888 641.5,891C 640.207,891.49 638.873,891.657 637.5,891.5C 638.809,888.207 640.142,884.874 641.5,881.5 Z"/></g>
<g><path style="opacity:1" fill="#797cd6" d="M 1504.5,881.5 C 1506.53,881.338 1508.53,881.505 1510.5,882C 1508.5,885 1506.5,888 1504.5,891C 1503.21,891.49 1501.87,891.657 1500.5,891.5C 1501.37,887.967 1502.71,884.634 1504.5,881.5 Z"/></g>
<g><path style="opacity:1" fill="#7a7dd6" d="M 1316.5,883.5 C 1320.48,883.629 1321.82,885.463 1320.5,889C 1314.55,890.227 1313.21,888.394 1316.5,883.5 Z"/></g>
<g><path style="opacity:1" fill="#7a7dd6" d="M 1453.5,883.5 C 1457.48,883.629 1458.82,885.463 1457.5,889C 1451.55,890.227 1450.21,888.394 1453.5,883.5 Z"/></g>
<g><path style="opacity:1" fill="#7377d4" d="M 1851.5,894.5 C 1853.26,895.461 1855.26,895.795 1857.5,895.5C 1857.5,896.833 1857.5,898.167 1857.5,899.5C 1855.5,899.5 1853.5,899.5 1851.5,899.5C 1851.5,908.5 1851.5,917.5 1851.5,926.5C 1849.83,926.5 1848.17,926.5 1846.5,926.5C 1846.5,917.5 1846.5,908.5 1846.5,899.5C 1844.83,899.5 1843.17,899.5 1841.5,899.5C 1841.5,897.833 1841.5,896.167 1841.5,894.5C 1843.17,894.5 1844.83,894.5 1846.5,894.5C 1845.18,887.461 1848.01,883.461 1855,882.5C 1858.38,882.365 1859.55,883.698 1858.5,886.5C 1853.28,886.716 1850.95,889.382 1851.5,894.5 Z"/></g>
<g><path style="opacity:1" fill="#7679d5" d="M 1874.5,889.5 C 1873.54,891.265 1873.21,893.265 1873.5,895.5C 1875.83,895.5 1878.17,895.5 1880.5,895.5C 1880.5,896.833 1880.5,898.167 1880.5,899.5C 1878.17,899.5 1875.83,899.5 1873.5,899.5C 1873.5,908.5 1873.5,917.5 1873.5,926.5C 1871.83,926.5 1870.17,926.5 1868.5,926.5C 1868.5,917.5 1868.5,908.5 1868.5,899.5C 1867.17,899.5 1865.83,899.5 1864.5,899.5C 1864.5,898.167 1864.5,896.833 1864.5,895.5C 1866.17,895.5 1867.83,895.5 1869.5,895.5C 1869.5,892.833 1869.5,890.167 1869.5,887.5C 1872.27,883.132 1876.27,881.465 1881.5,882.5C 1881.5,884.167 1881.5,885.833 1881.5,887.5C 1879.47,887.338 1877.47,887.505 1875.5,888C 1874.94,888.383 1874.61,888.883 1874.5,889.5 Z"/></g>
<g><path style="opacity:1" fill="#7d80d7" d="M 685.5,883.5 C 687.971,883.233 689.638,884.233 690.5,886.5C 688.413,891.66 686.08,891.66 683.5,886.5C 684.193,885.482 684.859,884.482 685.5,883.5 Z"/></g>
<g><path style="opacity:1" fill="#7e80d7" d="M 1071.5,883.5 C 1076.24,883.161 1077.57,885.161 1075.5,889.5C 1072.85,890.842 1071.18,890.008 1070.5,887C 1070.65,885.744 1070.98,884.577 1071.5,883.5 Z"/></g>
<g><path style="opacity:1" fill="#777ad5" d="M 1553.5,884.5 C 1562.97,882.927 1570.47,885.927 1576,893.5C 1576.49,894.793 1576.66,896.127 1576.5,897.5C 1574.8,897.66 1573.13,897.494 1571.5,897C 1566.44,889.089 1559.77,887.423 1551.5,892C 1545.47,900.13 1544.97,908.63 1550,917.5C 1551.21,919.049 1552.71,920.215 1554.5,921C 1563.83,923.839 1569.83,920.673 1572.5,911.5C 1568.89,910.511 1565.23,910.177 1561.5,910.5C 1561.5,908.833 1561.5,907.167 1561.5,905.5C 1566.83,905.5 1572.17,905.5 1577.5,905.5C 1576.73,924.393 1567.4,930.56 1549.5,924C 1542.76,917.223 1540.26,909.056 1542,899.5C 1543.44,892.593 1547.28,887.593 1553.5,884.5 Z"/></g>
<g><path style="opacity:1" fill="#7a7dd6" d="M 1830.5,883.5 C 1833.24,883.077 1834.58,884.244 1834.5,887C 1832.24,891.72 1830.24,891.553 1828.5,886.5C 1828.94,885.261 1829.61,884.261 1830.5,883.5 Z"/></g>
<g><path style="opacity:1" fill="#9699df" d="M 297.5,889.5 C 297.5,888.167 297.5,886.833 297.5,885.5C 289.5,885.5 281.5,885.5 273.5,885.5C 273.5,899.167 273.5,912.833 273.5,926.5C 272.504,912.677 272.171,898.677 272.5,884.5C 281.167,884.5 289.833,884.5 298.5,884.5C 298.784,886.415 298.451,888.081 297.5,889.5 Z"/></g>
<g><path style="opacity:1" fill="#7175d4" d="M 297.5,889.5 C 291.167,889.5 284.833,889.5 278.5,889.5C 277.514,893.97 277.181,898.637 277.5,903.5C 283.833,903.5 290.167,903.5 296.5,903.5C 296.5,904.833 296.5,906.167 296.5,907.5C 290.31,907.177 284.31,907.51 278.5,908.5C 277.514,912.97 277.181,917.637 277.5,922.5C 284.5,922.5 291.5,922.5 298.5,922.5C 298.5,923.833 298.5,925.167 298.5,926.5C 290.167,926.5 281.833,926.5 273.5,926.5C 273.5,912.833 273.5,899.167 273.5,885.5C 281.5,885.5 289.5,885.5 297.5,885.5C 297.5,886.833 297.5,888.167 297.5,889.5 Z"/></g>
<g><path style="opacity:1" fill="#9598df" d="M 502.5,885.5 C 500.833,885.5 499.167,885.5 497.5,885.5C 497.5,899.167 497.5,912.833 497.5,926.5C 496.504,912.677 496.171,898.677 496.5,884.5C 498.735,884.205 500.735,884.539 502.5,885.5 Z"/></g>
<g><path style="opacity:1" fill="#7376d4" d="M 502.5,885.5 C 509.747,895.66 516.747,905.994 523.5,916.5C 523.56,917.043 523.893,917.376 524.5,917.5C 525.499,906.854 525.832,896.187 525.5,885.5C 526.833,885.5 528.167,885.5 529.5,885.5C 529.5,899.167 529.5,912.833 529.5,926.5C 527.533,926.739 525.699,926.406 524,925.5C 517.337,915.345 510.503,905.345 503.5,895.5C 503.44,894.957 503.107,894.624 502.5,894.5C 501.501,905.146 501.168,915.813 501.5,926.5C 500.167,926.5 498.833,926.5 497.5,926.5C 497.5,912.833 497.5,899.167 497.5,885.5C 499.167,885.5 500.833,885.5 502.5,885.5 Z"/></g>
<g><path style="opacity:1" fill="#a1a3e2" d="M 529.5,926.5 C 529.5,912.833 529.5,899.167 529.5,885.5C 528.167,885.5 526.833,885.5 525.5,885.5C 525.832,896.187 525.499,906.854 524.5,917.5C 523.893,917.376 523.56,917.043 523.5,916.5C 524.494,906.013 524.828,895.346 524.5,884.5C 526.5,884.5 528.5,884.5 530.5,884.5C 530.829,898.677 530.496,912.677 529.5,926.5 Z"/></g>
<g><path style="opacity:1" fill="#7578d5" d="M 845.5,885.5 C 846.833,885.5 848.167,885.5 849.5,885.5C 849.5,899.167 849.5,912.833 849.5,926.5C 848.167,926.5 846.833,926.5 845.5,926.5C 845.66,924.801 845.494,923.134 845,921.5C 844.167,923.667 842.667,925.167 840.5,926C 828.812,927.987 822.812,922.987 822.5,911C 822.773,899.723 828.44,894.389 839.5,895C 841.624,896.122 843.457,897.622 845,899.5C 845.499,894.845 845.666,890.179 845.5,885.5 Z"/></g>
<g><path style="opacity:1" fill="#9497df" d="M 845.5,885.5 C 846.919,884.549 848.585,884.216 850.5,884.5C 850.829,898.677 850.496,912.677 849.5,926.5C 849.5,912.833 849.5,899.167 849.5,885.5C 848.167,885.5 846.833,885.5 845.5,885.5 Z"/></g>
<g><path style="opacity:1" fill="#7477d4" d="M 912.5,884.5 C 922.833,884.5 933.167,884.5 943.5,884.5C 943.5,886.167 943.5,887.833 943.5,889.5C 939.167,889.5 934.833,889.5 930.5,889.5C 930.5,901.833 930.5,914.167 930.5,926.5C 928.833,926.5 927.167,926.5 925.5,926.5C 925.5,914.167 925.5,901.833 925.5,889.5C 921.167,889.5 916.833,889.5 912.5,889.5C 912.5,887.833 912.5,886.167 912.5,884.5 Z"/></g>
<g><path style="opacity:1" fill="#7175d4" d="M 1086.5,885.5 C 1087.83,885.5 1089.17,885.5 1090.5,885.5C 1090.5,899.167 1090.5,912.833 1090.5,926.5C 1089.17,926.5 1087.83,926.5 1086.5,926.5C 1086.5,912.833 1086.5,899.167 1086.5,885.5 Z"/></g>
<g><path style="opacity:1" fill="#9497df" d="M 1086.5,885.5 C 1087.92,884.549 1089.59,884.216 1091.5,884.5C 1091.83,898.677 1091.5,912.677 1090.5,926.5C 1090.5,912.833 1090.5,899.167 1090.5,885.5C 1089.17,885.5 1087.83,885.5 1086.5,885.5 Z"/></g>
<g><path style="opacity:1" fill="#7679d5" d="M 1140.5,884.5 C 1142.17,884.5 1143.83,884.5 1145.5,884.5C 1145.5,898.5 1145.5,912.5 1145.5,926.5C 1143.83,926.5 1142.17,926.5 1140.5,926.5C 1140.63,921.728 1139.3,921.562 1136.5,926C 1124.44,928.629 1118.11,923.629 1117.5,911C 1117.74,899.753 1123.41,894.42 1134.5,895C 1136.62,896.122 1138.46,897.622 1140,899.5C 1140.5,894.511 1140.67,889.511 1140.5,884.5 Z"/></g>
<g><path style="opacity:1" fill="#7175d4" d="M 1209.5,884.5 C 1210.83,884.5 1212.17,884.5 1213.5,884.5C 1213.5,898.5 1213.5,912.5 1213.5,926.5C 1212.17,926.5 1210.83,926.5 1209.5,926.5C 1209.5,912.5 1209.5,898.5 1209.5,884.5 Z"/></g>
<g><path style="opacity:1" fill="#797cd6" d="M 1223.5,884.5 C 1225.17,884.5 1226.83,884.5 1228.5,884.5C 1229.19,890.104 1227.52,894.771 1223.5,898.5C 1222.28,898.113 1221.61,897.28 1221.5,896C 1223.18,892.362 1223.85,888.529 1223.5,884.5 Z"/></g>
<g><path style="opacity:1" fill="#7478d5" d="M 1237.5,915.5 C 1237.5,905.5 1237.5,895.5 1237.5,885.5C 1238.83,885.5 1240.17,885.5 1241.5,885.5C 1241.17,894.682 1241.51,903.682 1242.5,912.5C 1244.23,920.702 1249.23,923.868 1257.5,922C 1259.61,920.859 1261.44,919.359 1263,917.5C 1264.43,906.578 1264.93,895.578 1264.5,884.5C 1266.17,884.5 1267.83,884.5 1269.5,884.5C 1269.67,895.505 1269.5,906.505 1269,917.5C 1264.36,925.275 1257.52,928.441 1248.5,927C 1242.58,925.252 1238.92,921.419 1237.5,915.5 Z"/></g>
<g><path style="opacity:1" fill="#a1a3e2" d="M 1242.5,912.5 C 1241.51,903.682 1241.17,894.682 1241.5,885.5C 1240.17,885.5 1238.83,885.5 1237.5,885.5C 1237.5,895.5 1237.5,905.5 1237.5,915.5C 1236.51,905.347 1236.17,895.014 1236.5,884.5C 1238.5,884.5 1240.5,884.5 1242.5,884.5C 1242.5,893.833 1242.5,903.167 1242.5,912.5 Z"/></g>
<g><path style="opacity:1" fill="#9497df" d="M 1818.5,889.5 C 1818.5,888.167 1818.5,886.833 1818.5,885.5C 1810.5,885.5 1802.5,885.5 1794.5,885.5C 1794.5,899.167 1794.5,912.833 1794.5,926.5C 1793.5,912.677 1793.17,898.677 1793.5,884.5C 1802.17,884.5 1810.83,884.5 1819.5,884.5C 1819.78,886.415 1819.45,888.081 1818.5,889.5 Z"/></g>
<g><path style="opacity:1" fill="#7175d4" d="M 1818.5,889.5 C 1812.17,889.5 1805.83,889.5 1799.5,889.5C 1798.51,893.97 1798.18,898.637 1798.5,903.5C 1804.83,903.5 1811.17,903.5 1817.5,903.5C 1817.5,904.833 1817.5,906.167 1817.5,907.5C 1811.31,907.177 1805.31,907.51 1799.5,908.5C 1798.51,912.97 1798.18,917.637 1798.5,922.5C 1805.5,922.5 1812.5,922.5 1819.5,922.5C 1819.5,923.833 1819.5,925.167 1819.5,926.5C 1811.17,926.5 1802.83,926.5 1794.5,926.5C 1794.5,912.833 1794.5,899.167 1794.5,885.5C 1802.5,885.5 1810.5,885.5 1818.5,885.5C 1818.5,886.833 1818.5,888.167 1818.5,889.5 Z"/></g>
<g><path style="opacity:1" fill="#7175d4" d="M 1922.5,884.5 C 1924.17,884.5 1925.83,884.5 1927.5,884.5C 1927.5,898.5 1927.5,912.5 1927.5,926.5C 1925.83,926.5 1924.17,926.5 1922.5,926.5C 1922.5,912.5 1922.5,898.5 1922.5,884.5 Z"/></g>
<g><path style="opacity:1" fill="#9b9de0" d="M 1474.5,888.5 C 1473.17,888.5 1471.83,888.5 1470.5,888.5C 1470.5,890.833 1470.5,893.167 1470.5,895.5C 1468.83,895.5 1467.17,895.5 1465.5,895.5C 1466.57,894.566 1467.9,894.232 1469.5,894.5C 1469.5,892.167 1469.5,889.833 1469.5,887.5C 1471.41,887.216 1473.08,887.549 1474.5,888.5 Z"/></g>
<g><path style="opacity:1" fill="#7679d5" d="M 1474.5,888.5 C 1474.5,890.833 1474.5,893.167 1474.5,895.5C 1476.83,895.5 1479.17,895.5 1481.5,895.5C 1481.5,896.833 1481.5,898.167 1481.5,899.5C 1479.17,899.5 1476.83,899.5 1474.5,899.5C 1474.33,906.175 1474.5,912.842 1475,919.5C 1476.79,921.229 1478.96,921.896 1481.5,921.5C 1481.5,923.167 1481.5,924.833 1481.5,926.5C 1476.36,927.574 1472.53,925.907 1470,921.5C 1469.5,914.174 1469.33,906.841 1469.5,899.5C 1468.17,899.5 1466.83,899.5 1465.5,899.5C 1465.5,898.167 1465.5,896.833 1465.5,895.5C 1467.17,895.5 1468.83,895.5 1470.5,895.5C 1470.5,893.167 1470.5,890.833 1470.5,888.5C 1471.83,888.5 1473.17,888.5 1474.5,888.5 Z"/></g>
<g><path style="opacity:1" fill="#7579d5" d="M 1666.5,895.5 C 1666.5,896.833 1666.5,898.167 1666.5,899.5C 1664.5,899.5 1662.5,899.5 1660.5,899.5C 1660.33,906.508 1660.5,913.508 1661,920.5C 1662.55,922.146 1664.22,922.479 1666,921.5C 1667.01,923.025 1667.51,924.692 1667.5,926.5C 1664.81,926.664 1662.15,926.497 1659.5,926C 1657.67,925.5 1656.5,924.333 1656,922.5C 1655.5,914.841 1655.33,907.174 1655.5,899.5C 1653.83,899.5 1652.17,899.5 1650.5,899.5C 1650.5,898.167 1650.5,896.833 1650.5,895.5C 1652.1,895.768 1653.43,895.434 1654.5,894.5C 1655.46,892.735 1655.79,890.735 1655.5,888.5C 1656.83,888.5 1658.17,888.5 1659.5,888.5C 1659.5,890.833 1659.5,893.167 1659.5,895.5C 1661.83,895.5 1664.17,895.5 1666.5,895.5 Z"/></g>
<g><path style="opacity:1" fill="#a3a5e3" d="M 1666.5,895.5 C 1664.17,895.5 1661.83,895.5 1659.5,895.5C 1659.5,893.167 1659.5,890.833 1659.5,888.5C 1658.17,888.5 1656.83,888.5 1655.5,888.5C 1655.79,890.735 1655.46,892.735 1654.5,894.5C 1654.5,892.167 1654.5,889.833 1654.5,887.5C 1656.5,887.5 1658.5,887.5 1660.5,887.5C 1660.5,889.833 1660.5,892.167 1660.5,894.5C 1662.74,894.205 1664.74,894.539 1666.5,895.5 Z"/></g>
<g><path style="opacity:1" fill="#9ea0e1" d="M 1869.5,887.5 C 1869.5,890.167 1869.5,892.833 1869.5,895.5C 1867.83,895.5 1866.17,895.5 1864.5,895.5C 1864.5,896.833 1864.5,898.167 1864.5,899.5C 1863.55,898.081 1863.22,896.415 1863.5,894.5C 1865.17,894.5 1866.83,894.5 1868.5,894.5C 1868.2,891.941 1868.53,889.607 1869.5,887.5 Z"/></g>
<g><path style="opacity:1" fill="#b7b9e8" d="M 503.5,895.5 C 502.833,905.833 502.167,916.167 501.5,926.5C 501.168,915.813 501.501,905.146 502.5,894.5C 503.107,894.624 503.44,894.957 503.5,895.5 Z"/></g>
<g><path style="opacity:1" fill="#bec0eb" d="M 1874.5,889.5 C 1874.5,891.167 1874.5,892.833 1874.5,894.5C 1876.74,894.205 1878.74,894.539 1880.5,895.5C 1878.17,895.5 1875.83,895.5 1873.5,895.5C 1873.21,893.265 1873.54,891.265 1874.5,889.5 Z"/></g>
<g><path style="opacity:1" fill="#797cd6" d="M 314.5,894.5 C 321.68,893.273 327.014,895.773 330.5,902C 327.479,904.483 325.146,903.983 323.5,900.5C 319.81,899.004 316.31,899.337 313,901.5C 312.175,903.701 312.675,905.534 314.5,907C 318.123,908.156 321.789,909.156 325.5,910C 330.224,912.435 331.724,916.269 330,921.5C 324.438,927.771 317.938,928.938 310.5,925C 305.539,921.497 305.706,918.997 311,917.5C 313.435,922.224 317.269,923.724 322.5,922C 325.351,920.258 326.018,917.925 324.5,915C 320.918,913.749 317.251,912.749 313.5,912C 308.055,909.89 306.222,906.056 308,900.5C 310.063,898.266 312.229,896.266 314.5,894.5 Z"/></g>
<g><path style="opacity:1" fill="#7579d5" d="M 349.5,894.5 C 363.598,894.964 369.432,902.298 367,916.5C 363.88,925.332 357.713,928.498 348.5,926C 347.333,924.833 346.167,923.667 345,922.5C 344.501,927.823 344.334,933.156 344.5,938.5C 342.833,938.5 341.167,938.5 339.5,938.5C 339.5,924.167 339.5,909.833 339.5,895.5C 341.167,895.5 342.833,895.5 344.5,895.5C 344.343,896.873 344.51,898.207 345,899.5C 346.707,897.963 348.207,896.296 349.5,894.5 Z"/></g>
<g><path style="opacity:1" fill="#787bd6" d="M 383.5,894.5 C 390.108,893.115 395.275,895.115 399,900.5C 399.5,909.16 399.666,917.827 399.5,926.5C 397.833,926.5 396.167,926.5 394.5,926.5C 394.649,925.448 394.483,924.448 394,923.5C 386.416,929.624 380.082,928.624 375,920.5C 373.817,916.726 374.651,913.559 377.5,911C 382.849,908.915 388.349,907.415 394,906.5C 394.913,903.648 394.08,901.481 391.5,900C 388.833,899.333 386.167,899.333 383.5,900C 381.32,903.793 378.654,904.293 375.5,901.5C 377.595,898.398 380.262,896.065 383.5,894.5 Z"/></g>
<g><path style="opacity:1" fill="#787bd6" d="M 418.5,894.5 C 424.731,893.853 429.898,895.853 434,900.5C 434.49,901.793 434.657,903.127 434.5,904.5C 432.712,904.785 431.045,904.452 429.5,903.5C 426.813,899.686 423.147,898.52 418.5,900C 413.741,904.491 412.241,909.991 414,916.5C 416.353,921.426 420.186,923.26 425.5,922C 427.303,921.363 428.636,920.197 429.5,918.5C 431.045,917.548 432.712,917.215 434.5,917.5C 432.494,925.179 427.494,928.346 419.5,927C 414.026,925.526 410.526,922.026 409,916.5C 406.486,906.542 409.653,899.208 418.5,894.5 Z"/></g>
<g><path style="opacity:1" fill="#777ad5" d="M 452.5,894.5 C 464.942,894.029 470.608,900.029 469.5,912.5C 462.167,912.5 454.833,912.5 447.5,912.5C 447.877,920.193 451.877,923.36 459.5,922C 461.116,921.385 462.449,920.385 463.5,919C 465.134,918.506 466.801,918.34 468.5,918.5C 466.872,924.345 462.872,927.345 456.5,927.5C 449.903,927.079 445.403,923.745 443,917.5C 440.085,907.031 443.252,899.364 452.5,894.5 Z"/></g>
<g><path style="opacity:1" fill="#9d9fe1" d="M 545.5,895.5 C 544.167,895.5 542.833,895.5 541.5,895.5C 541.5,903.5 541.5,911.5 541.5,919.5C 540.507,911.35 540.174,903.017 540.5,894.5C 542.415,894.216 544.081,894.549 545.5,895.5 Z"/></g>
<g><path style="opacity:1" fill="#7376d4" d="M 545.5,895.5 C 545.334,902.841 545.5,910.174 546,917.5C 547.018,920.683 549.185,922.016 552.5,921.5C 556.177,921.664 558.677,919.997 560,916.5C 560.5,909.508 560.666,902.508 560.5,895.5C 562.167,895.5 563.833,895.5 565.5,895.5C 565.5,905.833 565.5,916.167 565.5,926.5C 563.833,926.5 562.167,926.5 560.5,926.5C 560.66,924.801 560.494,923.134 560,921.5C 558.2,925.235 555.2,926.902 551,926.5C 545.708,926.946 542.541,924.613 541.5,919.5C 541.5,911.5 541.5,903.5 541.5,895.5C 542.833,895.5 544.167,895.5 545.5,895.5 Z"/></g>
<g><path style="opacity:1" fill="#7578d5" d="M 585.5,894.5 C 590.557,893.847 594.557,895.513 597.5,899.5C 603.044,893.267 608.877,892.934 615,898.5C 616.445,907.726 616.945,917.06 616.5,926.5C 614.833,926.5 613.167,926.5 611.5,926.5C 611.666,918.493 611.5,910.493 611,902.5C 608.017,899.143 604.517,898.643 600.5,901C 599.874,901.75 599.374,902.584 599,903.5C 598.5,911.159 598.334,918.826 598.5,926.5C 596.833,926.5 595.167,926.5 593.5,926.5C 593.666,918.493 593.5,910.493 593,902.5C 588.694,898.325 584.694,898.658 581,903.5C 580.5,911.159 580.334,918.826 580.5,926.5C 578.833,926.5 577.167,926.5 575.5,926.5C 575.5,916.167 575.5,905.833 575.5,895.5C 577.167,895.5 578.833,895.5 580.5,895.5C 580.343,896.873 580.51,898.207 581,899.5C 582.193,897.503 583.693,895.836 585.5,894.5 Z"/></g>
<g><path style="opacity:1" fill="#767ad5" d="M 635.5,894.5 C 648.042,894.041 653.709,900.041 652.5,912.5C 645.167,912.5 637.833,912.5 630.5,912.5C 631.279,920.439 635.612,923.605 643.5,922C 645.64,921.027 647.307,919.527 648.5,917.5C 653.132,919.333 653.132,921.833 648.5,925C 631.166,929.684 623.666,922.85 626,904.5C 628.022,899.98 631.189,896.647 635.5,894.5 Z"/></g>
<g><path style="opacity:1" fill="#989be0" d="M 666.5,895.5 C 665.167,895.5 663.833,895.5 662.5,895.5C 662.5,905.833 662.5,916.167 662.5,926.5C 661.506,916.013 661.172,905.346 661.5,894.5C 663.415,894.216 665.081,894.549 666.5,895.5 Z"/></g>
<g><path style="opacity:1" fill="#7376d4" d="M 662.5,926.5 C 662.5,916.167 662.5,905.833 662.5,895.5C 663.833,895.5 665.167,895.5 666.5,895.5C 666.343,896.873 666.51,898.207 667,899.5C 669.281,895.407 672.781,893.74 677.5,894.5C 677.5,896.167 677.5,897.833 677.5,899.5C 672.72,898.641 669.22,900.308 667,904.5C 666.5,911.826 666.334,919.159 666.5,926.5C 665.167,926.5 663.833,926.5 662.5,926.5 Z"/></g>
<g><path style="opacity:1" fill="#989be0" d="M 689.5,895.5 C 688.167,895.5 686.833,895.5 685.5,895.5C 685.5,905.833 685.5,916.167 685.5,926.5C 684.506,916.013 684.172,905.346 684.5,894.5C 686.415,894.216 688.081,894.549 689.5,895.5 Z"/></g>
<g><path style="opacity:1" fill="#7175d4" d="M 689.5,895.5 C 689.5,905.833 689.5,916.167 689.5,926.5C 688.167,926.5 686.833,926.5 685.5,926.5C 685.5,916.167 685.5,905.833 685.5,895.5C 686.833,895.5 688.167,895.5 689.5,895.5 Z"/></g>
<g><path style="opacity:1" fill="#7478d5" d="M 721.5,895.5 C 722.833,895.5 724.167,895.5 725.5,895.5C 725.5,909.5 725.5,923.5 725.5,937.5C 724.167,937.5 722.833,937.5 721.5,937.5C 721.666,932.156 721.499,926.823 721,921.5C 720.167,923.667 718.667,925.167 716.5,926C 704.812,927.987 698.812,922.987 698.5,911C 698.773,899.723 704.44,894.389 715.5,895C 717.624,896.122 719.457,897.622 721,899.5C 721.49,898.207 721.657,896.873 721.5,895.5 Z"/></g>
<g><path style="opacity:1" fill="#989ae0" d="M 721.5,895.5 C 722.919,894.549 724.585,894.216 726.5,894.5C 726.5,909.167 726.5,923.833 726.5,938.5C 724.585,938.784 722.919,938.451 721.5,937.5C 722.833,937.5 724.167,937.5 725.5,937.5C 725.5,923.5 725.5,909.5 725.5,895.5C 724.167,895.5 722.833,895.5 721.5,895.5 Z"/></g>
<g><path style="opacity:1" fill="#7377d4" d="M 736.5,895.5 C 738.167,895.5 739.833,895.5 741.5,895.5C 741.334,902.841 741.5,910.174 742,917.5C 744.89,921.828 748.723,922.661 753.5,920C 754.701,919.097 755.535,917.931 756,916.5C 756.5,909.508 756.666,902.508 756.5,895.5C 757.833,895.5 759.167,895.5 760.5,895.5C 760.5,905.833 760.5,916.167 760.5,926.5C 759.167,926.5 757.833,926.5 756.5,926.5C 756.66,924.801 756.494,923.134 756,921.5C 752.702,926.22 748.202,927.72 742.5,926C 740.714,925.215 739.214,924.049 738,922.5C 736.586,913.582 736.086,904.582 736.5,895.5 Z"/></g>
<g><path style="opacity:1" fill="#787bd6" d="M 779.5,894.5 C 792.521,893.52 798.521,899.52 797.5,912.5C 790.167,912.5 782.833,912.5 775.5,912.5C 775.481,920.642 779.481,923.808 787.5,922C 789.116,921.385 790.449,920.385 791.5,919C 793.134,918.506 794.801,918.34 796.5,918.5C 794.806,924.367 790.806,927.367 784.5,927.5C 772.889,925.363 768.056,918.363 770,906.5C 771.526,901.072 774.693,897.072 779.5,894.5 Z"/></g>
<g><path style="opacity:1" fill="#787bd6" d="M 869.5,894.5 C 881.833,894.167 887.833,900.167 887.5,912.5C 879.833,912.5 872.167,912.5 864.5,912.5C 865.322,920.49 869.655,923.656 877.5,922C 879.64,921.027 881.307,919.527 882.5,917.5C 883.736,918.246 885.07,918.579 886.5,918.5C 885.349,923.149 882.349,925.982 877.5,927C 863.349,926.942 857.516,919.776 860,905.5C 861.599,900.406 864.766,896.739 869.5,894.5 Z"/></g>
<g><path style="opacity:1" fill="#7377d4" d="M 958.5,894.5 C 960.5,894.5 962.5,894.5 964.5,894.5C 964.5,896.167 964.5,897.833 964.5,899.5C 959.72,898.641 956.22,900.308 954,904.5C 953.5,911.826 953.334,919.159 953.5,926.5C 952.167,926.5 950.833,926.5 949.5,926.5C 949.5,916.167 949.5,905.833 949.5,895.5C 950.833,895.5 952.167,895.5 953.5,895.5C 953.343,896.873 953.51,898.207 954,899.5C 955.025,897.313 956.525,895.646 958.5,894.5 Z"/></g>
<g><path style="opacity:1" fill="#767ad5" d="M 979.5,894.5 C 986.018,893.123 991.185,895.123 995,900.5C 995.5,909.16 995.666,917.827 995.5,926.5C 993.833,926.5 992.167,926.5 990.5,926.5C 990.79,922.446 990.123,921.946 988.5,925C 982.578,928.705 977.078,928.205 972,923.5C 969.523,918.851 970.023,914.685 973.5,911C 978.902,909.137 984.402,907.637 990,906.5C 990.92,903.692 990.087,901.525 987.5,900C 984.833,899.333 982.167,899.333 979.5,900C 977.69,903.239 975.19,904.072 972,902.5C 971.333,901.833 971.333,901.167 972,900.5C 974.114,897.879 976.614,895.879 979.5,894.5 Z"/></g>
<g><path style="opacity:1" fill="#767ad5" d="M 1002.5,895.5 C 1004.5,895.5 1006.5,895.5 1008.5,895.5C 1010.68,903.556 1013.18,911.556 1016,919.5C 1018.86,911.908 1021.53,904.242 1024,896.5C 1025.7,895.594 1027.53,895.261 1029.5,895.5C 1026.31,905.579 1022.81,915.579 1019,925.5C 1016.67,927.032 1014.67,926.698 1013,924.5C 1009.34,914.865 1005.84,905.198 1002.5,895.5 Z"/></g>
<g><path style="opacity:1" fill="#787bd6" d="M 1044.5,894.5 C 1051.11,893.115 1056.28,895.115 1060,900.5C 1060.5,909.16 1060.67,917.827 1060.5,926.5C 1058.83,926.5 1057.17,926.5 1055.5,926.5C 1055.65,925.448 1055.48,924.448 1055,923.5C 1047.45,929.565 1041.12,928.565 1036,920.5C 1034.82,916.726 1035.65,913.559 1038.5,911C 1043.85,908.915 1049.35,907.415 1055,906.5C 1055.69,904.08 1055.19,901.913 1053.5,900C 1050.5,899.333 1047.5,899.333 1044.5,900C 1042.32,903.793 1039.65,904.293 1036.5,901.5C 1038.59,898.398 1041.26,896.065 1044.5,894.5 Z"/></g>
<g><path style="opacity:1" fill="#7175d4" d="M 1071.5,895.5 C 1072.83,895.5 1074.17,895.5 1075.5,895.5C 1075.5,905.833 1075.5,916.167 1075.5,926.5C 1074.17,926.5 1072.83,926.5 1071.5,926.5C 1071.5,916.167 1071.5,905.833 1071.5,895.5 Z"/></g>
<g><path style="opacity:1" fill="#777ad5" d="M 1164.5,894.5 C 1177.18,893.863 1183.18,899.863 1182.5,912.5C 1175.17,912.5 1167.83,912.5 1160.5,912.5C 1160.48,920.642 1164.48,923.808 1172.5,922C 1174.12,921.385 1175.45,920.385 1176.5,919C 1178.13,918.506 1179.8,918.34 1181.5,918.5C 1181.26,921.263 1179.92,923.429 1177.5,925C 1166.69,929.677 1159.19,926.51 1155,915.5C 1153.34,906.155 1156.51,899.155 1164.5,894.5 Z"/></g>
<g><path style="opacity:1" fill="#7679d5" d="M 1280.5,895.5 C 1281.83,895.5 1283.17,895.5 1284.5,895.5C 1284.24,896.978 1284.57,898.311 1285.5,899.5C 1286.11,899.376 1286.44,899.043 1286.5,898.5C 1288.17,895.746 1290.67,894.413 1294,894.5C 1298.21,894.457 1301.54,896.123 1304,899.5C 1305.44,908.392 1305.94,917.392 1305.5,926.5C 1303.83,926.5 1302.17,926.5 1300.5,926.5C 1300.67,918.826 1300.5,911.159 1300,903.5C 1295.38,898.177 1290.71,898.177 1286,903.5C 1285.5,911.159 1285.33,918.826 1285.5,926.5C 1283.83,926.5 1282.17,926.5 1280.5,926.5C 1280.5,916.167 1280.5,905.833 1280.5,895.5 Z"/></g>
<g><path style="opacity:1" fill="#a5a7e3" d="M 1280.5,895.5 C 1281.92,894.549 1283.59,894.216 1285.5,894.5C 1285.23,896.099 1285.57,897.432 1286.5,898.5C 1286.44,899.043 1286.11,899.376 1285.5,899.5C 1284.57,898.311 1284.24,896.978 1284.5,895.5C 1283.17,895.5 1281.83,895.5 1280.5,895.5 Z"/></g>
<g><path style="opacity:1" fill="#7175d4" d="M 1315.5,895.5 C 1317.17,895.5 1318.83,895.5 1320.5,895.5C 1320.5,905.833 1320.5,916.167 1320.5,926.5C 1318.83,926.5 1317.17,926.5 1315.5,926.5C 1315.5,916.167 1315.5,905.833 1315.5,895.5 Z"/></g>
<g><path style="opacity:1" fill="#787bd6" d="M 1351.5,894.5 C 1353.17,894.5 1354.83,894.5 1356.5,894.5C 1352.45,904.995 1348.78,915.662 1345.5,926.5C 1343.5,926.5 1341.5,926.5 1339.5,926.5C 1336.26,916.178 1332.59,906.012 1328.5,896C 1330.47,895.505 1332.47,895.338 1334.5,895.5C 1336.76,903.291 1339.43,910.958 1342.5,918.5C 1345.51,910.477 1348.51,902.477 1351.5,894.5 Z"/></g>
<g><path style="opacity:1" fill="#787bd6" d="M 1371.5,894.5 C 1383.83,894.167 1389.83,900.167 1389.5,912.5C 1381.83,912.5 1374.17,912.5 1366.5,912.5C 1367.32,920.49 1371.65,923.656 1379.5,922C 1381.64,921.027 1383.31,919.527 1384.5,917.5C 1385.74,918.246 1387.07,918.579 1388.5,918.5C 1387.35,923.149 1384.35,925.982 1379.5,927C 1365.35,926.942 1359.52,919.776 1362,905.5C 1363.6,900.406 1366.77,896.739 1371.5,894.5 Z"/></g>
<g><path style="opacity:1" fill="#7578d5" d="M 1407.5,894.5 C 1409.5,894.5 1411.5,894.5 1413.5,894.5C 1413.5,896.167 1413.5,897.833 1413.5,899.5C 1408.72,898.641 1405.22,900.308 1403,904.5C 1402.5,911.826 1402.33,919.159 1402.5,926.5C 1401.17,926.5 1399.83,926.5 1398.5,926.5C 1398.5,916.167 1398.5,905.833 1398.5,895.5C 1400.77,895.141 1402.6,895.808 1404,897.5C 1405.52,896.837 1406.69,895.837 1407.5,894.5 Z"/></g>
<g><path style="opacity:1" fill="#797cd6" d="M 1427.5,894.5 C 1434.43,893.36 1439.76,895.694 1443.5,901.5C 1440.28,904.403 1437.61,903.903 1435.5,900C 1432.08,899.107 1428.92,899.607 1426,901.5C 1425.18,903.701 1425.68,905.534 1427.5,907C 1431.12,908.156 1434.79,909.156 1438.5,910C 1443.22,912.435 1444.72,916.269 1443,921.5C 1437.44,927.771 1430.94,928.938 1423.5,925C 1418.54,921.497 1418.71,918.997 1424,917.5C 1426.44,922.224 1430.27,923.724 1435.5,922C 1438.36,920.214 1439.03,917.881 1437.5,915C 1433.92,913.749 1430.25,912.749 1426.5,912C 1418.2,905.657 1418.54,899.824 1427.5,894.5 Z"/></g>
<g><path style="opacity:1" fill="#7175d4" d="M 1452.5,895.5 C 1454.17,895.5 1455.83,895.5 1457.5,895.5C 1457.5,905.833 1457.5,916.167 1457.5,926.5C 1455.83,926.5 1454.17,926.5 1452.5,926.5C 1452.5,916.167 1452.5,905.833 1452.5,895.5 Z"/></g>
<g><path style="opacity:1" fill="#767ad5" d="M 1498.5,894.5 C 1511.02,894.021 1516.69,900.021 1515.5,912.5C 1508.17,912.5 1500.83,912.5 1493.5,912.5C 1494.29,920.456 1498.63,923.623 1506.5,922C 1508.67,921.167 1510.17,919.667 1511,917.5C 1516.29,918.997 1516.46,921.497 1511.5,925C 1494.13,929.649 1486.63,922.816 1489,904.5C 1491.02,899.98 1494.19,896.647 1498.5,894.5 Z"/></g>
<g><path style="opacity:1" fill="#7377d4" d="M 1606.5,895.5 C 1607.83,895.5 1609.17,895.5 1610.5,895.5C 1610.5,905.833 1610.5,916.167 1610.5,926.5C 1609.17,926.5 1607.83,926.5 1606.5,926.5C 1606.66,924.801 1606.49,923.134 1606,921.5C 1602.75,926.223 1598.25,927.723 1592.5,926C 1589.34,924.52 1587.5,922.02 1587,918.5C 1586.5,910.841 1586.33,903.174 1586.5,895.5C 1588.17,895.5 1589.83,895.5 1591.5,895.5C 1591.33,902.841 1591.5,910.174 1592,917.5C 1594.89,921.828 1598.72,922.661 1603.5,920C 1604.7,919.097 1605.53,917.931 1606,916.5C 1606.5,909.508 1606.67,902.508 1606.5,895.5 Z"/></g>
<g><path style="opacity:1" fill="#989be0" d="M 1606.5,895.5 C 1607.92,894.549 1609.59,894.216 1611.5,894.5C 1611.83,905.346 1611.49,916.013 1610.5,926.5C 1610.5,916.167 1610.5,905.833 1610.5,895.5C 1609.17,895.5 1607.83,895.5 1606.5,895.5 Z"/></g>
<g><path style="opacity:1" fill="#797cd6" d="M 1628.5,894.5 C 1635.23,893.369 1640.23,895.702 1643.5,901.5C 1640.59,904.31 1638.26,903.81 1636.5,900C 1633.83,899.333 1631.17,899.333 1628.5,900C 1625.83,902.333 1625.83,904.667 1628.5,907C 1632.89,908.347 1637.22,909.847 1641.5,911.5C 1645.63,916.252 1645.3,920.752 1640.5,925C 1634.13,928.083 1627.96,927.583 1622,923.5C 1619.66,919.583 1620.83,917.583 1625.5,917.5C 1625.93,921.158 1628.1,922.825 1632,922.5C 1637.81,922.711 1639.64,920.211 1637.5,915C 1634.35,913.395 1631.02,912.395 1627.5,912C 1621.91,909.646 1620.07,905.479 1622,899.5C 1623.97,897.45 1626.13,895.783 1628.5,894.5 Z"/></g>
<g><path style="opacity:1" fill="#787bd6" d="M 1683.5,894.5 C 1689.29,893.489 1694.12,895.156 1698,899.5C 1698.5,908.494 1698.67,917.494 1698.5,926.5C 1697.17,926.5 1695.83,926.5 1694.5,926.5C 1694.63,921.728 1693.3,921.562 1690.5,926C 1678.99,929.483 1673.83,925.316 1675,913.5C 1676.52,911.652 1678.35,910.152 1680.5,909C 1684.2,908.682 1687.86,908.182 1691.5,907.5C 1695.2,905.272 1695.2,902.772 1691.5,900C 1686.41,898.668 1682.07,899.835 1678.5,903.5C 1675.92,903.253 1675.09,901.92 1676,899.5C 1678.17,897.177 1680.67,895.51 1683.5,894.5 Z"/></g>
<g><path style="opacity:1" fill="#767ad5" d="M 1706.5,895.5 C 1708.47,895.261 1710.3,895.594 1712,896.5C 1714.47,904.242 1717.14,911.908 1720,919.5C 1722.82,911.556 1725.32,903.556 1727.5,895.5C 1729.6,895.201 1731.6,895.534 1733.5,896.5C 1730,905.828 1726.5,915.161 1723,924.5C 1721.33,926.698 1719.33,927.032 1717,925.5C 1713.19,915.579 1709.69,905.579 1706.5,895.5 Z"/></g>
<g><path style="opacity:1" fill="#767ad5" d="M 1749.5,894.5 C 1761.94,894.029 1767.61,900.029 1766.5,912.5C 1759.17,912.5 1751.83,912.5 1744.5,912.5C 1746.33,922.893 1751.66,925.226 1760.5,919.5C 1762.05,918.548 1763.71,918.215 1765.5,918.5C 1765.53,920.582 1764.86,922.416 1763.5,924C 1752.79,930.096 1744.96,927.596 1740,916.5C 1737.3,906.376 1740.47,899.043 1749.5,894.5 Z"/></g>
<g><path style="opacity:1" fill="#7175d4" d="M 1829.5,895.5 C 1830.83,895.5 1832.17,895.5 1833.5,895.5C 1833.5,905.833 1833.5,916.167 1833.5,926.5C 1832.17,926.5 1830.83,926.5 1829.5,926.5C 1829.5,916.167 1829.5,905.833 1829.5,895.5 Z"/></g>
<g><path style="opacity:1" fill="#a3a5e3" d="M 1851.5,894.5 C 1853.83,894.5 1856.17,894.5 1858.5,894.5C 1858.78,896.415 1858.45,898.081 1857.5,899.5C 1857.5,898.167 1857.5,896.833 1857.5,895.5C 1855.26,895.795 1853.26,895.461 1851.5,894.5 Z"/></g>
<g><path style="opacity:1" fill="#767ad5" d="M 1896.5,894.5 C 1908.99,893.991 1914.66,899.991 1913.5,912.5C 1906.17,912.5 1898.83,912.5 1891.5,912.5C 1892.32,920.493 1896.66,923.66 1904.5,922C 1905.91,921.632 1906.91,920.799 1907.5,919.5C 1909.05,918.548 1910.71,918.215 1912.5,918.5C 1912.53,920.582 1911.86,922.416 1910.5,924C 1902.61,929.159 1895.45,928.325 1889,921.5C 1883.61,909.996 1886.11,900.996 1896.5,894.5 Z"/></g>
<g><path style="opacity:1" fill="#fafafd" d="M 349.5,899.5 C 355.695,898.345 359.861,900.678 362,906.5C 362.738,910.261 362.405,913.928 361,917.5C 358.459,922.069 354.625,923.569 349.5,922C 344.741,917.509 343.241,912.009 345,905.5C 346.332,903.34 347.832,901.34 349.5,899.5 Z"/></g>
<g><path style="opacity:1" fill="#f6f6fc" d="M 452.5,899.5 C 459.918,898.19 463.918,901.19 464.5,908.5C 458.833,908.5 453.167,908.5 447.5,908.5C 447.372,904.415 449.039,901.415 452.5,899.5 Z"/></g>
<g><path style="opacity:1" fill="#f8f8fd" d="M 635.5,899.5 C 642.984,898.214 646.984,901.214 647.5,908.5C 641.833,908.5 636.167,908.5 630.5,908.5C 630.891,904.779 632.558,901.779 635.5,899.5 Z"/></g>
<g><path style="opacity:1" fill="#fafafd" d="M 708.5,899.5 C 719.451,899.301 723.617,904.634 721,915.5C 718.86,921.487 714.693,923.654 708.5,922C 701.878,914.461 701.878,906.961 708.5,899.5 Z"/></g>
<g><path style="opacity:1" fill="#fbfbfe" d="M 791.5,904.5 C 791.5,905.5 791.5,906.5 791.5,907.5C 785.974,907.821 780.64,907.488 775.5,906.5C 777.988,899.573 782.655,897.739 789.5,901C 790.305,902.113 790.972,903.279 791.5,904.5 Z"/></g>
<g><path style="opacity:1" fill="#fafafd" d="M 832.5,899.5 C 843.053,899.545 847.22,904.878 845,915.5C 842.86,921.487 838.693,923.654 832.5,922C 825.878,914.461 825.878,906.961 832.5,899.5 Z"/></g>
<g><path style="opacity:1" fill="#fcfcfe" d="M 881.5,905.5 C 879.257,906.812 876.59,907.478 873.5,907.5C 870.41,907.478 867.743,906.812 865.5,905.5C 867.766,900.204 871.766,898.37 877.5,900C 879.464,901.451 880.797,903.284 881.5,905.5 Z"/></g>
<g><path style="opacity:1" fill="#fafafd" d="M 1127.5,899.5 C 1138.42,899.27 1142.58,904.603 1140,915.5C 1137.47,922.181 1132.97,924.014 1126.5,921C 1120.92,913.493 1121.25,906.326 1127.5,899.5 Z"/></g>
<g><path style="opacity:1" fill="#fbfbfd" d="M 1176.5,904.5 C 1176.5,905.5 1176.5,906.5 1176.5,907.5C 1170.97,907.821 1165.64,907.488 1160.5,906.5C 1162.01,899.954 1166.01,897.787 1172.5,900C 1174.64,900.792 1175.98,902.292 1176.5,904.5 Z"/></g>
<g><path style="opacity:1" fill="#fcfcfe" d="M 1383.5,905.5 C 1381.26,906.812 1378.59,907.478 1375.5,907.5C 1372.41,907.478 1369.74,906.812 1367.5,905.5C 1369.77,900.204 1373.77,898.37 1379.5,900C 1381.46,901.451 1382.8,903.284 1383.5,905.5 Z"/></g>
<g><path style="opacity:1" fill="#f8f8fd" d="M 1498.5,899.5 C 1505.98,898.214 1509.98,901.214 1510.5,908.5C 1504.83,908.5 1499.17,908.5 1493.5,908.5C 1493.89,904.779 1495.56,901.779 1498.5,899.5 Z"/></g>
<g><path style="opacity:1" fill="#f6f7fc" d="M 1749.5,899.5 C 1756.92,898.19 1760.92,901.19 1761.5,908.5C 1755.83,908.5 1750.17,908.5 1744.5,908.5C 1744.37,904.415 1746.04,901.415 1749.5,899.5 Z"/></g>
<g><path style="opacity:1" fill="#f7f7fc" d="M 1896.5,899.5 C 1903.92,898.19 1907.92,901.19 1908.5,908.5C 1902.83,908.5 1897.17,908.5 1891.5,908.5C 1891.37,904.415 1893.04,901.415 1896.5,899.5 Z"/></g>
<g><path style="opacity:1" fill="#d0d1f0" d="M 278.5,889.5 C 278.5,893.833 278.5,898.167 278.5,902.5C 284.69,902.177 290.69,902.51 296.5,903.5C 290.167,903.5 283.833,903.5 277.5,903.5C 277.181,898.637 277.514,893.97 278.5,889.5 Z"/></g>
<g><path style="opacity:1" fill="#d0d1f0" d="M 1799.5,889.5 C 1799.5,893.833 1799.5,898.167 1799.5,902.5C 1805.69,902.177 1811.69,902.51 1817.5,903.5C 1811.17,903.5 1804.83,903.5 1798.5,903.5C 1798.18,898.637 1798.51,893.97 1799.5,889.5 Z"/></g>
<g><path style="opacity:1" fill="#d3d4f1" d="M 791.5,904.5 C 792.434,905.568 792.768,906.901 792.5,908.5C 786.463,908.829 780.463,908.496 774.5,907.5C 774.624,906.893 774.957,906.56 775.5,906.5C 780.64,907.488 785.974,907.821 791.5,907.5C 791.5,906.5 791.5,905.5 791.5,904.5 Z"/></g>
<g><path style="opacity:1" fill="#d4d4f1" d="M 865.5,905.5 C 867.743,906.812 870.41,907.478 873.5,907.5C 876.59,907.478 879.257,906.812 881.5,905.5C 882.404,906.209 882.737,907.209 882.5,908.5C 876.5,908.5 870.5,908.5 864.5,908.5C 864.263,907.209 864.596,906.209 865.5,905.5 Z"/></g>
<g><path style="opacity:1" fill="#d3d4f1" d="M 1176.5,904.5 C 1177.43,905.568 1177.77,906.901 1177.5,908.5C 1171.46,908.829 1165.46,908.496 1159.5,907.5C 1159.62,906.893 1159.96,906.56 1160.5,906.5C 1165.64,907.488 1170.97,907.821 1176.5,907.5C 1176.5,906.5 1176.5,905.5 1176.5,904.5 Z"/></g>
<g><path style="opacity:1" fill="#d4d4f1" d="M 1367.5,905.5 C 1369.74,906.812 1372.41,907.478 1375.5,907.5C 1378.59,907.478 1381.26,906.812 1383.5,905.5C 1384.4,906.209 1384.74,907.209 1384.5,908.5C 1378.5,908.5 1372.5,908.5 1366.5,908.5C 1366.26,907.209 1366.6,906.209 1367.5,905.5 Z"/></g>
<g><path style="opacity:1" fill="#f9f9fd" d="M 390.5,911.5 C 391.833,911.5 393.167,911.5 394.5,911.5C 395.602,918.229 392.769,921.896 386,922.5C 381.08,922.584 379.08,920.251 380,915.5C 380.903,914.299 382.069,913.465 383.5,913C 386.036,912.814 388.369,912.314 390.5,911.5 Z"/></g>
<g><path style="opacity:1" fill="#f8f8fd" d="M 986.5,911.5 C 987.833,911.5 989.167,911.5 990.5,911.5C 990.14,921.762 985.307,924.762 976,920.5C 974.729,916.834 975.896,914.334 979.5,913C 982.036,912.814 984.369,912.314 986.5,911.5 Z"/></g>
<g><path style="opacity:1" fill="#f9f9fd" d="M 1051.5,911.5 C 1052.83,911.5 1054.17,911.5 1055.5,911.5C 1055.33,921.584 1050.66,924.584 1041.5,920.5C 1039.69,916.895 1040.69,914.395 1044.5,913C 1047.04,912.814 1049.37,912.314 1051.5,911.5 Z"/></g>
<g><path style="opacity:1" fill="#f9f9fd" d="M 1688.5,911.5 C 1690.17,911.5 1691.83,911.5 1693.5,911.5C 1693.89,921.887 1689.39,924.887 1680,920.5C 1679.33,918.833 1679.33,917.167 1680,915.5C 1682.56,913.376 1685.4,912.042 1688.5,911.5 Z"/></g>
<g><path style="opacity:1" fill="#9d9fe1" d="M 278.5,908.5 C 278.5,912.833 278.5,917.167 278.5,921.5C 285.354,921.176 292.021,921.509 298.5,922.5C 291.5,922.5 284.5,922.5 277.5,922.5C 277.181,917.637 277.514,912.97 278.5,908.5 Z"/></g>
<g><path style="opacity:1" fill="#9d9fe1" d="M 1799.5,908.5 C 1799.5,912.833 1799.5,917.167 1799.5,921.5C 1806.35,921.176 1813.02,921.509 1819.5,922.5C 1812.5,922.5 1805.5,922.5 1798.5,922.5C 1798.18,917.637 1798.51,912.97 1799.5,908.5 Z"/></g>
</svg>
