<?xml version="1.0" encoding="UTF-8"?>
<!DOCTYPE svg PUBLIC "-//W3C//DTD SVG 1.1//EN" "http://www.w3.org/Graphics/SVG/1.1/DTD/svg11.dtd">
<svg xmlns="http://www.w3.org/2000/svg" version="1.1" width="100px" height="100px" style="shape-rendering:geometricPrecision; text-rendering:geometricPrecision; image-rendering:optimizeQuality; fill-rule:evenodd; clip-rule:evenodd" xmlns:xlink="http://www.w3.org/1999/xlink">
<g><path style="opacity:0.903" fill="#28294c" d="M 26.5,7.5 C 37.8382,7.33348 49.1716,7.50014 60.5,8C 68,15.5 75.5,23 83,30.5C 83.6667,45.5 83.6667,60.5 83,75.5C 80.7997,84.6949 74.9663,89.8615 65.5,91C 53.5,91.6667 41.5,91.6667 29.5,91C 20.0205,89.8578 14.1871,84.6912 12,75.5C 11.3333,57.8333 11.3333,40.1667 12,22.5C 14.3509,14.9841 19.1842,9.98409 26.5,7.5 Z M 28.5,14.5 C 37.1667,14.5 45.8333,14.5 54.5,14.5C 52.262,31.2628 59.5954,38.9295 76.5,37.5C 76.6665,49.8378 76.4999,62.1712 76,74.5C 74.9392,77.5616 73.1059,80.0616 70.5,82C 55.9267,83.6326 41.2601,83.966 26.5,83C 22.5095,81.0096 20.0095,77.8429 19,73.5C 18.3333,57.1667 18.3333,40.8333 19,24.5C 20.3499,19.3193 23.5166,15.9859 28.5,14.5 Z M 61.5,19.5 C 65.1456,22.4789 68.479,25.8123 71.5,29.5C 64.0204,30.6891 60.687,27.3557 61.5,19.5 Z"/></g>
<g><path style="opacity:0.874" fill="#28294c" d="M 32.5,44.5 C 38.5092,44.3338 44.5092,44.5005 50.5,45C 51.5762,46.7261 51.7429,48.5594 51,50.5C 44.9156,51.642 38.7489,51.8087 32.5,51C 29.9387,48.8441 29.9387,46.6774 32.5,44.5 Z"/></g>
<g><path style="opacity:0.865" fill="#28294d" d="M 33.5,59.5 C 41.5069,59.3336 49.5069,59.5003 57.5,60C 61.5,62.3333 61.5,64.6667 57.5,67C 49.5,67.6667 41.5,67.6667 33.5,67C 29.6491,64.5241 29.6491,62.0241 33.5,59.5 Z"/></g>
</svg>
