<?xml version="1.0" encoding="UTF-8"?>
<!DOCTYPE svg PUBLIC "-//W3C//DTD SVG 1.1//EN" "http://www.w3.org/Graphics/SVG/1.1/DTD/svg11.dtd">
<svg xmlns="http://www.w3.org/2000/svg" version="1.1" width="50px" height="50px" style="shape-rendering:geometricPrecision; text-rendering:geometricPrecision; image-rendering:optimizeQuality; fill-rule:evenodd; clip-rule:evenodd" xmlns:xlink="http://www.w3.org/1999/xlink">
<g><path style="opacity:0.759" fill="#FFFFFF" d="M 36.5,5.5 C 43.0001,4.49867 45.5001,7.16534 44,13.5C 40.9743,24.2716 37.6409,34.9382 34,45.5C 31.9361,46.5914 29.7695,46.7581 27.5,46C 24.7917,41.4157 21.9584,36.9157 19,32.5C 14.272,28.7744 9.272,25.4411 4,22.5C 3.33333,20.5 3.33333,18.5 4,16.5C 14.8398,12.5888 25.6731,8.92213 36.5,5.5 Z M 37.5,9.5 C 38.5,9.5 39.5,9.5 40.5,9.5C 37.6305,20.6458 34.2971,31.6458 30.5,42.5C 27.7834,38.9002 25.4501,35.0669 23.5,31C 26.2839,27.213 29.4506,23.713 33,20.5C 33.49,19.2068 33.6567,17.8734 33.5,16.5C 32.448,16.3505 31.448,16.5172 30.5,17C 26.9848,20.6824 23.3181,24.1824 19.5,27.5C 15.5,24.8333 11.5,22.1667 7.5,19.5C 17.5923,16.1509 27.5923,12.8176 37.5,9.5 Z"/></g>
</svg>
