<?xml version="1.0" encoding="UTF-8"?>
<!DOCTYPE svg PUBLIC "-//W3C//DTD SVG 1.1//EN" "http://www.w3.org/Graphics/SVG/1.1/DTD/svg11.dtd">
<svg xmlns="http://www.w3.org/2000/svg" version="1.1" width="512px" height="512px" style="shape-rendering:geometricPrecision; text-rendering:geometricPrecision; image-rendering:optimizeQuality; fill-rule:evenodd; clip-rule:evenodd" xmlns:xlink="http://www.w3.org/1999/xlink">
<g><path style="opacity:1" fill="#fafafa" d="M 418.5,69.5 C 418.973,70.9063 419.973,71.573 421.5,71.5C 422.627,72.1217 423.627,72.955 424.5,74C 433.463,72.5698 442.13,69.9031 450.5,66C 459.833,61.6667 469.167,57.3333 478.5,53C 482.806,52.0876 486.806,52.5876 490.5,54.5C 490.973,55.9063 491.973,56.573 493.5,56.5C 493.738,58.4044 494.738,59.7377 496.5,60.5C 498.412,64.1936 498.912,68.1936 498,72.5C 495.941,79.3478 493.107,85.8478 489.5,92C 494.515,91.0659 499.515,91.3992 504.5,93C 506.041,94.3712 507.375,95.8712 508.5,97.5C 508.427,99.0269 509.094,100.027 510.5,100.5C 510.833,100.5 511.167,100.5 511.5,100.5C 511.5,104.5 511.5,108.5 511.5,112.5C 506.263,120.74 500.263,128.407 493.5,135.5C 492.094,135.973 491.427,136.973 491.5,138.5C 483.094,148.408 473.594,157.074 463,164.5C 461.428,234.052 440.261,296.719 399.5,352.5C 398.094,352.973 397.427,353.973 397.5,355.5C 396.299,357.909 394.633,359.909 392.5,361.5C 391.094,361.973 390.427,362.973 390.5,364.5C 389.5,366.167 388.167,367.5 386.5,368.5C 385.094,368.973 384.427,369.973 384.5,371.5C 383.167,373.5 381.5,375.167 379.5,376.5C 377.738,377.262 376.738,378.596 376.5,380.5C 373.833,383.833 370.833,386.833 367.5,389.5C 365.596,389.738 364.262,390.738 363.5,392.5C 320.497,432.592 269.497,456.092 210.5,463C 145.294,471.356 83.6277,460.523 25.5,430.5C 25.0269,429.094 24.0269,428.427 22.5,428.5C 20.1815,428.008 18.1815,427.008 16.5,425.5C 16.0269,424.094 15.0269,423.427 13.5,423.5C 11.847,423.34 10.5137,422.674 9.5,421.5C 9.02694,420.094 8.02694,419.427 6.5,419.5C 5.73769,417.738 4.40435,416.738 2.5,416.5C 1.5,415.167 0.5,413.833 -0.5,412.5C -0.5,408.833 -0.5,405.167 -0.5,401.5C 0.166667,401.5 0.5,401.167 0.5,400.5C 2.26242,399.738 3.26242,398.404 3.5,396.5C 4.89361,394.292 6.89361,392.792 9.5,392C 32.9937,393.073 56.3271,391.573 79.5,387.5C 82.2282,387.829 84.5615,387.163 86.5,385.5C 97.6371,381.899 108.637,377.899 119.5,373.5C 122.167,372.833 122.167,372.167 119.5,371.5C 115.182,370.008 111.182,368.008 107.5,365.5C 107.027,364.094 106.027,363.427 104.5,363.5C 104.027,362.094 103.027,361.427 101.5,361.5C 101.027,360.094 100.027,359.427 98.5,359.5C 96.5956,359.262 95.2623,358.262 94.5,356.5C 94.0269,355.094 93.0269,354.427 91.5,354.5C 90.1667,353.833 89.1667,352.833 88.5,351.5C 86.1667,348.5 83.5,345.833 80.5,343.5C 67.4918,330.825 59.1585,315.491 55.5,297.5C 55.3161,294.795 55.9827,292.462 57.5,290.5C 58.9063,290.027 59.573,289.027 59.5,287.5C 59.6107,286.883 59.944,286.383 60.5,286C 59.2899,284.961 58.2899,283.794 57.5,282.5C 55.1667,279.5 52.5,276.833 49.5,274.5C 47.8333,273.5 46.5,272.167 45.5,270.5C 45.573,268.973 44.9063,267.973 43.5,267.5C 31.0454,251 23.5454,232.333 21,211.5C 20.5366,207.162 20.0366,202.829 19.5,198.5C 19.4404,195.845 20.1071,193.511 21.5,191.5C 22.9063,191.027 23.573,190.027 23.5,188.5C 24.9923,185.677 27.3257,184.01 30.5,183.5C 32.1667,183.5 33.8333,183.5 35.5,183.5C 35.7373,182.209 35.404,181.209 34.5,180.5C 21.3007,156.313 17.8007,130.646 24,103.5C 26.8297,90.8407 31.3297,78.8407 37.5,67.5C 44.6801,61.2518 52.0134,60.9185 59.5,66.5C 60.0798,68.7488 61.4131,70.4154 63.5,71.5C 64.8333,72.1667 65.8333,73.1667 66.5,74.5C 68.0941,77.7642 70.4275,80.4309 73.5,82.5C 76.8333,85.1667 79.8333,88.1667 82.5,91.5C 83.9108,93.914 85.9108,95.5806 88.5,96.5C 90.5,97.8333 92.1667,99.5 93.5,101.5C 93.9731,102.906 94.9731,103.573 96.5,103.5C 99.2072,105.843 101.874,108.177 104.5,110.5C 104.973,111.906 105.973,112.573 107.5,112.5C 114.833,117.5 122.167,122.5 129.5,127.5C 129.821,129.048 130.821,129.715 132.5,129.5C 133.167,129.833 133.833,130.167 134.5,130.5C 134.821,132.048 135.821,132.715 137.5,132.5C 166.383,148.017 197.049,158.35 229.5,163.5C 231.607,164.468 233.941,164.802 236.5,164.5C 236.5,161.833 236.5,159.167 236.5,156.5C 236.363,136.823 241.029,118.49 250.5,101.5C 251.906,101.027 252.573,100.027 252.5,98.5C 252.328,97.5084 252.662,96.8417 253.5,96.5C 254.906,96.0269 255.573,95.0269 255.5,93.5C 257.262,92.7377 258.262,91.4044 258.5,89.5C 259.906,89.0269 260.573,88.0269 260.5,86.5C 260.833,85.5 261.5,84.8333 262.5,84.5C 265.573,82.4309 267.906,79.7642 269.5,76.5C 271.749,75.9202 273.415,74.5869 274.5,72.5C 274.5,71.8333 274.833,71.5 275.5,71.5C 277.749,70.9202 279.415,69.5869 280.5,67.5C 282.027,67.573 283.027,66.9063 283.5,65.5C 285.027,65.573 286.027,64.9063 286.5,63.5C 288.027,63.573 289.027,62.9063 289.5,61.5C 290.514,60.3263 291.847,59.6596 293.5,59.5C 295.027,59.573 296.027,58.9063 296.5,57.5C 304.532,52.9327 313.199,49.9327 322.5,48.5C 325.495,48.7062 328.162,48.0395 330.5,46.5C 357.403,42.3186 382.736,46.8186 406.5,60C 410.975,62.6499 414.975,65.8166 418.5,69.5 Z M 368.5,77.5 C 370.599,78.6118 372.933,79.2785 375.5,79.5C 380.099,81.4608 384.765,83.4608 389.5,85.5C 389.973,86.9063 390.973,87.573 392.5,87.5C 392.973,88.9063 393.973,89.573 395.5,89.5C 395.5,90.1667 395.833,90.5 396.5,90.5C 397.585,92.5869 399.251,93.9202 401.5,94.5C 402.167,95.8333 403.167,96.8333 404.5,97.5C 405.262,99.2624 406.596,100.262 408.5,100.5C 408.973,101.906 409.973,102.573 411.5,102.5C 411.973,103.906 412.973,104.573 414.5,104.5C 421.978,106.81 429.311,106.477 436.5,103.5C 438.698,103.409 439.031,104.075 437.5,105.5C 435.596,105.738 434.262,106.738 433.5,108.5C 431.167,108.833 429.833,110.167 429.5,112.5C 425.711,117.938 425.544,123.605 429,129.5C 430.039,130.71 431.206,131.71 432.5,132.5C 432.973,133.906 433.973,134.573 435.5,134.5C 439.578,136.714 443.912,137.047 448.5,135.5C 448.167,136.167 447.833,136.833 447.5,137.5C 445.251,138.08 443.585,139.413 442.5,141.5C 441.833,141.5 441.5,141.833 441.5,142.5C 440.167,142.5 439.5,143.167 439.5,144.5C 438.833,144.5 438.5,144.833 438.5,145.5C 436.738,146.262 435.738,147.596 435.5,149.5C 433.469,152.422 432.302,155.755 432,159.5C 432.02,178.3 430.52,196.966 427.5,215.5C 426.087,218.219 425.42,221.219 425.5,224.5C 419.185,248.15 410.852,271.15 400.5,293.5C 399.094,293.973 398.427,294.973 398.5,296.5C 396.659,298.849 395.326,301.515 394.5,304.5C 393.094,304.973 392.427,305.973 392.5,307.5C 391.326,308.514 390.66,309.847 390.5,311.5C 389.094,311.973 388.427,312.973 388.5,314.5C 387.662,314.842 387.328,315.508 387.5,316.5C 386.094,316.973 385.427,317.973 385.5,319.5C 384.094,319.973 383.427,320.973 383.5,322.5C 382.094,322.973 381.427,323.973 381.5,325.5C 380.094,325.973 379.427,326.973 379.5,328.5C 378.094,328.973 377.427,329.973 377.5,331.5C 375.738,332.262 374.738,333.596 374.5,335.5C 372.457,336.579 371.124,338.246 370.5,340.5C 368.738,341.262 367.738,342.596 367.5,344.5C 366.5,344.833 365.833,345.5 365.5,346.5C 363.413,347.585 362.08,349.251 361.5,351.5C 359.833,352.5 358.5,353.833 357.5,355.5C 350.833,361.5 344.5,367.833 338.5,374.5C 337.833,374.5 337.5,374.833 337.5,375.5C 335.251,376.08 333.585,377.413 332.5,379.5C 331.833,379.5 331.5,379.833 331.5,380.5C 329.596,380.738 328.262,381.738 327.5,383.5C 325.596,383.738 324.262,384.738 323.5,386.5C 321.596,386.738 320.262,387.738 319.5,389.5C 317.973,389.427 316.973,390.094 316.5,391.5C 314.973,391.427 313.973,392.094 313.5,393.5C 311.973,393.427 310.973,394.094 310.5,395.5C 308.973,395.427 307.973,396.094 307.5,397.5C 306.508,397.328 305.842,397.662 305.5,398.5C 303.973,398.427 302.973,399.094 302.5,400.5C 300.847,400.66 299.514,401.326 298.5,402.5C 296.973,402.427 295.973,403.094 295.5,404.5C 277.187,413.823 258.187,421.156 238.5,426.5C 235.572,426.565 232.905,427.232 230.5,428.5C 179.459,438.644 129.126,435.977 79.5,420.5C 79.1667,419.833 78.8333,419.167 78.5,418.5C 113.766,412.147 145.266,397.813 173,375.5C 176.271,370.126 176.771,364.792 174.5,359.5C 174.573,357.973 173.906,356.973 172.5,356.5C 170.905,353.74 168.572,351.907 165.5,351C 143.305,349.888 123.972,342.054 107.5,327.5C 105.833,325.167 103.833,323.167 101.5,321.5C 101.167,320.5 100.5,319.833 99.5,319.5C 98.9202,317.251 97.5869,315.585 95.5,314.5C 97.5,313.833 99.5,313.167 101.5,312.5C 105.877,312.423 110.21,311.923 114.5,311C 117.599,310.613 120.266,309.446 122.5,307.5C 123.906,307.027 124.573,306.027 124.5,304.5C 125.79,303.942 126.623,302.942 127,301.5C 127.762,297.413 127.596,293.413 126.5,289.5C 126.262,287.596 125.262,286.262 123.5,285.5C 122.71,284.206 121.71,283.039 120.5,282C 110.799,278.98 101.466,275.147 92.5,270.5C 91.7095,269.599 90.7095,268.932 89.5,268.5C 85.8333,265.833 82.1667,263.167 78.5,260.5C 75.8333,257.167 72.8333,254.167 69.5,251.5C 68.1891,248.865 66.5224,246.531 64.5,244.5C 64.573,242.973 63.9063,241.973 62.5,241.5C 59.7375,235.047 57.0708,228.547 54.5,222C 62.4869,222.927 70.4869,224.094 78.5,225.5C 91.4981,222.49 95.8314,214.824 91.5,202.5C 91.573,200.973 90.9063,199.973 89.5,199.5C 87.8333,197.167 85.8333,195.167 83.5,193.5C 80.5,189.833 77.1667,186.5 73.5,183.5C 73.1667,182.5 72.5,181.833 71.5,181.5C 71.2624,179.596 70.2624,178.262 68.5,177.5C 68.2624,175.596 67.2624,174.262 65.5,173.5C 65.573,171.973 64.9063,170.973 63.5,170.5C 52.2395,150.69 49.4062,129.69 55,107.5C 56.0391,108.71 57.2058,109.71 58.5,110.5C 60.8998,113.903 63.8998,116.57 67.5,118.5C 68.8333,120.5 70.5,122.167 72.5,123.5C 73.2623,125.262 74.5956,126.262 76.5,126.5C 76.5,127.167 76.8333,127.5 77.5,127.5C 78.5846,129.587 80.2512,130.92 82.5,131.5C 82.8333,132.5 83.5,133.167 84.5,133.5C 84.9731,134.906 85.9731,135.573 87.5,135.5C 88.2623,137.262 89.5956,138.262 91.5,138.5C 92.2623,140.262 93.5956,141.262 95.5,141.5C 95.9731,142.906 96.9731,143.573 98.5,143.5C 99.2623,145.262 100.596,146.262 102.5,146.5C 102.973,147.906 103.973,148.573 105.5,148.5C 105.973,149.906 106.973,150.573 108.5,150.5C 108.842,151.338 109.508,151.672 110.5,151.5C 110.973,152.906 111.973,153.573 113.5,153.5C 113.973,154.906 114.973,155.573 116.5,155.5C 117.514,156.674 118.847,157.34 120.5,157.5C 120.973,158.906 121.973,159.573 123.5,159.5C 125.849,161.341 128.515,162.674 131.5,163.5C 131.973,164.906 132.973,165.573 134.5,165.5C 173.038,185.171 214.038,195.338 257.5,196C 262,194.167 265.167,191 267,186.5C 265.733,171.095 266.4,155.761 269,140.5C 271.558,127.057 277.058,115.057 285.5,104.5C 286.906,104.027 287.573,103.027 287.5,101.5C 289.167,100.5 290.5,99.1667 291.5,97.5C 293.027,97.573 294.027,96.9063 294.5,95.5C 316.306,78.2406 340.973,72.2406 368.5,77.5 Z"/></g>
<g><path style="opacity:0.996" fill="#b6b6b6" d="M 330.5,46.5 C 328.162,48.0395 325.495,48.7062 322.5,48.5C 324.905,47.2318 327.572,46.5651 330.5,46.5 Z"/></g>
<g><path style="opacity:0.008" fill="#939393" d="M 490.5,54.5 C 492.027,54.427 493.027,55.0937 493.5,56.5C 491.973,56.573 490.973,55.9063 490.5,54.5 Z"/></g>
<g><path style="opacity:0.976" fill="#adadad" d="M 493.5,56.5 C 495.262,57.2623 496.262,58.5956 496.5,60.5C 494.738,59.7377 493.738,58.4044 493.5,56.5 Z"/></g>
<g><path style="opacity:0.965" fill="#afafaf" d="M 296.5,57.5 C 296.027,58.9063 295.027,59.573 293.5,59.5C 293.973,58.0937 294.973,57.427 296.5,57.5 Z"/></g>
<g><path style="opacity:0.961" fill="#afafaf" d="M 289.5,61.5 C 289.027,62.9063 288.027,63.573 286.5,63.5C 286.973,62.0937 287.973,61.427 289.5,61.5 Z"/></g>
<g><path style="opacity:0.988" fill="#bbbbbb" d="M 286.5,63.5 C 286.027,64.9063 285.027,65.573 283.5,65.5C 283.973,64.0937 284.973,63.427 286.5,63.5 Z"/></g>
<g><path style="opacity:0.965" fill="#b2b2b2" d="M 283.5,65.5 C 283.027,66.9063 282.027,67.573 280.5,67.5C 280.973,66.0937 281.973,65.427 283.5,65.5 Z"/></g>
<g><path style="opacity:0.961" fill="#a7a7a7" d="M 59.5,66.5 C 61.5869,67.5846 62.9202,69.2512 63.5,71.5C 61.4131,70.4154 60.0798,68.7488 59.5,66.5 Z"/></g>
<g><path style="opacity:0.024" fill="#969696" d="M 418.5,69.5 C 420.027,69.427 421.027,70.0937 421.5,71.5C 419.973,71.573 418.973,70.9063 418.5,69.5 Z"/></g>
<g><path style="opacity:0.996" fill="#bbbbbb" d="M 280.5,67.5 C 279.415,69.5869 277.749,70.9202 275.5,71.5C 276.585,69.4131 278.251,68.0798 280.5,67.5 Z"/></g>
<g><path style="opacity:0.984" fill="#a8a8a8" d="M 66.5,74.5 C 69.5725,76.5691 71.9059,79.2358 73.5,82.5C 70.4275,80.4309 68.0941,77.7642 66.5,74.5 Z"/></g>
<g><path style="opacity:0.961" fill="#b2b2b2" d="M 274.5,72.5 C 273.415,74.5869 271.749,75.9202 269.5,76.5C 270.585,74.4131 272.251,73.0798 274.5,72.5 Z"/></g>
<g><path style="opacity:1" fill="#bababa" d="M 368.5,77.5 C 371.228,77.1706 373.562,77.8372 375.5,79.5C 372.933,79.2785 370.599,78.6118 368.5,77.5 Z"/></g>
<g><path style="opacity:0.965" fill="#b2b2b2" d="M 269.5,76.5 C 267.906,79.7642 265.573,82.4309 262.5,84.5C 264.094,81.2358 266.427,78.5691 269.5,76.5 Z"/></g>
<g><path style="opacity:0.886" fill="#b6b6b6" d="M 389.5,85.5 C 391.027,85.427 392.027,86.0937 392.5,87.5C 390.973,87.573 389.973,86.9063 389.5,85.5 Z"/></g>
<g><path style="opacity:0.784" fill="#a5a5a5" d="M 260.5,86.5 C 260.573,88.0269 259.906,89.0269 258.5,89.5C 258.427,87.9731 259.094,86.9731 260.5,86.5 Z"/></g>
<g><path style="opacity:0.91" fill="#b9b9b9" d="M 392.5,87.5 C 394.027,87.427 395.027,88.0937 395.5,89.5C 393.973,89.573 392.973,88.9063 392.5,87.5 Z"/></g>
<g><path style="opacity:0.008" fill="#9a9a9a" d="M 82.5,91.5 C 85.0892,92.4194 87.0892,94.086 88.5,96.5C 85.9108,95.5806 83.9108,93.914 82.5,91.5 Z"/></g>
<g><path style="opacity:0.914" fill="#b0b0b0" d="M 258.5,89.5 C 258.262,91.4044 257.262,92.7377 255.5,93.5C 255.738,91.5956 256.738,90.2623 258.5,89.5 Z"/></g>
<g><path style="opacity:0.875" fill="#ababab" d="M 396.5,90.5 C 398.749,91.0798 400.415,92.4131 401.5,94.5C 399.251,93.9202 397.585,92.5869 396.5,90.5 Z"/></g>
<g><path style="opacity:0.608" fill="#9d9d9d" d="M 255.5,93.5 C 255.573,95.0269 254.906,96.0269 253.5,96.5C 253.427,94.9731 254.094,93.9731 255.5,93.5 Z"/></g>
<g><path style="opacity:0.016" fill="#919191" d="M 294.5,95.5 C 294.027,96.9063 293.027,97.573 291.5,97.5C 291.973,96.0937 292.973,95.427 294.5,95.5 Z"/></g>
<g><path style="opacity:0.965" fill="#adadad" d="M 404.5,97.5 C 406.404,97.7376 407.738,98.7376 408.5,100.5C 406.596,100.262 405.262,99.2624 404.5,97.5 Z"/></g>
<g><path style="opacity:0.655" fill="#a4a4a4" d="M 508.5,97.5 C 509.906,97.9731 510.573,98.9731 510.5,100.5C 509.094,100.027 508.427,99.0269 508.5,97.5 Z"/></g>
<g><path style="opacity:0.565" fill="#9e9e9e" d="M 252.5,98.5 C 252.573,100.027 251.906,101.027 250.5,101.5C 250.427,99.9731 251.094,98.9731 252.5,98.5 Z"/></g>
<g><path style="opacity:0.008" fill="#949494" d="M 93.5,101.5 C 95.0269,101.427 96.0269,102.094 96.5,103.5C 94.9731,103.573 93.9731,102.906 93.5,101.5 Z"/></g>
<g><path style="opacity:0.91" fill="#bababa" d="M 408.5,100.5 C 410.027,100.427 411.027,101.094 411.5,102.5C 409.973,102.573 408.973,101.906 408.5,100.5 Z"/></g>
<g><path style="opacity:0.031" fill="#989898" d="M 287.5,101.5 C 287.573,103.027 286.906,104.027 285.5,104.5C 285.427,102.973 286.094,101.973 287.5,101.5 Z"/></g>
<g><path style="opacity:0.635" fill="#a5a5a5" d="M 411.5,102.5 C 413.027,102.427 414.027,103.094 414.5,104.5C 412.973,104.573 411.973,103.906 411.5,102.5 Z"/></g>
<g><path style="opacity:0.192" fill="#a6a6a6" d="M 437.5,105.5 C 439.031,104.075 438.698,103.409 436.5,103.5C 443.869,100.684 444.203,101.351 437.5,105.5 Z"/></g>
<g><path style="opacity:0.937" fill="#b4b4b4" d="M 437.5,105.5 C 436.738,107.262 435.404,108.262 433.5,108.5C 434.262,106.738 435.596,105.738 437.5,105.5 Z"/></g>
<g><path style="opacity:0.965" fill="#a8a8a8" d="M 58.5,110.5 C 62.1002,112.43 65.1002,115.097 67.5,118.5C 63.8998,116.57 60.8998,113.903 58.5,110.5 Z"/></g>
<g><path style="opacity:0.008" fill="#959595" d="M 104.5,110.5 C 106.027,110.427 107.027,111.094 107.5,112.5C 105.973,112.573 104.973,111.906 104.5,110.5 Z"/></g>
<g><path style="opacity:0.878" fill="#a6a6a6" d="M 433.5,108.5 C 432.5,110.167 431.167,111.5 429.5,112.5C 429.833,110.167 431.167,108.833 433.5,108.5 Z"/></g>
<g><path style="opacity:0.949" fill="#a7a7a7" d="M 72.5,123.5 C 74.4044,123.738 75.7377,124.738 76.5,126.5C 74.5956,126.262 73.2623,125.262 72.5,123.5 Z"/></g>
<g><path style="opacity:0.996" fill="#b4b4b4" d="M 77.5,127.5 C 79.7488,128.08 81.4154,129.413 82.5,131.5C 80.2512,130.92 78.5846,129.587 77.5,127.5 Z"/></g>
<g><path style="opacity:1" fill="#b7b7b7" d="M 129.5,127.5 C 130.71,127.932 131.71,128.599 132.5,129.5C 130.821,129.715 129.821,129.048 129.5,127.5 Z"/></g>
<g><path style="opacity:1" fill="#bababa" d="M 134.5,130.5 C 135.71,130.932 136.71,131.599 137.5,132.5C 135.821,132.715 134.821,132.048 134.5,130.5 Z"/></g>
<g><path style="opacity:0.757" fill="#ababab" d="M 432.5,132.5 C 434.027,132.427 435.027,133.094 435.5,134.5C 433.973,134.573 432.973,133.906 432.5,132.5 Z"/></g>
<g><path style="opacity:0.745" fill="#a1a1a1" d="M 84.5,133.5 C 86.0269,133.427 87.0269,134.094 87.5,135.5C 85.9731,135.573 84.9731,134.906 84.5,133.5 Z"/></g>
<g><path style="opacity:0.851" fill="#b7b7b7" d="M 447.5,137.5 C 447.833,136.833 448.167,136.167 448.5,135.5C 448.56,134.957 448.893,134.624 449.5,134.5C 450.639,136.396 449.973,137.396 447.5,137.5 Z"/></g>
<g><path style="opacity:0.992" fill="#b7b7b7" d="M 87.5,135.5 C 89.4044,135.738 90.7377,136.738 91.5,138.5C 89.5956,138.262 88.2623,137.262 87.5,135.5 Z"/></g>
<g><path style="opacity:0.016" fill="#959595" d="M 493.5,135.5 C 493.573,137.027 492.906,138.027 491.5,138.5C 491.427,136.973 492.094,135.973 493.5,135.5 Z"/></g>
<g><path style="opacity:0.992" fill="#b4b4b4" d="M 91.5,138.5 C 93.4044,138.738 94.7377,139.738 95.5,141.5C 93.5956,141.262 92.2623,140.262 91.5,138.5 Z"/></g>
<g><path style="opacity:1" fill="#bfbfbf" d="M 447.5,137.5 C 446.415,139.587 444.749,140.92 442.5,141.5C 443.585,139.413 445.251,138.08 447.5,137.5 Z"/></g>
<g><path style="opacity:0.871" fill="#b2b2b2" d="M 95.5,141.5 C 97.0269,141.427 98.0269,142.094 98.5,143.5C 96.9731,143.573 95.9731,142.906 95.5,141.5 Z"/></g>
<g><path style="opacity:0.757" fill="#a0a0a0" d="M 441.5,142.5 C 441.167,143.5 440.5,144.167 439.5,144.5C 439.5,143.167 440.167,142.5 441.5,142.5 Z"/></g>
<g><path style="opacity:0.925" fill="#b2b2b2" d="M 98.5,143.5 C 100.404,143.738 101.738,144.738 102.5,146.5C 100.596,146.262 99.2623,145.262 98.5,143.5 Z"/></g>
<g><path style="opacity:0.639" fill="#9f9f9f" d="M 102.5,146.5 C 104.027,146.427 105.027,147.094 105.5,148.5C 103.973,148.573 102.973,147.906 102.5,146.5 Z"/></g>
<g><path style="opacity:0.941" fill="#b4b4b4" d="M 438.5,145.5 C 438.262,147.404 437.262,148.738 435.5,149.5C 435.738,147.596 436.738,146.262 438.5,145.5 Z"/></g>
<g><path style="opacity:0.643" fill="#9f9f9f" d="M 105.5,148.5 C 107.027,148.427 108.027,149.094 108.5,150.5C 106.973,150.573 105.973,149.906 105.5,148.5 Z"/></g>
<g><path style="opacity:0.804" fill="#aeaeae" d="M 110.5,151.5 C 112.027,151.427 113.027,152.094 113.5,153.5C 111.973,153.573 110.973,152.906 110.5,151.5 Z"/></g>
<g><path style="opacity:0.6" fill="#9f9f9f" d="M 113.5,153.5 C 115.027,153.427 116.027,154.094 116.5,155.5C 114.973,155.573 113.973,154.906 113.5,153.5 Z"/></g>
<g><path style="opacity:0.682" fill="#a6a6a6" d="M 120.5,157.5 C 122.027,157.427 123.027,158.094 123.5,159.5C 121.973,159.573 120.973,158.906 120.5,157.5 Z"/></g>
<g><path style="opacity:0.198" fill="#8e8e8e" d="M 236.5,156.5 C 236.5,159.167 236.5,161.833 236.5,164.5C 233.941,164.802 231.607,164.468 229.5,163.5C 231.5,163.5 233.5,163.5 235.5,163.5C 235.198,160.941 235.532,158.607 236.5,156.5 Z"/></g>
<g><path style="opacity:0.529" fill="#9f9f9f" d="M 131.5,163.5 C 133.027,163.427 134.027,164.094 134.5,165.5C 132.973,165.573 131.973,164.906 131.5,163.5 Z"/></g>
<g><path style="opacity:0.831" fill="#b1b1b1" d="M 63.5,170.5 C 64.9063,170.973 65.573,171.973 65.5,173.5C 64.0937,173.027 63.427,172.027 63.5,170.5 Z"/></g>
<g><path style="opacity:0.918" fill="#aeaeae" d="M 65.5,173.5 C 67.2624,174.262 68.2624,175.596 68.5,177.5C 66.7376,176.738 65.7376,175.404 65.5,173.5 Z"/></g>
<g><path style="opacity:0.882" fill="#a9a9a9" d="M 68.5,177.5 C 70.2624,178.262 71.2624,179.596 71.5,181.5C 69.7376,180.738 68.7376,179.404 68.5,177.5 Z"/></g>
<g><path style="opacity:0.706" fill="#999999" d="M 34.5,180.5 C 35.404,181.209 35.7373,182.209 35.5,183.5C 33.8333,183.5 32.1667,183.5 30.5,183.5C 32.2191,182.978 33.5525,181.978 34.5,180.5 Z"/></g>
<g><path style="opacity:0.976" fill="#a4a4a4" d="M 73.5,183.5 C 77.1667,186.5 80.5,189.833 83.5,193.5C 79.1667,191.167 75.8333,187.833 73.5,183.5 Z"/></g>
<g><path style="opacity:0.8" fill="#afafaf" d="M 23.5,188.5 C 23.573,190.027 22.9063,191.027 21.5,191.5C 21.427,189.973 22.0937,188.973 23.5,188.5 Z"/></g>
<g><path style="opacity:0.91" fill="#bbbbbb" d="M 89.5,199.5 C 90.9063,199.973 91.573,200.973 91.5,202.5C 90.0937,202.027 89.427,201.027 89.5,199.5 Z"/></g>
<g><path style="opacity:0.996" fill="#bbbbbb" d="M 427.5,215.5 C 427.58,218.781 426.913,221.781 425.5,224.5C 425.42,221.219 426.087,218.219 427.5,215.5 Z"/></g>
<g><path style="opacity:0.69" fill="#a4a4a4" d="M 62.5,241.5 C 63.9063,241.973 64.573,242.973 64.5,244.5C 63.0937,244.027 62.427,243.027 62.5,241.5 Z"/></g>
<g><path style="opacity:0.996" fill="#ababab" d="M 69.5,251.5 C 72.8333,254.167 75.8333,257.167 78.5,260.5C 74.5,258.5 71.5,255.5 69.5,251.5 Z"/></g>
<g><path style="opacity:0.008" fill="#939393" d="M 43.5,267.5 C 44.9063,267.973 45.573,268.973 45.5,270.5C 44.0937,270.027 43.427,269.027 43.5,267.5 Z"/></g>
<g><path style="opacity:1" fill="#b9b9b9" d="M 89.5,268.5 C 90.7095,268.932 91.7095,269.599 92.5,270.5C 90.8212,270.715 89.8212,270.048 89.5,268.5 Z"/></g>
<g><path style="opacity:0.008" fill="#9d9d9d" d="M 49.5,274.5 C 52.5,276.833 55.1667,279.5 57.5,282.5C 53.8333,280.833 51.1667,278.167 49.5,274.5 Z"/></g>
<g><path style="opacity:0.953" fill="#b7b7b7" d="M 123.5,285.5 C 125.262,286.262 126.262,287.596 126.5,289.5C 124.738,288.738 123.738,287.404 123.5,285.5 Z"/></g>
<g><path style="opacity:0.918" fill="#bbbbbb" d="M 59.5,287.5 C 59.573,289.027 58.9063,290.027 57.5,290.5C 57.427,288.973 58.0937,287.973 59.5,287.5 Z"/></g>
<g><path style="opacity:0.565" fill="#a0a0a0" d="M 400.5,293.5 C 400.573,295.027 399.906,296.027 398.5,296.5C 398.427,294.973 399.094,293.973 400.5,293.5 Z"/></g>
<g><path style="opacity:0.063" fill="#989898" d="M 124.5,304.5 C 124.573,306.027 123.906,307.027 122.5,307.5C 122.427,305.973 123.094,304.973 124.5,304.5 Z"/></g>
<g><path style="opacity:0.573" fill="#9e9e9e" d="M 394.5,304.5 C 394.573,306.027 393.906,307.027 392.5,307.5C 392.427,305.973 393.094,304.973 394.5,304.5 Z"/></g>
<g><path style="opacity:0.09" fill="#999999" d="M 101.5,312.5 C 99.5,313.167 97.5,313.833 95.5,314.5C 94.9569,314.44 94.6236,314.107 94.5,313.5C 96.7427,312.526 99.076,312.192 101.5,312.5 Z"/></g>
<g><path style="opacity:0.659" fill="#a3a3a3" d="M 390.5,311.5 C 390.573,313.027 389.906,314.027 388.5,314.5C 388.427,312.973 389.094,311.973 390.5,311.5 Z"/></g>
<g><path style="opacity:0.702" fill="#acacac" d="M 95.5,314.5 C 97.5869,315.585 98.9202,317.251 99.5,319.5C 97.4131,318.415 96.0798,316.749 95.5,314.5 Z"/></g>
<g><path style="opacity:0.792" fill="#acacac" d="M 387.5,316.5 C 387.573,318.027 386.906,319.027 385.5,319.5C 385.427,317.973 386.094,316.973 387.5,316.5 Z"/></g>
<g><path style="opacity:0.757" fill="#a7a7a7" d="M 385.5,319.5 C 385.573,321.027 384.906,322.027 383.5,322.5C 383.427,320.973 384.094,319.973 385.5,319.5 Z"/></g>
<g><path style="opacity:0.973" fill="#ababab" d="M 101.5,321.5 C 103.833,323.167 105.833,325.167 107.5,327.5C 104.5,326.5 102.5,324.5 101.5,321.5 Z"/></g>
<g><path style="opacity:0.733" fill="#a5a5a5" d="M 383.5,322.5 C 383.573,324.027 382.906,325.027 381.5,325.5C 381.427,323.973 382.094,322.973 383.5,322.5 Z"/></g>
<g><path style="opacity:0.808" fill="#aaaaaa" d="M 381.5,325.5 C 381.573,327.027 380.906,328.027 379.5,328.5C 379.427,326.973 380.094,325.973 381.5,325.5 Z"/></g>
<g><path style="opacity:0.875" fill="#b3b3b3" d="M 379.5,328.5 C 379.573,330.027 378.906,331.027 377.5,331.5C 377.427,329.973 378.094,328.973 379.5,328.5 Z"/></g>
<g><path style="opacity:0.965" fill="#bbbbbb" d="M 377.5,331.5 C 377.262,333.404 376.262,334.738 374.5,335.5C 374.738,333.596 375.738,332.262 377.5,331.5 Z"/></g>
<g><path style="opacity:0.988" fill="#b5b5b5" d="M 370.5,340.5 C 370.262,342.404 369.262,343.738 367.5,344.5C 367.738,342.596 368.738,341.262 370.5,340.5 Z"/></g>
<g><path style="opacity:0.016" fill="#9c9c9c" d="M 80.5,343.5 C 83.5,345.833 86.1667,348.5 88.5,351.5C 84.8333,349.833 82.1667,347.167 80.5,343.5 Z"/></g>
<g><path style="opacity:0.875" fill="#a8a8a8" d="M 365.5,346.5 C 364.92,348.749 363.587,350.415 361.5,351.5C 362.08,349.251 363.413,347.585 365.5,346.5 Z"/></g>
<g><path style="opacity:0.008" fill="#949494" d="M 399.5,352.5 C 399.573,354.027 398.906,355.027 397.5,355.5C 397.427,353.973 398.094,352.973 399.5,352.5 Z"/></g>
<g><path style="opacity:0.816" fill="#a8a8a8" d="M 91.5,354.5 C 93.0269,354.427 94.0269,355.094 94.5,356.5C 92.9731,356.573 91.9731,355.906 91.5,354.5 Z"/></g>
<g><path style="opacity:0.686" fill="#a5a5a5" d="M 172.5,356.5 C 173.906,356.973 174.573,357.973 174.5,359.5C 173.094,359.027 172.427,358.027 172.5,356.5 Z"/></g>
<g><path style="opacity:0.894" fill="#b6b6b6" d="M 98.5,359.5 C 100.027,359.427 101.027,360.094 101.5,361.5C 99.9731,361.573 98.9731,360.906 98.5,359.5 Z"/></g>
<g><path style="opacity:0.89" fill="#b8b8b8" d="M 101.5,361.5 C 103.027,361.427 104.027,362.094 104.5,363.5C 102.973,363.573 101.973,362.906 101.5,361.5 Z"/></g>
<g><path style="opacity:0.008" fill="#939393" d="M 392.5,361.5 C 392.573,363.027 391.906,364.027 390.5,364.5C 390.427,362.973 391.094,361.973 392.5,361.5 Z"/></g>
<g><path style="opacity:0.682" fill="#a5a5a5" d="M 104.5,363.5 C 106.027,363.427 107.027,364.094 107.5,365.5C 105.973,365.573 104.973,364.906 104.5,363.5 Z"/></g>
<g><path style="opacity:0.871" fill="#b0b0b0" d="M 357.5,355.5 C 352.167,362.833 345.833,369.167 338.5,374.5C 344.5,367.833 350.833,361.5 357.5,355.5 Z"/></g>
<g><path style="opacity:0.024" fill="#989898" d="M 386.5,368.5 C 386.573,370.027 385.906,371.027 384.5,371.5C 384.427,369.973 385.094,368.973 386.5,368.5 Z"/></g>
<g><path style="opacity:0.373" fill="#9a9a9a" d="M 119.5,371.5 C 122.167,372.167 122.167,372.833 119.5,373.5C 119.5,372.833 119.5,372.167 119.5,371.5 Z"/></g>
<g><path style="opacity:0.996" fill="#c0c0c0" d="M 337.5,375.5 C 336.415,377.587 334.749,378.92 332.5,379.5C 333.585,377.413 335.251,376.08 337.5,375.5 Z"/></g>
<g><path style="opacity:0.016" fill="#919191" d="M 379.5,376.5 C 379.262,378.404 378.262,379.738 376.5,380.5C 376.738,378.596 377.738,377.262 379.5,376.5 Z"/></g>
<g><path style="opacity:0.957" fill="#b8b8b8" d="M 331.5,380.5 C 330.738,382.262 329.404,383.262 327.5,383.5C 328.262,381.738 329.596,380.738 331.5,380.5 Z"/></g>
<g><path style="opacity:0.918" fill="#afafaf" d="M 327.5,383.5 C 326.738,385.262 325.404,386.262 323.5,386.5C 324.262,384.738 325.596,383.738 327.5,383.5 Z"/></g>
<g><path style="opacity:1" fill="#bbbbbb" d="M 86.5,385.5 C 84.5615,387.163 82.2282,387.829 79.5,387.5C 81.5994,386.388 83.9327,385.721 86.5,385.5 Z"/></g>
<g><path style="opacity:0.922" fill="#b1b1b1" d="M 323.5,386.5 C 322.738,388.262 321.404,389.262 319.5,389.5C 320.262,387.738 321.596,386.738 323.5,386.5 Z"/></g>
<g><path style="opacity:0.973" fill="#b5b5b5" d="M 319.5,389.5 C 319.027,390.906 318.027,391.573 316.5,391.5C 316.973,390.094 317.973,389.427 319.5,389.5 Z"/></g>
<g><path style="opacity:0.016" fill="#919191" d="M 367.5,389.5 C 366.738,391.262 365.404,392.262 363.5,392.5C 364.262,390.738 365.596,389.738 367.5,389.5 Z"/></g>
<g><path style="opacity:0.961" fill="#b0b0b0" d="M 316.5,391.5 C 316.027,392.906 315.027,393.573 313.5,393.5C 313.973,392.094 314.973,391.427 316.5,391.5 Z"/></g>
<g><path style="opacity:0.957" fill="#afafaf" d="M 313.5,393.5 C 313.027,394.906 312.027,395.573 310.5,395.5C 310.973,394.094 311.973,393.427 313.5,393.5 Z"/></g>
<g><path style="opacity:0.98" fill="#b8b8b8" d="M 310.5,395.5 C 310.027,396.906 309.027,397.573 307.5,397.5C 307.973,396.094 308.973,395.427 310.5,395.5 Z"/></g>
<g><path style="opacity:0.953" fill="#b7b7b7" d="M 3.5,396.5 C 3.26242,398.404 2.26242,399.738 0.5,400.5C 0.737579,398.596 1.73758,397.262 3.5,396.5 Z"/></g>
<g><path style="opacity:0.961" fill="#afafaf" d="M 305.5,398.5 C 305.027,399.906 304.027,400.573 302.5,400.5C 302.973,399.094 303.973,398.427 305.5,398.5 Z"/></g>
<g><path style="opacity:0.957" fill="#adadad" d="M 298.5,402.5 C 298.027,403.906 297.027,404.573 295.5,404.5C 295.973,403.094 296.973,402.427 298.5,402.5 Z"/></g>
<g><path style="opacity:0.961" fill="#aeaeae" d="M 2.5,416.5 C 4.40435,416.738 5.73769,417.738 6.5,419.5C 4.59565,419.262 3.26231,418.262 2.5,416.5 Z"/></g>
<g><path style="opacity:0.608" fill="#9b9b9b" d="M 78.5,418.5 C 78.8333,419.167 79.1667,419.833 79.5,420.5C 75.1943,419.934 74.861,419.268 78.5,418.5 Z"/></g>
<g><path style="opacity:0.655" fill="#a3a3a3" d="M 6.5,419.5 C 8.02694,419.427 9.02694,420.094 9.5,421.5C 7.97306,421.573 6.97306,420.906 6.5,419.5 Z"/></g>
<g><path style="opacity:0.745" fill="#aaaaaa" d="M 13.5,423.5 C 15.0269,423.427 16.0269,424.094 16.5,425.5C 14.9731,425.573 13.9731,424.906 13.5,423.5 Z"/></g>
<g><path style="opacity:1" fill="#c0c0c0" d="M 238.5,426.5 C 236.162,428.04 233.495,428.706 230.5,428.5C 232.905,427.232 235.572,426.565 238.5,426.5 Z"/></g>
<g><path style="opacity:0.608" fill="#a1a1a1" d="M 22.5,428.5 C 24.0269,428.427 25.0269,429.094 25.5,430.5C 23.9731,430.573 22.9731,429.906 22.5,428.5 Z"/></g>
</svg>
