<?xml version="1.0" standalone="no"?>
<!DOCTYPE svg PUBLIC "-//W3C//DTD SVG 20010904//EN"
 "http://www.w3.org/TR/2001/REC-SVG-20010904/DTD/svg10.dtd">
<svg version="1.0" xmlns="http://www.w3.org/2000/svg"
 width="512.000000pt" height="512.000000pt" viewBox="0 0 512.000000 512.000000"
 preserveAspectRatio="xMidYMid meet">

<g transform="translate(0.000000,512.000000) scale(0.100000,-0.100000)"
fill="#000000" stroke="none">
<path d="M3545 3970 c-3 -5 10 -40 28 -77 33 -66 74 -181 98 -273 10 -40 31
-579 29 -765 0 -38 -3 -385 -6 -771 l-4 -701 37 -11 c74 -22 219 -100 299
-160 106 -80 175 -155 280 -308 48 -68 90 -124 93 -123 3 0 37 36 75 80 364
415 587 930 635 1463 l9 100 -776 778 c-426 428 -779 778 -783 778 -4 0 -10
-4 -14 -10z"/>
<path d="M2921 1854 c0 -11 3 -14 6 -6 3 7 2 16 -1 19 -3 4 -6 -2 -5 -13z"/>
</g>
</svg>
