<?xml version="1.0" standalone="no"?>
<!DOCTYPE svg PUBLIC "-//W3C//DTD SVG 20010904//EN"
 "http://www.w3.org/TR/2001/REC-SVG-20010904/DTD/svg10.dtd">
<svg version="1.0" xmlns="http://www.w3.org/2000/svg"
 width="512.000000pt" height="512.000000pt" viewBox="0 0 512.000000 512.000000"
 preserveAspectRatio="xMidYMid meet">

<g transform="translate(0.000000,512.000000) scale(0.100000,-0.100000)"
fill="#000000" stroke="none">
<path d="M2315 5109 c-1138 -118 -2065 -964 -2270 -2073 -102 -555 -27 -1101
219 -1601 146 -295 287 -488 532 -723 80 -78 150 -142 155 -142 5 0 9 132 9
305 l0 305 275 0 275 0 0 -479 0 -479 103 -41 c198 -77 406 -132 622 -163 141
-20 563 -17 700 5 210 35 469 108 638 181 l37 16 0 480 0 480 275 0 275 0 0
-311 0 -311 43 34 c67 52 277 265 347 352 224 277 397 621 490 971 60 224 74
345 75 620 0 262 -7 337 -51 555 -76 371 -278 794 -519 1085 -420 507 -972
819 -1625 920 -126 19 -477 28 -605 14z m445 -674 c12 -37 7 -103 -11 -136
-11 -22 -11 -22 44 -16 30 3 59 2 63 -2 5 -4 38 -13 74 -20 78 -15 161 -55
249 -120 130 -96 262 -153 389 -167 l64 -7 -59 -59 c-32 -32 -92 -82 -134
-109 l-76 -50 14 -52 c7 -28 13 -90 13 -138 0 -81 1 -86 25 -97 29 -14 51 -54
66 -122 28 -133 -54 -328 -147 -346 l-34 -6 0 -69 c0 -41 -7 -86 -17 -111 -9
-23 -66 -106 -125 -185 l-108 -142 0 -229 0 -230 -245 -197 -245 -197 -152
123 c-84 68 -195 157 -245 198 l-93 74 0 229 0 229 -108 142 c-59 79 -116 162
-125 185 -10 25 -17 70 -17 111 0 67 -1 69 -28 74 -67 14 -124 93 -148 208
-24 114 4 235 60 261 25 11 26 15 26 87 0 93 22 199 54 266 13 27 33 82 45
120 52 177 190 301 363 325 35 5 96 14 136 20 41 6 99 19 130 30 60 21 201
111 241 154 28 30 44 23 61 -29z"/>
</g>
</svg>
