<?xml version="1.0" encoding="UTF-8"?>
<!DOCTYPE svg PUBLIC "-//W3C//DTD SVG 1.1//EN" "http://www.w3.org/Graphics/SVG/1.1/DTD/svg11.dtd">
<svg xmlns="http://www.w3.org/2000/svg" version="1.1" width="512px" height="512px" style="shape-rendering:geometricPrecision; text-rendering:geometricPrecision; image-rendering:optimizeQuality; fill-rule:evenodd; clip-rule:evenodd" xmlns:xlink="http://www.w3.org/1999/xlink">
<g><path style="opacity:0.997" fill="#5bbb95" d="M 232.5,-0.5 C 247.833,-0.5 263.167,-0.5 278.5,-0.5C 368.144,10.3879 435.644,54.7213 481,132.5C 497.81,163.429 507.643,196.429 510.5,231.5C 448.167,169.5 385.833,107.5 323.5,45.5C 300.693,41.9464 278.026,43.2797 255.5,49.5C 233.123,43.326 210.456,41.9926 187.5,45.5C 190.407,52.7243 193.407,59.891 196.5,67C 177.979,74.42 161.646,85.0867 147.5,99C 147.728,99.3988 148.062,99.5654 148.5,99.5C 153.5,104.833 158.5,110.167 163.5,115.5C 163.083,127.924 163.75,140.257 165.5,152.5C 156.027,157.093 151.36,164.759 151.5,175.5C 152.1,184.494 152.6,193.494 153,202.5C 154.666,209.537 158.499,214.87 164.5,218.5C 170.833,225.5 177.5,232.167 184.5,238.5C 188.993,246.143 193.993,253.476 199.5,260.5C 199.5,281.833 199.5,303.167 199.5,324.5C 171.165,324.333 142.831,324.5 114.5,325C 89.7659,329.732 73.9326,344.232 67,368.5C 65.5761,388.126 65.0761,407.793 65.5,427.5C 27.483,385.116 5.48298,335.449 -0.5,278.5C -0.5,263.167 -0.5,247.833 -0.5,232.5C 10.3875,142.857 54.7208,75.3573 132.5,30C 163.971,13.3053 197.304,3.1386 232.5,-0.5 Z"/></g>
<g><path style="opacity:1" fill="#513719" d="M 255.5,49.5 C 255.5,79.8333 255.5,110.167 255.5,140.5C 247.786,140.705 240.119,140.205 232.5,139C 221.513,136.725 210.846,133.558 200.5,129.5C 197.038,146.808 193.705,164.141 190.5,181.5C 185.901,181.8 181.401,181.467 177,180.5C 171.243,171.983 167.41,162.65 165.5,152.5C 163.75,140.257 163.083,127.924 163.5,115.5C 164.236,112.305 164.903,108.971 165.5,105.5C 160.134,102.711 154.467,100.711 148.5,99.5C 148.062,99.5654 147.728,99.3988 147.5,99C 161.646,85.0867 177.979,74.42 196.5,67C 193.407,59.891 190.407,52.7243 187.5,45.5C 210.456,41.9926 233.123,43.326 255.5,49.5 Z"/></g>
<g><path style="opacity:1" fill="#442d10" d="M 323.5,45.5 C 320.642,52.7179 317.642,59.8845 314.5,67C 333.223,74.0648 349.556,84.7315 363.5,99C 357.489,101.004 351.489,103.004 345.5,105C 347.014,112.873 347.681,120.873 347.5,129C 347.358,136.848 347.025,144.682 346.5,152.5C 344.016,162.761 339.682,172.261 333.5,181C 329.179,181.499 324.846,181.666 320.5,181.5C 317.038,164.192 313.705,146.859 310.5,129.5C 292.976,137.072 274.643,141.072 255.5,141.5C 255.5,141.167 255.5,140.833 255.5,140.5C 255.5,110.167 255.5,79.8333 255.5,49.5C 278.026,43.2797 300.693,41.9464 323.5,45.5 Z"/></g>
<g><path style="opacity:1" fill="#309167" d="M 323.5,45.5 C 385.833,107.5 448.167,169.5 510.5,231.5C 510.5,232.167 510.833,232.5 511.5,232.5C 511.5,247.5 511.5,262.5 511.5,277.5C 505.811,334.86 483.811,384.86 445.5,427.5C 445.925,407.46 445.425,387.46 444,367.5C 436.77,344.269 421.27,330.103 397.5,325C 368.835,324.5 340.169,324.333 311.5,324.5C 311.5,303.5 311.5,282.5 311.5,261.5C 321.035,249.108 328.535,235.441 334,220.5C 344.831,220.922 352.498,216.256 357,206.5C 359.148,193.586 359.814,180.586 359,167.5C 356.82,160.822 352.653,155.822 346.5,152.5C 347.025,144.682 347.358,136.848 347.5,129C 347.681,120.873 347.014,112.873 345.5,105C 351.489,103.004 357.489,101.004 363.5,99C 349.556,84.7315 333.223,74.0648 314.5,67C 317.642,59.8845 320.642,52.7179 323.5,45.5 Z"/></g>
<g><path style="opacity:1" fill="#379065" d="M 148.5,99.5 C 154.467,100.711 160.134,102.711 165.5,105.5C 164.903,108.971 164.236,112.305 163.5,115.5C 158.5,110.167 153.5,104.833 148.5,99.5 Z"/></g>
<g><path style="opacity:1" fill="#fec296" d="M 255.5,140.5 C 255.5,140.833 255.5,141.167 255.5,141.5C 255.5,190.5 255.5,239.5 255.5,288.5C 232.947,286.557 214.28,277.224 199.5,260.5C 193.993,253.476 188.993,246.143 184.5,238.5C 181.909,232.565 179.409,226.565 177,220.5C 172.873,219.736 168.707,219.069 164.5,218.5C 158.499,214.87 154.666,209.537 153,202.5C 152.6,193.494 152.1,184.494 151.5,175.5C 151.36,164.759 156.027,157.093 165.5,152.5C 167.41,162.65 171.243,171.983 177,180.5C 181.401,181.467 185.901,181.8 190.5,181.5C 193.705,164.141 197.038,146.808 200.5,129.5C 210.846,133.558 221.513,136.725 232.5,139C 240.119,140.205 247.786,140.705 255.5,140.5 Z"/></g>
<g><path style="opacity:1" fill="#e9a577" d="M 346.5,152.5 C 352.653,155.822 356.82,160.822 359,167.5C 359.814,180.586 359.148,193.586 357,206.5C 352.498,216.256 344.831,220.922 334,220.5C 328.535,235.441 321.035,249.108 311.5,261.5C 296.275,277.445 277.608,286.445 255.5,288.5C 255.5,239.5 255.5,190.5 255.5,141.5C 274.643,141.072 292.976,137.072 310.5,129.5C 313.705,146.859 317.038,164.192 320.5,181.5C 324.846,181.666 329.179,181.499 333.5,181C 339.682,172.261 344.016,162.761 346.5,152.5 Z"/></g>
<g><path style="opacity:1" fill="#3a946a" d="M 164.5,218.5 C 168.707,219.069 172.873,219.736 177,220.5C 179.409,226.565 181.909,232.565 184.5,238.5C 177.5,232.167 170.833,225.5 164.5,218.5 Z"/></g>
<g><path style="opacity:1" fill="#eaa678" d="M 199.5,260.5 C 214.28,277.224 232.947,286.557 255.5,288.5C 255.5,300.5 255.5,312.5 255.5,324.5C 237.167,324.5 218.833,324.5 200.5,324.5C 200.167,324.5 199.833,324.5 199.5,324.5C 199.5,303.167 199.5,281.833 199.5,260.5 Z"/></g>
<g><path style="opacity:1" fill="#d38c5b" d="M 311.5,261.5 C 311.5,282.5 311.5,303.5 311.5,324.5C 311.167,324.5 310.833,324.5 310.5,324.5C 292.167,324.5 273.833,324.5 255.5,324.5C 255.5,312.5 255.5,300.5 255.5,288.5C 277.608,286.445 296.275,277.445 311.5,261.5 Z"/></g>
<g><path style="opacity:1" fill="#6a6b6b" d="M 199.5,324.5 C 199.833,324.5 200.167,324.5 200.5,324.5C 218.052,353.708 236.385,382.375 255.5,410.5C 255.833,410.5 256.167,410.5 256.5,410.5C 255.507,444.094 255.174,477.76 255.5,511.5C 247.833,511.5 240.167,511.5 232.5,511.5C 205.829,508.749 180.163,502.082 155.5,491.5C 156.498,465.339 156.831,439.005 156.5,412.5C 145.833,412.5 135.167,412.5 124.5,412.5C 124.5,433.5 124.5,454.5 124.5,475.5C 102.074,463.09 82.4069,447.09 65.5,427.5C 65.0761,407.793 65.5761,388.126 67,368.5C 73.9326,344.232 89.7659,329.732 114.5,325C 142.831,324.5 171.165,324.333 199.5,324.5 Z"/></g>
<g><path style="opacity:1" fill="#fec296" d="M 200.5,324.5 C 218.833,324.5 237.167,324.5 255.5,324.5C 255.5,353.167 255.5,381.833 255.5,410.5C 236.385,382.375 218.052,353.708 200.5,324.5 Z"/></g>
<g><path style="opacity:1" fill="#e9a578" d="M 255.5,324.5 C 273.833,324.5 292.167,324.5 310.5,324.5C 292.922,353.416 274.922,382.082 256.5,410.5C 256.167,410.5 255.833,410.5 255.5,410.5C 255.5,381.833 255.5,353.167 255.5,324.5 Z"/></g>
<g><path style="opacity:1" fill="#585959" d="M 310.5,324.5 C 310.833,324.5 311.167,324.5 311.5,324.5C 340.169,324.333 368.835,324.5 397.5,325C 421.27,330.103 436.77,344.269 444,367.5C 445.425,387.46 445.925,407.46 445.5,427.5C 428.593,447.09 408.926,463.09 386.5,475.5C 386.5,454.5 386.5,433.5 386.5,412.5C 375.833,412.5 365.167,412.5 354.5,412.5C 354.169,439.005 354.502,465.339 355.5,491.5C 330.837,502.082 305.171,508.749 278.5,511.5C 270.833,511.5 263.167,511.5 255.5,511.5C 255.174,477.76 255.507,444.094 256.5,410.5C 274.922,382.082 292.922,353.416 310.5,324.5 Z"/></g>
<g><path style="opacity:1" fill="#585959" d="M 155.5,491.5 C 144.406,487.454 134.073,482.121 124.5,475.5C 124.5,454.5 124.5,433.5 124.5,412.5C 135.167,412.5 145.833,412.5 156.5,412.5C 156.831,439.005 156.498,465.339 155.5,491.5 Z"/></g>
<g><path style="opacity:1" fill="#3a3b3b" d="M 386.5,475.5 C 376.927,482.121 366.594,487.454 355.5,491.5C 354.502,465.339 354.169,439.005 354.5,412.5C 365.167,412.5 375.833,412.5 386.5,412.5C 386.5,433.5 386.5,454.5 386.5,475.5 Z"/></g>
</svg>
