<?xml version="1.0" standalone="no"?>
<!DOCTYPE svg PUBLIC "-//W3C//DTD SVG 20010904//EN"
 "http://www.w3.org/TR/2001/REC-SVG-20010904/DTD/svg10.dtd">
<svg version="1.0" xmlns="http://www.w3.org/2000/svg"
 width="512.000000pt" height="512.000000pt" viewBox="0 0 512.000000 512.000000"
 preserveAspectRatio="xMidYMid meet">

<g transform="translate(0.000000,512.000000) scale(0.100000,-0.100000)"
fill="#000000" stroke="none">
<path d="M1341 2004 c-174 -47 -313 -185 -365 -363 -14 -47 -16 -127 -16 -567
l0 -512 76 -57 c460 -346 1032 -522 1634 -502 363 12 676 91 1015 257 138 67
376 214 453 279 l22 19 0 514 c0 566 0 561 -63 683 -40 76 -136 172 -207 207
-109 54 -145 58 -506 58 l-331 0 -11 -66 c-30 -179 -182 -351 -338 -380 l-34
-6 0 -160 0 -160 -29 -28 c-51 -52 -111 -52 -162 0 l-29 28 0 160 0 160 -34 6
c-101 19 -242 132 -293 237 -24 49 -53 150 -53 186 l0 23 -337 -1 c-262 0
-350 -4 -392 -15z"/>
</g>
</svg>
