<?xml version="1.0" standalone="no"?>
<!DOCTYPE svg PUBLIC "-//W3C//DTD SVG 20010904//EN"
 "http://www.w3.org/TR/2001/REC-SVG-20010904/DTD/svg10.dtd">
<svg version="1.0" xmlns="http://www.w3.org/2000/svg"
 width="512.000000pt" height="512.000000pt" viewBox="0 0 512.000000 512.000000"
 preserveAspectRatio="xMidYMid meet">

<g transform="translate(0.000000,512.000000) scale(0.100000,-0.100000)"
fill="#000000" stroke="none">
<path d="M2375 4773 c-292 -38 -544 -161 -750 -366 -195 -195 -313 -421 -360
-691 -13 -75 -15 -222 -15 -952 l0 -864 -53 0 c-175 0 -404 -151 -495 -328
-70 -135 -74 -158 -79 -437 l-5 -250 148 -145 c229 -224 409 -351 689 -486
336 -162 658 -239 1055 -251 417 -12 803 75 1191 267 251 125 436 258 653 470
l148 145 -5 250 c-5 279 -9 302 -79 437 -91 176 -320 328 -494 328 l-53 0 -3
903 -3 902 -32 118 c-18 65 -54 165 -82 222 -60 127 -160 275 -206 306 -18 13
-32 26 -29 30 7 11 -128 132 -203 182 -225 149 -473 219 -772 216 -75 -1 -149
-4 -166 -6z m220 -933 c46 -66 200 -206 276 -251 124 -74 215 -101 357 -107
94 -3 142 0 207 13 79 17 86 17 110 1 14 -9 25 -21 25 -27 0 -6 4 -8 9 -5 12
8 58 -47 77 -93 13 -30 15 -63 10 -196 -3 -88 -11 -177 -17 -198 -22 -81 -111
-147 -196 -147 l-48 0 -44 -96 c-56 -120 -144 -254 -220 -335 l-60 -63 -3
-236 -3 -237 -47 -94 c-84 -170 -206 -291 -374 -375 l-94 -46 -94 46 c-168 84
-290 205 -374 375 l-47 94 -3 235 -3 235 -61 66 c-81 88 -164 215 -218 333
l-45 98 -48 0 c-86 0 -175 67 -196 147 -5 21 -15 101 -21 178 -14 178 -2 225
71 298 28 29 53 46 60 42 6 -4 15 -2 19 6 7 10 23 9 88 -5 62 -15 106 -17 203
-14 143 6 234 33 359 107 80 48 210 167 266 243 20 26 39 48 43 48 5 0 21 -18
36 -40z"/>
</g>
</svg>
