<?xml version="1.0" encoding="UTF-8"?>
<!DOCTYPE svg PUBLIC "-//W3C//DTD SVG 1.1//EN" "http://www.w3.org/Graphics/SVG/1.1/DTD/svg11.dtd">
<svg xmlns="http://www.w3.org/2000/svg" version="1.1" width="512px" height="512px" style="shape-rendering:geometricPrecision; text-rendering:geometricPrecision; image-rendering:optimizeQuality; fill-rule:evenodd; clip-rule:evenodd" xmlns:xlink="http://www.w3.org/1999/xlink">
<g><path style="opacity:0.997" fill="#b6c858" d="M 232.5,-0.5 C 247.833,-0.5 263.167,-0.5 278.5,-0.5C 368.144,10.3879 435.644,54.7213 481,132.5C 497.695,163.971 507.861,197.304 511.5,232.5C 511.5,247.833 511.5,263.167 511.5,278.5C 510.205,287.894 508.539,297.228 506.5,306.5C 444.084,242.583 381.084,179.083 317.5,116C 316.906,115.536 316.239,115.369 315.5,115.5C 300.685,95.4259 280.685,85.4259 255.5,85.5C 219.69,86.99 195.857,104.657 184,138.5C 182.153,147.734 180.987,157.067 180.5,166.5C 173.449,162.662 168.282,164.329 165,171.5C 160.55,186.532 163.717,199.699 174.5,211C 176.74,211.977 179.073,212.477 181.5,212.5C 179.922,222.457 182.089,231.457 188,239.5C 194.673,247.536 200.839,255.87 206.5,264.5C 206.5,279.5 206.5,294.5 206.5,309.5C 183.831,309.333 161.164,309.5 138.5,310C 115.451,314.715 101.284,328.549 96,351.5C 95.5,386.165 95.3333,420.832 95.5,455.5C 39.1999,409.914 7.19989,350.914 -0.5,278.5C -0.5,263.167 -0.5,247.833 -0.5,232.5C 10.3875,142.857 54.7208,75.3573 132.5,30C 163.971,13.3053 197.304,3.1386 232.5,-0.5 Z"/></g>
<g><path style="opacity:1" fill="#e7d0cf" d="M 255.5,85.5 C 255.5,153.5 255.5,221.5 255.5,289.5C 240.425,292.197 227.591,288.197 217,277.5C 214.015,272.689 210.515,268.356 206.5,264.5C 200.839,255.87 194.673,247.536 188,239.5C 182.089,231.457 179.922,222.457 181.5,212.5C 179.073,212.477 176.74,211.977 174.5,211C 163.717,199.699 160.55,186.532 165,171.5C 168.282,164.329 173.449,162.662 180.5,166.5C 180.987,157.067 182.153,147.734 184,138.5C 195.857,104.657 219.69,86.99 255.5,85.5 Z"/></g>
<g><path style="opacity:1" fill="#e3c4c3" d="M 255.5,85.5 C 280.685,85.4259 300.685,95.4259 315.5,115.5C 325.932,130.807 330.932,147.807 330.5,166.5C 337.551,162.662 342.718,164.329 346,171.5C 350.449,186.535 347.283,199.701 336.5,211C 334.26,211.977 331.927,212.477 329.5,212.5C 331.078,222.457 328.911,231.457 323,239.5C 316.759,246.985 310.759,254.652 305,262.5C 304.506,264.134 304.34,265.801 304.5,267.5C 303.448,267.351 302.448,267.517 301.5,268C 297.069,273.521 292.402,278.854 287.5,284C 285.512,284.18 283.512,284.014 281.5,283.5C 281.5,284.833 281.5,286.167 281.5,287.5C 272.96,289.295 264.293,289.961 255.5,289.5C 255.5,221.5 255.5,153.5 255.5,85.5 Z"/></g>
<g><path style="opacity:1" fill="#89aa3b" d="M 315.5,115.5 C 316.239,115.369 316.906,115.536 317.5,116C 381.084,179.083 444.084,242.583 506.5,306.5C 494.223,367.422 463.89,417.088 415.5,455.5C 415.667,420.832 415.5,386.165 415,351.5C 409.724,328.558 395.558,314.724 372.5,310C 349.836,309.5 327.169,309.333 304.5,309.5C 304.5,295.5 304.5,281.5 304.5,267.5C 304.34,265.801 304.506,264.134 305,262.5C 310.759,254.652 316.759,246.985 323,239.5C 328.911,231.457 331.078,222.457 329.5,212.5C 331.927,212.477 334.26,211.977 336.5,211C 347.283,199.701 350.449,186.535 346,171.5C 342.718,164.329 337.551,162.662 330.5,166.5C 330.932,147.807 325.932,130.807 315.5,115.5 Z"/></g>
<g><path style="opacity:1" fill="#e3c3c3" d="M 206.5,264.5 C 210.515,268.356 214.015,272.689 217,277.5C 227.591,288.197 240.425,292.197 255.5,289.5C 255.5,323.833 255.5,358.167 255.5,392.5C 256.5,392.5 257.5,392.5 258.5,392.5C 257.791,393.404 256.791,393.737 255.5,393.5C 250.738,393.037 247.238,390.704 245,386.5C 244.5,375.839 244.333,365.172 244.5,354.5C 221.032,348.693 208.365,333.693 206.5,309.5C 206.5,294.5 206.5,279.5 206.5,264.5 Z"/></g>
<g><path style="opacity:1" fill="#d8b8b8" d="M 304.5,267.5 C 304.5,281.5 304.5,295.5 304.5,309.5C 302.603,333.721 289.937,348.721 266.5,354.5C 266.667,365.172 266.5,375.839 266,386.5C 264.52,389.817 262.02,391.817 258.5,392.5C 257.5,392.5 256.5,392.5 255.5,392.5C 255.5,358.167 255.5,323.833 255.5,289.5C 264.293,289.961 272.96,289.295 281.5,287.5C 281.5,286.167 281.5,284.833 281.5,283.5C 283.512,284.014 285.512,284.18 287.5,284C 292.402,278.854 297.069,273.521 301.5,268C 302.448,267.517 303.448,267.351 304.5,267.5 Z"/></g>
<g><path style="opacity:1" fill="#fefefe" d="M 206.5,309.5 C 208.365,333.693 221.032,348.693 244.5,354.5C 244.333,365.172 244.5,375.839 245,386.5C 247.238,390.704 250.738,393.037 255.5,393.5C 255.333,407.837 255.5,422.171 256,436.5C 256.5,437 257,437.5 257.5,438C 254.876,441.421 254.876,444.921 257.5,448.5C 255.527,469.336 254.86,490.336 255.5,511.5C 247.833,511.5 240.167,511.5 232.5,511.5C 181.169,506.323 135.503,487.657 95.5,455.5C 95.3333,420.832 95.5,386.165 96,351.5C 101.284,328.549 115.451,314.715 138.5,310C 161.164,309.5 183.831,309.333 206.5,309.5 Z"/></g>
<g><path style="opacity:1" fill="#c5c6c6" d="M 304.5,309.5 C 327.169,309.333 349.836,309.5 372.5,310C 395.558,314.724 409.724,328.558 415,351.5C 415.5,386.165 415.667,420.832 415.5,455.5C 375.497,487.657 329.831,506.323 278.5,511.5C 270.833,511.5 263.167,511.5 255.5,511.5C 254.86,490.336 255.527,469.336 257.5,448.5C 254.876,444.921 254.876,441.421 257.5,438C 257,437.5 256.5,437 256,436.5C 255.5,422.171 255.333,407.837 255.5,393.5C 256.791,393.737 257.791,393.404 258.5,392.5C 262.02,391.817 264.52,389.817 266,386.5C 266.5,375.839 266.667,365.172 266.5,354.5C 289.937,348.721 302.603,333.721 304.5,309.5 Z"/></g>
</svg>
