<?xml version="1.0" standalone="no"?>
<!DOCTYPE svg PUBLIC "-//W3C//DTD SVG 20010904//EN"
 "http://www.w3.org/TR/2001/REC-SVG-20010904/DTD/svg10.dtd">
<svg version="1.0" xmlns="http://www.w3.org/2000/svg"
 width="512.000000pt" height="512.000000pt" viewBox="0 0 512.000000 512.000000"
 preserveAspectRatio="xMidYMid meet">

<g transform="translate(0.000000,512.000000) scale(0.100000,-0.100000)"
fill="#000000" stroke="none">
<path d="M2335 4500 c-295 -62 -556 -239 -721 -487 -57 -86 -123 -234 -151
-340 -25 -93 -27 -112 -31 -393 l-4 -295 30 40 c37 51 89 97 130 114 18 7 32
17 32 22 0 5 23 -6 50 -25 268 -185 749 -74 1091 252 65 62 94 83 103 76 7 -5
44 -33 82 -61 153 -117 377 -202 496 -189 l58 6 0 -35 c0 -29 5 -36 34 -50 55
-26 109 -79 141 -136 27 -48 30 -63 30 -139 0 -70 -4 -94 -25 -135 -30 -63
-97 -127 -154 -151 -38 -16 -46 -24 -51 -53 -13 -70 -68 -201 -117 -282 -87
-141 -253 -289 -395 -353 l-42 -19 6 -46 c12 -94 67 -179 147 -226 22 -13 190
-71 371 -130 328 -106 431 -149 542 -222 93 -61 231 -206 323 -340 l84 -123
34 33 c60 57 193 228 274 352 209 319 340 669 392 1053 9 62 16 135 16 163 l0
51 -892 900 c-535 539 -924 923 -970 958 -146 110 -305 182 -478 214 -115 22
-319 20 -435 -4z"/>
<path d="M1430 2062 c0 -370 3 -672 7 -672 4 0 139 43 299 95 302 99 346 119
398 188 32 42 56 109 56 158 0 37 -2 38 -78 79 -210 112 -364 298 -443 533
-37 110 -37 110 -84 132 -57 28 -89 57 -126 114 l-29 45 0 -672z"/>
</g>
</svg>
