<?xml version="1.0" encoding="UTF-8"?>
<!DOCTYPE svg PUBLIC "-//W3C//DTD SVG 1.1//EN" "http://www.w3.org/Graphics/SVG/1.1/DTD/svg11.dtd">
<svg xmlns="http://www.w3.org/2000/svg" version="1.1" width="512px" height="512px" style="shape-rendering:geometricPrecision; text-rendering:geometricPrecision; image-rendering:optimizeQuality; fill-rule:evenodd; clip-rule:evenodd" xmlns:xlink="http://www.w3.org/1999/xlink">
<g><path style="opacity:1" fill="#8d47a9" d="M 232.5,-0.5 C 247.833,-0.5 263.167,-0.5 278.5,-0.5C 364.978,9.80576 431.145,51.8058 477,125.5C 489.793,147.417 498.959,170.75 504.5,195.5C 504.42,198.781 505.087,201.781 506.5,204.5C 508.842,213.559 510.175,222.893 510.5,232.5C 510.631,233.239 510.464,233.906 510,234.5C 452.5,177 395,119.5 337.5,62C 336.552,61.5172 335.552,61.3505 334.5,61.5C 321.421,43.2591 304.588,29.5924 284,20.5C 275.502,27.4979 266.002,32.4979 255.5,35.5C 235.726,38.1545 216.393,42.6545 197.5,49C 170.671,62.4529 156.171,84.2862 154,114.5C 153.03,132.015 155.53,149.015 161.5,165.5C 159.254,167.649 157.754,170.316 157,173.5C 156.126,185.938 156.792,198.271 159,210.5C 163.263,219.551 170.429,223.885 180.5,223.5C 185.546,235.929 191.879,247.596 199.5,258.5C 199.5,262.5 199.5,266.5 199.5,270.5C 176.334,272.708 154.001,278.208 132.5,287C 112.265,297.634 107.932,312.801 119.5,332.5C 83.8845,337.279 61.0512,356.946 51,391.5C 49.9054,396.78 49.4054,402.113 49.5,407.5C 27.8804,378.882 13.047,346.882 5,311.5C 2.92685,300.394 1.09351,289.394 -0.5,278.5C -0.5,263.167 -0.5,247.833 -0.5,232.5C 4.88689,177.746 25.5536,129.746 61.5,88.5C 63.914,87.0892 65.5806,85.0892 66.5,82.5C 111.3,34.1 166.633,6.43335 232.5,-0.5 Z"/></g>
<g><path style="opacity:1" fill="#8a7c7b" d="M 334.5,61.5 C 349.77,85.2591 355.604,111.259 352,139.5C 350.945,147.273 349.445,154.939 347.5,162.5C 345.036,172.059 341.869,181.392 338,190.5C 335.033,166.644 328.033,143.977 317,122.5C 302.589,98.9698 282.089,91.3031 255.5,99.5C 255.5,78.1667 255.5,56.8333 255.5,35.5C 266.002,32.4979 275.502,27.4979 284,20.5C 304.588,29.5924 321.421,43.2591 334.5,61.5 Z"/></g>
<g><path style="opacity:1" fill="#9f9595" d="M 255.5,35.5 C 255.5,56.8333 255.5,78.1667 255.5,99.5C 228.729,91.0335 207.562,98.3668 192,121.5C 180.84,143.136 174.507,166.136 173,190.5C 168.622,182.41 164.788,174.077 161.5,165.5C 155.53,149.015 153.03,132.015 154,114.5C 156.171,84.2862 170.671,62.4529 197.5,49C 216.393,42.6545 235.726,38.1545 255.5,35.5 Z"/></g>
<g><path style="opacity:1" fill="#763a8e" d="M 334.5,61.5 C 335.552,61.3505 336.552,61.5172 337.5,62C 395,119.5 452.5,177 510,234.5C 510.464,233.906 510.631,233.239 510.5,232.5C 510.833,232.5 511.167,232.5 511.5,232.5C 511.5,247.833 511.5,263.167 511.5,278.5C 507.861,313.698 497.694,347.032 481,378.5C 475.42,388.89 468.92,398.556 461.5,407.5C 460.291,374.898 444.957,351.732 415.5,338C 407.776,334.902 399.776,333.069 391.5,332.5C 400.68,318.153 399.347,304.987 387.5,293C 381.79,289.145 375.79,285.812 369.5,283C 350.412,276.581 331.078,271.081 311.5,266.5C 311.5,264.167 311.5,261.833 311.5,259.5C 319.094,248.655 325.427,236.988 330.5,224.5C 340.31,224.309 347.476,219.976 352,211.5C 353.733,201.251 354.9,190.918 355.5,180.5C 354.972,173.453 352.306,167.453 347.5,162.5C 349.445,154.939 350.945,147.273 352,139.5C 355.604,111.259 349.77,85.2591 334.5,61.5 Z"/></g>
<g><path style="opacity:0.929" fill="#b2788f" d="M 66.5,82.5 C 65.5806,85.0892 63.914,87.0892 61.5,88.5C 62.4194,85.9108 64.086,83.9108 66.5,82.5 Z"/></g>
<g><path style="opacity:1" fill="#fec296" d="M 255.5,99.5 C 255.5,162.5 255.5,225.5 255.5,288.5C 232.488,286.331 213.821,276.331 199.5,258.5C 191.879,247.596 185.546,235.929 180.5,223.5C 170.429,223.885 163.263,219.551 159,210.5C 156.792,198.271 156.126,185.938 157,173.5C 157.754,170.316 159.254,167.649 161.5,165.5C 164.788,174.077 168.622,182.41 173,190.5C 174.507,166.136 180.84,143.136 192,121.5C 207.562,98.3668 228.729,91.0335 255.5,99.5 Z"/></g>
<g><path style="opacity:1" fill="#e9a677" d="M 347.5,162.5 C 352.306,167.453 354.972,173.453 355.5,180.5C 354.9,190.918 353.733,201.251 352,211.5C 347.476,219.976 340.31,224.309 330.5,224.5C 325.427,236.988 319.094,248.655 311.5,259.5C 297.088,277.042 278.421,286.709 255.5,288.5C 255.5,225.5 255.5,162.5 255.5,99.5C 282.089,91.3031 302.589,98.9698 317,122.5C 328.033,143.977 335.033,166.644 338,190.5C 341.869,181.392 345.036,172.059 347.5,162.5 Z"/></g>
<g><path style="opacity:0.78" fill="#b2798f" d="M 504.5,195.5 C 505.913,198.219 506.58,201.219 506.5,204.5C 505.087,201.781 504.42,198.781 504.5,195.5 Z"/></g>
<g><path style="opacity:1" fill="#eaa678" d="M 199.5,258.5 C 213.821,276.331 232.488,286.331 255.5,288.5C 255.5,303.5 255.5,318.5 255.5,333.5C 237.659,333.17 219.992,333.503 202.5,334.5C 201.542,334.047 200.708,333.381 200,332.5C 199.5,311.836 199.333,291.169 199.5,270.5C 199.5,266.5 199.5,262.5 199.5,258.5 Z"/></g>
<g><path style="opacity:1" fill="#d38c5b" d="M 311.5,259.5 C 311.5,261.833 311.5,264.167 311.5,266.5C 311.667,288.503 311.5,310.503 311,332.5C 310.292,333.381 309.458,334.047 308.5,334.5C 291.008,333.503 273.341,333.17 255.5,333.5C 255.5,318.5 255.5,303.5 255.5,288.5C 278.421,286.709 297.088,277.042 311.5,259.5 Z"/></g>
<g><path style="opacity:1" fill="#000000" d="M 311.5,266.5 C 331.078,271.081 350.412,276.581 369.5,283C 375.79,285.812 381.79,289.145 387.5,293C 399.347,304.987 400.68,318.153 391.5,332.5C 378.702,348.963 363.368,362.629 345.5,373.5C 335.965,379.765 326.298,385.765 316.5,391.5C 315.508,391.328 314.842,391.662 314.5,392.5C 295.238,402.964 275.571,412.631 255.5,421.5C 255.5,408.833 255.5,396.167 255.5,383.5C 273.493,367.506 291.16,351.173 308.5,334.5C 309.458,334.047 310.292,333.381 311,332.5C 311.5,310.503 311.667,288.503 311.5,266.5 Z"/></g>
<g><path style="opacity:1" fill="#2c2c2c" d="M 199.5,270.5 C 199.333,291.169 199.5,311.836 200,332.5C 200.708,333.381 201.542,334.047 202.5,334.5C 219.84,351.173 237.507,367.506 255.5,383.5C 255.5,396.167 255.5,408.833 255.5,421.5C 235.429,412.631 215.762,402.964 196.5,392.5C 196.158,391.662 195.492,391.328 194.5,391.5C 184.856,385.534 175.189,379.534 165.5,373.5C 150.654,364.304 137.154,353.304 125,340.5C 122.913,337.93 121.08,335.263 119.5,332.5C 107.932,312.801 112.265,297.634 132.5,287C 154.001,278.208 176.334,272.708 199.5,270.5 Z"/></g>
<g><path style="opacity:0.998" fill="#3e28df" d="M 119.5,332.5 C 121.08,335.263 122.913,337.93 125,340.5C 137.154,353.304 150.654,364.304 165.5,373.5C 165.5,400.5 165.5,427.5 165.5,454.5C 175.167,454.5 184.833,454.5 194.5,454.5C 195.167,433.833 195.833,413.167 196.5,392.5C 215.762,402.964 235.429,412.631 255.5,421.5C 255.5,451.5 255.5,481.5 255.5,511.5C 247.833,511.5 240.167,511.5 232.5,511.5C 164.565,504.116 107.732,475.116 62,424.5C 57.5911,418.937 53.4244,413.271 49.5,407.5C 49.4054,402.113 49.9054,396.78 51,391.5C 61.0512,356.946 83.8845,337.279 119.5,332.5 Z"/></g>
<g><path style="opacity:1" fill="#1a0099" d="M 391.5,332.5 C 399.776,333.069 407.776,334.902 415.5,338C 444.957,351.732 460.291,374.898 461.5,407.5C 423.774,458.561 373.774,491.394 311.5,506C 300.398,508.083 289.398,509.916 278.5,511.5C 270.833,511.5 263.167,511.5 255.5,511.5C 255.5,481.5 255.5,451.5 255.5,421.5C 275.571,412.631 295.238,402.964 314.5,392.5C 315.167,413.167 315.833,433.833 316.5,454.5C 326.167,454.5 335.833,454.5 345.5,454.5C 345.5,427.5 345.5,400.5 345.5,373.5C 363.368,362.629 378.702,348.963 391.5,332.5 Z"/></g>
<g><path style="opacity:1" fill="#fec295" d="M 255.5,333.5 C 255.5,350.167 255.5,366.833 255.5,383.5C 237.507,367.506 219.84,351.173 202.5,334.5C 219.992,333.503 237.659,333.17 255.5,333.5 Z"/></g>
<g><path style="opacity:1" fill="#eaa577" d="M 255.5,333.5 C 273.341,333.17 291.008,333.503 308.5,334.5C 291.16,351.173 273.493,367.506 255.5,383.5C 255.5,366.833 255.5,350.167 255.5,333.5 Z"/></g>
<g><path style="opacity:1" fill="#fffefe" d="M 165.5,373.5 C 175.189,379.534 184.856,385.534 194.5,391.5C 194.5,412.5 194.5,433.5 194.5,454.5C 184.833,454.5 175.167,454.5 165.5,454.5C 165.5,427.5 165.5,400.5 165.5,373.5 Z"/></g>
<g><path style="opacity:1" fill="#d3d2d2" d="M 345.5,373.5 C 345.5,400.5 345.5,427.5 345.5,454.5C 335.833,454.5 326.167,454.5 316.5,454.5C 316.5,433.5 316.5,412.5 316.5,391.5C 326.298,385.765 335.965,379.765 345.5,373.5 Z"/></g>
<g><path style="opacity:1" fill="#bbb4f2" d="M 194.5,391.5 C 195.492,391.328 196.158,391.662 196.5,392.5C 195.833,413.167 195.167,433.833 194.5,454.5C 194.5,433.5 194.5,412.5 194.5,391.5 Z"/></g>
<g><path style="opacity:1" fill="#9389bd" d="M 314.5,392.5 C 314.842,391.662 315.508,391.328 316.5,391.5C 316.5,412.5 316.5,433.5 316.5,454.5C 315.833,433.833 315.167,413.167 314.5,392.5 Z"/></g>
</svg>
