<?xml version="1.0" encoding="UTF-8"?>
<!DOCTYPE svg PUBLIC "-//W3C//DTD SVG 1.1//EN" "http://www.w3.org/Graphics/SVG/1.1/DTD/svg11.dtd">
<svg xmlns="http://www.w3.org/2000/svg" version="1.1" width="512px" height="512px" style="shape-rendering:geometricPrecision; text-rendering:geometricPrecision; image-rendering:optimizeQuality; fill-rule:evenodd; clip-rule:evenodd" xmlns:xlink="http://www.w3.org/1999/xlink">
<g><path style="opacity:0.995" fill="#fae17f" d="M 232.5,-0.5 C 247.833,-0.5 263.167,-0.5 278.5,-0.5C 368.144,10.3879 435.644,54.7213 481,132.5C 497.695,163.971 507.861,197.304 511.5,232.5C 511.5,236.167 511.5,239.833 511.5,243.5C 458.167,190.5 404.833,137.5 351.5,84.5C 345.884,77.0542 338.884,71.2209 330.5,67C 311.126,43.6478 286.126,31.4812 255.5,30.5C 221.767,29.0151 193.267,40.3484 170,64.5C 157.656,82.2074 152.656,101.874 155,123.5C 156.2,133.63 158.033,143.63 160.5,153.5C 157.46,157.066 154.96,161.066 153,165.5C 152.004,169.431 151.504,173.431 151.5,177.5C 152.02,185.832 152.52,194.165 153,202.5C 154.425,209.07 157.925,214.07 163.5,217.5C 170.119,224.785 177.119,231.785 184.5,238.5C 188.993,246.143 193.993,253.476 199.5,260.5C 199.5,282.5 199.5,304.5 199.5,326.5C 171.662,326.169 143.995,326.502 116.5,327.5C 90.9455,332.554 75.4455,347.887 70,373.5C 69.5,392.83 69.3334,412.164 69.5,431.5C 40.0161,400.894 19.5161,364.894 8,323.5C 4.06894,308.562 1.23561,293.562 -0.5,278.5C -0.5,263.167 -0.5,247.833 -0.5,232.5C 10.3875,142.857 54.7208,75.3573 132.5,30C 163.971,13.3053 197.304,3.1386 232.5,-0.5 Z"/></g>
<g><path style="opacity:1" fill="#222120" d="M 255.5,30.5 C 255.5,63.5 255.5,96.5 255.5,129.5C 228.757,128.123 206.923,137.789 190,158.5C 183.641,167.214 178.308,176.547 174,186.5C 168.6,175.785 164.1,164.785 160.5,153.5C 158.033,143.63 156.2,133.63 155,123.5C 152.656,101.874 157.656,82.2074 170,64.5C 193.267,40.3484 221.767,29.0151 255.5,30.5 Z"/></g>
<g><path style="opacity:1" fill="#000000" d="M 255.5,30.5 C 286.126,31.4812 311.126,43.6478 330.5,67C 338.884,71.2209 345.884,77.0542 351.5,84.5C 358.633,101.186 360.466,118.519 357,136.5C 355.496,143.181 353.996,149.847 352.5,156.5C 348.653,166.853 344.487,177.187 340,187.5C 326.972,166.107 316.638,143.44 309,119.5C 291.827,126.101 273.994,129.434 255.5,129.5C 255.5,96.5 255.5,63.5 255.5,30.5 Z"/></g>
<g><path style="opacity:1" fill="#eec859" d="M 351.5,84.5 C 404.833,137.5 458.167,190.5 511.5,243.5C 511.5,255.167 511.5,266.833 511.5,278.5C 505.481,337.613 482.148,388.613 441.5,431.5C 441.667,412.164 441.5,392.83 441,373.5C 436.137,349.637 421.97,334.47 398.5,328C 379.88,326.566 361.214,326.066 342.5,326.5C 332.167,326.5 321.833,326.5 311.5,326.5C 311.5,304.833 311.5,283.167 311.5,261.5C 321.035,249.108 328.535,235.441 334,220.5C 351.697,219.793 360.031,210.459 359,192.5C 359.667,184.167 359.667,175.833 359,167.5C 357.436,163.445 355.269,159.779 352.5,156.5C 353.996,149.847 355.496,143.181 357,136.5C 360.466,118.519 358.633,101.186 351.5,84.5 Z"/></g>
<g><path style="opacity:1" fill="#e9a577" d="M 352.5,156.5 C 355.269,159.779 357.436,163.445 359,167.5C 359.667,175.833 359.667,184.167 359,192.5C 360.031,210.459 351.697,219.793 334,220.5C 328.535,235.441 321.035,249.108 311.5,261.5C 296.273,277.446 277.606,286.446 255.5,288.5C 255.5,235.5 255.5,182.5 255.5,129.5C 273.994,129.434 291.827,126.101 309,119.5C 316.638,143.44 326.972,166.107 340,187.5C 344.487,177.187 348.653,166.853 352.5,156.5 Z"/></g>
<g><path style="opacity:1" fill="#fec296" d="M 255.5,129.5 C 255.5,182.5 255.5,235.5 255.5,288.5C 232.947,286.557 214.28,277.224 199.5,260.5C 193.993,253.476 188.993,246.143 184.5,238.5C 181.909,232.565 179.409,226.565 177,220.5C 172.371,219.989 167.871,218.989 163.5,217.5C 157.925,214.07 154.425,209.07 153,202.5C 152.52,194.165 152.02,185.832 151.5,177.5C 151.504,173.431 152.004,169.431 153,165.5C 154.96,161.066 157.46,157.066 160.5,153.5C 164.1,164.785 168.6,175.785 174,186.5C 178.308,176.547 183.641,167.214 190,158.5C 206.923,137.789 228.757,128.123 255.5,129.5 Z"/></g>
<g><path style="opacity:1" fill="#efc75b" d="M 163.5,217.5 C 167.871,218.989 172.371,219.989 177,220.5C 179.409,226.565 181.909,232.565 184.5,238.5C 177.119,231.785 170.119,224.785 163.5,217.5 Z"/></g>
<g><path style="opacity:1" fill="#eaa678" d="M 199.5,260.5 C 214.28,277.224 232.947,286.557 255.5,288.5C 255.5,301.167 255.5,313.833 255.5,326.5C 236.833,326.5 218.167,326.5 199.5,326.5C 199.5,304.5 199.5,282.5 199.5,260.5 Z"/></g>
<g><path style="opacity:1" fill="#d38c5b" d="M 311.5,261.5 C 311.5,283.167 311.5,304.833 311.5,326.5C 292.833,326.5 274.167,326.5 255.5,326.5C 255.5,313.833 255.5,301.167 255.5,288.5C 277.606,286.446 296.273,277.446 311.5,261.5 Z"/></g>
<g><path style="opacity:1" fill="#be6726" d="M 116.5,327.5 C 143.995,326.502 171.662,326.169 199.5,326.5C 199.823,357.995 215.157,377.828 245.5,386C 248.817,386.498 252.15,386.665 255.5,386.5C 255.5,396.833 255.5,407.167 255.5,417.5C 209.495,414.252 180.995,390.252 170,345.5C 169.037,339.535 168.537,333.535 168.5,327.5C 151.167,327.5 133.833,327.5 116.5,327.5 Z"/></g>
<g><path style="opacity:1" fill="#af5e22" d="M 311.5,326.5 C 321.833,326.5 332.167,326.5 342.5,326.5C 340.946,374.461 316.946,404.294 270.5,416C 265.519,416.748 260.519,417.248 255.5,417.5C 255.5,407.167 255.5,396.833 255.5,386.5C 291.67,382.993 310.337,362.993 311.5,326.5 Z"/></g>
<g><path style="opacity:0.998" fill="#af5e22" d="M 116.5,327.5 C 133.833,327.5 151.167,327.5 168.5,327.5C 168.537,333.535 169.037,339.535 170,345.5C 180.995,390.252 209.495,414.252 255.5,417.5C 255.5,448.833 255.5,480.167 255.5,511.5C 248.167,511.5 240.833,511.5 233.5,511.5C 207.048,508.804 181.382,502.471 156.5,492.5C 156.5,468.167 156.5,443.833 156.5,419.5C 145.833,419.5 135.167,419.5 124.5,419.5C 124.5,438.167 124.5,456.833 124.5,475.5C 103.853,463.866 85.5195,449.2 69.5,431.5C 69.3334,412.164 69.5,392.83 70,373.5C 75.4455,347.887 90.9455,332.554 116.5,327.5 Z"/></g>
<g><path style="opacity:1" fill="#fec296" d="M 199.5,326.5 C 218.167,326.5 236.833,326.5 255.5,326.5C 255.5,346.5 255.5,366.5 255.5,386.5C 252.15,386.665 248.817,386.498 245.5,386C 215.157,377.828 199.823,357.995 199.5,326.5 Z"/></g>
<g><path style="opacity:1" fill="#e9a577" d="M 255.5,326.5 C 274.167,326.5 292.833,326.5 311.5,326.5C 310.337,362.993 291.67,382.993 255.5,386.5C 255.5,366.5 255.5,346.5 255.5,326.5 Z"/></g>
<g><path style="opacity:1" fill="#89491d" d="M 342.5,326.5 C 361.214,326.066 379.88,326.566 398.5,328C 421.97,334.47 436.137,349.637 441,373.5C 441.5,392.83 441.667,412.164 441.5,431.5C 425.48,449.2 407.147,463.866 386.5,475.5C 386.5,456.833 386.5,438.167 386.5,419.5C 375.833,419.5 365.167,419.5 354.5,419.5C 354.169,443.672 354.502,467.672 355.5,491.5C 330.836,502.083 305.169,508.749 278.5,511.5C 270.833,511.5 263.167,511.5 255.5,511.5C 255.5,480.167 255.5,448.833 255.5,417.5C 260.519,417.248 265.519,416.748 270.5,416C 316.946,404.294 340.946,374.461 342.5,326.5 Z"/></g>
<g><path style="opacity:1" fill="#89491d" d="M 156.5,492.5 C 145.196,487.85 134.529,482.184 124.5,475.5C 124.5,456.833 124.5,438.167 124.5,419.5C 135.167,419.5 145.833,419.5 156.5,419.5C 156.5,443.833 156.5,468.167 156.5,492.5 Z"/></g>
<g><path style="opacity:1" fill="#683310" d="M 386.5,475.5 C 376.927,482.121 366.594,487.454 355.5,491.5C 354.502,467.672 354.169,443.672 354.5,419.5C 365.167,419.5 375.833,419.5 386.5,419.5C 386.5,438.167 386.5,456.833 386.5,475.5 Z"/></g>
</svg>
