<?xml version="1.0" standalone="no"?>
<!DOCTYPE svg PUBLIC "-//W3C//DTD SVG 20010904//EN"
 "http://www.w3.org/TR/2001/REC-SVG-20010904/DTD/svg10.dtd">
<svg version="1.0" xmlns="http://www.w3.org/2000/svg"
 width="512.000000pt" height="512.000000pt" viewBox="0 0 512.000000 512.000000"
 preserveAspectRatio="xMidYMid meet">

<g transform="translate(0.000000,512.000000) scale(0.100000,-0.100000)"
fill="#000000" stroke="none">
<path d="M2361 5110 c-372 -31 -747 -146 -1058 -323 -1010 -577 -1505 -1739
-1219 -2863 117 -460 364 -880 710 -1212 59 -56 120 -111 137 -122 l29 -21 0
305 0 306 275 0 275 0 0 -479 0 -478 75 -32 c41 -17 110 -43 153 -57 582 -191
1200 -175 1765 46 l107 42 0 479 0 479 275 0 275 0 0 -311 0 -311 63 54 c34
29 106 97 159 150 346 349 590 806 688 1288 21 102 22 114 40 352 30 396 -48
826 -221 1212 -356 795 -1125 1367 -1989 1480 -148 19 -406 27 -539 16z m779
-2018 l0 -449 -65 -90 -65 -90 0 -222 0 -221 175 0 175 0 0 -195 0 -195 -800
0 -800 0 0 195 0 195 175 0 175 0 0 221 0 220 -65 91 -65 91 0 432 c0 455 -1
446 45 458 11 2 266 5 568 6 l547 1 0 -448z m-1630 -1267 l0 -195 -265 0
c-307 0 -288 -9 -228 111 82 164 258 276 436 278 l57 1 0 -195z m2263 180
c146 -38 265 -133 330 -264 60 -120 79 -111 -228 -111 l-265 0 0 195 0 195 53
0 c29 0 79 -7 110 -15z"/>
</g>
</svg>
