<?xml version="1.0" standalone="no"?>
<!DOCTYPE svg PUBLIC "-//W3C//DTD SVG 20010904//EN"
 "http://www.w3.org/TR/2001/REC-SVG-20010904/DTD/svg10.dtd">
<svg version="1.0" xmlns="http://www.w3.org/2000/svg"
 width="512.000000pt" height="512.000000pt" viewBox="0 0 512.000000 512.000000"
 preserveAspectRatio="xMidYMid meet">

<g transform="translate(0.000000,512.000000) scale(0.100000,-0.100000)"
fill="#000000" stroke="none">
<path d="M2915 2620 c10 -11 20 -20 23 -20 3 0 -3 9 -13 20 -10 11 -20 20 -23
20 -3 0 3 -9 13 -20z"/>
<path d="M2573 1903 c9 -2 23 -2 30 0 6 3 -1 5 -18 5 -16 0 -22 -2 -12 -5z"/>
<path d="M1094 1805 c-180 -39 -314 -181 -343 -365 -6 -36 -11 -203 -11 -371
l0 -307 68 -64 c167 -157 405 -325 601 -423 161 -81 426 -176 555 -200 l36 -7
0 876 0 876 -422 -1 c-312 0 -439 -4 -484 -14z"/>
<path d="M3120 941 l0 -880 113 31 c393 105 778 320 1073 600 l74 71 0 323 c0
199 -4 343 -11 376 -25 119 -97 221 -202 289 -100 65 -138 69 -621 69 l-426 0
0 -879z"/>
</g>
</svg>
