<?xml version="1.0" standalone="no"?>
<!DOCTYPE svg PUBLIC "-//W3C//DTD SVG 20010904//EN"
 "http://www.w3.org/TR/2001/REC-SVG-20010904/DTD/svg10.dtd">
<svg version="1.0" xmlns="http://www.w3.org/2000/svg"
 width="512.000000pt" height="512.000000pt" viewBox="0 0 512.000000 512.000000"
 preserveAspectRatio="xMidYMid meet">

<g transform="translate(0.000000,512.000000) scale(0.100000,-0.100000)"
fill="#000000" stroke="none">
<path d="M2325 5109 c-471 -44 -930 -223 -1314 -513 -119 -89 -319 -281 -423
-406 -416 -498 -635 -1189 -579 -1830 46 -530 240 -1013 568 -1417 73 -91 357
-373 374 -373 5 0 9 132 9 305 l0 305 275 0 275 0 0 -479 0 -479 77 -32 c187
-78 407 -137 638 -171 139 -21 550 -18 700 5 173 26 406 88 555 146 l130 52 0
479 0 479 275 0 275 0 0 -311 0 -311 53 43 c82 68 266 256 340 349 253 315
438 704 515 1085 22 107 25 131 43 330 39 429 -53 908 -251 1313 -192 394
-486 737 -841 984 -491 342 -1100 502 -1694 447z m445 -754 c93 -24 234 -95
308 -155 118 -96 222 -265 262 -425 12 -44 23 -129 26 -190 4 -102 6 -111 30
-130 14 -11 26 -27 27 -35 2 -8 7 -22 12 -30 29 -45 31 -56 19 -143 -13 -98
-49 -183 -93 -220 -27 -22 -30 -34 -75 -312 -63 -388 -61 -380 -68 -265 -7 99
-34 240 -47 240 -4 0 -44 -51 -89 -114 l-82 -115 0 -205 c0 -112 3 -211 6
-220 5 -14 46 -16 358 -16 284 0 363 -3 411 -15 141 -37 264 -136 329 -265 20
-40 36 -81 36 -91 0 -18 -45 -19 -1585 -19 -1540 0 -1585 1 -1585 19 0 10 16
51 36 91 65 129 188 228 329 265 48 12 127 15 412 15 l353 0 0 221 0 221 -91
129 c-102 144 -144 238 -155 342 -7 64 -7 66 -33 61 -36 -7 -85 27 -121 82
-35 57 -64 177 -57 239 8 63 41 133 70 146 23 10 24 17 30 122 21 411 269 708
652 783 89 17 286 11 375 -11z"/>
</g>
</svg>
