<?xml version="1.0" standalone="no"?>
<!DOCTYPE svg PUBLIC "-//W3C//DTD SVG 20010904//EN"
 "http://www.w3.org/TR/2001/REC-SVG-20010904/DTD/svg10.dtd">
<svg version="1.0" xmlns="http://www.w3.org/2000/svg"
 width="512.000000pt" height="512.000000pt" viewBox="0 0 512.000000 512.000000"
 preserveAspectRatio="xMidYMid meet">

<g transform="translate(0.000000,512.000000) scale(0.100000,-0.100000)"
fill="#FFFFFF" stroke="none">
<path d="M1235 4684 c-164 -35 -242 -63 -340 -122 -237 -140 -399 -371 -451
-640 -21 -109 -21 -2615 0 -2724 70 -363 336 -645 702 -744 64 -18 115 -19
754 -19 l685 0 88 28 c341 106 578 359 664 705 13 50 17 115 17 263 l1 195
-29 38 c-71 93 -196 87 -263 -13 -21 -32 -23 -45 -23 -185 0 -183 -15 -262
-71 -375 -76 -154 -222 -274 -389 -320 -72 -20 -99 -21 -685 -21 -513 0 -620
2 -670 15 -221 56 -404 239 -460 460 -23 89 -23 2581 0 2670 56 221 239 404
460 460 86 22 1239 22 1332 0 175 -41 332 -165 413 -324 53 -106 62 -153 67
-349 5 -166 7 -186 27 -215 38 -56 83 -79 144 -75 56 5 91 25 126 72 19 24 21
45 24 173 4 181 -9 290 -52 416 -58 169 -177 336 -318 445 -77 59 -210 127
-313 159 l-90 28 -665 1 c-366 1 -674 0 -685 -2z"/>
<path d="M3954 3326 c-66 -29 -103 -113 -84 -188 10 -37 38 -69 203 -230 l192
-188 -1122 -2 c-1115 -3 -1122 -3 -1149 -24 -53 -39 -69 -71 -69 -134 0 -63
16 -95 69 -134 27 -21 34 -21 1148 -24 l1120 -2 -190 -188 c-164 -160 -192
-193 -202 -229 -35 -138 103 -249 228 -184 20 11 184 167 364 348 277 279 328
334 339 371 25 87 22 92 -339 455 -180 181 -344 337 -364 348 -43 22 -100 24
-144 5z"/>
</g>
</svg>
