<?xml version="1.0" encoding="UTF-8"?>
<svg id="Calque_2" data-name="Calque 2" xmlns="http://www.w3.org/2000/svg" viewBox="0 0 284.14 284.14">
  <defs>
    <style>
      .cls-1 {
        fill: #fff;
      }

      .cls-2 {
        fill: #7175d4;
      }
    </style>
  </defs>
  <g id="Calque_1-2" data-name="Calque 1">
    <circle class="cls-1" cx="142.07" cy="142.07" r="142.07"/>
    <g>
      <path class="cls-2" d="m85.06,50.52c1.3,5.1,8.2,15.3,14.9,21.8,11.5,11.2,26.2,17.1,42.7,17,10.3,0,19.1-2.1,28.8-6.9,9.6-4.7,20.4-15.3,24.9-24.4,5.3-10.9,6.1-10-8.8-10h-13l-4.9,5.3c-6.5,7.2-14.7,10.9-25.1,11.5-12.1.7-21.3-3-29.7-12.2l-4.2-4.6h-26.2l.6,2.5Z"/>
      <path class="cls-2" d="m47.66,97.12v13.1l5.1,4.5c2.9,2.6,6.4,7.2,8.2,10.7,2.9,5.6,3.1,6.9,3.2,16.1,0,9.3-.2,10.5-3.2,16.6-2,4-5.3,8.5-8.3,11.3l-5,4.7v26.8l8.2-4.1c13.5-6.9,24.4-19.3,30.1-34.4,1.9-5.1,2.2-7.9,2.2-19.9s-.3-14.9-2.4-20.8c-3.2-9.4-11.3-21.1-18.6-27-5-4-16.8-10.7-18.9-10.7-.3,0-.6,5.9-.6,13.1Z"/>
      <path class="cls-2" d="m228.66,87.32c-9.2,4.5-21.6,17-26.2,26.2s-6.8,18.3-6.8,29.1,1.8,18.5,6.8,28.4c6.1,12.3,20.3,24.9,32,28.5l2.2.6v-13.5c0-7.5-.4-13.6-.9-13.6s-2.8-1.9-5.1-4.2c-8.7-8.6-12.6-22.5-10-34.9,1.5-7.1,7.1-16.4,12.4-20.4l3.6-2.7v-13.4c0-7.4-.3-13.4-.7-13.4-.5,0-3.7,1.5-7.3,3.3Z"/>
      <path class="cls-2" d="m133.66,119.22c-5.4,1.8-13.4,10.4-14.9,16.1-3.7,13.3,3.6,26.5,16.8,30.3,9.5,2.8,19.6-.5,25.6-8.3,12-15.7,1.9-37.8-17.8-38.9-3.4-.2-7.8.2-9.7.8Z"/>
      <path class="cls-2" d="m127.26,196.62c-16.9,4.1-32.8,16.6-39.9,31.4l-3.6,7.5,12.9.3,13,.3,5.3-5.4c15.5-15.5,39.7-15.3,54.4.6l4.8,5.2,12.8-.3c9.2-.2,12.7-.6,12.7-1.5-.1-2.2-5.5-11.7-9.9-17.2-14.3-17.9-39.7-26.4-62.5-20.9Z"/>
    </g>
  </g>
</svg>